/* XPM */
static char *bc3b13307c9c4aebc760c8ee46c4c636RCi1lShlWRgyNTOg[] = {
/* columns rows colors chars-per-pixel */
"64 64 194 2 ",
"   c #05050E",
".  c #0C0B0C",
"X  c #110D0F",
"o  c #070A10",
"O  c #0C0C11",
"+  c #120D12",
"@  c #0D1112",
"#  c #141314",
"$  c #1B1415",
"%  c #151915",
"&  c #1B1B16",
"*  c #1A1A19",
"=  c #1F1B19",
"-  c #221615",
";  c #261718",
":  c #241B19",
">  c #2B1D1A",
",  c #371C1C",
"<  c #1B2217",
"1  c #1E2619",
"2  c #182818",
"3  c #2C221B",
"4  c #222B1B",
"5  c #282A1C",
"6  c #33251D",
"7  c #36281E",
"8  c #3B2A1E",
"9  c #29331D",
"0  c #2A381E",
"q  c #1F3125",
"w  c #2D2723",
"e  c #332D27",
"r  c #3C2D21",
"t  c #2F3C20",
"y  c #2B3229",
"u  c #3D3022",
"i  c #3A3829",
"p  c #43311F",
"a  c #422A20",
"s  c #433223",
"d  c #4B3524",
"f  c #4C3926",
"g  c #533B26",
"h  c #593E26",
"j  c #593E28",
"k  c #443C32",
"l  c #652625",
"z  c #6C2627",
"x  c #6D2927",
"c  c #772829",
"v  c #334322",
"b  c #394B24",
"n  c #374928",
"m  c #3E5327",
"M  c #335134",
"N  c #326327",
"B  c #57442C",
"V  c #5C4129",
"C  c #425728",
"Z  c #455B2A",
"A  c #445D2A",
"S  c #63462B",
"D  c #644A2D",
"F  c #6C4B2D",
"G  c #704E2F",
"H  c #73502F",
"J  c #644C31",
"K  c #6C4D31",
"L  c #704F31",
"P  c #6D5333",
"I  c #755131",
"U  c #7B5532",
"Y  c #7E5833",
"T  c #795938",
"R  c #4A622C",
"E  c #4D6A2E",
"W  c #506D2E",
"Q  c #536F30",
"!  c #557431",
"~  c #5B7C34",
"^  c #3F7751",
"/  c #842B2B",
"(  c #902F2E",
")  c #9D3030",
"_  c #A43131",
"`  c #805733",
"'  c #865B35",
"]  c #895E36",
"[  c #815C3A",
"{  c #8D6037",
"}  c #83633A",
"|  c #8B623B",
" . c #906237",
".. c #936438",
"X. c #98673A",
"o. c #936A3D",
"O. c #9C6B3C",
"+. c #9B703F",
"@. c #A26E3D",
"#. c #A6713F",
"$. c #A9723F",
"%. c #A16F40",
"&. c #AD7541",
"*. c #A67A44",
"=. c #AD7B44",
"-. c #B17742",
";. c #B47A43",
":. c #B97F46",
">. c #519033",
",. c #628536",
"<. c #638937",
"1. c #668B38",
"2. c #6C943B",
"3. c #6E983C",
"4. c #719B3D",
"5. c #54AB39",
"6. c #4EB137",
"7. c #56B639",
"8. c #6ABE2E",
"9. c #75A13F",
"0. c #67BB34",
"q. c #62B63E",
"w. c #6CBA3F",
"e. c #76BD3B",
"r. c #7ABE3D",
"t. c #72C236",
"y. c #498A5A",
"u. c #499557",
"i. c #56975B",
"p. c #6E9850",
"a. c #5DAA45",
"s. c #69AE4D",
"d. c #77A440",
"f. c #7CAB42",
"g. c #6AB347",
"h. c #6BB840",
"j. c #7FB044",
"k. c #74BB43",
"l. c #7BBC44",
"z. c #76B44C",
"x. c #7EB64C",
"c. c #7EBA4A",
"v. c #63A555",
"b. c #69A953",
"n. c #78A657",
"m. c #71AC53",
"M. c #7BAC55",
"N. c #7CAD59",
"B. c #7BB653",
"V. c #438A62",
"C. c #4B9562",
"Z. c #599563",
"A. c #668B67",
"S. c #6D966E",
"D. c #76A560",
"F. c #B1E71F",
"G. c #97CE3E",
"H. c #9CD434",
"J. c #9BD23A",
"K. c #A6DC32",
"L. c #A9DE30",
"P. c #BCF021",
"I. c #AA8047",
"U. c #AC8449",
"Y. c #B78146",
"T. c #BC8146",
"R. c #BD8448",
"E. c #B4884A",
"W. c #BD8A4B",
"Q. c #81B445",
"!. c #84BB46",
"~. c #83B74D",
"^. c #83BC4B",
"/. c #88BE49",
"(. c #81B453",
"). c #85B657",
"_. c #C0884A",
"`. c #C4914D",
"'. c #C8914E",
"]. c #C69651",
"[. c #CB9952",
"{. c #D19C53",
"}. c #84C046",
"|. c #8CC446",
" X c #87C049",
".X c #89C049",
"XX c #8AC349",
"oX c #8BC34A",
"OX c #8CC54A",
"+X c #8DC64A",
"@X c #8FC94B",
"#X c #93CA41",
"$X c #91CC4C",
"%X c #91CD4D",
/* pixels */
"oXoXoXoXoXoXoXoXoXoXoX/.oXoX/..X|.^.N.M.b.m.^.~.w.k.~.~./.}.oXoXoX.XoXoXoXoXoXoXoXoX/.XX Xr.e.!.+XXX XXX XoXoXoXoXoXoXoXoXoXoXoX",
"oXoXoXoXoXoXoXoXoXoXoXoXoXoX$X/.Q.@X$XoX|..X.X.XOXOXOX/.oXoXoXoX|..XoXoXoXoXoXoXoX XXXXX/.8.t./.j.@X@XXXoXoX.XoXoXoXoXoXoXoXoXoX",
"oXoXoXoXoXoXoXOXoXoXoXoXXXXX,.4 # b d.%XOX/.oXoXoXoXoX/.OXoXoXOXXXoXoXoXoXoXoXoXoXoXoXoX@X0.N 1 % C Q.XXoXoXXXXXoXoXoXoXoXoXoXoX",
"oXoXoXoXoXoXoXXXoXoXoX/.@X2.. 8 S $ # A !.$XoXoX/.oXoXOX.XoX XXXOXoXoXoXoXoXoXoXoXoXOX@X<.2 # d V # v OXOXXXXXXXoXoXoXoXoXoXoXoX",
"oXoXoXoXoXoXXXXXoXoXXXXXXX0 : { ;.@.S # = ~ OX@X/.oXOXoXoX.XXXXX.X.X.XoXoXoXoX XOX%Xd.v o s o.-.@.V + 1.$X.X/.XXoXoXoXoXoXoXoXoX",
"oXoXoXoXoXoXXX.XoXoXOX@Xd.# V { { -.;.o.f o t 4.$XoX/.oX.XoXXX.XOXOXOXOX/./.oX@X^.E # : } :.-.X.Y ' $ A $X.XoXoXoXoXoXoXoXoXoXoX",
"oXoXoXoXoXoXoXoXoXoXXX@X<.$ G ] ` X.&.-.T.} 3 O R Q.$X$X@X|./././.!.oXXX$X%XOX1.1 + D E.:.&.O.' ' { 6 v |.oX/.oXoXoXoXoXoXoXoXoX",
"oXoXoXoXoXoX/.oX XoX X%X! $ Y ] ' ' #.&.$.Y.W.J + < ! W v 4 % % % % 2 0 C ~ n . r *.'.-.@.&.] ' ] ] p 4 /.OX|.oXoXoXoXoXoXoXoXoX",
"oXXX XoXXXXXXXXXoXoXoX$XA - ' ] ] ' ] &.&.%.-.'.U.s + = r g J J F D B s > # = } [.W.%.&.-. .' ] ` { g % j.@XOX.XoXoXoXoXoXoXoXoX",
"oXoXoX/.OX.XoX XoX/.XX@Xb > { ' ' ' ' ..-.-.&.$.W.].U.W.[.[.[.{.[.{.{.[.].U.E.[.;.&.&.&.X.' ] ` D ` S # 4.@X.X.XoXoXoXoXoXoXoXoX",
"oXoXoXoXoXoXoX X/.oXoXXX0 6 { ' ' ] ' ' @.&.&.&.&.;.R.Y.=.=.&.&.&.&.=.;.T.W.W.&.&.&.&.%.' ' ] Y I ' F # 2.$X.X.XoXoXoXoXoXoXoXoX",
"/.oXoXoX/.c.c.oXXXoXoX.Xv 3 ] ' ] ' ] ' ] &.&.&.&.&.&.&.&.&.&.&.&.&.&.&.&.&.&.&.&.-.&.#.' ] ] ' T I V # 3.$XoXoXoXoXoXoXoXoXoXoX",
"XXoXoX/. Xc.^. XoX/.oX%Xm : ] ] ' ] ] ' ] &.&.&.&.&.&.&.&.&.&.&.&.&.&.&.&.&.&.&.&.&.&.%.{ ] ' ] D D g % f.@X.X|.oXoXoXoXoXoXoXoX",
"XXXXoX^.^./. X^.^./.c.OX! $ Y ] ' ] ' ' ] &.=.&.&.&.&.=.&.&.&.-.#.+.&.&.&.&.&.&.&.&.-.@.] ' ] ] Y Y d < /.OX.X.XoXoXoXoXoXoXoXoX",
".X/. Xc.c.oXoXc.c.x.c.oX,.# G ] ' ' ] ] ' %.&.&.&.&.&.&.&.&.@.&.O.| &.&.&.&.&.&.&.&.-.@.Y ] ] ' ' { 6 t OX.X.X.XoXoXoXoXoXoXoXoX",
"XXoX X/./. X X/././.oXOX9.# S  .' ] ' ] ' @.&.&.&.&.&.&.&.&.[ T O.&.&.&.-.&.&.&.&.&.-...' ] ' ] ] ] ; A $X.X.XoXoXoXoXoXoXoXoXoX",
"XXXXoX XoX/.oXoXoX/.XXXX/.1 8 ] ' ' ' ] ' ..$.&.&.&.&.&.&.&.| T +.-.&.-.&.&.&.&.-.&.-.] ' ] ] ' ] F + ~ $XXXoXoXoXoXoXoXoXoXoXoX",
"XXXXoXoXoXoXoXoXoXoXXXXX$XR $ Y ] ] ' ] ' Y #.&.&.&.&.&.&.&.&.&.&.&.&.&.&.&.&.&.&.-.@.] ' ] ' ' { d % Q.OX.X|.OXoXoXoXoXoXoXoXoX",
"XXXXXXOXoX/. XoXoX/.OXXX@X2.# D ] ] ] ] ] ' ] $.-.&.-.;.&.&.-.&.&.-.&.&.&.&.&.&.&.&...` ' ' ] ' ] > b @X.X.XoXoXoXoXoXoXoXoXoXoX",
"OXXXXXXXoXoXoXoXoXoX/.XXXX/.< a { ' ' ' ' ] ' { $.-.$.$.&.&.&.&.&.&.&.&.&.&.&.&.&.X.' ' ] ] ] ] H + ~ %X/..XoXoXoXoXoXoXoXoXoXoX",
"oXoXoXoXXXXXXXXXoXoX.XOXoX$XR + U ] ' ' ' ' ] ' ] O.$.$.-.&.&.&.&.&.&.&.&.&.&.#...' ' ' ' ] ' ] s % Q.OX/.oX/.OXoXoXoXoXoXoXoXoX",
"oXoXoXoXoXoXoXXXoXoX|..X/.OXf.% g { ' ] ] ] ' ' ' ' ] ..O.%.&.&.&.-.&.&.O.X...' ' ] ] ' ' ' ] Y # R %X/..X.XOXXXoXoXoXoXoXoXoXoX",
"oXoXoXoXoXoXoXoXOXoX.X.X.X$X,.+ V { ' ' ] ' ] ] ' ' ' ] Y S d s p s g F ' ] ' ' ' ' ' ] ' ] ] ' : t OXOXOXXXOXOXoXoXoXoXoXoXoXoX",
"oXoXoXoXoXoXoXoXOXOX.X.XoX/.9 3 ] ' ' ] ' ' ` U ' ] ' V : O $ ; ; ; # o 3 S ] ] ' ] ' ] ' ] ' ] S O <.%X/..X.XOXoXoXoXoXoXoXoXoX",
"oXoXoXoXoXoXoXoXoXoXoXoX$X2.# S { ' ] ' ] ] I D { Y 3 O , c ) _ _ _ ) x > O r ' ] ' ] ] ' ' ' ' ' ; b @X.X.XoXoXoXoXoXoXoXoXoXoX",
"oXoXoXoXoXoXoXoXoXoXoXoX@XC $ ` ] ' ] ' ' ' ' F P > $ z / c z z z z x c ( l # r ] ' ' ' ] ' ] ' { d % f.@X XoXoXoXoXoXoXoXoXoXoX",
"oXoXoXoXOXoXXXXXoXoX/.oXoX9 3 { ] ' ' ] ' ] ' D 6 # , ; # % * % # # % @ $ , a O g { ' ' ' ] ' ' { D + 1.$X.XoXoXoXoXoXoXoXoXoXoX",
"oXoXoXoXXXOXXXXXoXoXoX X@XW + s ` { ' ' ' ' { F % + * B } +.*.*.*.E.*.+.T e + + 3 ' ' ' ' ] ] ] S $ 4 Q.OX.XoXoXoXoXoXoXoXoXoXoX",
"oXoXoX XoX.X.X.X/..XoXoXoXw.N # : V ' ' ' ' { V . u +.T.;.-.-.T.T.Y.;.;.T.T.I % # H ] ' ' ] I 8 X 0 9.$XoXoX X|..X.XoXoXoX.XoXoX",
"oXoXoXoXXX.XoX.X.X.XOXXXoXw.7.>.y o 8 ' ` { H # s Y.-.&.&.&.&.&.&.&.&.&.#.$.R.} # s { ' ] S # # W OXOXXX|.oX.X.X.XoXoXOX.XoXoXoX",
"oXoXoXoXXXoX/.oXXXoXXXXX/.H.F.H.0 3 Y ' ' ] 3 5 &.&.&.&.&.&.&.&.&.&.&.&.&.&.$.T.P . F { ' ' V # 2.$X/.K.P.J. X|.XXoX.X|.OX.XoXoX",
"oXoX/. XXXOXoXoXXXXXXXXXoXH.F.H.5 > U { ..V . Y ;.&.&.&.&.&.&.&.&.&.&.&.&.&.&.&.&.6 : ] ] ] g . ,.$X/.L.P.J. X.X X.X.X.XoX.XoXoX",
"oXoXoXl.^./.oXoXOXXXXXXXXXr.8.0.>.= + 6 D : u ;.&.&.&.&.&.&.&.&.&.&.&.&.&.&.&.&.-.' # g d : O A oXoXoXK.P.J.oXk.7.h. X.X.X|.XXXX",
"oXoXoX~.^.oX/.OX/.XXXX/.XXe.8.7.6.5.! 5 # # I ;.&.&.&.&.&.&.&.&.&.&.&.&.&.&.&.&.&.#.3 # * b 2.oX+XoX/.L.P.J.oXk.6.h.oXoXXXXXoXOX",
"oX X}.oX/. X/.XXXXXXXXXXXXe.8.a.u.v.).(.n $ X.;.&.&.&.&.&.&.;.;.;.;.-.&.&.=.&.&.&.;.g % 9.%X%XXXoXoX X|.#Xs.i.s.l././.oX XoXoXoX",
"oXoXXX.X.XoXoXoX/.XXXXXXXXe.0.a.V.i.n.).n 6 -.&.&.&.&.&.;.O.D 8 7 V ..-.&.&.&.&.&.;.Y % d.@X/.XX XXXoXXX Xv.V.v.OXoXoX}./.oXoXoX",
"oXoXoXoXXXXXXXoXOXoXXXoXXX/.t.^.z.B./.~.4 V ;.&.&.&.&.-.{ * # r r = O F -.&.&.&.&.-.X.$ ,.$X.X.XoXM.D.~.OXg.a.g.oXl.q.w.oXoXoX.X",
"oXoXoX/./.oXoXOXOX/.OX.XXXXXXXXXoXOXOXQ.< F ;.&.&.%.I g : 6 I.].].W.B o ] ;.&.&.&.-.#.: ! @X.XoXoXn.S.~.@Xh.6.w./.k.6.q./.XX.X.X",
"oXoXoXoXoXoXoXoXXXoXoXXXXXXXoXoXOX/.OXf.* U ;.&.;.I $ # % o.T.`.].-.T.w 6 -.&.&.&.&.$.> E $X.XoXoX~.B.N.N.v.u.s.OXl.7.q.oXXXXXXX",
"oXoXoXoXoXoXoXoXoXoXXXoX.XoX/./.oXOXOXd.% ' -.;.] # # @ r &.&.-.-.%.-.I # X.-.&.&.-.&.3 A $X.X/.oXoX.XD.S.Z.y.v.OXl.6.7.oXXXXXOX",
"oXoXXXXXOXOXoXoXoXoXoXoXoXoXoXoXoX/.OX9.* U $.$.3 6 i o g &.&.&.&.&.;.{ # D @.@.$.$.-.> R $X XoX.XoX/.B.N.m.b.z.OX/.w.k..X.XOX.X",
"oXoXXXXXoX/.oXoXoXoXoXoXoXoXoXoXoXoX$Xf.< S @.G . { P   V T.-.&.&.&.-...+ g ] ' '  .{ : E $XoXoXOX.XoXoXoXoX|..XoXoXOXoX.X.XOX.X",
"oXoXoX.XoXoXoXoXoXoXOXXXoXoXoXoX/.oXoXQ.1 g ] s : #.I.4 # d K &.&.&.&.{ # g ] ' ' ] Y $ ~ $XoX}.OX/.oXoXoXoXoXoX/.}.oXOX.X.XOX.X",
"oX XoX/.}.oX/.oXoXoXoXXXoXoXoXoXoXoXoXoXv 3 { 8 : X._.I.P D | &.&.&.#.U % V ` I ] { S # 4.$X/./.OXOXoX/.oXoX.XoXoXoX.X.XOXOX.XOX",
".XoXoX XoX/././..XOX.X|.oXoXoXoXXXoX/.$X! O S s $ ` $.;.W.R.-.&.&.#.X.F # V F ' ' ] 6 & Q.OX XoX.XoX.X.XoX.XoX.XoXoXoXoX.X.XOX.X",
"XX XoXoXoX^.c. X.XOXXXXXoXoXoXoXoXOXoX$X2.# 6 S # S X.@.$.&.&.&.#...{ g # H Y ' { V X 5 !.oXoXoXOXoXoXoXoXoXoXoXoXoXoXOXOXOXoXOX",
"XXXXoX/./.^.c.oX.XOXoXoXoXoXoXoXoX/.oXOXQ.5 o r 3 : ` { X.X.X.X.] { U # 7 { { ] F # + v oXoXoX/.oXoXoXoXoXoXoXoXoXoX.XOXoXOXoXoX",
"XXXXoXoXoXc.c.oX.XOX/.oXoXoXoXXXoXoXoXOX/.0 $ D G # 3 G ' ] ] ' ] G 3 $ G H U ] I s # W $XoXoXoXoXoXoXoXoXoX.XoX.X.X|..X.X.XoX.X",
"XXXXXXXX/.c.^.oX/.oXoXoXoXoXoXoXoXoX.X.X$Xm > { { g o # 3 d g d > # # # : X S ] ] K % <.%X/.XX.XoXoXoXoXoXoXoXoX.X.XoXoXoXXXXXOX",
"XXXXoXoXoXoXoX XoXoXoXoXoXoXoXoXoX.X.X.X$XW + Y ] ' G g 3 # @ % 4 4 $ s g S ` '  .S % 9.@XXXXXoXoXoXoXoXoXoXoXoXXXXX XoXoX.XoXoX",
"oX/.oXoXoX/.oXoXoXXXXX+XoXoXoXoXoXoXoXoX$X4.# V { ' ]  ...g * ^ B.W $ ]  .] ' '  .a 1 /.oXoX/.oXoXoXoXoXXXOXOX.XOXoX/././.oXoX}.",
"oXoXoXoXoXoXoXoX.XXXXXXXoXoXoXoXoXoXoX|..X/.1 8 ] ] { ' U 3 q y.x.3.X S  . .]  .{ - b XXoXoXoXoXoXoXoXoXXXOX.X.XoX|.J.G.|./.oXoX",
"oXoXoX XoXoXoXoXoXoX/.oXoXoXoXoXoXoX.X.XoXOXC + ; 6 7 ; . X M C.m./.4 $ a h S g p + ~ %XXXoXoXoXoXoXoXoXoXoXXXOX|.|.G.G.oXXXXXXX",
"oXoXoXoXoXoXoXoXoXoXoXoXoXoXoXoXoXoXoX.X/.$X,.+ % . + * : & y.C.i.i.M X X   . . . < f.$XXXXXoXoXoXoXoXoXoXoXOXXX.X.X.X.XoX/.OXXX",
"oXoXoXoXoXXXXXOXoXoXoXoXoXoXoXoXoXoX.XOXoXOX!.4 & k B k $ 9 i.y.y.C.E # e k k i + v OXXX/. XoXoXoXoXoXoXoXoX.X.X|.oXOXoX.X.XoXoX",
"oXoXoXoXoX.XXXXXoX}.oXoXoXoXoXoXoXOXOX.X.XoX@X2.X $ * + & p.B.z.B.z.B.t + w w = & d.OXXXoXoXoXoXoXoX.XoX/..X.XOXoXoXXXXX.XoXoXoX",
"oXoXoXoXoXoXoXoXOXoXoXoXoXoXoXoXoXoXoX.X.X|.oXOX2.C b A 4.$X.XXXOXOX@Xf.b & # 9 2.@XoXoXoX XoXoXoXoXoXoXXXOX.XOXoXoX.X.X|.OXXXXX",
"oXoXoXoXoXoXoXoXoXoXoXoXoXoXoXoXoXoXoXoXoXOX|.oX$X$XOX@XOXOXXXoXoXoXoX@X@XQ.9./.oXoXoXoXoXoXoXoXoXoXoX XXX^.l.l.l.^.XX.XXXXXoXXX",
"oXoXoXoXoXoXoXoXoXoXoXoXoXoXoXoXoXoXoXoXoXoXoXXXXX/.XXXXoXoXoX/.oXoXoX/.OXXX$XXX/.oXoXoXoXoXoXoXoXoXoXoXOXx.z.z.z.c.|././.oXoXoX",
"oXoXoXoXoXoXoXoXoXoXoXoXoXoXoXoXoXoXoXoXoX.X.X.X.XoXXX/.oXXXoXoXoX X/.oXoXoXXXOXoXoXoXoXoXoXoXoXoXoXOXXXXX^.c.l./.c.n.B.oXoXXX/.",
"oXoXoX/.OXoXoXoX/.oXoXoXoXoXoXoXoXoXoXoXoXoXoXoXOXoXoXoXoXoXoXoXoXoXoXoX/.oX.XXXoXoXoXoXoX+XXXOXoXoXoXoX.X/.c.^.XX).A.p.oXXXXXXX",
"oXoX.X.XXXXXoXoXoXoXoX XoXoXoXoXoXoXoXoXoXoXoXoXoXoXoXoXoXoXoXoXoXoXoXoXXXOXXXOXoXoXoXoXoXXXXXXXoX/.oXoX.X/.^./.oX~.n.B..XXXoXOX",
"XXXXXXXXXXXX XXXXXoXoXoXoXoXoXoXoXoXoXoXoXoXoXoXoXoXoXoXoXoXoXoXoXoXoXoXoXoXXXXXoXoXoXoXoXoXXXXX.X XoXoX.X.X.X/.oXoXXXoXoX/.oX X",
"OXOXXXXXXX.XoXl.k./.oXoXoXoXoXoXoXoXoXoXoXoXoXoXoXoXoXoXoXoXoXoXoXoXoXoXoXoXoXOXoXoXoXoXoXoXXXXXXXoX/.oXoXoXoXoXoXoX XoXoXoXoXoX"
};
