/* XPM */
static char *_63d34d008d4429db751334df7215021HC2gWfBTg4AlZX8L[] = {
/* columns rows colors chars-per-pixel */
"64 64 215 2 ",
"   c #0B080C",
".  c #13100E",
"X  c #0A0A11",
"o  c #120E13",
"O  c #0E1012",
"+  c #151314",
"@  c #1A1515",
"#  c #171B14",
"$  c #1B1A16",
"%  c #14161A",
"&  c #1D1719",
"*  c #1D1B1A",
"=  c #2A180A",
"-  c #221A15",
";  c #251915",
":  c #231D1A",
">  c #291D1A",
",  c #182316",
"<  c #1C2419",
"1  c #24221B",
"2  c #2D221B",
"3  c #232B18",
"4  c #232C1B",
"5  c #372517",
"6  c #33241C",
"7  c #3B2B1E",
"8  c #26341A",
"9  c #2A351D",
"0  c #242322",
"q  c #2A2722",
"w  c #2F2923",
"e  c #342C23",
"r  c #3C2D20",
"t  c #273827",
"y  c #35312B",
"u  c #3A3229",
"i  c #383636",
"p  c #432C1B",
"a  c #46311E",
"s  c #453222",
"d  c #4A3523",
"f  c #4E3A27",
"g  c #473A2D",
"h  c #533C26",
"j  c #553D27",
"k  c #423D3C",
"l  c #32451A",
"z  c #344A1A",
"x  c #334222",
"c  c #364B25",
"v  c #3D5225",
"b  c #3F582A",
"n  c #3A7C2C",
"m  c #4E6517",
"M  c #5B4128",
"N  c #5D4229",
"B  c #405427",
"V  c #435B29",
"C  c #46423B",
"Z  c #51493E",
"A  c #405C36",
"S  c #62452B",
"D  c #65492D",
"F  c #6C4B2D",
"G  c #714E2E",
"H  c #75512F",
"J  c #674D31",
"K  c #724F30",
"L  c #6C5233",
"P  c #755230",
"I  c #7C5532",
"U  c #775C36",
"Y  c #7D5A34",
"T  c #47622A",
"R  c #49632B",
"E  c #4E6B2D",
"W  c #526F30",
"Q  c #497234",
"!  c #547431",
"~  c #567932",
"^  c #597A34",
"/  c #3C3E41",
"(  c #3B6842",
")  c #4C4944",
"_  c #564E42",
"`  c #525249",
"'  c #595857",
"]  c #645E54",
"[  c #676358",
"{  c #736E5F",
"}  c #696868",
"|  c #706A61",
" . c #7C7466",
".. c #7C7B7A",
"X. c #855C35",
"o. c #895E36",
"O. c #8D6137",
"+. c #8A643A",
"@. c #946537",
"#. c #936539",
"$. c #966A3B",
"%. c #9C6B3B",
"&. c #97703E",
"*. c #A26E3D",
"=. c #A5713E",
"-. c #A9733F",
";. c #977442",
":. c #AD7640",
">. c #A37A44",
",. c #AF7842",
"<. c #B07742",
"1. c #B37A43",
"2. c #BA7F45",
"3. c #867F6F",
"4. c #6C8B1A",
"5. c #4F8031",
"6. c #5E8235",
"7. c #538E34",
"8. c #618536",
"9. c #638937",
"0. c #658B3A",
"q. c #688E39",
"w. c #6B943B",
"e. c #719C3D",
"r. c #50AF36",
"t. c #4DB137",
"y. c #53B238",
"u. c #74A23F",
"i. c #67B939",
"p. c #65BC3D",
"a. c #79BF3D",
"s. c #4C964E",
"d. c #498A59",
"f. c #4B925E",
"g. c #52965C",
"h. c #579D58",
"j. c #658946",
"k. c #719B56",
"l. c #51A649",
"z. c #78A742",
"x. c #7BAC42",
"c. c #68B842",
"v. c #73BA43",
"b. c #76B44C",
"n. c #7BB949",
"m. c #7EBA4B",
"M. c #68A758",
"N. c #76A955",
"B. c #7DAD54",
"V. c #7FB252",
"C. c #478D61",
"Z. c #529662",
"A. c #6C9369",
"S. c #71A261",
"D. c #71C343",
"F. c #96CE3E",
"G. c #9FD735",
"H. c #B1F129",
"J. c #BD8246",
"K. c #B38548",
"L. c #BB884A",
"P. c #82B545",
"I. c #84BB46",
"U. c #83B74E",
"Y. c #84BC4A",
"T. c #88BE49",
"R. c #81B352",
"E. c #85B559",
"W. c #87B95A",
"Q. c #8C8675",
"!. c #938F7A",
"~. c #C28C4B",
"^. c #CA924E",
"/. c #CB9851",
"(. c #D8AE78",
"). c #84C046",
"_. c #8CC446",
"`. c #87C14A",
"'. c #8BC34A",
"]. c #8DC549",
"[. c #8FC94B",
"{. c #92CA41",
"}. c #91CC4D",
"|. c #95D14E",
" X c #8BC150",
".X c #8B8A89",
"XX c #9B9998",
"oX c #A19C84",
"OX c #BBB59A",
"+X c #A8A6A4",
"@X c #B5B1AE",
"#X c #B5B3B1",
"$X c #C6BDA2",
"%X c #D4C299",
"&X c #E5C391",
"*X c #CAC2A4",
"=X c #CEC5A9",
"-X c #D2CAAC",
";X c #D7D0AE",
":X c #DED6B5",
">X c #EDD4A3",
",X c #E6DCBA",
"<X c #EBE2BE",
"1X c #CDCBC9",
"2X c #D5D2CF",
"3X c #D9D7D5",
"4X c #E2DFDC",
"5X c #F5EDC7",
"6X c #F9EFC8",
"7X c #FCF3CC",
"8X c #FFF8CF",
"9X c #FFFCD3",
"0X c #FFFFD9",
"qX c #E7E4E1",
"wX c #F9F8E9",
/* pixels */
"'.'.'.'.'.'.'.'.'.'.'.'.'.'.'.'.'.Y.B.B.M.b.Y.U.c.v.U.U.T.'.'.'.'.'. X'.'.].'.'.'.'.'.'.T.a.a.F.I.`.`.'.'.'.'.'.'.'.'.'.'._.'.'.",
"'.'.'.'.[.'.'.'.'.'.'.'.'.'.'.'.T.'.'.'.'.'.'.'.].].'.'.'.'.'.'.'.'.'.].'.'.'.'.'.'.'.'.`.i.y.F.T.`._.`.'.'.'.'.'.'.'.'. X[.'.'.",
"'.'.].].'.'.'.'.].'.'.'.'.'.'.'.'.'.'.'.'.'.'.'.'.'.T._.'.'.'.'.'.'.'.'.'.'.'.'._.'.'.'._.i.i.)._._.'.'.'.'.'.'.'.[.'.'.'.'.'.'.",
"'.'.'.'.'. X].'.'.'. X[.'.'.'.'.'.'._._.'.'.'.'.'.'.'._.'.'.'.'.'.'.'.'.'. X'.]._.`.`.'.`.y.r.)._.'.'.`.'.'.'.'.'.'.'.'.'.'.'.'.",
"].'.'.'.'.'.'.'.'.'.'.'.'.'.'.'.T.'.'.`.'.'.'.'.'.'.'.'.'.'.'.'.'.'.[. X'.'.'.'.'.'.'.'.`.l.l.m.'.m.v.`.`._.'.'.'.'.'.'. X'.'.'.",
"'.'.'. X'.].'.'.'.'.'.'.'.'.'.'.'.'.'.`.'.T.'.'.'.'.'.'.'.'.'.].'.'.'.'.].'.].'.'.'.'.'.`.g.f.m.'.i.t.v.[.`.'.'.'.'.'.'.[.'.'.'.",
"'.'.'.'.'.'.'.'.'.].'.'.'.'.'.'.'.'.'.'.'.'.'.'.'.'.'.'.'.'.'. X'.'.'.'.'.'.'.'.'.'.'.'.`.h.f.U.'.c.l.b._._.T.'. X[.'.'._._.'.'.",
"'.'.].'.'.'.'.'.'.'.`.'.'.'.'.'.'.'.'.'.'.'.'.'.'.'.'.'.'.'.'.].'.'.'.'.'.'.'.'.'.`.'.'.T.g.C.m._.h.C.b.]._._.'.'.'.'.'.'.[. X'.",
"'.'.'.'.'.'.'._.'.'.'.'.'.'.`.'._._.`.`.`._._.'.'.'.'.'.'.'.'.'.'.'.'.'.T.T._.'.'.T.'.}.'.h.g.U.'.M.g.b.'.'.'.'.'.'.'.'.'.'.'. X",
"'.'.'._.'.'.'.`.'.'.'.'.'.'.`.{.F.F.F.F.'._._.`.'.'.].'.'.'.'.'.'.'.'.'._.}._.'.}.}.T.w.P._.T._.'.T.T.'._.'.'.'.'.'.'.'.'.'._.[.",
"'.'.'.T.`.`.`.`.'.'.'.'.'.'.`.{.F.F.F.{.'.'.'.`.'. X'.'.'.'.'.'.'.'.'.[.}.9.t x z.! 9 o 9 P.'._.'.'.'.'.'.'.T.'.'. X[.'.'.'.'.'.",
"'.'._._.`.Y.Y.`.'.'.'.'.'.'.'.`.`._._.'.'.'.'.'.].'.].'.'.'.'.'.'.'.'.Y.c + @ @ + 6 @ q @ R |.`.'.T.'.'.'.'.'.'.'.'._.'.'.'.'.'.",
"'.'.T.'.`.m.Y.`.'.`.`.'.`.'.'.'.'.'.'.'.'.'.'.'.'.'.'.].'.'.'.'.'.].x.4 p r : u & 7 $ u q 3 P.'.[.|.[.'.T.'.'.'.T._.'.'.'.'. X[.",
"'.'.`.U.Y.T.T.Y.m.Y.Y.T.'.'.'.'.'.'.'.'.'.'.'.'.'.'.'.'.'.'.'.T.[.x., 6 =.: q u 1 + + + + o < t x W u.`.|._.T._.'.'.'.'.'.'.'._.",
"'.'.'.m.Y.`.'.m.m.m.m.`.'.'.'.'.'.'.'.'.'.'.'.'.'.'.'.'.'.'.'.'.'.t @ *.I + y u e + f U U +.U L M e $ < ! Y.|.T.'.'.'.'.'.'.'.'.",
"'.'.`.T.T.`.`.T.T.T.`.`.`.'.'.'.'.'.'.'.'.'.'.'.'.[. X'.'.'.`.[.R X X.*.M + y u u + U ^.~.~.~.~.^.L.K.L > < 8.}.'.'.'.'.'.'.'.'.",
"'.'.'.'.'.'.'.`.'.'.'.'.`.'.'.'.'.'.'.'.].'.'.'.'.'.].'.'.'.[.z.O h %.O.M + u u u + N 1.-.-.-.*.+.-.J.L.K.J + V T.'.'.'.'.'.'.'.",
"'.'.'.'.'.'.'.'.'.'.'.'.'.'.'.'.].'.'.'. X'.'.[.'.'.'.'.'.'.[.v @ #.X.O.h + y u - 1 %.1.-.<.-.-.%.=.*.-.:.J.$.@ c ].'.'.'.'.'.'.",
"'.'.'.'.`.'.'.`.'.'.'.'.'.'.'.'.'.'.'.'.'.'.'.'.'.'.'.'.'.'.I.$ d #.X.O.h + u e + O.1.-.,.-.<.=.D 6 h -.:.:.2.$.@ ! }.T.'.'.'.].",
"'.'.'.'.'.'.'.'.'.'.'.'.'.'.'.'.'.'.].'.'.'.'.'.'.'.'.'.T.}.8.+ P +.X.O.h + u + j =.X.=.-.1.I @ * a D -.:.:.:.2.F < T.'.'.'.'.'.",
"'.'.[.'.'.'.'.'.'.'. X'.'.'.'.'.'.[.'.'.'.'. X'.'.'.'.'.'.}.E @ X.O.X.O.M + w $ $.=.X.%.<.*.$ M 1.1.1.2.:.:.:.1.s c ].'.'.'.'.].",
"'.'._.'.'.'.'.'.'.'.[.'.'.'.'.'.'.'.'.'.].'.'.[.'.'.'.'.T.}.T : O.X.X.O.S $ * r ,.-.-.:.,.-.$.X.p 2 : j ,.:.<.*.@ 9.}.'.'.'.'.'.",
"'.'.'.'.'.[.'.'.'.].'.].].'.'.'.'.'.].'.'.'.'.'.'.'.'.'.'.}.v 6 O.o.X.O.F $ + S J.-.,.-.:.,.h + ` .XQ.% d ,.1.I 1 P.].'.'.'.'.'.",
"'.'.'.'.'.'.'.'.'.'.'.'.'.'.'.'.'. X'.'.'.'.'.'.'.'.'._._.Y.4 6 O.X.X.X.X.* X I 1.-.,.-.1.F % +X4X3XwX#X+ P L.S t ].'.'.'.'.]. X",
"].'.'.].].'.'.'.'.'.'.'.'.'.`.'.'.'.'.'.'.'.'.'.'. X'.'.[.x.$ - Y o.X.X.o.F N -.-.1.-.-.1.2  .qX2X1X..+X} = (.] z }.'.'.'.'.'.'.",
"'.'.]. X'.'.'.'.].'.'.'.'.'._.'.'.'.'.'.].'.'.].'.'.'.'.'.u.* d S O.X.o.o.o.#.=.1.-.-.J.@.# @X3X2XXX' : } ; %X} z }.`.'.'.'.'.'.",
"'.'.'.'.'.'.'.'.'.'.'.'.`.'._.T.'.'.'.'.'.'.'._._.'.'.'.}.u.$ P Y o.o.o.o.X.X.%.1.-.-.2.o.# #X3X3X} ' 0 ) > %X] z }.'.'.'.'.'.'.",
"'.'.].'.'.'.'.'.'.'.'.'.'.I.Y.T.'.'.'.'.'.'.'._.'.'.'.T.'.u.$ F O.I I X.X.X.X.@.1.-.-.1.%.@ XX4X2X+X/ q ' ; >X| z }.'.'.'.'.'.'.",
"].'.'.'.'.'.'.'.'.'.'.'.'.c.r.v.'.'._.'.'.'.'.`.'.'.'.'.].x.$ F o.I F X.X.o.X.O.-.-.-.-.J.a i 3X4X3X#X#Xc 5 >X.X9 [.T.T.'.'.'.'.",
"'.'.'.'.'.'.'.'.'.'.`.'._.c.r.i.'.'.'._.'.'.'.'.'.'.'.'.'.Y.3 S O.X.G F X.o.X.X.-.-.1.-.-.%.$ i XX+X@X' - %.&X$X1 T.|.}.}.'.'.'.",
"'.'.'.'.'.'.'.'.'.'.[.[.[.G.H.G.'.`.'.`.'.'.`.'.T.'.'.T.'.I.4 N O.o.I H X.X.o.o.-.=.%.,.-.1.%.a . @ + 5 N a 6 2 . c V V ~ '.'.'.",
"'.'.'.T.`.'.T.'.'.[.z.v t l m 4.P.[.`.`.T.T.'.[.}.}.|.}.|.T.* F o.X.o.o.X.X.X.O.$.#.O.-.1.-.<.1.=.*.K > 1 ` !.OX]   & & o E [.T.",
"'.`.T.Y.U.'.'.'.T.b + s D J f > , 5.}.U.E.E.N.j.6.^ ~ ~ ^ ! # G O.o.X.o.X.o.X.O.=.-.-.<.-.,.1.1.+.7 + [ :X9X9X0XoX  y g 1 8 T.'.",
"'.'.T.Y.m.'._.'.v > ;./.~.~.~.K.L o R '.j.x , # : 6 e 7 6 : # H o.X.X.X.o.X.X.o.-.,.<.-.<.1.Y 5 . ` *X9X8X5X6X6X5X[   w & v [.'.",
"'.'.'.T.'.T.}.e.@ ;.~.:.$.*.-.<.J.+.: t % f &.K.L.L.L.L.L.;.+ H O.X.X.X.o.X.o.X.*.:.:.,.,.s + [ *X8X9X5X7X7X7X7X7X8X{ + * e.[.'.",
"'.'._.`.`.`.}.V s /.:.:.:.*.%.-.-.<.r @ $./.^.J.,.,.:.-.,.-.5 * S I o.X.X.X.X.X.O.-.:.<.s 0 *X9X9X7X6X7X7X6X7X7X5X8X5X1 E }.T.'.",
"'.I.T.'.'.'.}.l N ~.:.:.<.*.%.-.<.-.M $.J.-.-.-.,.,.:.,.-.1.*.j $ @ d X.X.X.X.X.X.X.*.X.+ $X0X6X5X<X6X7X7X7X7X6X6X8X:X< w.}.'.`.",
"}.e.B '._.T._.t J ^.>.:.@.#.#.%.=.X.-.<.-.-.,.,.=.-.:.:.1.-.-.J.:.f ; o.X.X.X.X.X.X.O.7 ) 8X6X6X5X-X5X7X7X<X9X9X8X9X[ < `._._.`.",
"}.e.o V }.}.}.t L ~.:.#.X.o.O.o.X.@ X.<.-.,.-.=.$.=.,.-.-.1.-.-.2.S ; O.o.o.o.o.X.X.O.5 ) <X6X7X-X<X8X8X:X1 [ OX;X .  7.[.T.'.'.",
"}.q.$ + c u.~ + ;.2.*.X.o.G 7 > : $ $.<.1.-.-.X.O.,.-.,.<.-.<.:.1.H o h G P I X.O.+.#.d y $X,X,X<X<X,X=X$XQ.i 1 $   n p.T.'.'.'.",
"}.w.1 X.6 - : U ~.-.*.X.Y @ t 8.! $ O.<.:.:.:.%.%.:.:.:.:.:.:.:.:.-.N - ; - - : 7 S I I @ { *X=X-X=X*X*X=X=XOX) . ! D.v.'.'.'.'.",
"_.P.$ X.J.>.K.~.-.-.#.O.a 8 _.|.'.# H J.:.:.:.:.<.1.:.:.:.:.:.:.:.<.<.:.*.*.X.2 , 4 + ; @   k  .3.Q.3. .] i @ 4 9.'._._.T._.'.'.",
"T.}.c > =.<.:.%.%.%.O.I @ 8.}.T.'.l p j #.<.:.:.:.K :.:.:.:.<.=.:.:.:.:.1.-.O.- 8.`.q.~ W W B 4 $ $ $ 3 l R 0.'.[.`.`.`.T.'.'.'.",
"'.[.z.+ s @.*.#.$.O.O.6 9 T._.T.}.^   & @.*.*.<.*.& X.1.:.<.%.I *.<.:.:.d O.d $ P.[.}.}.}.|.}.T.P.P.Y._.}.|.[.'.'.'.'.'._.'.'.'.",
"'.`.[.q.$ ; N P P F 6 $ z.].T.'.'.P.1 6 %.*.*.<.:.> K 1.=.<.d s :.:.:.@.@ s . ^ }.I.U.T.T.T._.'.'.'.[.'.'.T.'.'.'.'.'.'.'.'.'.'.",
"'.'.'.[.x.b < $ * + x z.[.'.'.'.T.|.R 6 %.1.:.:.>.; I %.O.#.r d :.:.:.X.@   t _.U.B.R.T._._.'.'.'.'._.'.'.'.'.'.T.'.'.'.'.'.'.'.",
"'.'.'.'.'. Xx.z.e.x.'.[.'.'.'.'.T.|.R 2 #.:.:.:.I @ a 7 ; @ + s %.:.:.P & > c '.U.R.R.T.'.'.'.'.'.'._.'.'.'.'.'.'.'.'.'._.'.'.'.",
"'.'.'.`.`.m.m.'.}.[.'.T.'.'.'.'.T.}.E ; Y :.:.1.S + @ 9 m 4.z w $.:.1.S e 7 B E.R.T.T.T.T.'.'.'.'.'.'.'.'.'.'.'.'.'.'.'.'.'.'.'.",
"'.'.'.'.`.m.U.`.'.'.'.'._.'.'.'.T.}.0.$ I -.1.2.f r 6 ~ H.H.Q * #.1.2.f > : W E.V.'.'.'.'.'.'.'.'.].'.'.'.'.'.'.'.'.'.'.'.'.'.'.",
"'.'.'.'.'.'.'.'.'.'.'.'.'.'.'.'.'._.P.1 d H O.#.6 @ + 9.D.y.n * F o.Y 2 % % ^ E.B.`.'.'.'.'.'.'.'.'.'.'.'.'.'.'.'.'.'.'.'.'.'.'.",
"'.'.'.'.'.'.'.'.`.`.'.'.'.'.'.'.'.'.'.x + 1 * - @ y * 9.y.y.s.% @ * * + i : E W.V.`.'.'.'.'.'.'.'.'.'.].'.'.'.'.'.`.'.'.`.`.'.'.",
"'.'.'.'.'.'.'.'.`.'._.'.'.'.'.'.'.'.}.9.o C Z Z * : o 0.D.t.h.t & _ _ 1 o & 0.}.T.`.'.'.'.'.'.[.'.'.'.'.'.'.'.'.'.{.F.{._.'.'.'.",
"'.'.].'.'.'.'.'.'.'.'.'.'.'.].'.'.'.'.'.V o 0 * * v 9.T.i.r.h.d.< $ : + A k.R.`._.T.'.'.'.'.'. X X].'.'.'.'.'.'._._.F.{.'._.'._.",
"'.'.'.'.'.'.'.[.'.'.'.'.'.].'.'.'.'.'.'.].z.^ 6.u.}.}.`.M.S.g.f.g.( ( j.V.'.T.'._._.'.'.'.'.'.'.'.'.'.'.'. X'.'.'._._.`.`.`._.'.",
"'.'.'.'.'.'.'.'.'.].'.'.'.'.'.'.'.'.'.'.'.}.}.}.}.T.'.`.S.S.Z.f.f.f.M.E.R.'.'.'.'.'.'.'.'.'.'.'.'.'.'.'.'.'.'.'.'.'.'.'.'.'.'.'.",
"'.'.'.'.'.'.'.'.'.'. X].'.'.'.].'.'.'.'.'.T.'.'.'.'.'.T.R.R.R.V.b.V.U.U.T.T.'.'.'.'.'.'.].'.'.'.'.'.'.'.'.'.'.'.'.'.'.'.'.'.'.'.",
"].'.].'.'.'.'.'.'.'.'.'.'.'.].'.'.'.'.'.'.'.'.'._.'.'.'.'.'.'.'.].'._.'.'.'.'.'.'.'.'.'.'.'.'.'.'.'.'.'.'.'._._.'.'.'.'.`._.'.'.",
"'.'. X'.'.'.'.'.].'.'.'.'.'.'.'.'.'.'.'.'.'.'.'.'.'.'.'.'.'.'.'.'.'.'.'.'.'.'.'.'.].'.'.'.'.'.'.'.'.'.'.'.).m.n.m.Y.'.'.`._.'.'.",
"'.'.].'. X].'.'. X'.'.'.'.'. X'.'.'.'.[.'.'.'.'.`.'.'.'.'.'.'.'.'.'.'.'.'.'.'.'.'.'.'.'.].'.[.'.'.'._.`.'.m.b.b.b.n._._.T.'._.'.",
"'.'.'.'.'.].'.'.'.'.'.[.'.'.'.[.'.'.'. X[.'.'.'.'.'.'.'.'.'.'.'.'.].'.'.'.'.'.'.'.'.'.'. X'.'.'.'.'.'.'.`.Y.n.m.I.m.N.V.'.'.'.'.",
"].'. X'.'.'.T.'.'.'.'.'.'.'.'.'.'.'.'.'.'.'.].'.'.'.'.'.'.'.].'.'.'.'.'.'.'.'.'.'.'.[.'.'.'.'.'.'.'.'.'.'.Y.m.Y._.B.A.k.'.'.'.'.",
"'.'.'.'.'.'.'._.'.'.'.'.'.'.'.'.'.'.'.].'.'.'.'.'.'.].'.'.'. X[.'.].'.'.'.'.'.'.'.'.'.'.'.'.'.'.'.'.'.'.`.T.Y.T.'.U.N.B.'.'.'.T.",
"'.'.'.'.'.'.]. X'.'.'.'.'.'.].'.'.'.'.[.'.].'.'.'.'.'.'.].'.'.'.'.'.].'.'.'.'.'.'. X'.'.'.'.'.'.'.'.'.'.'.'.'.'.'.`.'.'.`.'.'.'.",
"].'.'.'.'._._.D.v.`.'.'.'.'.'.'.'.'.'.'.'. X'.'.'.[.'.'.'.'.'.'. X]. X'.'.'.'.].'.].'.'.'.].'.'.'.'.'.'.'.'.'.'._.'.'.'.'.'.'.'."
};
