/* XPM */
static char *_6de7c4c5be54ea1999ae7af89fbebc5VsrJivN9RRKu0j5t[] = {
/* columns rows colors chars-per-pixel */
"64 64 226 2 ",
"   c #05050A",
".  c #0D0B0D",
"X  c #1A0E06",
"o  c #110E0E",
"O  c #0C110C",
"+  c #15130F",
"@  c #0D0610",
"#  c #0D0D11",
"$  c #120D12",
"%  c #0E1012",
"&  c #131313",
"*  c #1B1514",
"=  c #1B1B16",
"-  c #171918",
";  c #1C1B1A",
":  c #251509",
">  c #201613",
",  c #221A15",
"<  c #221618",
"1  c #231E1B",
"2  c #2A1D1A",
"3  c #1C2217",
"4  c #1A2619",
"5  c #1D2418",
"6  c #24221D",
"7  c #2C231C",
"8  c #232C1B",
"9  c #282F1C",
"0  c #372417",
"q  c #33251C",
"w  c #36291D",
"e  c #3A2A1F",
"r  c #25321B",
"t  c #2C361E",
"y  c #2C3B1E",
"u  c #1D1E21",
"i  c #1F2125",
"p  c #242322",
"a  c #2A2522",
"s  c #2D2925",
"d  c #2C2B2A",
"f  c #352E26",
"g  c #3D2D20",
"h  c #352F28",
"j  c #2E3E23",
"k  c #3B3523",
"l  c #363029",
"z  c #39322A",
"x  c #2F2F31",
"c  c #383735",
"v  c #4C331D",
"b  c #422E21",
"n  c #443222",
"m  c #4A3524",
"M  c #4E3925",
"N  c #4C3C29",
"B  c #543B26",
"V  c #553D28",
"C  c #433E37",
"Z  c #31521D",
"A  c #2F4121",
"S  c #334422",
"D  c #374824",
"F  c #3A4C24",
"G  c #3D5126",
"H  c #385132",
"J  c #57442C",
"K  c #5C422A",
"L  c #445B29",
"P  c #48443C",
"I  c #42543D",
"U  c #63462B",
"Y  c #66492D",
"T  c #6C4B2E",
"R  c #73502F",
"E  c #694E30",
"W  c #6E5132",
"Q  c #745232",
"!  c #7B5532",
"~  c #7B5C37",
"^  c #4A642C",
"/  c #4B662D",
"(  c #526D2F",
")  c #4D732A",
"_  c #567433",
"`  c #5B7B33",
"'  c #3E4042",
"]  c #3E6641",
"[  c #4A4846",
"{  c #514C45",
"}  c #59544B",
"|  c #5A5959",
" . c #615C52",
".. c #68645A",
"X. c #696766",
"o. c #766F62",
"O. c #797467",
"+. c #7A7977",
"@. c #855B34",
"#. c #8A5E36",
"$. c #845D39",
"%. c #905F33",
"&. c #8E6137",
"*. c #8B623A",
"=. c #896A3D",
"-. c #936439",
";. c #96663A",
":. c #9B6A3C",
">. c #A26E3E",
",. c #A6703F",
"<. c #AA723F",
"1. c #926F40",
"2. c #987341",
"3. c #AD7541",
"4. c #A87844",
"5. c #B07742",
"6. c #B47A43",
"7. c #B77D46",
"8. c #837E6D",
"9. c #618536",
"0. c #678C38",
"q. c #6B943A",
"w. c #729D3E",
"e. c #4CAF38",
"r. c #4DB137",
"t. c #54B339",
"y. c #74A13F",
"u. c #62B63D",
"i. c #68BA38",
"p. c #75B93B",
"a. c #7AC63C",
"s. c #498F5E",
"d. c #4A935A",
"f. c #54985B",
"g. c #69934A",
"h. c #50A745",
"j. c #76A743",
"k. c #7CAC42",
"l. c #69B543",
"z. c #7EB347",
"x. c #74BB43",
"c. c #7ABD45",
"v. c #76B44C",
"b. c #7EBA4B",
"n. c #65A655",
"m. c #79AC56",
"M. c #76B250",
"N. c #458B61",
"B. c #4C9864",
"V. c #5B9A64",
"C. c #698F68",
"Z. c #7BAC62",
"A. c #96CE3E",
"S. c #9BD23A",
"D. c #A0D22F",
"F. c #BCF020",
"G. c #ADE432",
"H. c #AE864A",
"J. c #BA8649",
"K. c #82B445",
"L. c #84BB46",
"P. c #83B74E",
"I. c #83BC4A",
"U. c #88BE48",
"Y. c #81B855",
"T. c #8A8578",
"R. c #958B77",
"E. c #938B78",
"W. c #C38C4B",
"Q. c #C5924F",
"!. c #C9954F",
"~. c #C59551",
"^. c #CD9A52",
"/. c #D19D54",
"(. c #D6A156",
"). c #C79865",
"_. c #D6AC7A",
"`. c #84C146",
"'. c #8CC446",
"]. c #87C049",
"[. c #8BC34A",
"{. c #8DC54A",
"}. c #8FC94B",
"|. c #92CA41",
" X c #91CC4C",
".X c #94D14E",
"XX c #8D8B89",
"oX c #96928A",
"OX c #9A9896",
"+X c #A49E89",
"@X c #A29F9C",
"#X c #A9A28B",
"$X c #AEA690",
"%X c #B4AC95",
"&X c #B9B199",
"*X c #A8A6A4",
"=X c #B1B0AE",
"-X c #BBB8B5",
";X c #CCB58F",
":X c #C5BCA3",
">X c #DEC499",
",X c #C8C2AD",
"<X c #DEC8A1",
"1X c #D3CBAD",
"2X c #D6CDB1",
"3X c #DCD3B4",
"4X c #ECD6AB",
"5X c #E6DDBB",
"6X c #E8DCB8",
"7X c #E9E1BE",
"8X c #CAC8C6",
"9X c #D0CFCD",
"0X c #D3D1CF",
"qX c #D5D4D2",
"wX c #D8D7D5",
"eX c #DDDCDA",
"rX c #EEE4C1",
"tX c #EEE8C6",
"yX c #F0E6C2",
"uX c #F3EAC5",
"iX c #F6EDC8",
"pX c #F9EFC9",
"aX c #FDF3CD",
"sX c #E1E0DD",
"dX c #FFFBD4",
"fX c #FEFAD5",
/* pixels */
"[.[.[.[.[.}.[.}.[.[.[.[.}.[.}.U.'.L.m.m.n.M.P.P.x.x.P.P.U.[.[.[.[.[.[.[.[.[.[.[.[.[.[.[.[.p.p.`.'.].[.[.[.[.[.[.[.[.[.{.[.[.{.[.",
"[.[.{.[.[.[.[.[.}.[.U.}.U.U.}.U.[.[.[.[.{.'.[.'.[.[.[.].[.[.[.[.[.[.[.[.[.{.[.[.[.[.[.[.'.i.i.`.'.'.[.[.[.[.[.[.[.[.[.[.[.[.[.[.",
"{.[.{.[.[.[.[.[.U.U.}.U.[.[.U.[.[.[.U.[.[.[.[.[.[.[.[.].[.[.[.[.[.[.{.[.[.[.[.[.[.[.[.[.U.i.i.`.[.[.'.].[.[.[.[.{.[.[.[.[.[.[.[.",
"[.[.[.[.}.[.[.[.}.U.U.}.[.[.[.[.[.[.[.[.[.[.[.[.[.[.[.'.[.[.[.[.[.[.[.[.[.[.[.[.[.[.[.[.].t.r.`.[.[.[.[.[.[.[.[.[.[.{.[.{.[.[.{.",
"[.[.[.[.[.[.[.[.[.[.[.[.[.[.[.[.'.].[.[.[.[.[.[.[.[.[.[.[.[.[.'.U.[.[.[.[.[.{.{.U.U.[.[.[.h.h.I.[.c.x.L.[.[.[.[.U.}.}.U.[.[.[.{.",
"{.[.[.[.[.[.[.[.[.[.}.[.[.[.[.[.[.[.[.[.].[.[.[.[.[.[.[.[.[.[.[.[.[.[.[.{.K.j.[. X{.U.[.U.B.s.b.{.u.r.c.{.].[.[.}.U.U.}.[.[.[.[.",
"[.[.[.[.[.[.[.[.[.[.[.[.[.[.[.[.[.[.[.[.[.[.[.[.[.[.[.[.].[.[.].[.[.[.[.{.k.9 t / j.}.[.U.f.s.b.{.l.e.c.{.[.[.[.U.}.}.U.[.[.[.[.",
"[.[.[.[.[.[.[.[.[.[.[.[.[.U.[.[.[.[.[.[.[.[.[.[.[.[.[.[.[.[.[. X{.U.L.L.{..X( @ $ & ( {.U.f.s.b.{.f.N.m.{.[.[.[.U.U.U.}.{.[.[.{.",
"[.[.[.[.[.[.[.[.[.[.[.[.[.[.[.[.'.'.[.].].[.[.[.[.[.[.[.[.[. X0.D 8 5 8 G z.U.5 m K @ ` }.f.f.I.[.n.B.m.{.U.U.}.}.U.[.[.[.}.[.[.",
"[.[.[.[.[.[.[.[.[.[.[.U.[.[.[.[.A.A.A.A.[.[.[.[.[.[.[.U.{.L.G # a T Q Y & 5 w.y e 7.m & y.[.[.[.[.[.[.[.[.}.U.[.U.}.[.[.[.[.[.[.",
"[.[.[.[.].[.].[.[.[.[.[.[.[.[.}.A.A.A.|.[.[.[.[.[.[.[.[.[.D $ ~ ~.^.^.(.4.2 & % T 7.,.* L {.[.[.[.[.[.[.[.[.[.[.}.}.U.[.}.Y.[.[.",
"[.[.[.].[.b.P.[.[.[.[.[.[.[.[.[.].'.].[.].[.[.[.[.[.U. Xq.$ =.(.~.Q.~.~.Q.:.7 K 3.<.6.M r ].[.[.[.[.U.[.[.[.{.[.U.U.[.[.}.}.[.[.",
"[.[.[.[.[.b.b.].[.].[.[.[.[.[.[.[.[.[.[.[.[.[.[.[.[.U. X/ < J.^.~.Q.J.3.3.3.<.5.3.<.6.U = K.[.[.[.[.[.[.[.[.[.[.[.U.U.}.U.}.U.}.",
"[.[.U.I.I.].U.I.b.I.P.].[.[.[.].[.[.[.[.[.[.[.[.[.[.U. XF q 6.J.W.J.6.5.<.3.3.3.<.3.6.B 3 L.[.].].[.[.[.[.U.[.[.[.}.U.U.}.U.U.U.",
"[.[.].b.b.[.].P.b.b.b.I.[.[.}.{.{. X[.[.[.[.[.[.U.{. XU.j > b s w e B R #.:.,.<.5.<.>.w t [. X}. X X].[.{.[.U.{.[.}.U.}.}.U.}.U.",
"[.[.].U.].].[.].U.].U.U.[.}.` A A ` [.{.U.[.[.[. XK./ 5 & 6 n N N k 1 # * M @.;.:.:.T o _ }._ y S 9.[.[.U.[.{.{.}.Y.}.U.U.}.U.}.",
"[.[.[.[.[.[.[.].[.[.].[. X_ . e b $ j y. X[.[.}.9.3 & J 2.~.^./././.~.=.N % * Y #.Q * t 0.t $ n 0 @ `  X[.[.[.[.[.[.[.{.[.[.[.{.",
"[.[.[.[.[.[.[.[.[.[.[.[.K.= m <.-.~ 7 % ( [. X_ # n H./.!.J.7.J.J.J.J.^./.H.f # q * 8 D & w ~ -.3.b 8 U.[.[.U.[.[.[.[.[.[.[.[.[.",
"[.[.[.[.[.[.[.[.].[.[. X0.& ! e # w *.Y @ y ( & J ^.W.5.3.3.3.3.3.<.3.3.7.Q.~.J # t 5 & E *.w # n T & q. X[.[.[.[.[.[.[.[.[.[.[.",
"[.[.[.[.[.[.[.[.[.[.[. X/ * B % 6 - - Q 2.a   w W.J.<.<.3.6.5.5.6.5.3.3.3.<.Q.J.6   k 2.E & * 6 & V & (  XU.[.[.[.{.{.[.[.}.[.[.",
"[.[.[.[.[.[.[.[.[.[.[.[.D 2 b - l l 1 . m 2.W & w -.6.3.3.:.-.#.&.;.:.<.5.7.&.w * Q 2.n . 1 l z & M 2 F {.U.[.[.U.}.U.U.[.[.[.{.",
"[.{.[.[.[.[.{.[.[.[.[.[.r e e ; l l l s % = ~ 1.6 & m q & & # # % % & * 7 m # 7 =.~ - & s z l l - n e j {.[.[.[.}.U.}.}.[.[.[.[.",
"[.[.{.[.[.{.[.[.[.[.[.K.5 m 7 ; k z l l l ; # J ~.N 7 N E ~ $.1.1.~ ~ Y N 7 J ~.J   1 l z h z z - f n 9 U.[.[.[.U.}.}.U.}.[.[.[.",
"[.[.[.[.[.[.[.[.[.[.}.k.3 B 7 1 z l l l z s % w J.!.W.Q.~.W.W.W.W.^.^.^.Q.W.^.J.7 # s l l l h z ; q m 8 L.[.[.[.U.U.U.}.U.[.[.{.",
"[.[.[.[.[.[.[.[.[.[.}.k.= K 7 6 z h z h ; $ g ;.3.3.3.3.3.3.4.3.3.3.3.3.3.<.3.3.;.e # = f l f z ; q m 8 L.[.[.[.}.U.[.[.[.[.[.}.",
"[.[.[.[.[.[.[.[.[.[.[.k.= V q ; z h f & = ! 3.5.3.3.3.3.3.5.3.3.3.<.3.3.3.4.3.<.5.3.Q - & f h z * w B 8 L.'.].[.U.}.[.[.[.[.[.[.",
"}.[.[.}.[.[.[.[.[.[.[.P.5 m g - z f & 2 ;.6.5.6.6.5.6.3.3.3.3.3.3.5.-.3.6.6.6.6.3.5.7.&.2 & f z - m n 9 U.[.[.[.U.}.U.U.[.[.[.[.",
"[.[.[.[.[.[.[.{.[.[.{.{.y w M & f - 2 :.6.3.*.K n n T 3.5.3.3.3.3.2.#.2.<.U n n U ;.5.6.-.; ; f & V 0 D {.U.[.[.}.U.}.U.}.[.[.[.",
"[.[.[.[.U.[.[.[.[.[.U. XL * U & = & ! 6.5.K # 2 g w q >.3.3.3.3.5.#.#.6.>.q 0 g 2 # Y 3.6.R $ ; & Y * L .X[.[.[.[.U.U.[.[.{.[.[.",
"[.[.[.[.[.[.[.[.[.[.[. X9.& T e $ n &.>.<.U n T Q #.4.6.3.3.3.3.5.2.:.<.6.>.@.R T n U 6.>.#.n $ g Y $ q.|.{.[.[.[.}.[.[.Y.}.U.}.",
"[.[.[.[.[.[.[.[.[.[.U.{.k.= V @.T @.@.>.6.! , $ % . > W 5.3.<.6.6.3.6.5.U & $ $ & , #.6.:.@.@.T $.m 5 D.F..X[.[.[.[.[.[.}.[.}.U.",
"[.[.[.[.[.I.[.[.[.[.[.[.[.y 7 &.#.! ! 6.&.o c oX*XOX[   V 6.6.6X4X3.<.M   | OX*XXXx o ;.3.&.#.#.#.2 D G.F.|.I.U.[.U.[.U.U.U.U.}.",
"[.].U.I.I.[.[.[.[.[.[.[.}.( O R @.U ;.6.q d *XqXwXeXsXX.o %.).aXaX).@.@ +.sXeXwX9XOXu n 7.1.T #.T $ _ G.F.S.U.x.t.l.[.[.[.[.[.[.",
"[.[.U.I.P.[.[.[.[.[.].[.'.i.= m #.@.>.;.# X.8XqXeXeXsX:X- B _.dXaX_.v i 8XeXeXwXqX8X| # :.1.K @.b 1 K.G.F.A.U.x.e.i.[.].[.'.[.[.",
"[.[.].].U.].[.[.[.[.[.].].a.Z * @.@.,.T # oX9XqXOXXX8XeX[ : ;XfXfX;XX [ sX=X8.=XwX9XXX# Q 3.Q ! & / {.[.A.M.f.n.L.[.U.[.[.[.[.[.",
"[.[.[.[.[.].[.[.[.].[.[.[.a.) # U @.2.J % OXwXOX% +.X.qX| : >XaX:X;XX  .eXc [ +.$XqXOX= T :.@.U $ 0.{.[.[.n.N.n.[.[.[.[.].[.[.[.",
"[.[.[.[.[.[.[.[.[.[.[.].U.'.S , @.@.-.Q . T.9X+.# X.[ -Xc 0 4XtX+X;X0 ' 8Xi x | 8.0X+.@ ! &.@.@., H Z.P.[.l.h.l.[.c.t.p.[.].[.[.",
"[.[.[.[.[.[.[.[.[.'.[.[.[.K.= M &.@.#.;.* [ -X*Xd x +.XX  Q <X3X1X;XU . OX| u [ *X=Xc 1 :.#.@.#.n ; C.Y.{.l.r.l.{.c.t.u.[.[.[.[.",
"[.[.[.[.[.[.[.[.[.[.[.U. X_ $ R &.@.@.%.U . c +.X.| X.u w @.R.E.R.R.! q i X. .X.+.c . T &.#.@.#.T $ _ Y.m.n.d.l.{.c.r.u.[.[.[.[.",
"[.[.[.[.{.[.[.[.[.[.[.[.[.y 2 #.@.@.#.@.#.K , o - u # # > . O & o o @ > $ $ u * . , U #.@.#.#.@.#.2 F Z.C.V.s.n.{.c.r.u.[.].[.[.",
"[.[.[.[.{.[.{.{.[.[.[.[.K.3 B &.@.@.@.#.@.#.#.Q n @ . s { T.T.E.R.E.8.{ a . . b Q #.#.@.#.@.@.@.&.m 8 m.m.m.n.v.U.L.i.c.U.[.[.[.",
"[.[.[.[.[.[.[.[.[.[.[.'.K.3 w @.&.#.@.! @.#.! 2 @ H +X7X7X..l s 6 l O.pX7X#XH @ q Q #.@.#.@.#.&.@.q 8 ].[.[.[.[.[.[.[.[.U.[.[.[.",
"[.[.[.[.[.[.[.[.[.[.[.[.[.` $ > B @.#.T #.U . p #XpXdXdXO.  , 7 C s   O.dXdXiX#Xp o Y #.@.#.@.B * & 9.[.[.[.[.[.[.[.[.[.[.[.[.[.",
"[.[.[.[.[.[.[.[.[.[.[.[.[. Xw.D $ > V &.Y   { 5XdXaXaXdX... z z P N   ..dXiXaXdX6XP @ T #.B - & F y.}.[.[.[.[.[.[.[.[.[.[.[.[.[.",
"[.[.[.[.[.U.U.].[.[.[.[.].[..Xk.* q ! ~ & P aXfXpX5XrXdX&X$ $ 9 6 . - ,XaXpX7X6XdXyXc X &.Q w 3 z. X[.[.[.[.[.[.[.[.[.[.[.[.[.[.",
"[.[.[.[.U.b.b.].[.[.[.].[.].}.q.. B :.B # 1XaX&X5X%X1XaXfX&XC * ; P :XdXpXdX:X1XaXdX,X. K ;.m & y.'.[.[.[.[.[.[.[.[.[.[.[.[.[.[.",
"[.[.[.[.[.b.P.[.[.[.[.[.[.[.[.[.L @ g 7 f rXaX2XuXpXuXaXaXfXdXP  .dXdXpXaX1X&X7XaXaX7Xf w e . / [.[.[.].[.{.[.[.[.[.[.[.[.[.[.[.",
"[.[.[.[.].P.b.].[.[.[.[.[.[.[.[.}.` = & * +X5XaXaXaXaXdXaXfX5X1 s uXdXaXdX,X&XpXiX5XoX* + 5 9.[.[.[.[.[.[.[.[.[.[.[.[.[.[.[.[.[.",
"[.[.[.[.[.b.I.].[.[.[.[.[.[.[.[.[. Xk.j @ z %X1X2X5XrX2XuX1Xc 6 ; P 3XuX1XuXyX6X2X$Xd @ 9 K. XU.[.[.[.'.[.[.[.[.[.[.[.[.[.[.[.[.",
"[.[.[.[.[.[.[.[.[.[.[.[.[.[.[.[.[.[. XF * * p O.&X1X$X- p o 6 %X+X* o 1 * &X,X%XO.5 , < F  X[.[.[.[.[.[.[.[.[.[.[.[.[.[.[.[.[.[.",
"[.[.[.[.[.[.[.[.[.[.[.[.[.[.[.[.[.U.}.L < &.e . s ..T.o.} 8.:X1X2X:X8.} O.T. .p @ e :.g G {.[.[.[.{.[.[.[.[.[.[.[.[.[.[.].[.[.[.",
"[.[.[.[.[.[.[.[.[.[.[.[.[.[.[.].[.[. X_ $ :.7.! q & & 1 c { { { } { [ c 1 $ & g ! 6.3.> /  XU.[.[.[.[.[.[.[.[.[.[.[.A.|.[.[.[.[.",
"[.[.{.[.[.[.[.[.[.[.[.[.[.[.[.[.[.[.}.w.# ! 6.3.&.@.U M * . 5 4 3 8 + & B T @.@.<.6.&.$ `  X[.[.[.[.[.[.[.{.[.[.[.'.A.A.].[.[.[.",
"[.[.[.[.[.[.[.[.[.[.[.[.[.{.[.[.[.[.[.U.5 K 6.,.#.Q ! -.7 j V.s.f.n.H , #.#.! T ,.7.T & k.{.[.[.{.{.[.[.[.[.[.[.].[.[.[.'.[.[.[.",
"[.[.[.[.[.[.[.[.[.[.[.[.}.[.[.[.[.[.[.{.j b 6.3.&.Q Q ! $ I V.d.s.B.] * Q #.@.#.:.2.n r [.[.].[.[.[.[.[.[.[.[.[.[.[.[.[.[.[.[.[.",
"[.[.{.[.[.[.[.{.[.[.[.[.[.[.[.[.[.[.U. X/ * #.3.:.@.#.U & g.P.v.v.b.q.& U @.@.;.#.~ < /  X].[.[.[.[.[.[.[.[.[.[.[.[.[.[.[.[.[.[.",
"[.[.[.{.{.[.[.[.}.[.[.[.}.[.}.U.[.[.[. Xw.* * = , * * * 8 K.{.[.[.}.K.9 * * > , ; * & 0. X[.[.[.[.[.[.[.[.].[.[.[.'.[.].[.[.[.[.",
"[.[.[.[.[.[.[.[.[.[.[.[.U.[.[.[.[.[.[.].[.S $ h f 2 = @ F {.[.[.[.[.}./ @ - = f h * 8 L.[.[.[.[.[.[.[.].].I.I.c.c.L.[.[.[.[.[.[.",
"[.[.[.[.[.[.[.[.}.[.}.[.[.U.}.U.[.[.[.[. Xq.$ 1 C z * * w.{.[.[.[.[.{.k.5 * z C a $ 9.}.U.[.[.[.[.[.[.[.[.L.v.v.v.b.'.'.].[.[.[.",
"[.[.[.{.[.[.[.[.[.[.[.[.[.}.[.[.[.[.[.[.[.{.0.8 & & 9 q. X[.[.[.U.[.[.{.w.t * & 5 9.[.[.[.[.[.[.[.[.[.[.[.I.b.b.L.I.m.m.[.[.[.].",
"[.[.[.[.[.[.[.[.[.[.[.[.[.}.U.[.[.[.[.[.[.]. XU.j.w.L. X[.[.[.[.[.].[.[.}.U.j.w.L. X[.[.[.[.[.[.[.[.[.[.[.L.I.I.U.P.C.C.[.[.[.[.",
"[.}.[.[.[.[.[.[.[.[.[.[.[.[.[.[.{.[.[.[.[.[.`.[. X X[.[.[.[.[.[.[.[.[.[.[.[. X[.[.].[.[.[.[.{.[.[.[.[.[.].U.I.U.[.L.m.P.[.[.[.[.",
"[.[.[.[.[.[.[.[.[.}.[.[.[.[.[.[.[.[.[.[.[.[.[.[.U.[.[.[.[.[.[.[.[.[.[.[.[.[.[.U.[.[.[.[.[.[.[.[.[.[.[.[.[.[.[.[.U.[.[.[.].[.[.[.",
"[.[.[.[.[.[.].c.b.Y.[.[.[.[.[.[.[.[.[.[.[.[.[.U.[.[.[.[.[.[.[.[.[.[.[.[.[.U.[.[.[.[.[.[.[.[.[.[.[.[.[.[.[.[.U.[.[.[.[.[.[.[.[.[."
};
