/* XPM */
static char *_bd005f8f191473befcf2b2471bb968bVd1q9pGgrl9t9vnl[] = {
/* columns rows colors chars-per-pixel */
"64 64 199 2 ",
"   c #4CAF39",
".  c #5EAF33",
"X  c #4DB235",
"o  c #4EB038",
"O  c #55B337",
"+  c #52B23A",
"@  c #69BD2E",
"#  c #60B736",
"$  c #68B934",
"%  c #62B63D",
"&  c #6CBA3F",
"*  c #74BD3C",
"=  c #79BF3D",
"-  c #6FC02E",
";  c #79C03A",
":  c #5C9B4B",
">  c #478F5F",
",  c #538C58",
"<  c #4A9954",
"1  c #4A915D",
"2  c #53965C",
"3  c #55985B",
"4  c #5A9D59",
"5  c #669E58",
"6  c #719C5D",
"7  c #4DA744",
"8  c #58A945",
"9  c #5EB640",
"0  c #69AE4D",
"q  c #76AB4C",
"w  c #67B246",
"e  c #6CB841",
"r  c #74BB43",
"t  c #7ABC45",
"y  c #76B44D",
"u  c #7DB64E",
"i  c #7EBA4B",
"p  c #64A555",
"a  c #6BAC52",
"s  c #68A459",
"d  c #73A956",
"f  c #7BAD56",
"g  c #7DAE5A",
"h  c #7EB152",
"j  c #438B62",
"k  c #4A8F60",
"l  c #599563",
"z  c #6C9369",
"x  c #6D966E",
"c  c #77A561",
"v  c #96B93D",
"b  c #9BB93C",
"n  c #B4B02C",
"m  c #A3BC3D",
"M  c #BCBE36",
"N  c #FE8C04",
"B  c #E59E0F",
"V  c #FF9405",
"C  c #FF9A04",
"Z  c #FE950A",
"A  c #F79E0E",
"S  c #FD9C0B",
"D  c #E49F13",
"F  c #F69E12",
"G  c #F89F13",
"H  c #DAA218",
"J  c #FFA304",
"K  c #FEA30C",
"L  c #FEAA0D",
"P  c #FFB00E",
"I  c #E5A314",
"U  c #ECA417",
"Y  c #F0A012",
"T  c #FBA112",
"R  c #FDAB14",
"E  c #FCAD19",
"W  c #E4B11E",
"Q  c #FFB114",
"!  c #FCB41B",
"~  c #FAB81C",
"^  c #C7A922",
"/  c #CEB72B",
"(  c #C8B92E",
")  c #D2BF30",
"_  c #E2AC24",
"`  c #FEA624",
"'  c #FDA92A",
"]  c #FDB523",
"[  c #F7BA27",
"{  c #FDBB23",
"}  c #FEBC2A",
"|  c #FFB335",
" . c #FFBB34",
".. c #FCB23D",
"X. c #B1E71F",
"o. c #96CE3E",
"O. c #9CD334",
"+. c #9BD23A",
"@. c #BFCE3E",
"#. c #A6DC32",
"$. c #A9DE30",
"%. c #AAE320",
"&. c #B7EC24",
"*. c #BCF021",
"=. c #C7C335",
"-. c #D3C434",
";. c #D3CC3C",
":. c #FDC326",
">. c #FCC826",
",. c #FCC52B",
"<. c #FCCA2E",
"1. c #FEC333",
"2. c #FCCC32",
"3. c #F8C438",
"4. c #FDCD3B",
"5. c #FDD335",
"6. c #FCD43B",
"7. c #FDDA3D",
"8. c #82BF45",
"9. c #83B74E",
"0. c #83BC4A",
"q. c #88BF4A",
"w. c #92BE43",
"e. c #86AC52",
"r. c #81B552",
"t. c #FDB444",
"y. c #FCB64D",
"u. c #FCB94D",
"i. c #FEBB53",
"p. c #84C045",
"a. c #8CC446",
"s. c #86C34B",
"d. c #8BC34A",
"f. c #92C146",
"g. c #97C346",
"h. c #92CA41",
"j. c #90C952",
"k. c #BECA4D",
"l. c #B4D44E",
"z. c #B9DA6B",
"x. c #D5CE46",
"c. c #CCD047",
"v. c #D4D64E",
"b. c #FBC24A",
"n. c #FDD641",
"m. c #FDDE42",
"M. c #FCD94D",
"N. c #FEC157",
"B. c #FFC857",
"V. c #FFDD54",
"C. c #FDD75E",
"Z. c #CBE153",
"A. c #D5E756",
"S. c #FDE345",
"D. c #FEE34A",
"F. c #FEEA4D",
"G. c #FEEC53",
"H. c #FAEA58",
"J. c #FDF456",
"K. c #FEF45B",
"L. c #C3DE6F",
"P. c #D3DB79",
"I. c #FCD666",
"U. c #FBD769",
"Y. c #FFCB71",
"T. c #FCDA73",
"R. c #FED17A",
"E. c #FCDC7D",
"W. c #FFEC61",
"Q. c #FEF664",
"!. c #FEF965",
"~. c #FEF669",
"^. c #FEFB6C",
"/. c #FEE37C",
"(. c #F8E77E",
"). c #FDFD71",
"_. c #FDDE82",
"`. c #FED788",
"'. c #FFD98B",
"]. c #FFDA90",
"[. c #FDE283",
"{. c #FFE883",
"}. c #FDE68A",
"|. c #FEEC8D",
" X c #FDF48C",
".X c #FDED90",
"XX c #FEF295",
"oX c #FDF59A",
"OX c #FDFA9A",
"+X c #FEE7A5",
"@X c #FCFBA2",
"#X c #FDEDBE",
"$X c #FDF2BE",
"%X c #FDEFC3",
"&X c #FDF4C4",
"*X c #FDF4C8",
"=X c #FDFACE",
"-X c #FDFDD3",
";X c #FCFFDD",
/* pixels */
"d.d.d.d.d.d.d.d.d.d.d.d.d.d.d.d.d.0.g f a a 9.9.e r 9.9.s.d.d.d.d.d.d.d.d.d.d.d.d.d.d.d.d.= = p.d.d.d.d.d.d.d.d.d.d.d.d.d.d.d.d.",
"d.d.d.d.d.j.d.d.d.d.d.d.d.d.d.d.a.p.a.a.f.d.a.d.d.d.a.d.d.d.d.d.d.d.d.d.d.d.d.j.d.d.p.d.d.$ @ p.d.d.d.d.d.d.d.d.d.d.d.d.d.j.d.d.",
"d.d.d.d.d.d.d.d.d.j.d.d.d.d.d.d.d.q.d.d.d.d.d.d.d.d.d.d.d.d.d.d.d.d.d.d.d.d.d.d.d.d.d.d.d.$ # p.d.d.d.d.d.d.d.d.d.d.d.d.d.d.d.d.",
"d.d.d.d.d.d.d.d.d.d.d.d.d.d.d.d.d.d.d.d.d.d.d.d.d.d.d.d.d.d.d.d.d.d.d.d.d.d.d.d.d.d.d.d.p.O + 8.q.d.d.d.d.d.d.d.d.d.d.d.d.d.d.d.",
"d.d.d.d.d.d.d.d.d.d.d.d.d.d.d.d.d.q.d.d.d.d.d.q.d.d.d.d.d.d.d.d.d.d.d.d.d.d.d.d.d.d.d.d.s.8 7 0.a.t r p.d.s.d.d.d.d.d.d.d.d.d.d.",
"d.d.j.d.d.d.d.d.d.d.d.d.d.d.d.d.d.d.d.d.d.d.d.a.d.d.d.d.d.d.d.d.d.d.d.d.d.d.d.d.d.d.q.d.s.2 k i d.# X t d.d.d.d.d.d.d.d.j.d.d.d.",
"d.d.d.d.d.d.d.d.d.d.d.d.d.d.d.d.d.d.d.d.d.d.d.d.d.d.d.d.d.d.d.d.d.d.d.d.d.d.d.d.d.d.d.d.q.2 1 i d.w 7 i d.d.d.d.d.d.j.d.d.d.d.d.",
"d.d.d.d.d.d.d.d.d.d.d.d.d.d.d.d.d.d.d.d.q.d.d.d.d.d.d.d.d.d.d.d.d.d.d.d.d.d.j.d.d.d.d.d.s.2 > i f.4 j y f.d.d.d.d.d.d.d.d.d.d.d.",
"d.d.d.d.d.d.d.d.d.d.d.d.d.d.p.d.d.a.a.q.q.d.d.d.d.d.d.d.d.d.d.d.d.d.d.d.d.d.d.d.d.d.d.d.q.4 3 9.d.p 1 u j.d.d.d.d.d.d.d.d.d.d.d.",
"d.d.d.d.d.d.d.d.d.d.d.d.d.d.d.h.o.o.o.o.d.d.d.d.d.d.d.d.d.d.d.d.j.d.d.d.d.d.d.d.d.d.d.d.s.q.q.p.d.p.s.d.a.d.d.d.d.d.d.d.d.d.d.d.",
"d.d.d.d.p.d.s.d.d.d.d.d.d.d.s.a.o.o.o.o.d.a.d.d.d.d.d.d.d.d.d.d.d.d.d.d.d.d.d.d.d.d.d.d.d.d.d.d.d.d.d.d.a.d.d.d.d.j.d.d.d.d.d.d.",
"d.d.d.d.p.9.9.q.d.d.d.d.d.d.d.d.d.d.p.d.8.a.d.d.d.d.d.d.d.d.d.d.d.d.d.d.d.d.d.d.d.d.d.d.d.d.d.d.d.d.d.d.d.a.d.d.d.d.d.d.d.j.d.d.",
"d.d.d.d.d.i i d.a.p.d.d.d.d.d.d.d.d.d.d.d.d.p.d.j.d.d.d.d.d.d.d.d.d.d.d.d.d.d.d.d.s.s.d.q.d.d.d.d.d.d.d.d.d.d.d.d.d.d.d.d.d.d.d.",
"d.d.8.i 0.p.8.q.0.9.9.q.d.d.d.d.d.d.d.d.d.j.z.x.W I I I B I D B B I B I D D D D H ^ m d.d.a.d.d.a.d.d.d.d.d.d.d.d.d.d.d.d.d.d.d.",
"d.d.q.9.9.d.d.9.i i 9.8.d.d.d.p.d.d.d.d.z.(. .T t.Y.'.'.'.'.'.'.'.'.'.'.`.].C.5.2.{ K ^ w.d.d.d.d.d.d.d.d.d.d.d.d.d.d.d.d.d.d.d.",
"d.d.a.8.q.p.d.8.s.q.8.d.d.d.d.d.d.d.p.L./.G ' +X=X-X-X-X-X-X-X-X-X-X-X-X;X@XK.G.K.K.F.{ I w.s.d.d.d.d.d.d.d.d.d.d.j.d.d.d.a.j.d.",
"d.d.d.d.d.d.d.d.d.d.d.d.d.d.d.d.d.d.l.G.K ..=X-X&X#X#X#X#X#X#X#X#X#X#X&X[.>.<.2.2.7.F.K.1.H d.s.d.a.d.d.d.d.d.d.d.d.d.d.d.d.d.d.",
"d.d.d.d.q.d.d.d.d.d.d.d.d.d.d.d.d.g.H.:.` &X*X#X#X#X#X#X#X#X%X#X#X#X%X[.<.<.2.<.<.,.<.G.).} n s.d.d.d.d.d.d.d.d.d.d.d.d.d.d.d.d.",
"d.d.d.d.d.d.d.d.d.d.d.d.d.d.d.d.s.l.F.S `.-X#X#X#X&X#X#X%X#X%X#X#X%X_.,.,.<.<.<.<.<.m.F.!.W._ 8.d.d.d.d.d.j.d.d.d.d.j.d.d.d.j.d.",
"d.d.d.d.d.d.d.d.d.d.d.d.d.d.d.d.q.Z.5.` $X&X#X#X%X#X#X$X#X#X#X$X*X}.5.5.6.6.2.<.<.S.F.F.G.). .b d.d.d.d.d.d.d.d.d.d.d.d.d.d.d.d.",
"d.d.d.d.d.d.d.d.d.d.d.d.d.d.d.d.8.A.{ ..=X#X#X%X#X#X*X-X;X-X-X-XOXJ.K.K.J.K.J.7.m.F.F.G.F.!.n.b d.d.d.d.d.d.d.d.d.d.f.d.d.d.d.d.",
"d.d.d.d.d.d.d.d.d.d.d.d.d.d.d.d.q.A.{ y.=X#X#X#X&X=X&XR.i.i.i.u.] ] ] { ] { 7.^.!.F.F.F.F.Q.M.w.s.d.d.d.d.j.d.d.d.d.j.d.d.d.j.d.",
"d.d.d.d.d.d.d.d.d.d.d.d.d.d.d.d.s.v.! y.-X#X#X#X=X+X' C C C C C C S C C C V V  .~.Q.F.F.F.Q.M.b s.d.d.d.d.d.d.d.d.d.d.d.d.d.d.d.",
"d.d.d.d.d.d.d.d.d.d.d.d.d.d.a.d.p.;.L y.=X#X#X&X$X' J P L L L L L L L L L L K N  .^.G.F.F.Q.M.b s.d.d.d.d.d.d.d.d.d.d.d.d.d.d.d.",
"d.d.d.d.d.d.d.d.d.d.d.d.d.d.d.d.d.;.L y.=X#X#X=XR.C Q K Z V A S S T K K G K K S S W.K.F.F.Q.M.b d.d.d.d.d.d.d.d.d.d.d.d.d.d.d.d.",
"j.d.d.d.d.d.d.d.d.d.d.d.d.d.d.d.s.;.L y.=X#X#X-Xi.J L C Z ] ,.,.<.6.7.7.7.7.{ S N V.Q.F.F.Q.M.b s.d.d.d.d.d.d.d.d.d.d.d.d.d.d.d.",
"d.d.d.d.d.d.d.d.d.d.d.d.d.d.d.d.q.v.E y.=X#X#X-XN.J K N E 5.<.2.<.2.7.S.S.S.S.R N V.K.F.F.K.6.b d.d.d.d.d.d.d.d.d.d.d.j.d.j.d.d.",
"d.d.d.d.d.d.d.d.d.d.d.d.d.8.8.8.8.P.| t.=X#X#X-XN.J T N } <.<.<.<.<.,.5.7.7.S.{ N V.K.F.7.S.6.b s.d.d.d.d.d.d.d.d.d.d.d.d.d.d.d.",
"d.d.d.d.d.d.d.d.d.d.d.d.d.& o e q.P.| t.-X#X#X-Xb.J K N ,.2.<.2.2.<.<.<.7.m.S.~ N V.K.m.,.S.4.m s.d.d.d.d.d.d.d.d.a.s.d.d.d.d.d.",
"d.d.d.d.d.d.d.d.d.d.d.d.d.& + * p.x.R y.=X#X%X X{ J T N } 2.<.<.<.<.2.<.,.7.S.{ N V.G.<.,.D.6.w.s.d.d.d.a.a.d.d.d.d.d.d.a.d.d.d.",
"d.d.d.d.d.d.d.d.d.d.d.d.q.O.%.O.q.;.L y.=X%XT.F.:.J K N :.2.<.<.2.<.<.<.<.2.S.~ N M.m.,.,.D.6.b s.d.s.#.&.+.8.d.d.s.d.d.d.d.d.d.",
"d.d.d.d.d.d.p.d.d.d.d.d.d.O.X.O.0.;.L y.-XT.,.F.} K K N } 2.<.2.<.<.<.2.<.,.6.{ N 7.m.<.,.S.4.w.s.j.q.%.*.+.q.d.d.p.d.d.d.d.d.d.",
"d.d.p.9.9.q.d.d.d.p.d.d.d.; - $ o =.R y.|.>.<.F.[ J K N [ <.<.<.<.<.<.<.2.<.2.! N 7.m.,.,.D.6.b d.d.q.$.*.+.q.r + e d.d.q.d.d.d.",
"d.d.d.9.i d.d.d.d.d.d.d.d.* $ $   @.E ] F.<.<.F.:.J K N E <.<.<.<.2.2.<.<.<.2.E N 7.m.,.,.S.4.w.s.d.q.$.*.+.q.r o % a.d.d.d.d.d.",
"d.d.d.8.d.p.d.d.d.d.d.d.d.* @ 8 > k.! ! F.<.<.F.} K K N E [ <.<.<.2.<.<.2.<.2.! N n.m.,.<.F.5.b s.d.d.a.h.y 3 a p.8.d.d.d.d.d.d.",
"d.d.d.d.d.d.d.d.d.d.d.d.a.* @ 8 j k.! [ F.<.<.F.:.J K N R ~ :.<.<.<.2.<.2.<.2.E N n.m.<.,.S.6.b s.d.d.d.d.p j s d.d.d.d.q.d.d.d.",
"d.d.d.d.d.d.d.d.d.p.a.a.d.8.o.t 0 c.! ] F.<.<.G.1.J S N E ! ! :.<.<.<.2.<.<.2.E N n.m.,.,.D.C.b s.g c s.d.w 7 e d.t w e d.d.d.d.",
"d.d.d.d.d.d.d.d.d.q.d.d.d.d.9.p.d.;.T ] F.,.<.!.1.J K N E ~ ! ! :.2.<.<.<.<.2.E N n.m.:.3.}.U.b d.c x 9.d.e X e f.r X O d.d.a.8.",
"d.d.d.d.d.d.d.d.d.d.d.d.d.a.d.d.s.;.R ] F.2.S.^. .J T V S ~ ~ ~ ~ :.2.<.2.2.<.T N n.7.3.T.oXI.v s.9.h g g p < 0 j.t o e d.d.d.d.",
"d.d.d.d.d.d.d.d.d.d.d.d.d.d.d.f.s.;.R ! J.S.F.^.1.J L S N G R Q E E ~ } { { R J V 7.D.T._.XXI.b s.d.d.c x l > p a.r o . q.d.d.d.",
"d.d.d.d.d.d.d.d.d.d.d.d.d.d.d.d.s.;.T { !.F.F.!.V.C L L K C S S S S S S S K K C S H./._.E.XXU.b s.d.d.r.g d p y a.p.& r d.d.d.d.",
"d.d.d.d.d.d.d.d.d.d.d.d.d.d.d.d.s.-.T } ^.F.F.K.).] C L L L L L L L L L L L C V 4.XX_._._.XXU.b s.d.d.p.d.a.d.d.d.d.d.d.d.d.d.q.",
"d.d.d.d.d.d.d.d.d.d.d.d.d.d.d.d.s.) K  .~.F.F.F.~.W.} Z C Z C V S C C V V Z S 4.XX|._._.E.XXU.b s.d.d.d.d.d.d.d.d.d.d.s.d.d.d.d.",
"d.d.d.d.d.d.d.d.d.d.d.d.d.d.d.d.s.) K ] ^.F.F.F.G.~.).H.6.2.4.5.2.2.5.2.4.2.H.OX.X_._._./.XXI.b d.d.d.d.d.d.d.d.d.d.d.d.d.d.d.d.",
"d.d.d.d.d.q.q.d.d.d.d.d.d.d.d.d.s.) R R ~.G.F.F.F.F.K.K.J.J.J.K.K.J.J.J.J.K. X}._._.[._._.oXb.v s.d.d.d.d.d.d.d.d.d.d.d.d.d.d.d.",
"d.d.d.p.p.i i s.d.d.d.d.d.d.q.d.p.M ! A V.^.F.F.G.F.7.<.2.2.5.2.5.2.5.<.n.E._._._.[._.E..X X_ q.d.d.d.d.d.d.d.d.d.d.d.d.d.d.d.d.",
"d.d.d.d.d.i i q.d.d.d.d.d.d.d.d.s.g.[ K ] ^.Q.F.F.7.<.<.2.<.<.,.<.2.,.4.E._._._._._._.}.@Xb.^ s.d.d.d.d.d.d.d.d.d.d.d.a.d.d.d.d.",
"d.d.d.d.d.9.i d.d.d.d.d.d.d.d.d.d.s.M R Z 1.^.Q.S.2.<.2.<.<.<.2.2.>.4.E._._._._.[.[.|.@XI.I a.d.d.d.d.d.d.d.d.d.d.d.p.d.d.d.d.d.",
"d.d.d.d.d.9.i d.d.d.d.d.d.d.d.d.d.d.d./ L V } K.J.G.G.F.F.F.F.F.F.H. XoXXXoXXXXXoXOXOXB.Y g.s.f.d.d.d.d.d.d.d.d.d.d.d.d.d.d.d.d.",
"d.d.d.d.d.d.d.d.d.d.d.d.d.d.d.d.d.d.d.d.( E C K ,.n.S.S.D.S.D.S.G./.{.[.{.{.{.{./.C.` I b s.d.d.d.d.d.d.d.d.d.d.d.d.d.d.d.d.d.d.",
"d.d.d.d.d.d.d.d.p.d.d.d.d.d.d.d.a.d.d.d.s.m / U Z A T G F F A T G G A F F T A T F H n d.d.d.d.d.d.d.d.d.d.d.d.d.d.d.d.d.8.d.d.d.",
"d.d.d.d.d.d.d.d.a.d.d.d.d.d.d.d.d.d.d.d.d.s.s.d.a.f.w.w.$ . : 2 q g.q , 5 e.e.w.q.p.s.d.d.d.d.d.d.d.d.d.d.d.d.d.d.a.o.h.a.d.d.d.",
"d.d.d.d.d.d.d.d.d.d.d.d.d.d.d.d.d.d.d.d.d.d.d.d.d.s.d.s.9 + < > q d.a j 5 f h s.d.d.a.d.d.d.d.d.d.d.d.d.d.d.d.d.d.a.o.o.d.a.d.d.",
"d.d.d.d.d.d.d.d.d.d.d.d.d.d.d.d.d.d.d.d.d.d.d.d.d.d.d.d.d 6 l 1 3 4 s d h q.q.d.d.d.d.d.d.d.d.d.d.d.d.q.d.d.d.d.d.d.d.d.d.q.d.d.",
"d.d.d.d.d.d.d.d.d.d.j.d.d.d.d.d.d.d.d.d.d.d.d.d.a.d.d.p.c x l 1 > > 5 e.9.d.d.d.d.d.d.d.d.d.d.d.d.d.d.d.d.d.d.d.q.d.d.d.q.d.d.d.",
"d.d.d.d.d.d.d.d.d.d.d.d.d.d.d.d.a.j.d.d.d.d.d.d.d.d.d.d.u h u y y h u 9.0.d.d.d.q.d.d.d.d.d.d.d.d.j.d.d.d.d.d.d.d.d.a.d.d.d.d.d.",
"d.d.d.d.d.d.d.d.d.d.d.d.d.d.d.d.d.d.d.d.d.d.d.d.d.d.d.d.a.d.a.d.d.d.d.d.d.d.d.d.d.d.d.d.d.d.d.d.d.s.d.d.d.d.a.d.d.d.d.d.d.d.d.d.",
"d.d.d.d.d.d.d.d.d.d.d.d.d.d.j.d.d.d.d.d.d.j.d.d.d.d.d.d.d.d.d.d.d.d.d.d.d.d.d.d.d.d.d.d.d.d.d.d.d.d.d.d.d.0.i 9.i 8.p.d.d.d.d.d.",
"d.d.d.d.d.d.d.d.d.j.d.d.d.d.d.d.d.d.d.d.d.d.d.d.d.d.d.d.d.d.d.d.d.d.d.d.d.d.d.d.d.d.d.d.d.d.d.d.d.d.a.d.d.t y r y i p.a.8.d.d.d.",
"d.j.d.d.d.d.d.d.d.d.d.d.d.d.d.d.d.a.j.d.d.d.d.d.d.d.d.d.d.d.d.d.d.d.d.d.d.d.d.d.d.d.d.d.d.d.d.j.d.d.d.d.a.9.i 9.8.i f e.d.d.d.d.",
"d.d.d.d.d.d.d.d.a.s.d.d.d.d.d.d.d.d.d.d.d.d.d.d.d.d.d.d.d.d.d.d.d.d.d.d.d.d.d.d.d.d.d.d.d.d.d.d.d.d.d.d.d.0.i 0.a.e.z 6 d.d.d.d.",
"d.d.d.d.d.d.d.d.d.d.d.d.d.d.d.d.d.d.d.d.d.d.d.d.d.d.d.d.d.d.d.d.d.d.d.d.d.d.d.d.d.d.d.j.d.d.d.d.d.d.d.d.d.8.0.8.a.9.d f d.d.d.q.",
"d.d.d.d.d.d.d.d.d.d.d.d.d.d.f.j.d.d.d.d.d.d.d.d.d.d.d.d.d.d.d.d.d.d.d.d.d.d.d.d.d.d.d.d.d.d.d.d.d.d.d.d.d.q.d.d.p.a.a.d.q.d.d.d.",
"d.d.d.d.d.d.d.t r p.d.d.d.d.d.d.d.d.d.j.d.d.d.d.d.d.j.d.d.j.d.d.d.d.d.d.j.d.d.d.d.d.d.d.d.d.d.d.d.d.d.d.d.s.d.d.d.d.d.d.d.d.d.d."
};
