/* XPM */
static char *d92f93a02299423cd1780c189e82fc06pEkL72dROwK96V1Z[] = {
/* columns rows colors chars-per-pixel */
"64 64 197 2 ",
"   c #FE7F01",
".  c #4DAF39",
"X  c #4DB235",
"o  c #4EB038",
"O  c #5FB436",
"+  c #52B23A",
"@  c #57B439",
"#  c #68BD2E",
"$  c #67B935",
"%  c #62B63E",
"&  c #6DBA3F",
"*  c #75BD3B",
"=  c #79BF3D",
"-  c #6EC02E",
";  c #478F5F",
":  c #528C57",
">  c #4C9C52",
",  c #4A925C",
"<  c #53955C",
"1  c #55985B",
"2  c #5A9C5A",
"3  c #669E58",
"4  c #719C5D",
"5  c #4DA744",
"6  c #58A945",
"7  c #5FA155",
"8  c #69AE4D",
"9  c #76AB4C",
"0  c #67B246",
"q  c #6BB841",
"w  c #74BB43",
"e  c #7ABC45",
"r  c #76B44D",
"t  c #7DB64E",
"y  c #7EBA4B",
"u  c #64A555",
"i  c #6BAC52",
"p  c #68A459",
"a  c #75A757",
"s  c #73AC55",
"d  c #7CAD55",
"f  c #7DAE5A",
"g  c #7DB353",
"h  c #438B62",
"j  c #4A8F60",
"k  c #599563",
"l  c #6C9369",
"z  c #6D966E",
"x  c #76A561",
"c  c #7FC040",
"v  c #81BD3A",
"b  c #9CBA3B",
"n  c #BEA427",
"m  c #A6B739",
"M  c #BBBC35",
"N  c #B4BF39",
"B  c #FE8202",
"V  c #FE8C01",
"C  c #FF8D0B",
"Z  c #FE9504",
"A  c #FE9B02",
"S  c #FE950A",
"D  c #F69A0D",
"F  c #FE990B",
"G  c #FE8B19",
"H  c #E39F15",
"J  c #FB9612",
"K  c #CFA81E",
"L  c #FDA204",
"P  c #FEA30D",
"I  c #FEAC0E",
"U  c #E4A61A",
"Y  c #F5A113",
"T  c #FCA412",
"R  c #FCAC16",
"E  c #FDA61B",
"W  c #F2AE19",
"Q  c #FDAC1B",
"!  c #FAB619",
"~  c #FCB31D",
"^  c #FDB91E",
"/  c #DDA223",
"(  c #CDB42F",
")  c #D1B030",
"_  c #FCAA22",
"`  c #E5B220",
"'  c #FDB324",
"]  c #FCBA22",
"[  c #FDB428",
"{  c #FEBE29",
"}  c #B0E71F",
"|  c #96CE3E",
" . c #9CD334",
".. c #9BD23A",
"X. c #B9C53E",
"o. c #A6DC32",
"O. c #A9DE30",
"+. c #AAE320",
"@. c #B7EC24",
"#. c #BCF021",
"$. c #FCC424",
"%. c #FBC52B",
"&. c #FCCA2E",
"*. c #FCD22D",
"=. c #FCCC32",
"-. c #FCCC3B",
";. c #FDD235",
":. c #FBD837",
">. c #FDD63A",
",. c #FDDA3D",
"<. c #FEE03F",
"1. c #87AB4C",
"2. c #81BE46",
"3. c #88BE47",
"4. c #83B74E",
"5. c #83BC4B",
"6. c #88BE4B",
"7. c #81AD55",
"8. c #82B452",
"9. c #B3BB47",
"0. c #FEB66C",
"q. c #FEBD6B",
"w. c #84C046",
"e. c #8CC446",
"r. c #85C24B",
"t. c #8BC34A",
"y. c #8AC84E",
"u. c #91C145",
"i. c #93CA42",
"p. c #99C842",
"a. c #92C649",
"s. c #B9C745",
"d. c #B9CB45",
"f. c #BACC48",
"g. c #B1D14C",
"h. c #BBD54D",
"j. c #B9C858",
"k. c #A9D05B",
"l. c #BACC65",
"z. c #BDD465",
"x. c #C4D341",
"c. c #C4D54B",
"v. c #C5DC59",
"b. c #FCCE44",
"n. c #FBCC4B",
"m. c #E3D349",
"M. c #FDD344",
"N. c #FDDD41",
"B. c #FCD34A",
"V. c #FEC756",
"C. c #FFD951",
"Z. c #FDE245",
"A. c #FEE349",
"S. c #FEEA4D",
"D. c #FEF14C",
"F. c #FAE757",
"G. c #FEEE52",
"H. c #FFEB5A",
"J. c #FEF355",
"K. c #FEF259",
"L. c #C5DB6F",
"P. c #FEC66F",
"I. c #FDD967",
"U. c #FEC574",
"Y. c #FEC579",
"T. c #FCDD7D",
"R. c #D5E164",
"E. c #E3E867",
"W. c #FFEE61",
"Q. c #FEE76B",
"!. c #FEF462",
"~. c #FDF964",
"^. c #FEF769",
"/. c #FEF96A",
"(. c #FDFE72",
"). c #C5DD9A",
"_. c #FEC982",
"`. c #FFDF82",
"'. c #FCE186",
"]. c #FDE78A",
"[. c #FEF593",
"{. c #FFF79A",
"}. c #FEFA9D",
"|. c #C5DFA3",
" X c #FFCEA1",
".X c #F7D9A3",
"XX c #FBD8B6",
"oX c #FCDABF",
"OX c #C5E0A5",
"+X c #FDDEC1",
"@X c #FBDCC8",
"#X c #FDE7CE",
"$X c #FEE9CE",
"%X c #FEECD2",
"&X c #FDF6E3",
"*X c #FFFDF5",
"=X c #FEFFFE",
/* pixels */
"t.t.t.t.y.t.t.t.t.t.t.t.t.6.t.t.t.5.d d i i 4.4.q w 4.4.3.t.t.t.t.t.t.t.t.t.y.t.t.t.t.t.3.= * w.t.t.t.t.t.t.t.t.t.t.t.t.t.t.t.t.",
"t.t.t.t.t.t.t.t.t.t.t.t.y.t.t.t.t.t.e.e.a.t.t.t.t.e.t.t.t.t.t.t.t.t.t.t.t.t.t.t.t.t.t.t.t.$ # w.t.t.w.t.t.t.t.t.t.t.t.t.t.t.t.t.",
"t.t.t.t.t.t.t.t.a.t.t.t.t.t.t.t.r.t.t.t.t.t.t.t.t.t.6.t.t.t.t.t.t.t.t.t.t.t.t.t.t.t.t.t.t.$ O w.t.t.t.t.t.t.t.t.t.t.t.t.t.t.y.a.",
"t.t.t.t.t.t.t.t.y.t.t.t.t.t.t.t.t.t.t.t.t.t.t.t.t.e.t.t.t.t.t.t.t.t.t.t.t.t.t.t.t.t.t.t.w.@ + w.t.t.t.t.t.t.t.t.t.t.t.t.t.t.t.t.",
"t.t.y.t.t.a.t.t.t.t.t.t.t.t.t.t.t.t.t.t.t.t.t.t.t.t.t.t.t.t.t.t.6.a.t.t.t.t.t.a.t.t.t.t.r.6 5 5.t.e w 2.t.t.t.t.t.t.t.t.t.t.t.t.",
"t.t.t.t.t.t.t.t.t.t.t.t.t.t.t.t.t.t.3.t.t.w.t.t.t.t.t.t.t.t.t.t.t.y.t.t.y.t.t.t.t.t.t.t.3.< j y u.% X e t.r.t.t.t.t.y.t.t.t.t.t.",
"t.t.t.t.t.t.t.t.t.t.t.t.6.t.t.t.t.t.t.t.t.t.t.t.t.t.t.t.t.t.t.t.t.t.t.t.t.t.t.t.t.t.t.t.r.< , 4.e.0 5 e a.t.t.t.t.t.t.t.t.a.t.t.",
"t.t.t.t.t.t.t.t.t.t.t.t.t.t.t.t.t.t.t.3.t.t.t.t.t.t.t.t.t.t.t.t.t.t.t.t.t.t.y.t.t.t.t.t.r.< ; y a.2 h r e.t.6.t.t.t.t.t.t.y.t.t.",
"t.t.t.t.t.t.t.t.t.t.t.t.t.t.t.t.t.e.t.t.3.t.t.t.t.y.t.t.y.t.t.t.t.t.t.y.t.t.t.t.t.t.t.t.3.2 1 y e.u , g a.t.t.t.t.t.t.t.y.t.t.t.",
"t.t.t.t.t.t.t.t.t.t.t.t.t.t.t.e.| | | | t.t.t.t.t.t.t.t.t.t.t.t.t.t.6.a.t.t.t.t.t.t.t.t.r.3.r.t.t.r.t.t.t.t.t.t.y.t.t.t.a.t.t.t.",
"t.t.t.3.3.t.r.t.t.t.t.t.t.t.t.e.| | | i.t.t.t.t.t.t.t.t.t.t.t.t.t.t.t.t.t.t.t.t.t.t.t.t.t.t.t.t.t.t.t.t.t.t.t.t.a.t.t.t.t.a.t.t.",
"t.t.t.t.t.y 5.t.t.t.t.t.t.t.t.e.e.w.e.e.w.t.t.t.t.t.t.t.t.t.t.t.t.t.t.t.t.t.t.t.t.t.t.t.t.t.t.t.t.t.t.t.t.6.t.t.6.t.t.t.t.6.y.t.",
"t.t.3.t.r.5.y r.t.3.r.t.t.t.t.t.t.t.t.t.t.t.t.t.t.w.w.e.e.e.y.y.t.t.t.t.t.r.r.t.t.t.t.t.t.t.t.t.t.t.t.t.t.t.t.t.t.t.t.y.t.t.t.t.",
"t.t.t.y 5.3.3.4.y 5.5.3.w.t.t.t.t.t.t.t.t.t.t.t.t.k.R.E.E.E.m.U U H H H H / m r.t.t.t.t.t.t.t.t.t.t.t.t.t.t.t.t.t.t.t.t.t.t.t.t.",
"t.t.3.y 5.6.t.y y 4.y 3.t.t.t.t.t.t.t.e.r.t.t.t.L.[.{.{.}.V.F Q &.-.;.;.>.=.~ K e.r.t.t.t.t.t.t.t.t.t.t.t.t.t.6.t.t.t.t.t.t.y.6.",
"t.t.r.3.3.r.t.3.r.3.3.w.t.t.t.t.t.t.t.t.t.t.r.z.{.[.[.{.V.Z =.K.K.J.J.J.J.K.D.I.( 5.t.t.t.t.t.t.t.t.t.t.t.t.t.y.a.t.t.t.t.t.t.a.",
"t.t.t.t.t.t.3.t.t.t.t.t.t.t.t.t.t.t.t.a.t.t.a.F.G.H.K.A.S =.J.,.=.=.=.=.=.%.'.=X.Xb r.t.t.t.t.t.t.t.t.t.t.t.t.t.t.t.t.t.t.y.a.6.",
"t.t.t.t.t.t.t.t.t.t.t.t.t.t.t.t.t.t.t.t.t.r.g.J.J.S.J.%.T S.=.%.&.&.=.=.$.T.*X=X*Xl.2.r.t.t.t.t.t.t.t.t.y.t.t.t.t.t.t.t.t.t.t.t.",
"t.t.t.t.w.t.t.t.t.t.t.t.t.t.t.t.t.t.t.t.t.w.h.J.G.J.J.~ [ Z.%.=.%.&.%.$.T.=X=X*X=X).| 5.t.t.t.t.t.t.t.t.t.t.a.t.t.a.6.t.t.t.t.t.",
"t.t.t.t.t.t.t.t.t.t.t.t.t.t.t.t.t.t.t.t.t.w.h.J.G.G.J.~ %.:.%.&.;.:.*.T.=X=X=X=X=X|.v t.t.t.t.t.t.t.t.t.t.t.t.t.t.y.t.t.t.t.t.t.",
"t.a.t.t.t.t.t.t.t.y.t.t.t.t.t.t.t.t.t.t.t.5.h.J.G.G.J.Q { :.&.,.J.K.}.=X=X=X=X=X=XOXv t.t.t.t.t.t.t.t.a.t.t.t.y.y.t.t.t.y.t.t.t.",
"t.y.t.t.t.t.t.t.t.t.t.t.t.t.t.t.t.t.t.t.t.r.h.J.G.J.J.Q { >.:.J.N.{ q.q.0.+X=X*X=XOXv y.t.t.t.t.t.t.t.t.t.y.t.t.t.t.t.t.a.6.t.t.",
"t.t.t.t.t.t.t.t.t.t.t.t.t.t.t.t.t.t.t.t.e.r.h.Z.Z.Z.A.R { >.A.,.P A A A V B  X=X=X|.v y.3.t.t.t.t.t.t.t.t.t.t.t.a.t.t.t.a.y.t.t.",
"t.t.t.t.t.t.t.t.t.t.t.t.t.t.t.t.t.t.t.t.t.r.X.%.&.%.&.P { >.,.^ P I I I T V G &X=X|.v a.e.t.t.t.t.t.t.t.t.t.t.t.t.t.t.t.6.t.t.t.",
"t.t.t.t.t.t.t.t.t.t.t.t.t.w.t.t.t.t.t.t.t.r.X.&.&.&.;.P %.>.I.F A S D T I D   +X=X|.v p...t.t.t.t.t.t.t.t.t.t.t.t.t.t.t.a.t.t.t.",
"t.t.t.t.t.t.t.t.t.t.t.t.t.t.t.t.t.t.t.t.t.r.X.&.&.&.&.P ] ].#XF V S ] =.,.;.J +X=X|.v i.i.t.t.t.t.t.t.t.t.t.t.t.t.t.t.t.t.t.y.t.",
"t.a.y.t.t.t.t.t.t.t.t.t.t.t.t.t.t.t.t.t.t.r.s.M.M.n.B.P V.=X%XS   ' ;.=.,.A.' +X=X|.v y.t.t.t.t.t.t.t.t.t.t.t.t.y.t.t.t.a.t.6.t.",
"t.t.t.t.t.t.t.t.t.t.t.t.t.3.2.3.t.t.t.t.t.r.l.].`.`.].E Y.=X$XF B ] =.%.=.N.[ oX=X|.v a.t.t.t.t.t.t.t.t.t.t.t.t.6.t.t.t.t.t.t.t.",
"t.t.t.t.t.t.t.t.t.t.t.t.t.& o q t.t.t.t.t.w.j.'.`.T.'.E U.=X$XF B ] =.&.%.,.[ +X=X|.v t.t.t.t.t.t.t.t.t.t.t.t.t.t.t.t.6.t.t.t.t.",
"t.t.t.t.t.t.t.t.t.t.t.t.t.& o * t.t.t.t.t.w.d.-.b.-.b.L Y.=X$XF B ] ;.&.&.>.[ oX=X|.v t.t.t.t.t.t.t.w.e.e.e.t.t.t.t.t.t.t.t.t.t.",
"t.t.t.t.t.t.t.t.t.t.t.t.3. .+. .6.e.t.t.t.w.X.&.%.%.=.L Y.=X#XF B [ =.&.%.;.' oX=X|.v t.t.t.t.t.t.t.6.o.@...3.t.t.t.t.t.t.t.t.t.",
"t.t.t.6.r.6.t.t.t.t.t.t.r. .}  .3.r.t.6.t.5.X.=.=.=.=.L Y.=X#XD B ] =.=.&.=._ @X*XL.2.t.t.t.t.t.t.t.t.O.#...r.t.3.t.t.t.t.6.t.y.",
"t.t.6.y 5.t.t.t.t.t.t.t.t.* - $ @ q t.4.7.d 9.&.=.&.=.L Y.=X#XF B [ =.&.=.*._ XXQ.x.w.t.t.t.t.t.t.t.3.O.#...t.w + q t.3.t.t.t.t.",
"t.t.3.5.y t.t.t.t.w.t.t.t.* # $ o % a.4.d a 9.:.;.>.,.L Y.=X#XF B ~ =.&.&.=._ n.;.c.5.t.t.e.t.t.t.t.r.o.@...3.w o % t.t.t.t.t.t.",
"t.t.3.r.3.3.t.t.t.t.t.t.t.* # 6 , 7 8.7.7.d d.Z.N.N.Z.L Y.=X#XF B R &.&.=.=.Q =.>.c.r.t.t.t.t.t.t.t.t.i.p.r < i w.2.t.t.t.t.t.t.",
"t.t.t.t.t.t.t.t.t.3.t.t.e.* # 6 j 1 7.d 7.s d.<.N.N.Z.P Y.=X#XF B Y &.&.%.=.Q -.:.c.5.t.t.t.t.t.r.t.t.3.t.u h i t.t.t.e.3.t.t.t.",
"t.t.t.t.t.t.t.t.t.t.t.t.t.3.c y r t 6.4.6.t f.,.>.>.M.L Y.=X$XF B Y ] =.=.=.W -.:.c.3.t.t.6.t.t.t.d x 4.a.0 5 0 t.c % q t.t.t.t.",
"t.t.t.t.t.t.t.t.t.t.t.t.t.t.t.t.t.t.t.t.t.r.s.&.=.=.=.L Y.=X$XF B R ^ %.%.=.Q -.:.c.w.t.t.t.t.t.t.x z 8.t.q X & t.w o O t.t.t.w.",
"t.t.t.t.t.t.t.t.t.t.t.t.t.t.t.t.t.t.t.t.t.r.X.&.=.%.=.L Y.=X$XD B R ! ] =.=.E -.:.c.5.t.t.t.t.t.t.4.g f f u > 8 a.e o 0 t.t.t.t.",
"t.t.t.t.t.t.t.t.t.w.t.t.t.t.t.t.t.t.t.t.t.c X.&.=.=.=.L U.=X$XA V S R W ] ] C =.Z.v.2.t.t.t.t.t.t.t.e.a z k h u t.e . O 3.t.t.t.",
"t.t.t.t.t.t.t.t.t.t.t.t.t.t.t.t.t.t.t.t.t.r.s.&.&.&.;.L Y.=X%XY F F F P I S   M.J.v.w.t.t.t.t.t.t.t.t.g f s u r t.w.& w t.t.t.t.",
"t.t.t.t.t.t.t.t.t.t.t.t.t.t.t.t.t.t.t.t.t.r.X.$.%.%.%.A Y.=X&X] L I I I P B J W.J.v.2.t.t.t.t.t.t.t.t.t.e.t.e.t.r.t.t.t.w.t.t.t.",
"t.t.t.t.t.t.t.t.t.t.t.t.t.t.t.t.t.t.t.t.t.r.X.! ^ ^ ] A _.=XQ.<.R Z A Z V C C.~.J.v.5.t.t.t.t.t.t.t.t.t.t.t.t.t.t.t.t.t.t.t.t.t.",
"t.t.t.t.t.t.t.t.t.t.t.t.t.t.t.t.t.t.t.t.t.t.M ^ ] ^ ] A P.I.*.J.S.>.-.=.b.W.(.G.D.v.w.t.t.t.t.e.t.t.t.6.t.t.r.t.t.t.t.t.t.t.t.t.",
"t.t.t.t.r.3.3.t.t.t.t.t.t.t.y.t.6.y.t.t.t.r.X.^ ] ^ ] D %.,.%.>.S.J.J.~.(./.H.S.J.v.y e.3.t.t.6.t.t.t.t.t.t.t.t.t.t.t.t.t.t.t.t.",
"t.t.t.t.3.y y r.t.t.t.t.t.t.t.t.a.t.t.t.t.r.M ! ^ ] ^ D { N.%.&.=.=.N.G.G.G.S.S.J.z.a t.t.t.t.t.t.t.t.t.t.t.t.t.t.t.t.t.t.t.t.t.",
"t.t.t.t.6.y 4.t.t.t.6.y.t.t.t.t.t.t.t.t.t.r.N ^ ] ^ ] P Q S.=.&.&.>.S.S.S.S.S.S.!.j.9 3.t.t.t.t.t.t.t.t.t.t.t.t.t.t.t.t.t.t.t.t.",
"t.t.t.t.t.y 5.r.t.t.6.a.t.t.t.t.t.t.t.t.t.r.p.! ! ! ^ Q S ;.S.=.,.S.S.S.S.S.G./.F.m r.t.t.t.t.t.t.t.t.t.t.t.t.t.t.t.3.t.t.t.t.t.",
"t.t.t.t.t.y 5.r.t.t.t.t.t.t.t.t.t.t.t.t.t.a.t.( R W R ! F T N.~././.^./.^.^.(.H.) 6.t.t.t.t.t.t.t.t.t.t.t.t.t.t.t.t.t.t.t.t.t.t.",
"t.t.t.3.t.t.t.t.t.t.t.t.t.t.t.t.t.t.t.t.t.6.t.6.` R R R R S F -.H.W.H.W.W.H.-./ 1.t.t.t.t.t.t.t.t.t.t.t.t.t.t.t.t.t.t.t.t.t.t.t.",
"t.t.t.t.t.t.t.t.t.t.t.t.t.t.t.t.t.t.t.t.t.t.t.t.t.( ` W W W Y D D Y D D Y U n 7.g t.t.t.t.t.t.t.t.t.t.t.t.t.t.t.t.t.t.e.t.t.t.t.",
"t.t.t.t.t.t.t.t.t.t.t.t.t.t.t.t.y.t.t.t.t.t.t.t.t.r.e.u.& @ 6 k 9 p.9 : 4 7.g t.t.6.t.t.t.t.t.t.t.t.t.t.t.t.t.t.t.e.| i.t.t.t.3.",
"t.t.t.t.t.t.t.t.t.t.t.t.t.t.t.t.t.t.a.t.t.t.t.t.t.t.t.w.@ + > h s a.i h 3 d 4.e.t.t.6.t.t.t.t.t.t.t.t.t.t.t.t.t.t.e.| | t.t.t.t.",
"t.t.t.t.t.t.t.t.t.t.t.t.t.t.t.t.6.y.t.t.t.t.t.t.r.t.t.3.a 4 k , 1 1 p a d 6.6.6.t.t.t.t.t.t.t.t.t.t.t.t.t.y.t.t.t.t.e.t.3.t.t.t.",
"t.t.t.t.t.t.t.t.t.t.t.y.t.t.t.t.t.t.t.t.t.t.t.t.e.t.t.t.x z k , , h 3 7.4.t.t.t.t.t.t.t.t.t.t.t.t.t.t.t.t.t.t.t.3.t.t.w.t.t.t.t.",
"t.t.t.t.t.t.t.t.t.a.t.t.t.t.t.t.t.t.t.t.t.a.t.t.r.t.t.t.4.8.t r r r 4.4.5.t.t.t.t.t.t.t.t.t.y.t.t.t.t.t.t.t.t.t.t.t.t.t.t.t.t.t.",
"t.t.t.t.t.t.t.t.t.t.t.t.t.a.t.t.t.t.t.t.t.t.y.6.t.t.t.t.t.t.t.a.t.t.t.e.t.t.t.t.t.t.t.t.t.t.t.t.t.t.t.t.t.t.t.t.t.t.t.t.t.t.t.t.",
"t.t.t.t.t.t.t.t.t.t.t.y.t.t.y.t.t.a.t.t.t.y.a.t.t.t.t.t.t.t.t.t.t.t.t.t.t.t.t.t.t.t.t.t.t.t.t.t.t.t.t.t.w.3.y e y 2.t.3.t.t.t.t.",
"t.t.t.t.t.t.t.t.t.t.t.t.t.t.t.t.t.y.t.t.t.t.t.t.t.t.t.t.t.t.t.t.t.t.t.t.t.t.t.t.t.t.t.y.t.t.y.t.t.t.t.t.t.y r r r y e.t.t.3.t.t.",
"t.y.t.t.t.t.t.t.t.t.t.t.t.t.t.t.t.t.t.t.t.t.t.t.t.t.t.t.t.t.t.t.t.t.t.t.t.t.t.t.t.t.t.t.t.t.t.a.t.t.t.t.t.2.y y 2.y a 8.t.t.t.t.",
"t.t.t.t.t.t.t.t.t.t.t.t.t.t.t.t.t.y.t.t.t.t.t.t.t.t.t.t.t.t.t.y.t.t.y.t.t.t.t.t.t.t.t.t.t.t.t.t.t.t.t.t.t.5.y 5.e.t l 4 t.t.t.t.",
"t.t.t.t.t.t.t.t.t.t.t.t.t.t.t.y.t.t.t.t.t.y.t.t.t.t.t.t.t.t.t.t.t.t.t.t.t.t.t.t.t.t.a.t.t.t.t.t.t.t.t.t.t.3.5.3.3.4.a d e.3.t.w.",
"t.t.t.t.t.t.t.t.t.t.t.t.t.t.t.t.t.t.t.t.t.t.t.t.t.t.t.t.t.t.a.t.t.t.t.t.t.t.t.t.t.t.t.t.t.t.t.t.t.t.t.t.6.t.t.t.t.e.e.t.6.t.t.t.",
"t.t.t.t.t.t.t.w e 3.t.t.6.t.t.a.t.a.t.t.t.t.t.t.t.t.t.t.t.t.t.t.t.t.t.t.t.t.t.t.t.t.t.t.t.t.t.t.t.t.t.r.t.t.t.t.6.t.t.t.t.t.t.t."
};
