/* XPM */
static char *_3b274fa341546ade40186f6f2c2905cd44NNjIKJmTg93tA[] = {
/* columns rows colors chars-per-pixel */
"64 64 184 2 ",
"   c #FE7E00",
".  c #4DAF39",
"X  c #4DB235",
"o  c #57B437",
"O  c #53B23A",
"+  c #6DAB2E",
"@  c #68BD2E",
"#  c #79AE32",
"$  c #62B837",
"%  c #6ABD32",
"&  c #62B63E",
"*  c #6DBA3F",
"=  c #75BD3B",
"-  c #79BF3D",
";  c #6EC02E",
":  c #79C03A",
">  c #478F5F",
",  c #4B9C53",
"<  c #4A925C",
"1  c #52965C",
"2  c #58975D",
"3  c #55985A",
"4  c #5B9C5A",
"5  c #6B9A44",
"6  c #648C50",
"7  c #719C5D",
"8  c #4DA744",
"9  c #54A846",
"0  c #5DAA45",
"q  c #5CB640",
"w  c #5FA155",
"e  c #69AE4D",
"r  c #75A84F",
"t  c #61B045",
"y  c #6AB347",
"u  c #6BB841",
"i  c #74BB43",
"p  c #7ABC45",
"a  c #76B44D",
"s  c #7DB64E",
"d  c #7EBA4B",
"f  c #65A456",
"g  c #6AAC52",
"h  c #74A956",
"j  c #7BAC55",
"k  c #7DAE5A",
"l  c #7DB052",
"z  c #438B62",
"x  c #4A8F60",
"c  c #599563",
"v  c #668B67",
"b  c #6D966E",
"n  c #719A6B",
"m  c #76A561",
"M  c #7FC040",
"N  c #9CB93D",
"B  c #ACBA39",
"V  c #FE8301",
"C  c #FD8905",
"Z  c #FE9305",
"A  c #FF9B06",
"S  c #FD9409",
"D  c #FD9C0B",
"F  c #FD9D12",
"G  c #FE9F1B",
"H  c #D2A31C",
"J  c #FEA806",
"K  c #FEA30B",
"L  c #FEAB0C",
"P  c #ECAD1D",
"I  c #FCA314",
"U  c #F4A816",
"Y  c #FCAB15",
"T  c #FEA11C",
"R  c #F6AF19",
"E  c #FEAE1C",
"W  c #FBB016",
"Q  c #FCB31C",
"!  c #FDB91E",
"~  c #C2AE29",
"^  c #D7B327",
"/  c #DCBB2B",
"(  c #C9B933",
")  c #FEAC22",
"_  c #E9B727",
"`  c #FEB621",
"'  c #FCBC22",
"]  c #FCB72C",
"[  c #FEBD2A",
"{  c #FEA032",
"}  c #FEA938",
"|  c #FDBB3F",
" . c #B0E71F",
".. c #96CE3E",
"X. c #9CD334",
"o. c #9BD23A",
"O. c #A6DC32",
"+. c #A9DE30",
"@. c #AAE320",
"#. c #B7EC24",
"$. c #BCF021",
"%. c #DCC634",
"&. c #DDC936",
"*. c #DBCD3C",
"=. c #FEC221",
"-. c #FCC52B",
";. c #FCC92E",
":. c #FCCD32",
">. c #FFCD3A",
",. c #FCD135",
"<. c #FCD53A",
"1. c #FCDA3C",
"2. c #84A947",
"3. c #91AD4C",
"4. c #81BF46",
"5. c #8BBF46",
"6. c #84B64E",
"7. c #88B34D",
"8. c #83BC4B",
"9. c #88BE4B",
"0. c #93BD43",
"q. c #81AD56",
"w. c #81B452",
"e. c #8AB35C",
"r. c #85C046",
"t. c #8CC446",
"y. c #86C34B",
"u. c #8BC34A",
"i. c #93C247",
"p. c #92CA41",
"a. c #95C74B",
"s. c #97C84B",
"d. c #94C652",
"f. c #99C952",
"g. c #BED75C",
"h. c #B5D566",
"j. c #D3CF47",
"k. c #DCCB44",
"l. c #C5D94E",
"z. c #DDD542",
"x. c #DDDB49",
"c. c #CFDF5D",
"v. c #FFC544",
"b. c #FFCE43",
"n. c #FEC34C",
"m. c #E7D743",
"M. c #FCD142",
"N. c #FDDD41",
"B. c #FCD74B",
"V. c #FEC355",
"C. c #FECA56",
"Z. c #FCD353",
"A. c #FCDB57",
"S. c #FCD45C",
"D. c #DDE24F",
"F. c #DEE451",
"G. c #FDE345",
"H. c #F4E64D",
"J. c #FDE448",
"K. c #FBEA4D",
"L. c #FDEE51",
"P. c #F4EC5E",
"I. c #FEF254",
"U. c #FCF658",
"Y. c #DDD772",
"T. c #FED766",
"R. c #FEDE73",
"E. c #FEDD7F",
"W. c #D3E565",
"Q. c #F9EC62",
"!. c #FEF263",
"~. c #FAEA76",
"^. c #FDF775",
"/. c #FDDE82",
"(. c #FDE285",
"). c #FCE389",
"_. c #FCEB8E",
"`. c #F9F18E",
"'. c #FCEC90",
"]. c #F6F190",
"[. c #F9F193",
"{. c #FEF799",
"}. c #FEF99D",
"|. c #FDFCA1",
/* pixels */
"u.u.u.u.u.u.u.u.u.d.u.u.u.u.u.u.u.8.k j g g 6.d i i s 6.9.u.u.u.u.u.u.u.u.u.u.u.u.u.u.u.5.- = r.u.u.u.u.u.u.u.u.u.u.u.u.u.u.u.u.",
"u.u.u.u.u.u.u.u.t.y.u.u.u.u.u.u.9.u.t.t.i.u.t.u.u.u.u.u.u.u.u.u.u.u.u.u.u.u.u.u.u.u.u.u.y.% @ r.u.u.u.u.u.u.u.u.u.u.u.u.u.u.u.u.",
"u.u.u.u.u.u.t.y.u.u.u.u.u.u.u.u.u.u.u.u.u.u.u.u.u.u.u.u.u.u.u.u.u.u.u.u.u.u.d.u.u.u.u.u.u.$ o r.u.u.u.u.u.u.u.u.u.u.u.u.u.u.a.u.",
"u.u.u.u.u.u.u.d.u.u.u.u.u.u.u.u.u.u.u.u.u.u.u.u.u.u.u.u.u.u.u.u.u.u.u.u.u.u.u.u.u.u.u.u.5.o o 4.t.u.u.u.u.u.u.u.u.u.u.u.u.u.u.u.",
"u.u.u.u.u.u.u.u.u.u.u.u.u.u.u.u.5.u.u.u.u.u.u.u.u.u.u.u.u.u.u.u.d.u.u.u.u.u.u.d.u.u.u.u.y.9 8 8.u.p i 4.u.u.y.u.u.u.u.u.u.u.u.d.",
"u.u.d.u.u.u.u.u.u.u.u.u.u.u.u.u.u.u.u.r.r.u.u.u.u.u.u.u.u.u.u.u.t.u.u.u.u.u.u.y.u.u.u.u.9.c x d u.$ X p u.u.u.u.d.u.u.u.u.u.u.u.",
"u.u.u.u.u.u.u.u.u.u.u.u.u.u.u.u.u.u.u.u.u.u.u.u.u.u.u.u.u.u.u.u.u.u.u.u.u.u.u.u.u.u.u.u.y.3 < d i.t 8 d t.u.u.u.y.u.u.u.u.u.u.u.",
"u.u.u.u.u.u.u.u.u.u.y.u.u.u.u.u.u.u.u.u.u.u.u.u.u.u.u.u.u.u.u.u.u.u.u.u.u.u.u.u.u.r.u.u.9.1 > d u.4 z a a.u.5.u.u.u.u.u.u.u.u.u.",
"u.u.u.u.u.u.u.u.u.u.u.u.u.u.y.t.t.u.t.5.5.y.u.u.u.u.u.u.u.u.u.u.u.u.u.u.u.u.u.u.u.u.u.u.9.4 3 d t.f 1 d a.u.u.u.u.u.u.u.u.u.u.t.",
"u.u.u.u.u.u.u.u.u.u.u.u.u.u.y.p.........u.u.u.u.a.u.u.u.u.u.u.u.u.u.u.u.u.u.u.u.u.u.u.u.u.u.r.u.u.y.y.y.y.u.u.u.u.u.u.u.u.u.u.u.",
"u.u.u.u.5.r.u.y.u.u.u.u.u.u.u.t.......p.u.u.u.u.u.u.u.u.u.u.t.u.u.u.u.u.u.u.u.u.u.u.u.u.u.u.u.u.u.u.u.u.y.u.u.u.u.u.d.u.u.u.u.u.",
"u.u.u.u.9.8.d 5.u.u.u.u.u.u.u.t.t.u.u.u.5.r.u.u.u.u.u.u.u.u.y.d.u.u.u.u.u.u.u.u.u.u.u.u.u.u.u.u.u.u.u.u.u.u.u.u.u.u.y.u.u.u.u.u.",
"u.u.9.u.y.d 8.y.5.y.5.u.r.u.u.u.u.u.u.u.9.u.u.u.y.5.y.y.y.y.y.y.y.y.y.y.y.r.r.r.u.u.u.u.u.u.u.u.u.u.y.u.y.y.u.u.u.u.u.u.u.u.u.d.",
"u.u.u.d d 5.9.8.8.8.d y.u.u.u.u.u.u.u.u.u.u.u.y.B B H H H H H H H ^ ^ j.W.c.g.f.t.u.u.u.u.u.u.u.u.u.u.t.a.u.u.u.u.u.u.u.u.u.u.u.",
"u.u.5.d 8.u.u.d d d d 9.u.u.u.u.u.u.u.u.u.u.u.~ Y -.;.;.;.;.;.;.;.v.) A n.{.{.].h.r.u.u.u.u.u.u.u.u.u.u.u.u.u.u.u.a.a.y.u.u.u.u.",
"u.u.r.9.9.r.5.y.9.9.9.r.u.u.u.u.u.u.u.u.u.u.~ ;.L.U.U.I.U.U.U.I.^.|.{.S.A | {.{.{.h.r.u.u.u.u.u.u.u.u.u.u.u.u.u.u.y.u.u.u.u.u.u.",
"u.u.u.u.y.u.u.u.u.u.u.u.u.u.u.u.u.u.u.u.y.B >.U.G.<.,.,.,.,.,.S.).(.'.|.R.S b.!.U.P.s.y.u.u.u.u.u.u.u.u.u.t.d.u.u.u.u.u.u.u.u.u.",
"u.u.u.u.u.u.u.u.u.u.u.u.u.u.u.u.u.u.u.u.u.*.I.1.;.;.;.;.:.-.Z././././.).|.n.K K.L.L.l.8.u.u.u.t.u.u.u.u.u.u.u.u.u.u.u.u.u.u.u.u.",
"u.u.u.u.u.u.u.5.u.u.u.u.u.u.u.u.u.u.u.u.5.H.J.;.;.;.;.;.-.Z././././././._._.F N.I.I.D.u.u.u.u.u.d.u.u.u.u.u.u.u.u.u.u.u.u.u.u.u.",
"u.u.u.u.u.u.u.u.u.u.u.u.u.u.u.u.u.u.u.u.a.L.,.;.;.;.:.,.A.(.(.(./.E./.~.(.{.) >.I.I.D.u.u.u.u.u.u.u.u.u.u.u.u.u.u.u.u.u.u.u.a.u.",
"u.u.u.u.u.u.u.u.u.u.u.u.u.u.u.u.u.u.u.5.a.K.:.;.:.N.L.^.|.|.|.}.{.'././.(.!.E :.U.L.F.u.u.u.u.u.u.u.u.u.u.u.u.u.u.u.u.u.u.u.u.d.",
"d.u.u.u.u.u.u.u.u.a.u.u.u.u.u.u.u.u.u.u.a.K.:.;.N.I.B.V.C.C.C.C.R.{.'./.A.L.E :.U.I.D.u.u.u.u.u.u.u.u.u.u.u.u.u.a.u.u.u.y.u.u.y.",
"u.u.u.u.u.u.u.u.u.u.u.u.u.u.u.u.u.u.u.y.a.K.:.:.I.[ C Z A A A A K v.{.S.;.K.E ;.K.J.x.u.u.u.u.u.u.u.u.u.u.y.u.u.y.u.u.u.u.u.u.u.",
"u.u.u.u.u.u.u.u.u.u.u.u.u.u.u.u.u.u.y.y.a.K.;.<.M.  Z K L L L L L J B.<.;.K.E Q ;.-.%.u.t.u.u.u.u.u.u.u.u.d.u.u.u.u.u.y.a.u.u.u.",
"u.u.u.u.u.u.u.u.u.u.u.u.u.u.u.r.u.u.u.y.a.L.-.A.} V D L K D D Z D K =.<.;.L.E Q :.:.&.....u.r.u.u.u.u.u.u.u.u.u.u.u.u.u.u.u.u.u.",
"u.u.u.u.u.u.u.u.u.u.u.u.u.u.u.u.u.u.u.u.a.K.b._.{ C ' -.,.1.<.) C Z ! <.;.L.E Q :.;.%.p...u.u.u.u.u.u.u.u.u.u.u.u.u.y.a.u.u.a.u.",
"u.u.u.u.u.u.u.u.u.u.u.u.u.u.u.u.u.u.u.y.a.Q.E.'.{ D ,.;.:.1.G.G.F C Q <.:.L.Q ` <.>.k.u.9.u.u.u.u.u.u.u.t.u.u.u.u.u.u.u.u.u.y.y.",
"u.y.d.u.u.u.u.u.u.u.u.u.y.5.p 5.u.u.u.u.a.`./._.{ D ,.;.;.:.1.G.T V ` <.;.L.Y V.(.E.Y.y.u.u.u.u.u.u.u.u.u.u.y.u.u.u.u.u.u.u.u.u.",
"u.u.u.u.u.u.u.u.u.u.u.u.u.* . * 5.u.u.u.a.[./._.{ F ,.;.:.;.,.H.E   ` <.;.L.Y V.)./.Y.u.u.u.u.u.u.u.u.u.u.u.u.u.u.u.u.u.u.u.u.u.",
"u.u.u.u.u.u.u.u.u.u.u.u.u.* o * u.u.u.r.d.[./._.{ D :.;.:.;.,.J.) V ` <.;.L.E ] B.M.k.u.u.t.u.u.u.u.u.t.t.t.u.u.y.u.u.u.u.u.u.u.",
"u.t.u.y.u.u.u.u.u.u.u.u.5.X.@.X.9.u.u.u.d.[.E._.{ D ,.;.;.;.;.1.)   Q <.:.L.E Q ;.;.%.u.u.u.u.y.u.u.5.O.#.o.y.t.u.u.u.u.u.y.a.y.",
"u.u.y.t.u.r.u.u.u.u.u.u.y.X. .X.9.r.u.r.d.[.(._.{ F ,.;.:.;.;.:.E   ` <.;.L.E Q ,.;.&.u.u.u.u.t.u.u.9.+.$.o.u.y.t.y.u.u.u.u.u.u.",
"u.u.5.8.8.9.u.u.5.u.u.u.u.: ; % o * u.6.e.].E._.{ D ,.;.:.;.;.,.T   ` <.;.L.E Q :.;.&.u.u.u.u.u.u.u.y.+.$.o.u.i o u u.u.5.u.u.u.",
"u.y.9.d d u.u.u.r.u.u.u.u.= % o . & a.6.e.].E._.{ S ;.;.;.;.;.;.F V Q <.;.L.E ' 1.,.*.t.u.t.u.u.u.t.y.+.$.o.9.i . & u.u.u.u.u.u.",
"u.u.u.9.9.u.u.u.u.u.u.u.u.= @ 0 < w w.j e.].(.~.T S -.;.;.:.;.,.T V ` <.:.L.E [ G.N.z.u.u.u.u.u.u.u.u.t...g 3 g 4.4.u.u.u.u.u.y.",
"u.u.r.u.u.u.u.u.u.u.u.u.u.= @ 0 z 4 q.h e.[.T.1.G S ! ;.;.;.;.:.I V ` <.;.L.W [ G.N.z.u.u.u.u.u.5.u.u.u.9.f z g a.u.5.u.5.u.u.u.",
"u.u.u.u.u.u.u.u.u.u.u.u.u.r.: d a s 9.8.d.`.-.1.G S ! ' :.;.;.:.I V ` <.;.L.E ' N.1.*.u.u.u.u.5.r.k m 6.t.y 8 y u.p & u u.u.u.u.",
"u.u.u.u.u.u.u.u.u.u.u.u.u.u.u.u.u.u.u.9.a.K.-.1.G S ! R -.;.;.:.F V ` <.;.L.E ` >.:.*.u.u.u.u.u.u.h b w.t.* X * i.p . & r.u.u.u.",
"u.u.u.u.u.u.u.u.u.u.u.u.u.u.u.u.9.u.u.u.a.K.;.1.I S ! R ! ;.;.:.F V ` <.;.L.Q Q :.;.%.u.u.u.u.u.u.w.w.k k f , e u.p O & u.u.u.u.",
"u.u.u.u.u.u.u.u.t.u.u.r.t.u.y.t.u.u.u.y.a.K.;.1.T C Q R R ! -.E C C Q <.;.L.E Q :.;.&.u.t.u.u.u.u.u.t.m b c z f t.p . o u.r.u.u.",
"u.u.u.u.u.u.u.u.u.u.u.u.u.u.u.u.u.u.u.u.a.K.;.<.T V D K D D D Z D K =.<.;.L.E Q :.;.&.u.t.u.u.u.u.u.u.l k h f a u.r.* i 5.u.u.u.",
"u.u.u.u.u.u.u.u.u.u.u.u.u.u.u.y.u.u.u.y.a.K.;.1.>.  S L L L L Y L J ,.1.;.L.E E ;.-.%.u.u.u.u.u.u.u.u.u.t.t.t.u.y.u.u.u.r.u.u.u.",
"u.u.u.u.u.u.u.u.u.u.u.u.u.u.u.d.u.u.u.u.u.K.:.:.I.` C Z A A A D D ' L.,.;.L.W Y ' ! / u.u.u.u.u.u.u.u.u.y.u.u.u.u.u.u.u.u.u.u.u.",
"u.u.u.u.u.u.u.u.u.u.u.u.u.u.u.u.u.u.u.u.s.K.:.;.G.I.>.] -.-.-.[ <.I.G.;.:.L.Q I ' ! / y.u.u.u.u.u.u.u.u.u.u.9.u.u.u.u.u.u.u.u.u.",
"u.y.u.u.u.9.9.y.u.u.t.u.u.u.u.u.u.u.u.r.a.K.,.;.;.N.U.U.I.I.I.I.I.J.:.;.:.L.Q Y ' ! / y.y.u.u.u.u.u.u.y.u.u.u.u.u.u.u.u.u.u.u.u.",
"u.u.u.u.r.8.d 5.u.u.u.u.u.u.u.u.u.u.u.y.a.K.1.;.;.;.:.<.<.<.<.<.,.;.;.-.<.L.I R ! ! ^ 9.u.u.u.u.u.u.u.u.u.u.u.u.u.u.u.u.u.u.u.u.",
"u.u.u.u.u.d d y.u.u.u.u.d.u.u.u.u.u.u.u.5.m.K.:.;.;.;.;.;.;.;.;.;.;.;.;.L.N.S Q ! ! ( y.u.u.u.u.u.u.u.u.u.u.u.u.u.u.u.u.u.u.u.u.",
"u.u.u.u.5.d 8.9.u.u.u.u.u.u.u.u.u.u.u.u.y.( K.L.,.;.;.;.;.;.;.;.;.;.,.K.L.Y D ! ! Q B y.u.u.u.u.u.u.u.u.u.u.u.u.u.u.u.u.u.u.u.u.",
"u.u.u.u.u.8.d u.u.u.u.u.u.u.u.u.u.u.u.u.u.i._ K.U.K.J.J.J.J.J.J.J.J.U.L.` A Y Y L ^ y.u.u.u.u.u.u.u.u.u.u.u.u.u.u.u.u.u.u.u.u.u.",
"u.u.u.u.u.u.u.u.u.u.u.u.u.u.u.u.u.u.u.u.u.y.N P ;.K.I.I.L.I.L.I.I.K.>.Y Z Y W I ^ i.u.u.u.u.u.u.u.u.u.u.u.u.u.u.u.u.u.u.u.u.u.u.",
"u.u.u.u.u.u.u.u.u.y.u.u.u.u.u.u.u.u.u.u.u.u.y.i.H U I L U I I Y I K S F R R P B 7.y.u.u.u.u.t.u.u.u.u.u.u.u.u.u.u.u.u.t.u.u.u.u.",
"u.u.5.u.u.u.u.u.u.u.u.u.u.u.u.u.u.u.u.u.u.u.t.u.y.0.N N # + 5 6 2.B 2.6 r 3.7.9.9.t.y.u.u.u.y.d.u.u.u.u.u.u.u.u.u.u...p.u.u.u.y.",
"u.u.u.u.u.u.u.u.u.u.u.u.u.u.u.u.u.u.u.u.u.u.u.u.y.u.y.y.o q , z g u.g z 4 k w.t.u.u.u.u.u.u.u.u.u.u.u.u.u.u.u.u.u.t.....u.u.u.u.",
"u.u.u.u.u.u.u.u.u.u.u.u.u.u.u.u.u.u.a.u.u.u.u.u.u.u.u.5.g n 2 < 3 3 f h a 9.9.9.u.u.u.u.u.u.u.u.u.u.u.u.u.u.u.u.u.5.t.u.5.r.u.u.",
"u.u.u.u.u.u.u.u.u.u.u.u.u.a.u.u.u.u.u.u.u.u.d.u.u.u.u.u.m n c < < z f k w.u.u.u.u.u.u.u.u.u.u.u.u.u.u.u.u.u.u.u.u.u.u.u.u.u.u.u.",
"u.u.u.u.u.u.u.u.u.u.u.u.u.u.u.u.u.u.u.u.u.u.u.u.u.y.u.9.d l l a l a 6.6.9.5.u.u.u.u.u.u.u.u.u.u.a.u.u.u.u.u.u.u.u.r.u.u.u.u.u.u.",
"u.u.d.u.u.u.u.u.u.u.u.u.u.u.u.d.u.u.u.u.t.u.u.u.y.u.u.u.t.u.t.t.u.u.u.t.u.u.u.y.u.u.u.u.u.u.u.u.u.u.u.u.u.u.u.u.u.u.u.u.u.u.u.u.",
"u.u.u.u.u.u.u.u.u.d.u.u.u.u.u.y.u.u.u.u.u.u.u.u.u.u.u.u.u.u.u.y.u.u.u.u.u.u.u.t.u.u.u.u.u.u.u.u.u.u.u.u.u.8.d d p 8.u.u.u.u.u.u.",
"u.u.u.u.u.u.u.u.u.u.u.u.u.u.u.u.u.u.u.u.u.u.u.u.u.u.u.u.u.u.u.u.u.u.u.u.u.u.u.u.u.u.d.u.d.u.u.u.u.u.u.u.u.p a p a p u.t.5.u.u.u.",
"u.u.u.u.u.u.u.u.u.u.u.u.u.u.u.u.y.d.t.u.u.u.u.u.u.u.u.u.u.u.u.t.u.u.u.u.u.u.u.u.u.u.u.u.u.u.u.u.u.u.u.9.u.8.d p 5.s j j y.u.u.u.",
"u.u.u.u.u.y.u.u.u.u.u.u.u.u.u.d.u.u.u.u.u.u.u.u.u.u.u.u.u.u.u.y.u.u.u.u.u.u.u.u.u.u.u.u.u.u.u.u.u.u.u.u.y.9.a 8.t.w.v 7 u.u.5.u.",
"u.u.u.u.u.u.u.u.u.u.u.u.u.u.u.y.u.u.u.u.u.u.u.u.u.u.u.u.u.u.u.d.u.u.u.u.u.u.u.u.u.u.u.u.u.u.u.u.u.u.u.u.u.5.5.8.u.6.r j u.u.u.u.",
"u.u.u.u.u.u.u.u.u.u.u.u.u.u.u.u.u.u.d.u.u.u.u.u.t.d.u.u.u.u.u.u.u.d.u.u.t.y.u.u.u.u.u.u.u.u.u.u.u.u.u.u.9.u.u.u.u.t.u.u.5.u.u.u.",
"u.u.u.u.u.t.y.i M y.u.u.u.u.u.u.u.u.y.u.u.u.u.u.u.u.u.u.u.u.u.u.t.y.u.u.u.d.u.u.u.u.u.u.u.u.u.u.u.u.u.u.y.u.u.u.u.u.u.u.u.y.u.u."
};
