/* XPM */
static char *fc0f8598e4d14721d7387049463e0f4dbcZtKqvHv1NJVleP[] = {
/* columns rows colors chars-per-pixel */
"64 64 174 2 ",
"   c #4CAF38",
".  c #4DB235",
"X  c #4DB139",
"o  c #52B23A",
"O  c #56B438",
"+  c #6AAC2D",
"@  c #77AF32",
"#  c #62B837",
"$  c #6ABD32",
"%  c #62B63D",
"&  c #6CBA3F",
"*  c #79BF3D",
"=  c #488F5E",
"-  c #5E8C51",
";  c #4B9C53",
":  c #4A915D",
">  c #52965C",
",  c #58975D",
"<  c #55985A",
"1  c #5B9D5A",
"2  c #689A44",
"3  c #789B4C",
"4  c #618C50",
"5  c #649E5A",
"6  c #719C5D",
"7  c #4DA744",
"8  c #54A846",
"9  c #5DB641",
"0  c #69AE4D",
"q  c #78AA4B",
"w  c #61B045",
"e  c #6BB346",
"r  c #6BB840",
"t  c #74BB43",
"y  c #7ABD45",
"u  c #77B54C",
"i  c #7DB64E",
"p  c #7EBA4B",
"a  c #65A455",
"s  c #6AAC52",
"d  c #72AC54",
"f  c #7AAD55",
"g  c #75A758",
"h  c #7BAE5B",
"j  c #7DB152",
"k  c #428B62",
"l  c #4A8F60",
"z  c #599562",
"x  c #668B67",
"c  c #6B9870",
"v  c #76A461",
"b  c #99BA3D",
"n  c #BDAE2B",
"m  c #BAB12D",
"M  c #AEB635",
"N  c #B1B433",
"B  c #D89F0E",
"V  c #D59F16",
"C  c #D89F17",
"Z  c #EC9C0B",
"A  c #FF9505",
"S  c #FF9A05",
"D  c #F29C0E",
"F  c #FE9D0B",
"G  c #E59E14",
"H  c #EC9D10",
"J  c #FF9E12",
"K  c #D5A10F",
"L  c #D8A00E",
"P  c #CCA51C",
"I  c #C7A81B",
"U  c #D4A115",
"Y  c #D9A216",
"T  c #D5A11A",
"R  c #D8A21A",
"E  c #FEA607",
"W  c #FEA30A",
"Q  c #FEAC0C",
"!  c #FCA413",
"~  c #FDAB17",
"^  c #FBA31A",
"/  c #FEAF1C",
"(  c #FCB31C",
")  c #C6AC25",
"_  c #C9AB25",
"`  c #C2AD28",
"'  c #FFA823",
"]  c #FDBC24",
"[  c #FEB12C",
"{  c #FFBC2B",
"}  c #96CE3E",
"|  c #9CD23A",
" . c #B5D626",
".. c #A2C03C",
"X. c #B4EE26",
"o. c #B9F223",
"O. c #FBC625",
"+. c #FCC52B",
"@. c #FCC92E",
"#. c #FEC633",
"$. c #FDCB31",
"%. c #FEC639",
"&. c #FECD3C",
"*. c #FCD135",
"=. c #FDD53A",
"-. c #FDD93D",
";. c #85A944",
":. c #8DAB4C",
">. c #93AB47",
",. c #81BF46",
"<. c #83B74E",
"1. c #83BC4B",
"2. c #88BE4A",
"3. c #93B444",
"4. c #96BE43",
"5. c #9BBC40",
"6. c #82AD56",
"7. c #81B451",
"8. c #FFB34A",
"9. c #FFBF64",
"0. c #84C046",
"q. c #8CC446",
"w. c #86C44C",
"e. c #8BC34A",
"r. c #8CC849",
"t. c #92C045",
"y. c #92CA41",
"u. c #86C650",
"i. c #FDCE44",
"p. c #FFD041",
"a. c #FDDD41",
"s. c #FDDB49",
"d. c #FEC954",
"f. c #FDE245",
"g. c #FDE64A",
"h. c #FEEA4D",
"j. c #FDE756",
"k. c #FEED52",
"l. c #FEEB5E",
"z. c #FDF355",
"x. c #FDF659",
"c. c #FCF85F",
"v. c #FFCE62",
"b. c #FCD769",
"n. c #FDD96D",
"m. c #FDDA70",
"M. c #FCDD7E",
"N. c #FFEE63",
"B. c #FEF765",
"V. c #FDF566",
"C. c #FEF969",
"Z. c #FDE67A",
"A. c #FDFF73",
"S. c #FFCA81",
"D. c #FDDE81",
"F. c #FFD193",
"G. c #FFD29B",
"H. c #FDE285",
"J. c #FDED83",
"K. c #FDE38B",
"L. c #FDEF8E",
"P. c #FFF183",
"I. c #FFF589",
"U. c #FDE494",
"Y. c #FDEF92",
"T. c #FDE69D",
"R. c #FEF193",
"E. c #FEFA9E",
"W. c #FED8A1",
"Q. c #FDE7A4",
"!. c #FDFBA3",
"~. c #FDEDD3",
"^. c #FCFFD1",
"/. c #FEFEFD",
/* pixels */
"e.e.e.e.e.e.e.e.e.e.e.e.r.e.e.u.e.1.f f s d <.<.t t <.<.e.e.e.e.e.e.e.e.e.e.e.e.e.e.e.e.2.* * 0.e.0.e.e.e.e.e.e.e.e.e.e.e.r.e.e.",
"e.e.e.e.u.e.e.e.e.e.e.e.e.e.u.4.e.0.q.e.e.q.q.e.e.e.e.e.e.w.e.e.e.e.e.e.e.e.e.e.e.e.e.e.e.$ $ 2.e.e.e.e.e.e.e.e.e.e.e.e.e.e.e.e.",
"e.e.e.e.e.e.e.e.e.e.e.e.e.e.2.e.e.e.2.e.e.e.e.e.0.e.e.e.e.e.e.e.e.e.e.e.e.r.e.e.e.e.e.e.0.# # 0.e.e.e.e.e.e.e.e.e.w.e.e.e.e.e.e.",
"e.e.e.e.e.e.e.e.e.e.r.e.e.e.e.e.e.e.e.e.e.e.e.q.e.e.e.e.e.e.e.e.e.e.e.e.e.e.e.e.e.e.e.e.0.O O ,.q.e.q.e.e.e.e.e.e.e.e.e.e.e.e.e.",
"e.e.e.r.e.e.e.e.e.e.e.e.e.e.e.e.e.e.e.e.e.e.2.e.e.e.e.e.e.e.e.e.e.e.e.e.e.e.e.e.e.e.e.e.0.8 7 1.e.y t 2.e.e.e.e.e.e.e.e.r.e.e.e.",
"e.e.e.e.r.e.e.e.e.e.e.e.e.e.e.e.2.e.e.e.e.e.e.e.e.e.e.e.e.e.e.e.r.e.e.e.e.e.e.e.e.e.e.e.w.z l p q.% . y e.e.e.e.e.e.e.e.e.e.e.e.",
"e.e.r.e.e.e.e.e.e.e.e.e.e.e.e.e.e.e.e.e.e.e.q.e.e.e.e.e.e.e.e.e.r.e.e.e.e.e.e.e.e.e.e.e.0., : p e.w 7 y e.e.e.e.e.e.e.e.r.e.e.e.",
"e.e.e.e.e.e.e.e.e.e.e.2.e.e.e.e.e.e.e.e.e.e.e.e.e.e.e.e.e.e.e.e.e.e.e.e.e.u.r.e.e.2.e.e.w.> = p t.1 k u t.e.e.e.e.e.e.e.u.e.e.e.",
"e.e.e.e.e.e.e.e.e.e.e.e.e.e.e.e.e.q.q.2.e.e.e.e.e.e.e.e.e.e.e.e.e.e.e.e.e.e.e.e.e.e.e.e.e.1 < <.e.a z 7.t.e.e.u.r.r.e.e.e.e.e.e.",
"e.e.e.e.e.e.e.e.e.e.e.e.e.e.e.t.} } } y.2.q.e.e.e.e.e.e.e.e.e.e.e.e.e.e.e.e.e.t.e.e.e.e.0.2.2.0.e.w.2.e.u.e.e.t.e.e.e.e.e.e.e.e.",
"e.e.e.e.0.e.e.2.e.e.e.e.e.e.e.r.} } } y.e.q.e.2.e.e.2.t.e.e.e.e.e.e.e.e.e.e.e.e.e.e.e.e.e.e.e.e.e.e.e.e.e.e.e.e.e.e.e.r.e.e.e.e.",
"e.0.e.e.2.1.1.e.e.e.e.e.e.e.e.e.q.q.e.e.q.2.q.e.e.e.e.e.e.e.e.e.e.e.e.e.e.e.e.e.e.e.e.e.e.e.e.e.e.e.e.e.e.e.e.u.e.e.e.e.e.e.e.e.",
"e.e.2.e.e.p p 0.e.e.e.0.e.e.e.e.0.e.e.w.u.u.u.w.u.w.w.w.w.u.w.u.e.u.w.w.u.u.u.w.w.w.u.w.u.w.e.e.e.e.e.e.u.e.e.t.t.e.e.e.e.t.e.e.",
"e.e.2.1.p 2.2.1.p 1.p 2.e.e.e.e.e.w.e.N I U K K Y K T R T T T T R R T T T T V T T T T P n 5.w.e.e.e.e.2.t.u.e.e.u.e.u.e.e.u.u.e.",
"e.e.0.<.1.e.2.1.p p p 2.e.e.e.e.1.M Z J 8.M.F.F.F.G.v.@.$.$.$.$.%.&.&.p.=.i.=.i.i.p.&.{ ! F _ t.e.e.e.e.t.e.r.e.e.e.u.t.e.t.t.e.",
"e.e.e.0.2.0.e.0.2.2.2.2.e.e.e.e.) A 9.~./././././.^.B.x.x.z.x.x.B.A.A.A.A.A.A.A.A.A.A.A.x.$.F G 5.e.e.e.e.e.e.e.e.e.e.e.e.u.e.e.",
"e.e.e.e.e.e.0.e.e.e.e.e.e.2.0.) F W././././././.Q.@.*.*.*.*.$.-.k.k.k.k.k.k.k.k.k.k.j.f.h.x.g.~ H t.e.e.e.e.e.e.e.e.e.e.e.e.u.e.",
"e.e.e.e.e.e.e.e.e.e.e.e.e.w.M A W././././././.Q.@.@.@.@.@.O.*.g.h.h.h.h.h.h.h.h.h.h.=.+.$.a.z.h.! R e.e.e.e.e.e.e.e.e.e.e.e.e.e.",
"e.e.e.e.e.e.e.e.e.e.e.e.e.e.Z 9././././././.T.O.@.$.@.@.@.*.h.h.h.h.h.h.h.h.h.h.h.=.@.@.@.@.a.x.-.F M w.2.e.e.r.e.e.e.e.e.e.e.e.",
"e.e.e.e.e.e.e.e.e.e.e.t.w.M J ~./././././.T.O.@.$.*.*.$.=.k.k.k.k.k.k.l.k.k.k.h.*.+.@.$.$.@.@.g.x.( R w.e.e.r.e.e.e.e.e.e.e.e.e.",
"e.r.e.e.e.e.e.e.e.e.e.e.w.I 8./././././.U.O.=.g.z.x.x.B.A.A.A.A.A.A.A.A.A.A.A.x.f.*.@.@.$.@.+.=.x.=.Z t.0.e.e.e.e.e.e.e.e.r.e.e.",
"e.e.e.e.e.e.e.e.e.e.e.e.w.U S././././.K.O.a.z.k.p.+.+.%.%.%.%.%.%.%.%.%.%.%.&.-.z.k.=.@.$.$.@.$.h.g.! 4.w.e.e.e.e.e.e.e.e.r.e.e.",
"e.e.e.r.e.e.e.e.e.e.e.e.u.K G./././.U.O.-.z.g./ A F S F S S A F A F F S S S S D ] k.k.=.+.$.$.$.g.k.^ 5.w.e.t.e.e.e.e.e.e.e.e.e.",
"e.e.e.e.e.e.e.e.e.e.e.e.w.L F././.D.O.$.k.h.! A Q Q Q Q Q Q Q Q Q Q Q Q Q Q Q E A ( k.g.@.@.$.@.h.J.^ b w.e.e.e.e.e.e.e.e.e.e.r.",
"e.u.e.e.e.e.e.e.e.e.e.e.u.B F./.D.O.@.-.x.] A Q Q F S F F F F F F F F F F F F Q Q A $.x.=.@.@.$.J.R.^ b w.e.e.e.e.e.e.e.e.e.e.u.",
"e.e.e.e.e.e.e.e.e.e.e.e.u.B F.!.@.@.@.h.k.! W Q F ! ] @.+.@.$.=.-.=.-.-.=.$.! S Q S ' x.f.O.$.m.R.R.^ b e.e.e.e.e.e.t.u.u.t.e.t.",
"e.e.e.e.e.e.e.e.e.e.e.e.w.C i.z.*.@.@.h.f.F Q W ! @.$.$.$.@.$.$.=.f.f.f.f.f.=.F Q W ^ k.f.&.n.D.Y.R.^ 5.u.e.e.e.e.e.e.e.t.u.u.t.",
"e.e.e.e.e.e.e.e.e.e.e.e.w.C $.x.*.@.@.h.g.F Q S ( $.@.@.$.@.@.@.@.$.-.a.a.a.f.( W E ~ k.h.n.D.D.R.R.^ 5.e.e.e.e.e.e.e.e.u.t.u.e.",
"e.e.e.e.e.e.e.e.e.e.e.e.e.V $.x.*.@.@.k.N.F Q W ( $.@.$.@.$.$.@.$.@.$.-.f.-.f.( W E ! k.J.D.M.D.Y.R.^ b e.e.e.e.e.e.e.e.t.e.e.e.",
"e.e.e.e.e.e.e.e.e.e.e.e.w.V $.x.*.+.*.C.l.! Q S ( $.@.@.$.@.$.@.$.@.@.@.=.f.f.( F E / P.Y.M.D.D.Y.R.^ b e.e.e.e.e.e.e.e.r.u.e.e.",
"e.e.e.e.e.e.e.e.e.e.t.e.w.Y $.x.$.*.h.C.l.J Q F ( $.$.$.@.$.@.@.@.$.@.@.@.-.g.( W E ' R.Y.D.H.D.R.R.^  .X.| 2.e.e.2.e.e.e.e.e.e.",
"e.e.e.e.2.e.2.e.e.e.e.e.w.R $.z.-.h.h.C.N.F Q S ( $.@.$.$.@.$.@.$.@.@.@.@.@.f.' W Q ' R.Y.D.D.D.Y.R.^  .o.| e.2.e.e.e.e.e.u.t.e.",
"e.e.2.1.1.e.e.e.e.e.e.e.w.V @.c.k.h.h.C.N.F Q W ~ $.@.@.$.@.@.@.@.$.$.$.@.@.*.( W E ' R.R.D.D.M.Y.L.^  .o.| e.t o r e.e.e.e.e.0.",
"e.e.2.p <.e.e.e.e.e.e.e.w.V &.A.k.h.h.C.l.F Q S H ] @.@.@.@.*.@.$.@.$.@.$.@.@.~ W E ' R.Y.D.H.D.Y.B.!  .o.| 0.t X r e.e.e.e.e.e.",
"e.e.e.2.2.0.e.e.2.e.e.e.w.V p.A.k.h.h.C.N.F Q W ~ ( ] @.@.@.@.@.@.$.@.@.@.@.@.~ W E ' R.Y.M.H.M.l.h.! b y.d < s ,.0.e.e.e.e.e.e.",
"e.0.e.e.e.e.e.e.0.e.e.q.0.V p.A.k.h.h.C.l.J Q S ~ ( ( O.@.@.@.@.$.@.$.@.@.@.$.~ W Q ' R.L.D.D.i.f.k.! b ,.a k a e.e.e.e.2.e.e.e.",
"e.e.e.e.e.e.e.e.q.e.e.2.w.V p.A.k.h.h.C.N.F Q F Q ( ( ( O.@.@.@.@.$.@.$.$.@.*.~ W E ' R.R.M.i.+.g.h.^ 3.w.e 7 e t.y % & e.0.q.e.",
"e.e.e.e.e.e.e.e.q.e.e.q.w.Y p.A.k.h.h.C.l.! Q F ~ ( ( ( ( ( O.@.@.@.@.$.@.@.@.~ W E ' R.Y.i.+.@.f.z.J >.q.& . & t.t   % e.e.e.e.",
"e.e.e.e.e.e.e.e.e.e.e.e.w.R i.A.k.h.h.C.l.F E E E ( ( ( ( ( ( O.$.$.#.$.$.$.O.F Q E ' R.j.@.$.@.g.z.! :.h a ; 0 e.y X % e.e.e.e.",
"e.e.e.e.e.e.e.e.e.e.q.2.e.V i.A.k.h.h.B.k.! W Q W Z ( ( ( ( ~ ( ( ] O.O.+.] J W Q S [ B.a.@.$.@.g.h.! q c z k a e.y   % 0.e.e.e.",
"e.e.e.e.e.e.e.e.e.e.e.e.e.T =.A.k.h.g.g.z.] A Q Q F F F F S S F F F F F D S E Q Q A %.x.=.+.$.@.h.h.! :.h d a u e.0.& t e.e.e.e.",
"e.e.e.e.e.e.e.e.e.e.e.2.w.Y i.A.k.h.*.$.k.h.! S Q Q Q Q Q Q Q Q Q Q Q Q Q Q Q Q A ( z.h.@.@.$.@.g.k.! b e.q.e.e.e.e.e.e.0.e.e.e.",
"e.e.e.e.e.e.e.e.e.e.e.2.w.R i.A.k.*.@.+.=.z.g./ A F S S S S S S S S S S S S A J ] h.k.*.@.@.$.$.h.h.! 5.w.e.2.e.e.e.e.e.e.e.e.e.",
"e.e.e.e.e.e.e.e.e.e.q.e.w.T { A.s.+.$.@.$.-.z.z.a.#.#.+.#.d.d.d.d.d.d.d.d.d.d.f.z.z.=.+.$.$.@.*.x.-.D t.e.e.e.e.e.e.e.e.e.e.e.e.",
"e.e.e.e.e.2.2.0.2.e.e.q.u.n ! x.h.$.@.$.$.+.=.g.z.z.z.z.I.!.E.E.E.E.E.E.!.E.B.j.f.$.@.@.$.@.O.a.x.+.G e.e.e.e.e.e.e.0.e.e.e.e.e.",
"e.e.e.e.e.p <.0.e.e.e.e.w.5.A $.x.f.+.@.$.$.+.@.*.*.=.Z.L.H.H.H.H.H.H.H.Z.s.*.*.@.@.$.$.$.+.*.z.h.W ` w.e.e.e.e.e.e.e.e.e.e.e.e.",
"e.e.e.e.e.<.p e.e.e.e.e.e.u.I W g.x.a.@.+.@.@.$.+.$.b.D.M.D.M.D.Z.D.D.M.i.O.@.@.@.$.@.@.@.*.h.x.] Z 4.e.e.e.e.e.e.e.e.e.e.e.e.e.",
"e.e.e.e.0.p p e.e.e.e.e.e.e.2.G ~ h.x.g.=.$.@.@.$.b.K.M.D.D.D.D.D.D.M.i.O.@.@.@.@.$.$.$.a.k.x.@.A M w.e.e.e.e.e.e.e.e.e.e.e.e.e.",
"e.e.e.e.e.1.<.0.e.e.e.e.e.e.0.b J ^ s.x.x.k.g.g.Z.R.R.R.R.R.R.R.R.L.j.f.g.h.f.g.g.g.h.z.x.h.{ F m w.e.e.e.e.e.q.e.e.e.e.e.e.e.e.",
"e.e.e.e.e.e.e.e.e.e.e.e.e.e.e.w.4.R F ' =.g.z.Z.Y.R.R.R.R.R.R.R.P.l.h.k.h.h.k.k.h.k.h.a.{ F D M w.e.e.e.e.e.e.e.e.e.e.e.e.e.e.e.",
"e.e.e.e.e.e.e.e.e.e.e.e.e.e.e.e.e.e.M R ! W ^ ^ ^ ^ ^ ^ ^ ^ ^ / ^ ! J ! ! ! ! ! ! ! ! D G ` 4.u.e.e.e.e.e.e.e.e.2.q.q.e.e.e.e.e.",
"e.e.e.e.e.e.e.e.e.e.e.e.e.e.e.e.e.e.u.e.r.b b b b b b b @ + 2 4 q M q - 3 >.>.b b b 5.4.e.w.e.e.e.e.e.e.e.e.e.e.e.q.} y.e.e.e.2.",
"e.e.e.e.e.e.e.e.e.e.e.e.e.e.e.e.e.e.e.e.e.u.u.u.e.w.,.0.w O ; k s r.a k 5 h j 0.e.w.w.e.u.4.e.e.e.e.e.e.e.e.e.e.e.q.} } e.q.q.e.",
"e.e.e.w.e.e.e.e.e.e.e.e.e.e.e.e.e.e.e.e.e.r.t.e.e.e.e.e.g 6 z l < 1 a d f 2.e.e.e.e.e.e.e.4.u.e.e.2.e.e.e.e.e.e.e.2.e.e.2.0.e.e.",
"e.e.e.e.e.e.e.e.r.e.e.e.e.e.e.t.e.e.e.e.e.e.u.t.e.e.e.2.v c z : l l a 6.7.e.e.e.e.e.e.e.u.e.e.e.e.e.e.e.e.e.e.e.e.e.e.e.e.e.e.e.",
"e.e.e.e.e.e.e.e.r.e.e.e.e.e.e.e.e.e.e.e.e.e.e.t.e.e.e.e.p 7.i u u u <.<.2.0.e.e.e.e.e.e.e.e.r.e.e.e.e.e.e.e.e.e.2.e.q.e.e.e.e.e.",
"e.e.e.e.e.e.e.e.e.e.e.e.u.e.e.e.e.e.e.e.e.e.e.u.e.e.e.e.e.e.e.e.e.e.e.r.e.e.e.e.e.e.e.e.e.e.e.e.e.2.e.e.e.e.e.e.e.e.e.e.e.e.e.0.",
"e.e.e.e.e.e.e.e.e.e.e.e.e.e.e.e.e.e.e.e.e.e.e.t.e.e.e.e.e.e.e.e.e.e.e.e.e.e.e.e.e.e.e.e.u.e.e.e.e.e.e.e.e.1.1.,.y ,.2.e.e.e.q.q.",
"e.e.e.e.e.e.e.e.r.e.e.e.e.e.e.e.e.e.e.e.e.e.e.u.e.e.e.e.e.e.e.e.e.e.e.e.e.e.e.e.e.e.e.e.e.e.e.e.e.e.e.e.0.p u u u y q.e.2.e.e.e.",
"e.r.e.e.e.e.e.e.e.e.e.e.e.e.e.e.e.e.e.e.e.e.e.e.e.e.e.e.e.e.e.r.e.e.e.e.e.e.e.e.r.e.e.e.e.e.e.e.e.e.e.e.e.,.i y 2.i f 6.e.e.e.e.",
"e.e.e.e.e.e.e.e.e.e.e.e.e.e.e.e.u.w.r.e.e.e.e.e.e.e.e.e.e.e.e.e.e.e.e.r.e.e.e.e.r.r.e.e.e.e.e.e.e.e.e.e.e.2.i 1.q.<.x 6 e.e.e.2.",
"e.e.e.e.e.e.e.e.e.e.e.2.e.r.e.e.4.e.e.e.e.e.e.e.e.e.e.e.e.e.e.e.e.e.e.e.e.e.e.e.e.e.e.e.e.e.e.e.e.e.e.e.0.2.,.2.e.1.g f e.e.e.e.",
"e.e.e.e.e.e.e.e.e.e.u.e.e.e.e.e.e.e.r.e.e.e.e.u.e.e.e.e.e.e.e.e.e.e.e.e.e.e.e.e.e.e.e.e.e.e.e.e.e.e.e.e.e.e.2.e.2.e.q.q.2.e.e.e.",
"e.e.e.e.e.e.e.y i 2.4.u.e.e.e.r.e.e.e.r.e.e.e.e.e.r.e.e.e.e.r.e.e.e.e.e.e.e.w.e.e.e.e.e.e.e.e.e.e.e.e.e.e.e.e.e.e.e.e.e.e.e.e.e."
};
