/* XPM */
static char *_f8782bd984f4fad9df51e75fd55ec40JhYiZi4LK2KP9cgP[] = {
/* columns rows colors chars-per-pixel */
"64 64 201 2 ",
"   c #FE7E00",
".  c #4CAF38",
"X  c #4DB235",
"o  c #4EB039",
"O  c #57B437",
"+  c #53B23A",
"@  c #68BD2E",
"#  c #60AE32",
"$  c #66B537",
"%  c #67BB33",
"&  c #6ABD32",
"*  c #62B63E",
"=  c #6CBA3F",
"-  c #75BD3B",
";  c #79BF3D",
":  c #79C03A",
">  c #5E9B4A",
",  c #478F5F",
"<  c #558C58",
"1  c #4B9C52",
"2  c #4A925C",
"3  c #53965C",
"4  c #55985B",
"5  c #5A9C5A",
"6  c #6E9E53",
"7  c #629E5B",
"8  c #719C5D",
"9  c #4DA744",
"0  c #54A846",
"q  c #5DAA45",
"w  c #5EB640",
"e  c #5DA055",
"r  c #69AE4D",
"t  c #77AB4C",
"y  c #61B045",
"u  c #6AB347",
"i  c #6CB841",
"p  c #74BB43",
"a  c #7ABC45",
"s  c #77B54C",
"d  c #7DB64D",
"f  c #7EBA4B",
"g  c #64A555",
"h  c #6BAC52",
"j  c #68A459",
"k  c #71AC54",
"l  c #7BAD56",
"z  c #75A758",
"x  c #7DAE5A",
"c  c #75B350",
"v  c #7EB152",
"b  c #438B62",
"n  c #4A8F60",
"m  c #599563",
"M  c #668B67",
"N  c #6D966E",
"B  c #719A6B",
"V  c #76A561",
"C  c #7FC040",
"Z  c #97BA3D",
"A  c #9AB93C",
"S  c #ADB232",
"D  c #A8BC3C",
"F  c #B9BA34",
"G  c #BABD3A",
"H  c #DF9F15",
"J  c #FD8202",
"K  c #FE8A05",
"L  c #FF9405",
"P  c #FF9B05",
"I  c #FE9409",
"U  c #F69A0D",
"Y  c #FE9C0A",
"T  c #E19F15",
"R  c #F69F12",
"E  c #FE9914",
"W  c #D0A41D",
"Q  c #FFA706",
"!  c #FEA20D",
"~  c #FEAB0C",
"^  c #E4A418",
"/  c #F7A112",
"(  c #FCA312",
")  c #F5A815",
"_  c #FCAC16",
"`  c #FDA41A",
"'  c #F6AD19",
"]  c #FCAD1B",
"[  c #F3B51E",
"{  c #FBB41B",
"}  c #FEBB1E",
"|  c #CBA721",
" . c #CEB12B",
".. c #C7BD32",
"X. c #DCBC32",
"o. c #E7AF20",
"O. c #FDAB2D",
"+. c #E6B829",
"@. c #FEB524",
"#. c #F5B921",
"$. c #FDBC22",
"%. c #FEBD2A",
"&. c #FEBA36",
"*. c #B0E71F",
"=. c #96CE3E",
"-. c #9CD334",
";. c #9BD23A",
":. c #A6DC32",
">. c #A9DE30",
",. c #AAE320",
"<. c #B7EC24",
"1. c #BCF021",
"2. c #DED23F",
"3. c #FDC125",
"4. c #F6C52D",
"5. c #FCC42B",
"6. c #F6C82D",
"7. c #FCC92E",
"8. c #EBC431",
"9. c #FEC433",
"0. c #F7CA31",
"q. c #FDCC32",
"w. c #FECB3D",
"e. c #FCD236",
"r. c #F6D53B",
"t. c #FED43A",
"y. c #FDDA3D",
"u. c #82BF45",
"i. c #8ABF46",
"p. c #83B74E",
"a. c #8BB44D",
"s. c #83BC4B",
"d. c #89BF4B",
"f. c #93BD42",
"g. c #86AE55",
"h. c #81B552",
"j. c #88B450",
"k. c #85C046",
"l. c #8CC446",
"z. c #86C24B",
"x. c #8BC34A",
"c. c #8AC84F",
"v. c #91C247",
"b. c #9DC041",
"n. c #92CA41",
"m. c #91C449",
"M. c #BED64D",
"N. c #A3CD59",
"B. c #B8D560",
"V. c #D6D14A",
"C. c #FDC344",
"Z. c #F6CD42",
"A. c #FEC34C",
"S. c #FBCE4D",
"D. c #FED446",
"F. c #F7DB41",
"G. c #FDDE42",
"H. c #FED249",
"J. c #E0DD56",
"K. c #FCD255",
"L. c #FDD35A",
"P. c #FFDD5A",
"I. c #E1E24E",
"U. c #FDE345",
"Y. c #FDE64A",
"T. c #FDE94C",
"R. c #ECE859",
"E. c #F2EA51",
"W. c #FDEE51",
"Q. c #FFE758",
"!. c #FDF355",
"~. c #FEF659",
"^. c #F9F45D",
"/. c #FED564",
"(. c #FEDD63",
"). c #FED46E",
"_. c #F6DC7C",
"`. c #FDDB7E",
"'. c #D5E66A",
"]. c #F1EA6C",
"[. c #FDE869",
"{. c #FFF563",
"}. c #FEFA65",
"|. c #FAF96B",
" X c #FEE775",
".X c #FCFD72",
"XX c #FDF579",
"oX c #F6DD80",
"OX c #FDDE82",
"+X c #E6EB87",
"@X c #FDE185",
"#X c #FFE68A",
"$X c #F2EF8F",
"%X c #FDEB8C",
"&X c #F3F08F",
"*X c #F1ED92",
"=X c #FDEE92",
"-X c #F8F295",
";X c #FDF59A",
":X c #FEF99C",
">X c #FEFDA3",
/* pixels */
"x.x.x.x.x.x.c.x.x.x.x.m.x.x.x.x.x.s.l l h h p.p.p i p.p.x.x.x.x.x.x.x.x.x.x.x.x.x.x.x.x.i.; ; k.x.x.x.x.x.x.x.x.x.x.x.x.x.x.m.x.",
"x.x.x.x.x.x.m.x.x.x.x.x.x.x.x.x.x.x.x.l.l.l.x.x.x.l.x.l.x.x.x.x.x.x.x.x.x.x.x.x.x.x.x.x.x.& % C x.x.x.x.x.x.x.x.x.x.x.x.x.x.x.x.",
"x.x.x.x.x.x.x.x.x.x.x.c.x.x.x.x.x.x.x.d.x.x.x.x.x.x.x.x.x.x.x.x.x.x.x.x.x.x.x.x.x.x.x.x.k.$ $ k.x.x.x.x.x.x.x.x.x.x.x.x.c.x.x.x.",
"x.x.x.x.x.x.x.x.x.x.x.x.x.x.x.x.x.x.x.x.x.x.x.x.x.x.x.x.x.x.x.x.x.x.x.x.c.x.x.x.x.x.x.x.z.O X k.x.x.l.x.d.x.x.x.x.x.x.x.x.x.x.x.",
"x.x.c.m.x.x.x.x.x.x.x.x.x.x.x.x.x.k.x.x.x.x.x.d.x.d.x.x.x.x.x.x.x.x.x.x.x.x.x.x.x.x.x.x.d.0 9 u.x.a p u.x.x.l.x.x.x.m.x.x.x.x.m.",
"x.x.x.x.x.x.x.x.x.x.x.x.x.x.x.x.x.x.x.x.x.x.x.x.x.x.x.x.x.x.x.x.c.m.x.x.x.x.m.x.x.x.d.x.d.3 n d l.* X a x.x.x.x.c.x.x.x.x.x.x.x.",
"x.x.x.x.x.x.x.x.x.x.x.x.x.x.x.x.x.x.x.x.x.x.x.x.x.x.x.x.x.x.x.x.x.x.x.x.x.c.x.x.x.x.x.x.z.3 2 f l.y 9 f l.x.x.x.x.x.x.x.c.x.x.x.",
"x.x.x.x.x.x.x.x.x.x.x.x.x.x.x.x.x.x.x.i.x.x.x.x.x.x.x.x.x.x.x.x.x.x.x.x.x.x.x.x.x.x.x.x.z.3 , f x.5 , s x.x.x.x.x.x.x.x.x.x.x.x.",
"x.x.x.x.x.x.x.x.x.x.x.x.x.x.x.x.l.l.x.i.i.x.x.x.x.x.x.x.x.x.x.x.x.x.x.x.x.x.x.x.x.x.x.l.u.5 4 s.l.g 2 v x.x.x.m.x.x.x.x.x.x.x.x.",
"x.x.x.x.x.x.x.x.x.x.z.x.x.x.x.l.=.=.=.=.x.x.x.x.x.x.x.x.x.x.x.x.x.x.x.x.x.x.x.x.x.x.x.x.x.d.d.x.x.z.x.d.x.x.x.x.x.x.x.x.x.x.x.x.",
"x.x.x.x.x.k.x.z.x.x.x.x.x.x.k.n.=.=.=.=.x.x.x.l.x.x.x.x.x.x.x.x.x.x.x.x.x.x.x.x.x.x.x.x.x.x.x.x.x.x.x.x.x.x.x.x.x.x.m.x.x.x.c.m.",
"x.x.x.x.i.s.p.d.x.x.x.x.z.x.x.x.x.x.u.x.u.x.x.x.x.x.x.x.x.x.z.x.x.x.x.x.x.x.x.x.x.x.x.x.x.x.x.x.x.x.x.x.x.x.x.x.x.x.c.x.x.x.x.x.",
"x.u.x.x.x.f f x.x.d.x.x.x.x.x.i.x.x.x.x.x.x.x.x.c.x.x.x.x.x.x.x.x.c.x.x.x.c.x.x.u.x.x.x.l.x.x.x.x.x.x.x.x.x.x.x.m.x.x.x.x.x.x.x.",
"x.x.z.p.s.z.u.s.f s.f d.x.x.x.x.x.x.x.x.x.x.x.S W T T W T T ^ H T T T ^ W +.J.'.B.x.k.x.x.x.x.x.x.x.x.x.x.x.x.x.x.x.x.c.x.x.x.c.",
"x.x.i.f p.x.x.p.f s.p.z.x.x.x.x.x.x.x.x.c.Z W @.w.D.w.q.q.t.e.q.w.e.q.q.%.( ( L.:X+XN.x.x.x.x.x.x.x.x.x.x.x.c.x.x.x.x.x.x.x.m.x.",
"x.x.x.u.u.i.x.u.d.u.u.u.x.x.x.x.x.x.x.x.A +.Q..X.X}.~.~.!.!.~.!.~.!.~.~.~.T.C.P C.:X&XN.u.x.x.x.x.x.x.x.x.x.x.x.x.x.x.x.x.x.x.x.",
"x.x.x.x.d.x.x.x.x.x.x.x.x.x.x.x.x.x.c.i.X.{..X^.G.q.q.q.q.q.q.q.7.e.6.e.t.[.>X).L w.~.E.m.x.x.x.x.x.x.x.x.x.x.x.x.c.x.c.x.x.m.x.",
"x.x.x.x.x.x.x.x.x.x.x.x.x.x.x.x.x.x.x.D Q..XW.D.5.7.q.7.7.q.7.q.7.6.7.7.K.OX#X>XA.~ W.W.M.z.x.x.x.x.x.x.x.x.x.x.m.x.x.x.x.x.x.x.",
"x.x.x.x.x.x.x.x.x.x.x.x.x.x.x.x.x.x.u.V..XW.y.7.7.q.7.5.7.7.7.7.7.7.7.K.@XOX X=X%X` t.~.I.x.x.x.x.x.x.x.x.x.x.m.x.x.x.x.x.c.x.x.",
"x.x.x.x.x.x.x.x.x.x.x.x.x.x.x.x.x.x.m.R.}.y.7.7.7.7.q.t.e.t.e.e.t.e.K.OXOX@X`.@X;X&.%.~.E.m.x.x.x.x.x.x.x.x.x.x.x.x.x.x.x.x.x.x.",
"x.x.x.x.x.x.x.x.x.x.m.x.x.x.x.x.x.x.x.|.Y.7.7.7.q.U.!.~.~.~.~.~.~.XX:X@XOX@X@XOX;XA.{ !.E.m.x.x.x.x.x.x.m.x.x.c.x.x.x.x.x.x.x.x.",
"x.x.x.x.x.x.x.x.x.x.x.x.x.x.x.x.x.z.x.^.t.7.7.q.T.W.9.@.$.$.%.%.%.A. X:X%X`.`.`.;XA.] ~.!.m.x.x.x.x.c.x.x.x.x.x.x.c.m.x.x.x.x.m.",
"x.x.x.x.x.x.x.x.x.x.x.x.x.x.x.x.x.z.m.E.t.7.7.Y.Y.E J L P Y P Y P P Y L.:X@XOX`.;XC._ T.G.x.z.x.x.x.x.x.x.x.x.x.x.x.x.x.x.x.x.x.",
"x.x.x.x.x.x.x.x.x.x.x.x.x.x.x.x.x.x.x.E.t.5.e.W.` J Y ~ ~ ~ ~ ~ ~ ~ ~ ~  X=X`.OX X5.( q.4.x.x.x.x.x.x.x.x.x.x.x.x.x.x.x.x.x.c.x.",
"x.x.x.c.x.x.x.x.x.x.x.x.x.x.x.x.x.x.x.E.t.5.G.G.  I ! Y Y Y Y Y P I ! Q w.;X@XK.U.5.( q.q.n.x.x.x.x.x.x.x.x.x.x.x.x.m.x.x.x.x.x.",
"x.x.x.m.x.x.x.x.x.x.x.x.x.x.x.x.x.x.x.E.t.5.G.t.  ( 5.5.e.t.y.y.q.I L P &.;XL.5.Y.5.( 7.5.x.x.x.x.x.x.x.x.x.x.x.x.x.c.x.x.x.x.x.",
"x.x.x.x.x.x.x.x.x.x.x.x.x.x.x.x.x.x.m.E.t.5.G.t.J 5.7.7.7.r.U.G.Y.%.J L &.XX6.7.T.5.` H.Z.x.x.x.x.x.x.x.x.x.x.x.x.x.x.x.m.x.x.x.",
"x.x.x.x.x.x.x.x.x.x.x.x.x.u.u.u.x.x.m.E.y.5.G.w.J 7.7.7.7.5.e.G.U.q.J I } !.7.5.T.3.O.#XoXm.x.x.x.x.x.x.x.x.x.x.x.x.x.x.x.x.c.x.",
"x.x.x.x.x.x.x.x.x.x.x.x.x.i . i x.z.x.E.t.5.G.t.J 5.7.7.q.7.7.t.U.q.J L } W.7.5.Y.%.O.@X_.m.x.x.x.x.x.x.x.x.x.x.x.x.x.x.x.x.x.x.",
"x.x.x.x.x.x.x.x.x.x.x.x.x.= O = x.x.m.E.t.5.G.t.J 7.q.7.q.7.7.7.G.q.J L } !.e.5.Y.5.` D.Z.v.x.x.x.x.x.k.l.l.x.x.x.x.x.x.x.x.x.x.",
"x.x.x.x.x.x.x.x.x.x.x.x.d.-.,.-.x.x.x.E.t.7.G.H.J 7.q.7.7.7.q.5.t.q.J L } W.7.5.T.5.( 7.6.v.x.x.x.l.x.:.<.;.d.x.x.x.x.d.x.x.x.x.",
"x.x.x.x.x.u.x.x.x.x.x.x.x.-.*.-.u.x.l.E.t.3.[./.J 5.q.7.7.q.q.7.q.5.J P 3.W.q.5.T.5.( q.0.m.x.x.x.x.u.>.1.;.z.x.k.d.x.x.x.x.x.x.",
"x.x.u.s.s.x.x.x.x.x.x.x.l.: & & + = m.E.t.S.=X).J 5.q.7.e.7.7.7.q.%.J L } T.e.5.Y.5.( 7.7.m.x.x.x.x.z.>.<.;.x.p + = x.x.x.x.x.x.",
"x.x.d.f f k.x.x.x.x.x.d.x.- & O + y m.E.P.`.=X).J $.7.7.7.7.7.7.q.@.J L } !.6.7.Y.%.` y.r.m.z.x.x.x.u.>.1.-.x.p o * x.i.x.x.x.x.",
"x.x.x.d.u.x.x.x.x.k.x.x.x.- @ q 2 e j.].@X`.=X).J { 7.7.7.7.7.7.6.@.J L } W.7.5.Y.5._ U.F.m.x.x.x.x.x.n.=.k 3 h u.u.x.x.x.x.x.x.",
"x.x.x.d.x.x.x.x.x.x.l.x.x.- @ q b 5 h.$X#X`.=X).J _ 3.7.7.7.e.7.e.$.J I } W.e.5.Y.5._ U.y.x.x.x.u.x.x.d.d.g b h l.x.x.x.i.x.x.d.",
"x.x.x.x.x.x.x.x.x.i.x.x.x.k.: f c d d.&X#X`.=X).J _ { 3.6.7.7.7.6.@.J L } W.q.5.Y.5.` y.r.v.z.x.x.x z h.x.u 9 u l.a * = x.k.x.x.",
"x.x.x.x.x.x.x.x.x.x.x.x.x.x.x.m.x.l.m.&X#X`.=X).J { { { 5.6.7.7.e.@.J L 3.W.7.7.Y.5.( q.0.l.x.x.x.V N h.m.= X = x.a . * x.x.x.x.",
"x.x.x.x.x.x.x.x.x.x.x.x.x.x.x.x.x.x.c.$X%X`.=X).J _ [ { { 7.q.7.q.` J P } W.q.7.Y.9.( q.0.m.x.d.x.p.h.x x g 1 r m.a . * x.k.x.x.",
"x.x.x.x.x.x.x.x.x.x.x.x.x.x.x.x.x.x.m.$X@X`.=X).J ! ' _ _ _ $.%.{ K L Q 3.T.7.7.Y.%.~ q.0.v.x.x.x.x.l.V N m b g l.a . * x.x.x.x.",
"x.x.x.x.x.x.x.x.x.x.x.x.x.x.c.x.x.x.m.*X#XOX=X(.  L ! Y Y Y Y Y I P ~ Q 7.T.7.7.U.5.( q.0.v.x.x.x.x.x.v x k g s l.u.= p i.d.x.x.",
"x.x.x.x.x.x.x.x.x.x.x.x.x.x.x.x.x.x.c.$X#XOX/.!.O.  Y ~ ~ ~ ~ ~ ~ ~ ~ ~ U.U.7.5.T.5.( 5.4.v.x.x.x.x.x.z.x.l.l.x.z.x.x.x.x.x.x.x.",
"x.x.x.x.x.x.x.x.x.x.x.x.x.x.x.x.x.z.x.*X%XK.7.U.W.` J L P P P P P P ! t.W.e.7.5.Y.5.Y } #.l.x.x.x.x.x.x.x.x.x.d.x.x.x.x.k.x.x.x.",
"x.x.x.x.x.x.x.x.x.x.x.x.x.x.x.x.x.x.m.-X(.6.7.7.Y.!.y.9.q.q.w.q.q.w.Y.!.y.6.q.5.T.5.! $.#.v.x.x.d.x.x.x.x.x.x.x.x.x.x.x.x.x.x.x.",
"x.x.x.x.i.u.d.x.x.x.x.x.x.x.x.x.x.x.x.].G.7.7.7.7.G.!.~.~.!.!.~.~.!.Y.t.7.7.q.q.W.%.! $.#.l.x.x.x.x.x.x.x.x.x.x.x.x.x.x.x.x.x.x.",
"x.x.x.x.x.f p.u.x.x.x.x.x.x.x.x.x.x.i.2.T.q.7.7.7.7.7.e.e.e.e.e.e.q.q.5.q.7.5.y.W.` _ } +.x.x.x.x.x.x.x.x.x.x.x.x.x.x.x.x.x.x.x.",
"x.x.x.x.x.f p.x.x.x.x.x.x.x.x.x.x.l.z.G T.U.7.7.7.7.7.5.5.7.7.7.7.7.7.7.7.4.e.!.t.I { } ..z.x.x.x.x.x.x.x.x.x.x.x.x.x.x.x.x.x.x.",
"x.x.x.x.u.s.f z.x.x.x.x.x.x.x.x.x.x.z.f.8.~.T.e.q.7.q.q.7.7.7.7.q.7.7.q.q.y.!.U.! ~ { #.Z x.x.x.x.x.x.x.x.x.x.x.x.x.x.x.x.x.x.x.",
"x.x.x.x.x.s.s.x.x.x.x.x.x.x.x.x.x.x.m.x.D %.W.~.W.T.T.T.T.T.T.T.Y.T.Y.T.W.~.G.( Y _ _ F z.x.m.x.x.x.x.x.x.x.x.x.x.x.x.x.x.x.x.x.",
"x.x.x.x.x.x.x.z.x.x.x.x.x.x.x.x.x.x.x.x.z.S ' q.G.Y.W.Y.Y.T.Y.T.T.T.T.U.G.$.Y Y _ ' F z.x.x.x.x.x.x.x.x.x.x.x.x.x.x.x.x.x.x.x.x.",
"x.x.x.x.x.x.x.x.d.x.x.x.x.x.x.x.x.x.x.x.x.z.A | ^ ( R ( R R / / R ( R R U U ) o. .D z.x.x.x.x.x.x.x.x.x.x.x.x.x.x.x.l.x.k.x.x.x.",
"x.x.d.x.x.x.x.x.x.x.x.x.x.x.x.x.x.x.x.x.x.x.x.c.i.f.f.f.= # > < t b.t < 6 g.a.i.z.z.x.x.x.x.x.x.x.x.x.x.x.x.x.x.x.m.=.n.x.l.x.z.",
"x.x.x.x.x.x.x.x.x.x.x.x.x.x.x.x.x.x.x.x.x.x.x.x.x.x.x.z.w o 1 b k l.h b 7 l v x.x.x.x.x.x.x.x.x.x.x.x.x.x.x.x.x.x.l.=.=.x.x.x.x.",
"x.x.x.x.x.x.x.x.x.x.x.x.x.x.x.x.x.m.x.x.x.x.x.x.x.x.x.i.k 8 4 n 4 5 j z v d.d.i.x.x.x.x.x.x.x.x.x.x.x.x.x.x.x.x.x.x.l.k.x.x.x.x.",
"x.x.x.x.x.x.x.x.x.m.x.x.x.x.x.x.x.x.x.x.x.x.x.x.x.x.x.x.V B m 2 2 b 7 g.p.x.x.x.x.x.x.x.x.x.m.x.x.x.x.x.x.x.x.x.i.x.x.x.x.x.x.x.",
"x.x.x.x.x.x.x.x.x.x.x.c.x.x.x.x.x.x.x.x.x.x.x.x.x.x.x.d.h.h.d c s s f p.s.x.z.x.x.x.x.x.x.x.c.x.x.x.x.x.x.x.x.x.x.x.x.x.x.x.x.x.",
"m.c.x.x.x.x.x.x.x.x.m.x.x.x.x.x.x.x.x.x.x.x.m.x.x.x.x.x.x.x.x.m.x.x.x.l.x.x.x.x.x.x.x.x.m.x.x.x.x.i.x.x.x.x.x.d.x.x.x.x.l.x.x.x.",
"x.x.x.x.x.x.x.x.x.x.x.x.x.x.x.x.x.c.m.x.x.x.x.x.x.x.x.x.x.x.x.x.x.x.x.x.x.x.x.x.x.x.x.x.x.x.x.x.x.x.x.x.x.u.f s.a s.d.x.x.x.x.x.",
"x.x.x.x.x.x.x.x.x.x.c.x.x.x.x.x.x.x.x.x.x.x.x.x.x.x.x.x.x.x.x.x.x.x.x.x.x.x.x.x.x.x.x.x.x.x.x.x.x.x.x.z.x.f s p s a l.l.x.d.x.x.",
"x.x.x.x.x.x.x.x.x.x.x.x.x.x.x.c.x.x.x.x.x.x.x.c.x.x.x.x.x.x.x.x.x.x.x.x.x.x.x.x.x.x.x.x.c.x.x.x.x.x.x.x.x.s.d s.u.d l l x.x.x.x.",
"x.x.x.x.x.x.x.x.x.x.x.x.x.m.x.x.x.m.x.x.m.x.x.x.x.x.x.x.x.x.x.c.x.x.x.x.x.x.x.x.x.c.x.x.x.x.x.x.x.x.x.x.x.s.f s.l.h.M 8 x.x.x.x.",
"x.x.x.x.x.x.x.k.x.x.x.x.x.x.x.x.x.x.x.x.x.x.x.x.x.x.x.x.x.x.x.x.x.x.x.x.x.x.x.x.x.x.x.x.x.x.x.x.x.x.x.x.x.u.s.u.x.s.z l x.u.x.x.",
"x.x.x.x.x.x.x.x.x.x.x.x.x.x.x.x.c.x.x.x.x.x.x.c.x.x.x.x.x.x.m.x.x.c.x.x.x.x.x.x.x.x.x.x.x.x.x.x.x.x.x.x.i.x.x.x.d.x.l.l.x.x.x.x.",
"x.x.x.x.x.x.x.a a z.x.x.x.x.x.x.x.x.x.x.x.x.x.x.x.x.x.x.x.x.x.x.x.x.x.x.x.x.x.x.x.x.x.x.x.x.x.x.x.x.x.x.x.x.x.x.x.x.i.x.x.d.x.x."
};
