/* XPM */
static char *e9c347eaf144431b8f3070a6f61cb1044XubjnDquKBgezPn[] = {
/* columns rows colors chars-per-pixel */
"64 64 170 2 ",
"   c #FF7F00",
".  c #4DAF39",
"X  c #4DB235",
"o  c #4EB038",
"O  c #53B337",
"+  c #5CB536",
"@  c #53B23A",
"#  c #5CB53C",
"$  c #68BD2E",
"%  c #67BB33",
"&  c #6ABD32",
"*  c #62B63E",
"=  c #68B43B",
"-  c #64B838",
";  c #6DBA3F",
":  c #75BD3B",
">  c #79BF3D",
",  c #6EC02E",
"<  c #79C03A",
"1  c #579E4F",
"2  c #458E5F",
"3  c #4C8E5D",
"4  c #4C9C52",
"5  c #4A925C",
"6  c #53965C",
"7  c #55985B",
"8  c #5A9C5A",
"9  c #639E5A",
"0  c #719C5D",
"q  c #4DA744",
"w  c #57AA46",
"e  c #5DAA45",
"r  c #5FA155",
"t  c #69AE4D",
"y  c #61B045",
"u  c #6AB347",
"i  c #6BB841",
"p  c #74BB43",
"a  c #7ABC45",
"s  c #76B44D",
"d  c #7DB64E",
"f  c #7FBA4B",
"g  c #64A555",
"h  c #6AAB52",
"j  c #66A158",
"k  c #6AA35A",
"l  c #78A657",
"z  c #71AB53",
"x  c #7DAC55",
"c  c #74A858",
"v  c #7CAD59",
"b  c #7EB153",
"n  c #448B61",
"m  c #4A8F60",
"M  c #599563",
"N  c #668B67",
"B  c #6D966E",
"V  c #719A6B",
"C  c #76A561",
"Z  c #7FC040",
"A  c #8CB33F",
"S  c #95BA3F",
"D  c #A7B636",
"F  c #A2B739",
"G  c #FF8303",
"H  c #EE9C0D",
"J  c #FA9508",
"K  c #FC9B0B",
"L  c #FE9412",
"P  c #FF9B12",
"I  c #FCA506",
"U  c #FCA30D",
"Y  c #E9A217",
"T  c #EDA718",
"R  c #ECAD1D",
"E  c #FEA311",
"W  c #F7A916",
"Q  c #FCAE16",
"!  c #F7AD18",
"~  c #FBAB1A",
"^  c #F1B01B",
"/  c #FAB31B",
"(  c #FCBA1E",
")  c #C3B02F",
"_  c #CFB529",
"`  c #FBAE20",
"'  c #F9B522",
"]  c #FCBB22",
"[  c #FFB528",
"{  c #F8BF29",
"}  c #F8BB31",
"|  c #B0E71F",
" . c #96CE3E",
".. c #9CD334",
"X. c #9BD23A",
"o. c #A6DC32",
"O. c #A9DE30",
"+. c #AAE320",
"@. c #B7EC24",
"#. c #BCF021",
"$. c #DDC43A",
"%. c #DCC93C",
"&. c #DBD13F",
"*. c #FDC225",
"=. c #FBC42B",
"-. c #FCCA2D",
";. c #FCCC32",
":. c #FDC839",
">. c #FED334",
",. c #F3D03B",
"<. c #FDD63C",
"1. c #FDDA3E",
"2. c #8AA84D",
"3. c #8CB443",
"4. c #82BF46",
"5. c #83B74E",
"6. c #84BC4B",
"7. c #89BD4A",
"8. c #95BB41",
"9. c #82AC54",
"0. c #81B352",
"q. c #84C046",
"w. c #8CC446",
"e. c #87C14A",
"r. c #8BC34A",
"t. c #88C84E",
"y. c #92C445",
"u. c #92CA41",
"i. c #94C64A",
"p. c #92C650",
"a. c #9EC751",
"s. c #DCD544",
"d. c #D7DB4A",
"f. c #DCDD4B",
"g. c #DCD953",
"h. c #F8C14D",
"j. c #F8D042",
"k. c #FDDD41",
"l. c #FCD24C",
"z. c #FBC759",
"x. c #FDD557",
"c. c #F4D25E",
"v. c #DDE551",
"b. c #FDE044",
"n. c #FDE54A",
"m. c #FEEB4E",
"M. c #FEEE52",
"N. c #FEF355",
"B. c #FEF559",
"V. c #CDD76A",
"C. c #FDCD68",
"Z. c #F6D96A",
"A. c #FEDD6F",
"S. c #FCDD7A",
"D. c #D7E268",
"F. c #D8E27B",
"G. c #F8EE6C",
"H. c #F8F06E",
"J. c #FFE177",
"K. c #FDDF87",
"L. c #FDE083",
"P. c #FDE18B",
"I. c #FEF38F",
"U. c #FDE590",
"Y. c #FFEC90",
"T. c #FEF490",
"R. c #FFF997",
"E. c #FEF69C",
"W. c #FFF99F",
"Q. c #FFFCA0",
/* pixels */
"r.r.r.r.r.r.r.r.r.r.r.r.r.r.r.r.q.7.x b h h 5.5.i p d 5.7.r.r.r.r.r.r.r.r.r.r.r.r.r.r.r.e.> : e.r.r.r.r.r.r.r.r.r.r.r.r.r.r.r.r.",
"r.r.r.r.r.r.r.r.r.r.r.p.r.r.r.r.7.r.w.r.i.r.e.r.r.i.r.r.r.r.r.r.r.r.r.r.r.r.r.r.r.r.r.r.r.& $ q.r.r.r.r.r.r.r.r.r.r.r.r.r.r.r.r.",
"r.r.r.r.r.r.t.r.r.r.r.t.r.r.r.r.r.r.r.r.r.r.r.r.r.r.r.r.r.r.r.r.r.r.r.r.r.r.r.r.r.r.r.r.4.- + q.r.7.r.r.r.r.r.r.r.r.r.r.r.r.r.p.",
"r.r.r.r.r.i.r.r.r.r.r.r.r.r.r.r.r.r.r.r.r.r.r.w.r.r.r.r.r.r.r.r.r.r.r.r.r.p.t.r.r.r.r.r.r.+ O 4.w.r.w.r.r.r.r.r.r.r.r.r.r.r.r.r.",
"r.r.r.r.r.r.r.r.r.r.r.r.r.r.r.r.7.q.w.r.r.r.r.7.r.r.r.r.r.r.r.r.r.r.r.r.r.r.r.r.r.r.r.r.7.w q 4.r.a p 4.r.r.r.r.r.r.r.r.r.r.r.r.",
"r.r.p.r.r.r.r.r.r.r.r.r.r.r.r.r.r.r.r.r.r.r.r.r.r.r.r.w.r.r.r.r.r.r.r.r.r.r.r.r.r.r.r.r.7.6 m f r.- X a r.r.r.r.r.r.r.r.r.r.t.r.",
"r.r.r.r.r.r.r.r.r.r.r.r.r.r.r.r.r.r.r.r.r.r.r.r.r.r.r.r.r.r.r.r.r.r.r.r.t.r.r.r.r.r.r.r.7.6 5 6.r.y q f r.r.r.r.r.r.r.r.r.r.i.r.",
"r.r.r.r.r.r.r.r.r.r.r.r.r.r.r.r.r.e.r.r.r.r.r.r.r.r.r.r.r.r.r.r.r.p.r.r.r.i.r.r.r.r.r.r.r.5 2 f y.8 n s y.r.r.r.r.p.r.r.r.r.r.r.",
"r.r.r.r.r.r.r.r.r.r.r.r.r.r.r.r.w.w.w.7.7.r.r.r.r.r.r.r.r.r.r.r.r.r.r.r.r.r.r.r.r.r.r.r.7.8 7 f r.g 6 d r.r.r.r.r.r.r.r.r.r.r.r.",
"r.r.r.r.r.r.r.r.r.r.r.r.r.r.r.w. . . . .r.r.r.r.r.r.r.r.r.r.r.r.r.r.r.r.r.r.r.r.r.r.r.r.r.7.e.r.r.e.7.w.r.r.r.r.r.r.r.r.r.r.r.r.",
"r.r.r.r.r.4.e.e.r.r.r.r.r.r.q.u. . . . .r.w.r.r.r.r.r.r.r.r.r.r.r.r.r.r.r.r.r.r.r.r.r.r.r.r.r.r.r.r.r.r.r.r.r.r.r.r.r.p.r.r.r.r.",
"r.r.w.r.7.6.6.e.r.r.r.r.r.r.r.r.q.r.e.r.q.r.w.r.r.r.r.r.t.r.e.r.t.r.r.r.r.r.r.r.r.r.r.r.r.r.r.r.r.r.r.r.r.r.r.r.r.r.t.r.p.r.r.r.",
"r.r.7.r.4.6.5.e.7.4.r.r.7.r.r.q.r.r.r.r.r.r.r.r.r.r.r.r.7.i.i.y.y.y.y.y.y.4.r.w.r.r.r.r.r.r.r.r.r.r.r.r.r.r.r.r.r.r.r.r.r.r.r.r.",
"r.r.4.4.6.r.7.6.6.6.6.7.r.r.r.w.r.r.r.r.r.r.e.r.r.r.D Y K E j.H.G.G.G.G.G.D.p.r.r.r.r.r.r.r.r.r.r.r.r.r.r.r.r.r.r.r.r.r.r.r.r.r.",
"r.r.7.5.6.7.7.6.f 5.5.4.r.r.r.r.r.r.r.r.r.r.r.r.q.a.Z.J.J.` P U.W.E.E.W.E.W.V.4.r.r.r.r.r.r.r.r.r.r.r.r.r.r.r.p.r.r.r.t.t.r.r.r.",
"r.r.r.e.4.r.e.r.4.e.4.r.r.r.r.r.r.r.r.r.r.r.r.r.e.F.Q.E.H.n.K A.R.I.I.T.I.R.c.S t.r.r.r.r.r.r.r.r.r.r.r.r.r.r.r.r.r.r.r.i.r.r.w.",
"r.r.r.7.r.r.r.r.r.r.r.r.r.r.r.r.r.r.r.r.r.r.r.r.r.F.Y.x.>.m.E k.B.M.N.M.M.N.:.S r.r.r.r.r.r.r.r.r.r.r.r.r.r.r.r.r.r.r.r.r.r.r.r.",
"r.r.r.r.r.r.r.e.r.r.r.r.r.r.r.r.r.r.r.r.p.r.r.r.r.F.x.-.-.1.E <.N.M.M.M.M.N.;.8.t.r.p.r.r.r.r.r.r.r.r.r.r.r.r.r.t.r.r.r.r.r.r.r.",
"r.r.r.r.r.r.r.r.r.r.r.r.r.r.r.r.r.r.r.r.r.r.r.r.t.g.-.-.-.<.E k.N.M.N.M.M.N.,.S t.r.r.r.r.r.r.r.r.r.r.r.r.r.r.r.i.r.r.r.r.r.r.r.",
"r.r.r.r.r.r.r.r.r.r.r.r.r.r.r.r.r.r.r.r.r.r.r.r.r.s.<.1.>.<.E 1.N.M.M.M.M.N.;.S r.7.r.r.r.r.r.r.r.r.r.r.p.r.r.r.r.r.r.r.r.r.r.p.",
"r.r.r.r.r.r.r.r.r.r.r.r.r.r.r.r.r.r.r.r.r.r.t.i.e.v.B.B.N.k.P <.B.M.M.M.M.N.;.8.r.r.r.r.r.q.w.r.r.r.r.r.r.t.r.r.r.r.r.r.r.r.r.t.",
"r.r.r.r.r.r.r.r.r.p.r.r.r.r.r.r.r.r.p.r.r.r.r.r.r.f.[ ~ 1.M.P k.B.N.M.N.N.B.;.8.t.r.r.r.r.r.w.r.r.r.r.r.r.i.r.r.p.r.r.r.r.r.p.r.",
"r.r.r.r.r.r.w.r.r.r.r.r.r.r.r.r.r.r.r.r.r.r.r.r.t.%.  I ( m.E ;.k.1.k.k.1.k.=.8.r.r.r.4.7.r.r.r.r.r.r.r.r.r.r.r.r.r.r.r.r.r.r.r.",
"r.r.r.r.r.r.r.r.r.r.r.r.r.r.r.w.r.r.r.r.r.r.r.r.r.$.G I ( m.E ] ;.-.-.=.=.-.' 8.r.r.w.w.w.r.r.r.r.r.r.r.r.r.r.r.r.r.r.r.r.r.r.r.",
"r.r.r.r.r.r.r.r.r.r.r.r.r.r.r.r.r.r.r.r.r.r.r.r.t.$.L I ( m.U ] ;.;.-.>.-.>.( 8.e.w.w. . .w.r.r.r.w.r.r.r.r.r.r.r.r.r.r.t.t.r.r.",
"r.p.r.r.w.r.r.r.r.r.r.r.r.r.7.r.r.r.r.r.r.r.r.r.r.s.>.` L m.E ( -.=.=.=.=.-./ 8.e.r.w.u.u.r.r.r.r.r.r.r.r.r.r.r.r.r.r.w.i.r.r.r.",
"r.r.r.r.r.r.r.r.r.r.r.r.r.r.r.w.r.r.r.r.r.w.r.r.r.s.<.[ L m.E :.l.l.l.l.l.l.} 8.e.r.e.r.r.e.r.r.r.r.r.r.r.r.r.r.r.r.r.r.r.r.r.r.",
"t.r.w.r.r.r.r.r.r.r.r.r.r.4.4.7.r.r.r.r.r.r.w.r.t.s.>.' L M.E C.Y.L.K.P.L.P.z.S e.r.r.r.r.r.r.r.r.r.r.r.r.r.r.r.r.r.r.r.r.r.r.r.",
"r.r.r.r.r.r.r.r.r.r.r.r.q.; o i w.r.r.r.e.r.r.r.r.s.>.` L M.K z.L.S.S.S.S.L.h.3.f w.e.r.w.r.r.r.r.r.r.r.r.r.r.r.r.r.7.r.r.r.r.r.",
"r.r.r.r.r.r.r.r.r.r.r.r.w.; O ; w.7.r.r.r.r.r.r.t.s.>.` L m.E { ;.;.;.;.;.;.' 3.f r.r.r.r.r.r.r.r.r.w.q.w.r.r.r.r.r.w.r.r.r.r.r.",
"r.r.r.r.r.r.r.r.r.r.r.r.7...+...r.r.r.r.r.w.r.r.r.s.>.~ L m.E ] ;.;.-.-.;.;.' 8.e.r.r.r.r.r.r.r.r.r.7.o.@.X.7.w.r.r.r.r.r.r.p.r.",
"r.r.r.r.7.r.r.r.r.r.r.r.r...| ..7.e.7.r.7.q.r.7.e.s.>.~ L m.E ] ;.-.-.;.-.;.' 8.e.r.r.r.r.r.r.r.w.w.7.O.#.X.r.r.4.e.r.r.r.r.r.r.",
"r.r.4.6.f r.r.r.r.7.r.r.r.< , % @ i r.6.x x x 0.r.s.-.~ L m.P ] ;.;.-.-.-.-.( S r.r.r.r.r.r.r.r.r.r.4.O.#.X.r.p @ i r.r.r.r.r.7.",
"r.r.7.6.f r.r.r.r.r.r.r.r.: % + @ * y.6.x x x 9.t.s.-.~ L m.E -.1.,.1.1.1.1.=.8.r.r.r.r.r.r.r.r.r.r.7.O.@.X.7.p o * r.r.r.r.r.r.",
"r.r.4.7.7.r.r.r.r.r.r.r.r.: $ e 5 r 0.x x 9.6.7.e.s.-.~ L m.U ;.b.1.k.1.1.b.=.A t.r.r.r.r.r.r.r.r.r.r.w.u.s 6 h Z e.r.r.q.r.r.r.",
"r.r.r.r.r.r.r.r.q.r.r.r.w.: $ e n 8 9.x x 9.r.r.r.&.-.~ L m.E ;.b.k.k.b.k.b.=.S t.r.r.r.r.r.r.r.4.r.r.r.r.g n h r.r.r.r.r.r.r.r.",
"r.r.r.r.r.r.r.r.w.r.r.r.r.q.< 6.s d 7.5.6.7.7.r.t.&.*.~ L m.P =.1.,.<.1.1.1.{ S e.w.r.r.r.r.r.r.w.x C 5.i.u q u r.a * ; r.w.w.r.",
"r.r.r.r.r.r.r.r.r.r.r.r.r.r.r.r.r.r.r.r.r.r.r.r.r.s.] ~ L m.E ] -.-.-.-.-.-.' S e.r.r.r.r.r.r.r.r.C B 0.w.i X i y.p . * r.q.r.7.",
"r.r.r.r.r.r.w.r.r.r.r.7.r.r.r.r.r.r.r.r.r.r.r.r.r.s.*.~ L m.E ] ;.>.-.;.-.;.' 8.r.r.r.r.r.r.r.r.r.5.0.v v g 4 t r.a O * r.r.r.r.",
"r.r.w.r.r.r.r.r.r.r.r.r.r.r.r.r.r.r.r.r.r.r.r.r.t.%.E P Q M.E ] ;.=.-.-.;.;.' 8.e.r.r.r.r.r.r.7.r.r.w.c B M n g r.a . # r.r.r.r.",
"r.r.r.r.r.r.r.r.r.r.r.r.r.r.r.r.r.r.r.r.r.r.r.r.t.$.  I ( m.E ] ;.;.-.-.;.;.' y.r.r.r.r.r.r.r.r.r.r.r.b v z g s w.4.; p r.r.r.r.",
"r.r.r.r.r.r.r.r.r.r.r.r.r.r.r.r.r.r.r.r.r.r.i.r.t.$.G I ( m.E ( *.*.*.*.*.*.^ S e.r.r.r.r.r.r.r.r.r.r.r.w.w.w.r.r.r.w.7.7.r.r.r.",
"r.r.r.r.r.r.r.r.r.r.r.r.r.r.r.r.r.r.r.r.r.r.r.r.e.s.G J *.m.U Q ( ( ( ( ( ( ! 8.e.r.r.r.r.r.r.r.r.r.r.r.r.r.7.r.r.r.r.r.r.r.r.r.",
"r.r.r.r.r.r.r.r.r.r.r.r.r.r.r.r.r.r.r.r.r.r.r.r.r.v.b.>.m.m.E Q ] ] ( ( ] ( ! 8.w.r.r.r.r.r.r.r.7.r.r.r.r.r.r.r.r.r.r.r.r.r.r.r.",
"r.r.r.r.7.4.7.r.r.r.r.r.r.r.r.r.r.r.r.r.r.r.r.r.e.f.m.N.n.k.E Q ] ( ( ( ' ( ! 8.e.7.7.r.r.r.r.r.r.r.r.r.r.r.r.r.r.r.r.r.r.r.r.r.",
"r.r.r.r.r.f f r.r.r.r.r.r.r.r.p.r.r.r.r.r.r.r.r.e.s.-.;.=.1.E Q ] ( ( ( ( ( ! S e.l x 7.r.r.r.r.r.r.r.r.r.r.r.r.r.r.r.r.r.r.r.r.",
"r.r.r.r.7.f f 7.r.r.r.i.r.r.r.r.r.r.r.r.r.r.r.r.r.f.-.=.-.1.E / ] ( ( ( ' ( ^ 8.5.b 0.r.r.r.r.r.r.r.r.r.r.r.r.r.r.r.r.r.r.r.r.r.",
"r.r.r.r.r.f 6.r.r.r.r.r.t.r.r.r.r.r.r.p.r.r.r.r.r.v.b.;.1.n.U Q ^ / / / / / W 2.b r.r.e.e.r.r.r.r.r.r.r.r.r.r.r.r.r.e.r.r.r.r.r.",
"r.r.r.r.7.6.f r.r.r.r.r.r.r.r.r.r.r.r.r.r.r.r.r.r.d.B.N.B.b.P E Q Q Q Q Q Q T 2.b r.r.r.r.r.r.r.r.r.r.r.r.r.r.r.r.r.r.r.r.r.r.r.",
"r.r.w.4.r.r.r.r.r.r.r.r.r.r.r.r.r.r.r.r.r.w.r.r.e.i.,.<.<.E K Q Q / Q Q Q Q ) l 0.r.r.r.r.r.r.r.r.r.r.r.r.r.r.r.r.r.r.7.r.r.r.r.",
"r.r.r.r.r.r.r.r.r.r.r.r.r.r.r.w.r.r.r.r.r.p.r.r.w.e.F Y H H T R R ^ R R R _ 7.l 0.7.r.r.r.r.r.r.r.r.r.r.r.r.r.r.r.r.r.r.e.r.r.r.",
"r.r.r.r.r.r.r.r.r.e.r.r.r.r.r.r.r.p.r.r.r.t.r.r.r.r.e.r.= + 1 m x u.z 3 j b 5.7.r.r.r.r.r.r.p.r.r.r.r.r.r.r.r.r.r.w. . .r.r.r.r.",
"r.r.r.r.r.r.r.r.r.r.r.r.r.r.r.r.r.r.r.r.r.r.r.r.r.r.r.7.* @ 4 n t r.h m 9 9.5.r.r.r.7.r.r.r.r.r.t.i.r.r.r.r.r.r.r.w. . .r.w.w.7.",
"r.r.r.r.r.r.p.r.r.r.r.r.r.r.r.r.r.r.r.r.r.r.r.r.r.e.w.4.c k 7 5 7 8 j c x 7.7.e.r.r.r.r.r.r.r.r.r.r.r.r.r.r.r.r.q.7.r.r.q.r.r.r.",
"r.r.r.r.r.r.r.r.r.r.r.r.r.r.r.r.r.r.r.i.r.r.r.r.r.r.r.r.C V M 5 5 m 9 9.5.r.e.r.r.r.r.r.r.r.r.r.r.r.r.r.r.r.r.r.w.w.r.r.r.r.r.r.",
"r.r.r.r.r.r.r.r.r.r.p.r.r.r.r.r.r.r.t.r.r.r.r.r.r.r.r.e.5.0.b s s s d 7.4.r.r.r.r.r.r.r.r.r.r.r.r.r.r.r.r.r.r.r.r.r.r.w.r.r.r.r.",
"r.r.r.r.r.w.r.r.r.r.r.r.r.r.r.r.r.r.t.r.r.r.p.r.r.r.r.r.w.r.r.r.r.r.r.r.r.r.r.r.r.r.r.r.r.r.r.r.r.r.r.r.r.r.r.r.7.r.r.r.r.r.r.r.",
"r.r.r.r.r.r.r.r.r.r.r.r.r.r.r.r.r.r.p.r.r.r.r.r.r.r.r.r.r.r.r.r.r.r.r.r.r.r.r.r.r.r.r.r.r.r.r.r.r.r.r.r.e.6.f 6.a 7.r.r.r.r.r.r.",
"r.r.r.r.r.r.r.r.t.r.r.r.r.p.r.r.r.r.r.r.r.r.r.r.r.r.r.r.r.r.r.r.r.r.r.r.r.r.r.r.r.r.r.r.r.r.r.r.r.r.r.r.r.a s p s a r.w.7.r.r.r.",
"r.r.r.r.r.r.r.r.i.r.r.r.r.t.r.r.r.r.r.r.r.r.r.r.r.r.r.r.r.r.r.r.r.r.r.r.r.r.r.r.r.r.r.r.t.i.r.r.r.r.r.7.r.6.d a 4.5.l 0.r.r.r.e.",
"r.r.r.r.r.r.r.e.r.r.r.r.r.r.r.r.r.r.r.r.r.r.r.r.r.r.r.r.r.r.r.r.r.r.r.r.r.r.r.r.r.r.r.r.r.r.r.r.r.r.r.r.w.7.f 6.w.5.N 0 r.r.r.e.",
"p.r.r.r.r.r.r.r.r.r.r.r.r.r.r.r.r.i.r.r.p.r.r.r.r.r.r.r.r.r.t.i.r.r.r.r.r.r.r.r.r.r.r.p.r.r.r.r.r.r.r.r.7.4.6.7.r.5.l x r.r.r.r.",
"r.r.r.r.r.r.r.r.r.r.r.r.r.r.r.r.r.r.r.r.r.r.r.r.r.r.r.r.r.r.p.r.r.r.r.r.r.r.r.r.r.r.r.r.r.r.r.r.r.r.r.r.r.r.r.r.r.r.w.w.4.r.r.r.",
"r.r.r.r.r.r.r.a a 4.r.r.r.i.r.r.r.t.r.r.r.r.r.r.r.r.r.r.r.r.r.r.r.r.r.r.r.r.r.r.r.r.r.r.r.r.r.r.r.r.r.r.e.r.r.r.r.r.r.7.w.r.r.r."
};
