/* XPM */
static char *_a5d8ef32fb945e3a9d275bca0e15961ZV4YbAEMCOfEmotq[] = {
/* columns rows colors chars-per-pixel */
"64 64 190 2 ",
"   c #4CAE38",
".  c #53AF39",
"X  c #4DB235",
"o  c #4EB038",
"O  c #58B436",
"+  c #51B23A",
"@  c #5CB53C",
"#  c #69BD2E",
"$  c #67BB33",
"%  c #6ABD32",
"&  c #64B638",
"*  c #62B63D",
"=  c #6CBA3F",
"-  c #75BD3B",
";  c #79BF3D",
":  c #79C03A",
">  c #599C4D",
",  c #458E5F",
"<  c #518C5B",
"1  c #479256",
"2  c #4C9C52",
"3  c #4A915D",
"4  c #53965C",
"5  c #55985B",
"6  c #5A9D59",
"7  c #6A9D55",
"8  c #629F5B",
"9  c #719C5D",
"0  c #4DA744",
"q  c #54A846",
"w  c #5DAB45",
"e  c #69AE4D",
"r  c #75AA4E",
"t  c #72AF4F",
"y  c #61B045",
"u  c #6AB347",
"i  c #6CB941",
"p  c #74BB42",
"a  c #7ABD45",
"s  c #77B54C",
"d  c #7DB64E",
"f  c #7EBA4B",
"g  c #64A555",
"h  c #6BAC52",
"j  c #68A458",
"k  c #71AC54",
"l  c #7BAD56",
"z  c #75A758",
"x  c #7DAE5A",
"c  c #7DB052",
"v  c #438B61",
"b  c #4A8F60",
"n  c #599563",
"m  c #668B67",
"M  c #6D966E",
"N  c #719A6B",
"B  c #76A561",
"V  c #9EBC3E",
"C  c #B8AD29",
"Z  c #BBAE2A",
"A  c #AEB333",
"S  c #B7B934",
"D  c #FE8F04",
"F  c #FE9405",
"G  c #FF9A05",
"H  c #FE950A",
"J  c #F49B0E",
"K  c #FE9B0A",
"L  c #EE9F11",
"P  c #F69D10",
"I  c #FC9E13",
"U  c #FE9D1F",
"Y  c #DDA217",
"T  c #FFA506",
"R  c #FEA40C",
"E  c #FEAB0C",
"W  c #FEB00D",
"Q  c #EEA314",
"!  c #F5A113",
"~  c #FEA214",
"^  c #FDAA14",
"/  c #FEA41B",
"(  c #F3A91C",
")  c #FDAA1C",
"_  c #F4B31D",
"`  c #FCB41B",
"'  c #F8B81F",
"]  c #C8AA23",
"[  c #C6B72B",
"{  c #CEB02D",
"}  c #D8B72A",
"|  c #C3AD36",
" . c #D1B732",
".. c #D7BC33",
"X. c #D8BD35",
"o. c #FFAC24",
"O. c #FEA42B",
"+. c #E2B926",
"@. c #FEB623",
"#. c #F4BD25",
"$. c #FCBD25",
"%. c #FFB32F",
"&. c #FEBB29",
"*. c #FEAE33",
"=. c #FFBD31",
"-. c #B1E61F",
";. c #96CE3E",
":. c #9CD434",
">. c #9BD23A",
",. c #A9DE30",
"<. c #AAE320",
"1. c #B7EC24",
"2. c #BCF021",
"3. c #FBC227",
"4. c #FBC52B",
"5. c #FCC92E",
"6. c #EAC332",
"7. c #FEC631",
"8. c #FCCC31",
"9. c #FECE3A",
"0. c #FCD136",
"q. c #FDD53A",
"w. c #FCDA3D",
"e. c #84BF46",
"r. c #8BBE45",
"t. c #83B74E",
"y. c #88B24D",
"u. c #83BC4A",
"i. c #88BF4A",
"p. c #93BE44",
"a. c #9EBF40",
"s. c #85AC54",
"d. c #81B552",
"f. c #FEBD4E",
"g. c #84C045",
"h. c #8DC347",
"j. c #86C24A",
"k. c #8BC34A",
"l. c #8EC94E",
"z. c #92C146",
"x. c #98C446",
"c. c #92CA41",
"v. c #95C64A",
"b. c #98C64A",
"n. c #98C94B",
"m. c #98C853",
"M. c #BBD74E",
"N. c #A7D362",
"B. c #CFDB5D",
"V. c #FBC747",
"C. c #FCD147",
"Z. c #FDDC41",
"A. c #FDD54B",
"S. c #FFDC4E",
"D. c #FECC53",
"F. c #FCD45A",
"G. c #FEE245",
"H. c #FDE44A",
"J. c #FEEB4D",
"K. c #E2EA55",
"L. c #FDED51",
"P. c #F9E958",
"I. c #FEEE59",
"U. c #FDF355",
"Y. c #FEF559",
"T. c #FED363",
"R. c #FDDD61",
"E. c #FCDA6B",
"W. c #F9D671",
"Q. c #FDDF76",
"!. c #FCDC7E",
"~. c #D6E67F",
"^. c #FDE966",
"/. c #FDF564",
"(. c #FFF669",
"). c #FEFB6B",
"_. c #FEE07A",
"`. c #FDEF7D",
"'. c #FEF477",
"]. c #FEFE71",
"[. c #FDDE82",
"{. c #EAEF88",
"}. c #FDE184",
"|. c #FFEA86",
" X c #FDE68A",
".X c #FDEA8C",
"XX c #FDEC91",
"oX c #FDF395",
"OX c #FDF69B",
"+X c #FCFA9C",
/* pixels */
"k.k.k.k.k.k.l.k.k.k.k.k.k.i.l.i.k.u.x l h h t.u.i p t.d.j.k.k.k.k.k.k.k.k.k.k.k.k.k.k.k.g.; : g.k.k.k.k.k.k.k.k.k.k.k.k.k.k.k.k.",
"k.k.k.k.k.k.k.k.k.k.l.k.k.k.h.h.k.j.k.h.z.k.k.k.h.h.k.k.k.k.k.k.k.k.k.k.k.k.k.k.k.r.k.k.k.% # g.k.k.k.k.k.k.k.k.k.k.k.k.k.l.k.k.",
"k.k.k.k.k.k.k.k.l.k.k.k.k.i.k.k.k.k.k.k.k.k.k.k.k.k.k.k.k.k.k.k.k.k.k.k.k.k.k.k.k.k.k.k.k.& @ g.k.k.k.k.k.k.k.k.k.k.k.k.k.k.k.k.",
"k.k.k.k.k.l.k.k.k.k.k.k.k.k.k.k.k.k.k.k.k.k.k.k.k.k.k.k.k.k.k.k.k.k.k.k.k.k.l.k.k.k.k.k.i.O O a h.k.h.k.k.k.k.k.k.k.k.k.k.l.k.k.",
"k.k.k.k.k.k.k.k.k.k.k.k.k.k.k.k.g.k.k.r.k.k.k.k.k.k.k.k.k.k.k.k.k.k.k.k.k.k.k.k.k.k.k.k.k.q 0 u.k.a p g.k.k.k.k.k.l.k.k.k.k.k.k.",
"k.k.l.k.k.k.k.k.k.k.k.k.k.k.k.k.k.k.k.k.k.k.k.k.k.k.k.k.k.k.k.k.k.k.l.k.k.k.k.l.k.k.j.k.i.4 b f h.* X a h.k.k.k.k.k.k.k.k.k.l.k.",
"k.k.k.k.k.k.k.k.k.k.k.k.k.k.k.k.k.k.k.k.k.k.i.h.k.k.k.k.k.k.k.k.k.k.k.k.k.k.k.k.k.k.k.k.j.4 3 t.h.y 0 a k.h.k.k.k.k.k.k.k.k.k.k.",
"k.k.k.k.k.k.k.k.k.k.k.k.k.k.h.k.k.k.k.k.i.k.k.k.k.k.k.k.k.k.k.k.k.k.k.k.l.k.k.k.k.k.k.k.j.4 , f k.6 v c k.k.k.k.k.k.l.k.k.k.k.k.",
"k.k.k.k.k.k.k.k.k.k.k.k.k.k.k.k.h.k.h.g.r.k.k.k.k.k.k.k.k.k.k.k.l.i.z.k.k.k.k.k.k.k.k.k.i.6 5 f k.g 4 c l.k.k.k.k.l.k.k.k.l.k.k.",
"k.j.k.k.k.k.k.k.k.k.i.k.k.k.k.h.;.;.;.;.k.k.k.k.k.k.k.k.k.k.k.k.i.l.k.k.k.k.k.k.k.k.k.k.j.i.i.j.k.i.j.k.i.k.k.k.l.i.k.k.k.k.k.k.",
"k.k.k.k.e.k.k.k.k.k.k.k.k.k.k.c.;.;.;.c.k.k.k.k.k.k.k.k.k.k.k.k.k.k.k.k.k.k.k.k.k.k.k.k.k.k.k.k.k.k.k.k.h.k.k.k.i.k.k.k.k.k.k.k.",
"k.i.k.k.i.u.f r.k.k.k.k.j.k.k.j.k.k.k.k.g.k.h.k.k.k.j.k.k.k.k.k.k.k.k.k.j.k.k.k.k.k.k.k.k.k.k.k.k.k.k.k.h.i.k.l.z.k.k.k.k.k.k.k.",
"k.k.k.k.k.f f j.k.k.i.k.k.k.k.k.k.k.k.k.k.j.j.j.k.h.h.h.r.i.z.p.h.i.z.h.p.h.z.l.l.g.e.k.h.k.k.k.k.k.k.k.k.k.k.k.k.k.k.k.l.k.k.k.",
"h.k.i.f f i.i.u.f u.f i.k.k.k.k.k.k.k.k.j.p.Z Y P J J J J J J J J J J J J P ! ( 6.B.N.r.k.k.k.h.k.k.k.k.k.k.k.k.k.k.k.k.k.k.k.k.",
"k.k.i.f u.k.i.u.f f f i.k.k.k.k.k.k.k.j.A L @.9.S.S.S.S.S.S.S.S.S.S.Z.q.w.q.9.$.^ / T.~.m.e.h.k.k.k.k.k.k.k.k.k.k.k.k.k.i.l.k.l.",
"k.k.g.i.i.e.k.e.i.i.i.g.k.k.j.r.k.k.j.] ^ S.(.].).].].].].].).].]./.I.U.I.U.U.U.J.4.G D.{.m.g.h.k.k.k.k.k.k.k.l.k.k.k.k.z.i.l.i.",
"h.k.k.k.k.k.j.k.k.k.k.k.k.k.k.k.k.j.A ^ P.)./.L.L.J.J.J.J.J.J.L.w.5.8.5.8.8.8.0.H.Y.q.H q.K.k.k.k.k.k.k.k.k.k.k.k.k.k.k.k.k.k.l.",
"k.k.k.k.k.k.k.k.k.k.k.k.k.k.k.h.k.p.Q H.(.L.J.J.J.J.J.J.J.J.J.w.5.5.5.5.5.5.5.5.5.w.U.4.K J.M.g.k.k.k.k.k.k.k.l.k.k.k.k.k.k.k.k.",
"k.k.k.k.k.k.k.i.k.k.k.k.k.k.k.k.j.A 7.].L.J.J.J.J.J.J.J.J.J.q.4.5.5.4.5.5.5.5.5.5.4.w.'./ 4.K.k.k.k.k.k.k.k.k.k.k.h.k.k.k.l.k.k.",
"k.k.k.k.k.k.k.k.k.k.k.k.k.k.k.k.j.{ I./.J.J.J.J.J.J.I.I.I.G.q.q.q.q.q.q.q.8.5.5.5.4.F.OXV.^ P.v.k.k.k.k.k.k.k.k.k.l.k.k.k.k.k.k.",
"k.k.k.k.k.k.k.k.k.k.k.k.k.h.k.k.i.../.I.J.J.J.J.I.(.].].Y.Y.Y.Y.Y.Y.Y.Y.U.L.w.5.5.F.[.oXE.~ J.n.j.k.k.k.k.k.k.l.l.k.k.k.k.k.k.l.",
"l.k.k.k.k.k.k.h.k.k.k.k.k.k.k.k.e.X.(.L.J.J.J.I.].^.9.&.$.@.@.@.@.@.@.' $.G.Y.G.F.}.!.XX_.K J.l.k.k.k.k.k.k.k.k.k.k.k.k.k.k.k.k.",
"k.k.k.k.k.k.k.k.k.k.k.k.k.k.k.k.r.X.(.L.J.J.L.].A.I F G G T G G G G G G G K 5.`..X!.!.XXQ.K w.v.j.k.k.k.k.k.k.k.k.k.k.k.i.l.k.k.",
"k.k.k.k.k.k.k.k.k.k.k.k.h.k.k.k.i.X.(.L.J.J./.P.F G R E E R E E E E E W E E G T.OX[.[.XXQ.K 3.v.k.k.k.k.k.k.k.k.k.k.k.k.z.k.k.k.",
"k.k.k.l.k.k.k.k.k.k.k.k.k.k.k.k.e.X.(.I.J.J.).%.F R R K R K ~ ~ ~ R K H R E T ) oX X!.XXQ.K 4.v.k.k.k.k.k.k.k.k.k.k.l.k.k.k.k.k.",
"k.k.k.k.k.k.k.k.k.k.k.k.k.k.k.k.g.X.(.L.H.L.(./ F ^ 3.5.4.8.q.Z.w.w.0.) F K E ^ |. X!..XQ.G 3.v.k.k.k.k.k.k.k.k.k.k.k.k.k.k.k.k.",
"k.k.k.k.k.k.k.k.k.k.k.k.k.k.k.k.i.X.(.J.J.L.I.I H 3.8.5.5.5.5.q.G.Z.G.w.H G E ^ |. X!.XXQ.K V.n.j.k.k.k.k.k.k.k.k.k.k.k.k.k.k.k.",
"k.k.k.k.k.k.k.k.k.k.k.k.k.j.e.g.e.X.(.L.J.w.J.I K 4.5.5.8.5.5.5.q.Z.w.H./ F T ^ .X X!.XXR.I W.m.k.k.k.k.k.k.j.k.k.k.k.k.k.k.k.l.",
"l.k.k.k.k.k.k.k.k.k.k.g.h.i + i e.X.(.L.q.5.J.I G 4.5.5.8.8.5.5.5.w.w.H./ D E ^ |. X[.^.w.I W.m.g.k.k.k.k.k.k.k.k.k.k.k.k.k.k.k.",
"k.k.k.h.k.k.k.k.k.k.k.k.h.i + i i.X.(.w.4.0.J.I K 4.8.5.5.5.8.5.5.5.w.H.o.F T ^ .XXXD.w.Z.K 8.v.k.k.k.k.h.k.k.k.k.k.k.k.k.k.k.k.",
"k.k.k.k.k.k.k.k.k.k.k.k.k.:.<.:.e...I.5.5.0.J.I K 4.5.5.5.8.5.8.5.5.8.G./ F E ^ .XF.3.Z.Z.H 4.x.k.k.g.,.1.>.k.h.k.k.k.k.k.z.l.i.",
"k.k.k.i.i.k.i.k.k.k.k.k.k.:.-.:.u...J.8.5.5.J.I H 4.5.8.8.5.5.5.5.5.4.w.) F T ^ ^.0.4.Z.Z.K 4.x.j.k.i.,.2.>.i.g.i.i.k.k.k.i.i.l.",
"k.k.j.u.u.i.k.k.k.g.k.r.h.; # $ X [ L.8.7.8.L.I G 3.5.4.8.5.5.5.5.5.5.0.^ D E R H.q.4.w.Z.J 3.x.j.k.i.,.2.>.k.p + i k.k.r.k.k.k.",
"k.k.e.t.f k.k.k.k.k.k.k.h.; # @ X [ J.8.5.8.J.I H ' 5.5.5.8.5.8.5.8.5.5.I F E ^ H.q.3.Z.Z.K q.b.j.k.i.,.2.>.k.p o * k.k.k.k.k.k.",
"h.k.e.i.i.j.k.k.k.k.k.k.k.- # y 1 | L.8.5.8.H./ G ^ $.5.5.5.8.5.8.5.5.0.I F E E H.q.4.w.Z.K q.b.j.k.j.h.;.h 5 h e.e.k.k.k.k.k.k.",
"k.k.k.k.k.k.k.k.k.k.k.k.k.- # w v | L.8.5.8.J.I G ` ` 3.8.5.5.5.5.8.5.0.I F E R H.q.3.Z.Z.K q.l.e.k.k.k.k.g v j h.k.k.k.r.j.k.k.",
"k.k.k.k.k.k.k.k.k.k.k.k.k.j.e.a t  .J.8.5.8.J./ F ` ` ` 3.5.5.5.8.5.5.0.~ D E ^ H.q.3.Z.Z.K 9.v.k.l B t.k.u 0 u h.a * i k.k.k.k.",
"k.k.k.k.k.k.k.k.k.k.k.g.k.k.k.k.g...J.8.5.8.H.~ G _ ` ` ' 3.8.5.5.5.5.8.I F E R H.q.4.Z.Z.K 4.x.j.B M d.h.i X i z.a o @ g.k.k.k.",
"k.k.k.k.k.k.h.k.k.k.k.k.k.k.k.k.g...L.0.8.8.L.! G ^ ` ` ` ` 3.5.5.8.5.$.F K E R H.q.3.Z.Z.K 4.x.k.t.d.x x g 2 e k.a . * k.j.k.k.",
"k.k.k.k.k.k.k.k.k.k.k.k.k.k.k.k.k...J.5.4.8.`.O.F E ^ ^ ` ^ ^ ` $.$.@.H H R E R H.q.4.Z.Z.K 4.x.j.k.h.z N n v g k.a   @ k.k.k.k.",
"k.k.k.k.k.k.k.k.k.k.k.k.k.k.k.k.g...J.8.5.E.OXf.D R R K G K G K K K G K R E T ` L.9.4.w.Z.K 4.b.j.k.k.c x k g s h.g.= p k.r.k.k.",
"k.k.k.k.k.k.k.k.k.k.k.k.k.k.k.k.h...J.0.E.[.XX.XU F R E E E E E E E W E E T K Z.J.5.5.w.Z.K #.x.k.k.k.k.k.h.k.k.k.k.k.k.k.k.k.k.",
"k.k.k.k.k.k.k.k.k.k.k.k.k.k.k.k.e...J.E.}.!.}.OX|.*.F G G G H G G G G H H ^ w.U.0.5.5.w.Z.H ` x.j.k.k.k.k.k.k.k.k.k.k.k.g.k.k.k.",
"k.k.k.k.k.k.k.k.k.k.k.k.k.k.k.k.e...`. X!.[.}.}.OXOXQ.T.q.9.9.0.9.9.0.0.w.L.U.q.5.5.5.G.w.K ' x.k.i.k.k.k.k.k.k.k.k.k.j.k.k.k.k.",
"k.k.h.g.i.i.i.j.k.k.k.k.k.k.k.k.j.{ |.XX[.}.}.[.}..XOX).U.U.U.U.U.U.U.U.U.G.0.4.5.5.4.J.7.K #.l.k.k.k.k.k.k.k.k.k.k.k.k.k.k.k.k.",
"k.k.k.k.k.f f i.k.k.k.k.k.k.h.k.j.C F.+X}.!.}._.}.!.C.5.0.8.9.8.8.5.0.8.5.5.5.5.8.4.w.U.^ ^ +.h.k.k.k.k.k.k.k.k.k.k.k.k.k.k.k.k.",
"k.k.k.k.i.f f k.k.k.k.k.k.k.k.k.k.p.( |.oX[.[.[._.C.4.5.4.5.5.5.5.5.5.5.5.5.5.5.5.q.U.0.K ` [ j.k.k.k.k.k.k.k.k.k.k.k.k.k.k.k.k.",
"k.k.k.k.k.u.f i.k.k.k.k.k.k.k.k.k.j.Z %.oXOX X}.A.5.5.8.5.5.5.8.5.8.5.8.5.8.8.0.Z.U.Z.K R +.l.k.k.k.k.k.k.k.k.k.k.k.k.k.k.k.k.k.",
"k.k.k.k.k.t.f k.k.k.k.k.k.k.k.k.k.k.k.] o.|.+X(.J.L.L.L.L.L.L.L.L.L.J.L.L.J.L.U.U.9.K R o.a.k.k.k.k.k.k.k.k.k.k.k.k.k.k.k.k.k.k.",
"k.k.k.k.k.k.k.k.k.k.k.k.k.k.k.k.k.k.k.k.Z I =.q.Z.H.Z.G.H.Z.Z.G.G.G.G.G.G.G.Z.8.^ H R } p.j.k.k.k.k.k.k.k.k.k.k.k.k.k.k.k.k.k.k.",
"k.k.k.k.k.k.k.k.j.k.k.k.k.k.k.k.k.k.k.k.j.V ] L ~ J ! J P P P P J ~ J J P I I J Q } S h.j.h.k.k.k.k.k.k.k.k.k.k.k.h.h.k.k.k.k.k.",
"k.k.k.k.k.k.k.k.k.k.k.k.k.k.h.k.k.k.k.k.h.j.j.k.h.p.z.z.& O > 4 r x.r < 7 s.y.z.h.k.j.k.k.k.k.k.k.k.k.h.k.k.k.k.k.k.c.c.k.k.k.h.",
"k.k.k.k.k.k.k.k.k.k.k.k.k.k.k.k.k.k.k.k.h.k.k.k.k.k.j.j.@ + 2 , t h.e v 8 l d.g.k.k.k.k.k.h.k.k.k.k.k.k.k.k.k.k.k.h.;.;.k.k.k.k.",
"k.k.k.k.k.k.k.k.k.k.k.k.k.k.k.k.k.k.k.k.k.k.k.h.k.k.k.k.z 9 n 3 5 6 g z l i.i.k.r.k.k.k.l.k.k.k.k.k.k.k.k.j.k.k.k.g.h.k.k.k.k.k.",
"k.k.k.k.k.k.k.k.k.k.k.k.k.k.k.k.k.k.k.k.k.k.k.k.k.k.k.j.B N n , b , 8 s.t.k.k.k.r.k.k.k.k.k.k.k.k.k.k.k.k.k.k.k.k.k.k.k.r.k.k.k.",
"k.k.k.k.k.k.k.k.k.k.k.l.k.k.k.k.k.k.k.k.k.k.z.i.k.k.k.r.d d.d s c s d t.u.k.k.k.k.k.k.k.k.k.k.k.k.k.k.k.k.k.k.k.g.k.k.k.k.k.k.k.",
"k.k.k.k.k.k.k.k.l.k.k.k.k.k.l.k.k.k.l.k.k.k.i.l.k.k.k.k.h.k.k.k.l.k.h.k.k.k.k.k.k.k.k.k.k.k.k.k.k.i.k.k.k.k.h.h.k.k.k.k.k.k.k.k.",
"k.k.k.k.k.k.k.k.k.k.k.k.k.k.k.k.k.k.k.k.k.k.l.k.k.k.k.k.k.k.k.k.k.k.g.k.k.k.k.k.k.k.k.k.k.l.l.k.k.k.k.k.k.u.f a f u.i.k.k.k.k.k.",
"l.k.k.k.k.k.k.k.k.k.k.k.l.k.k.k.k.k.k.k.k.k.k.k.k.k.k.k.k.k.k.k.k.k.k.k.k.k.k.k.k.k.k.k.k.k.k.k.k.k.k.k.k.f s s s a h.h.e.k.k.k.",
"k.k.k.k.k.k.k.k.k.k.k.l.k.k.k.k.k.k.k.k.l.k.k.k.k.k.k.k.k.k.k.k.k.k.k.k.k.k.k.k.k.k.k.k.k.k.k.k.k.k.k.k.j.u.f a e.f z d.k.k.k.k.",
"k.k.k.k.k.k.k.i.k.k.k.k.i.l.i.l.k.k.k.h.k.k.k.k.k.k.k.k.k.l.k.k.k.k.k.k.k.k.k.k.k.k.k.k.k.k.k.k.k.k.k.k.k.u.f u.h.t.m 9 k.k.i.k.",
"k.k.k.k.k.k.k.k.k.k.k.k.k.k.h.i.k.k.k.l.l.k.k.k.k.k.k.k.k.k.k.k.l.k.k.k.k.k.k.k.k.k.l.k.k.k.k.k.k.k.k.k.i.i.u.i.k.t.l l k.k.k.k.",
"k.k.k.k.k.k.k.k.k.k.h.k.k.k.k.k.l.k.k.k.k.k.k.k.k.k.k.k.k.k.k.k.k.k.k.k.k.k.k.k.k.k.k.k.k.k.k.k.k.k.k.k.k.k.g.k.r.k.k.k.r.k.k.k.",
"k.k.k.k.k.k.k.a p i.k.k.k.k.k.k.k.k.k.k.k.k.k.k.k.k.l.k.k.k.k.k.k.k.k.k.k.l.k.k.k.k.k.k.k.k.k.k.k.k.k.k.k.k.k.k.k.k.j.k.k.k.k.k."
};
