/* XPM */
static char *_9294d52b17a46a898b4de263cc316735fvUI9Kk5I2obhEH[] = {
/* columns rows colors chars-per-pixel */
"64 64 177 2 ",
"   c #4DAF39",
".  c #4DB235",
"X  c #4EB139",
"o  c #53B337",
"O  c #53B23A",
"+  c #5CB638",
"@  c #68BD2E",
"#  c #61AF32",
"$  c #66B537",
"%  c #67BB33",
"&  c #6ABD32",
"*  c #62B63E",
"=  c #6DBA3F",
"-  c #75BD3B",
";  c #79BF3D",
":  c #6EC02E",
">  c #79C03A",
",  c #5F9F4C",
"<  c #478F5F",
"1  c #558F58",
"2  c #4B9C52",
"3  c #4A925C",
"4  c #53955C",
"5  c #55985B",
"6  c #5A9C5A",
"7  c #699F56",
"8  c #639E5A",
"9  c #719C5D",
"0  c #4DA744",
"q  c #54A846",
"w  c #5DAA45",
"e  c #5FA155",
"r  c #69AE4D",
"t  c #74AD4F",
"y  c #7DAE4B",
"u  c #61B045",
"i  c #6AB347",
"p  c #6BB841",
"a  c #74BB43",
"s  c #7ABC45",
"d  c #76B44D",
"f  c #7DB64E",
"g  c #7EBA4B",
"h  c #64A555",
"j  c #6BAC52",
"k  c #68A458",
"l  c #74A657",
"z  c #78A657",
"x  c #72AB54",
"c  c #7CAC55",
"v  c #7DAE5A",
"b  c #7EB053",
"n  c #7BB955",
"m  c #438B61",
"M  c #4A8F60",
"N  c #599563",
"B  c #668B67",
"V  c #6D966E",
"C  c #719A6B",
"Z  c #76A561",
"A  c #7FC040",
"S  c #BCAE2D",
"D  c #BDB02D",
"F  c #B8AB31",
"G  c #A7B230",
"H  c #BAB534",
"J  c #DF9F11",
"K  c #FE8502",
"L  c #FE8C03",
"P  c #FE9504",
"I  c #FC920C",
"U  c #F99A0B",
"Y  c #FE9D0D",
"T  c #FC9712",
"R  c #FD9B13",
"E  c #FC9D18",
"W  c #FEA606",
"Q  c #FEA40C",
"!  c #FEAD0E",
"~  c #EBA91B",
"^  c #F6A212",
"/  c #FBA410",
"(  c #FCAE15",
")  c #FCA41A",
"_  c #F4AE19",
"`  c #FCAA1C",
"'  c #FFB117",
"]  c #FBB51C",
"[  c #FBB91F",
"{  c #FC9E26",
"}  c #CCA928",
"|  c #DEAE20",
" . c #C6B62E",
".. c #FEAE25",
"X. c #FEB427",
"o. c #FCBC22",
"O. c #FDBE2B",
"+. c #FEB73D",
"@. c #B0E71F",
"#. c #96CE3E",
"$. c #9CD334",
"%. c #9BD23A",
"&. c #A6DC32",
"*. c #A9DE30",
"=. c #AAE320",
"-. c #B7EC24",
";. c #BCF021",
":. c #FDC126",
">. c #FCC52B",
",. c #FCCA2E",
"<. c #E0C132",
"1. c #FFC334",
"2. c #FCCC31",
"3. c #FCC83B",
"4. c #FDD136",
"5. c #FDD339",
"6. c #FCDB3D",
"7. c #9BAC42",
"8. c #81BF44",
"9. c #8FBE44",
"0. c #83B74E",
"q. c #83BD4A",
"w. c #89BD4B",
"e. c #92BB41",
"r. c #81AC55",
"t. c #82B352",
"y. c #FEBF43",
"u. c #85C046",
"i. c #8CC446",
"p. c #84C34C",
"a. c #8BC34A",
"s. c #92CA41",
"d. c #98C748",
"f. c #BED84E",
"g. c #A9CB56",
"h. c #BCCA51",
"j. c #B8D668",
"k. c #C4D54B",
"l. c #C5D94D",
"z. c #DED248",
"x. c #C4D653",
"c. c #FCCE41",
"v. c #FFC64E",
"b. c #F5D443",
"n. c #FBD144",
"m. c #FEDE41",
"M. c #FFCE5B",
"N. c #FCD353",
"B. c #FEE243",
"V. c #FEE64A",
"C. c #FEEB4D",
"Z. c #F7EC51",
"A. c #FEEF51",
"S. c #FEEF5D",
"D. c #FEF254",
"F. c #FEF35B",
"G. c #C4DA6E",
"H. c #C5DD70",
"J. c #FED16A",
"K. c #FDD673",
"L. c #FDDD71",
"P. c #FCDC7D",
"I. c #DEE460",
"U. c #DEE867",
"Y. c #FEE868",
"T. c #FFF461",
"R. c #FEF874",
"E. c #FDDE81",
"W. c #EAED8A",
"Q. c #FCE285",
"!. c #FFE982",
"~. c #FEE58A",
"^. c #FEEA8E",
"/. c #FEF494",
"(. c #FFF599",
"). c #FDF99C",
"_. c #FDFCA1",
/* pixels */
"a.a.a.a.a.a.a.a.a.a.a.a.a.a.a.a.i.0.r.b j j 0.0.a a 0.0.a.a.a.a.a.a.a.a.a.a.a.a.a.a.a.a.w.; - u.a.a.a.a.a.a.a.a.a.a.a.a.a.a.a.a.",
"a.a.a.a.a.a.a.d.a.a.a.a.a.a.a.a.a.u.a.a.i.a.a.a.a.a.a.i.a.a.a.a.a.a.a.a.a.a.a.a.a.a.a.a.u.& @ u.a.a.a.a.a.a.a.a.a.a.a.a.a.a.a.a.",
"a.a.a.a.a.a.a.a.a.a.a.a.a.a.a.a.a.a.a.a.a.a.a.a.a.a.a.a.a.a.a.a.a.a.a.a.a.a.a.a.a.a.a.a.a.$ * u.a.a.p.u.a.a.a.a.a.a.a.a.d.a.a.a.",
"a.a.a.a.a.a.a.a.a.a.a.a.a.a.a.a.a.a.a.a.a.a.a.a.a.a.a.a.a.a.a.a.a.a.a.a.a.a.a.a.a.a.a.a.u.+ o A a.a.a.a.a.a.a.a.a.a.a.a.a.a.a.a.",
"a.a.a.a.a.a.a.a.a.a.a.a.a.a.a.a.w.u.a.a.a.a.a.u.p.u.a.a.a.a.a.a.a.a.a.a.a.a.a.a.a.a.a.a.p.q q 8.a.8.a q.i.a.a.a.a.a.a.a.a.a.a.a.",
"a.a.a.a.a.a.a.a.a.a.a.a.a.a.a.a.a.a.a.a.a.a.a.w.a.a.a.a.a.a.a.a.a.a.a.a.a.a.a.a.a.a.a.a.w.4 M f i.* . s a.a.a.a.a.a.a.a.a.a.a.a.",
"a.a.a.a.a.a.a.a.a.p.a.a.a.a.a.a.a.a.a.a.a.a.a.a.a.a.a.a.a.a.a.a.a.a.a.a.a.a.a.a.a.a.a.a.a.4 3 f i.u 0 s a.a.a.a.a.a.a.a.a.a.a.a.",
"a.a.a.a.a.a.a.a.a.a.a.a.a.a.a.a.a.a.a.i.a.a.a.a.a.a.a.a.a.a.a.a.a.a.a.a.a.a.d.a.a.a.a.u.p.4 3 f a.8 m d i.a.a.a.a.a.a.a.a.a.a.a.",
"a.a.a.a.a.a.a.a.a.a.a.a.a.a.a.a.a.i.a.i.i.a.a.a.a.a.a.a.a.a.a.a.a.a.a.a.a.a.a.a.a.a.a.a.a.6 6 q.a.k N n d.a.a.a.a.d.a.a.a.a.a.a.",
"a.a.a.a.w.a.a.a.a.a.a.a.a.a.a.i.#.#.#.s.9.a.a.p.a.a.a.a.a.a.a.a.a.a.a.a.a.a.a.a.a.a.a.a.u.p.q.a.a.p.p.a.p.a.a.a.p.a.a.a.a.a.a.a.",
"a.a.a.a.u.a.a.a.a.a.a.a.a.a.a.s.#.#.#.s.a.a.a.a.a.a.a.a.a.a.a.a.a.a.a.a.a.a.a.a.a.a.a.a.a.a.a.a.a.a.a.a.a.a.a.a.a.a.a.a.a.a.a.a.",
"a.a.a.u.w.q.q.u.a.a.a.a.a.a.p.a.i.u.i.i.a.a.a.a.a.a.a.a.a.a.a.a.a.a.a.a.a.a.a.a.a.a.a.a.a.a.a.a.a.a.a.p.a.a.a.a.a.a.a.a.d.a.a.a.",
"a.a.a.a.a.q.q.w.a.q.a.a.a.a.a.a.a.a.a.a.a.a.a.a.a.a.a.a.a.p.p.a.d.a.i.u.u.u.a.a.a.a.a.a.a.a.a.a.a.a.a.a.a.a.a.a.a.a.a.a.p.a.a.a.",
"a.a.q.q.q.q.q.q.q.q.q.u.a.a.a.a.a.a.a.a.a.a.a.a.a.a.G } J J | z.U.U.I.I.I.g.u.p.a.a.a.a.a.a.a.a.a.a.a.a.a.a.a.a.a.a.a.p.d.p.a.p.",
"a.a.u.0.q.a.w.q.g 0.0.q.a.a.a.a.a.a.a.a.a.a.a.a.a.H v.M.M.v.` U L._.(.(.).(.j.u.a.a.a.a.a.a.a.a.a.a.a.a.a.a.p.d.a.a.a.d.a.a.a.d.",
"a.a.u.w.w.u.u.a.u.q.p.a.a.a.p.a.a.a.a.a.a.u.a.i.g.!.).)._._.(.y.P L.)././.(./.h.u.a.a.a.a.a.a.a.a.a.a.p.a.a.a.a.p.a.a.a.a.a.a.p.",
"a.a.a.u.a.a.a.a.a.a.a.a.a.a.a.a.a.a.a.a.a.a.a.d.W./.Q.E.Q.Q.^.)...` T.T.F.S.T.b.e.p.d.a.a.a.a.a.a.a.a.a.a.a.a.a.a.a.a.a.a.p.d.p.",
"a.a.a.a.a.a.a.a.a.a.a.a.a.a.a.a.a.a.a.a.a.a.p.j./.P.E.E.E.E.P.Y.4.Y V.A.A.A.D.m.H p.a.a.a.a.a.a.a.a.a.a.a.a.a.a.a.a.a.d.a.a.a.a.",
"a.a.a.a.a.a.a.a.a.a.a.a.a.a.a.a.a.a.a.a.a.a.s H.^.E.Q.E.E.E.N.,.6.R V.A.A.A.D.m. .p.a.a.a.a.a.a.a.a.a.a.a.a.a.a.a.p.a.a.a.a.a.a.",
"a.a.a.a.a.a.a.a.a.a.a.a.a.a.a.a.a.a.a.a.a.a.u.H.~.P.Q.Q.~.N.>.2.5.Y V.D.A.A.D.m.D p.a.a.a.a.a.a.a.a.a.a.a.a.a.a.d.p.a.a.a.a.a.a.",
"a.a.a.a.a.a.a.a.a.a.a.a.a.a.a.a.a.a.a.a.a.a.p.H.~.Q.).).R.C.5.2.5.R V.D.A.A.D.m.D p.a.a.a.a.u.a.a.a.a.a.a.d.a.a.a.a.a.a.a.a.a.a.",
"a.a.a.a.a.a.a.a.a.a.a.a.a.a.a.a.a.a.a.a.a.a.8.H.^.(.P.+.>.V.C.2.5.Q V.D.D.A.F.B.D p.a.a.a.a.a.a.a.a.a.a.a.a.a.a.a.a.a.a.d.p.a.a.",
"a.a.a.a.a.a.a.a.a.a.a.a.a.a.a.a.a.a.a.a.a.a.8.G.(.J.K L P ( V.5.4.Y m.V.B.V.C.5.D p.a.a.a.a.a.a.a.a.a.a.a.a.a.a.a.a.a.a.a.a.a.a.",
"a.a.a.a.a.a.a.a.a.a.a.a.a.a.a.a.a.a.a.a.a.a.8.G./.{ K Q ! W 2.5.4.Y :.,.,.>.2.o.D p.a.a.i.u.a.a.a.a.a.a.a.a.a.a.g.a.a.a.a.a.a.a.",
"a.a.a.a.a.a.a.a.a.a.a.a.a.a.a.a.a.a.a.a.a.a.u.G.Y.T K ! Q P >.6.5.R >.2.,.,.2.:.D p.a.#.#.i.a.a.a.a.a.a.a.a.a.a.p.p.a.a.a.p.a.a.",
"a.a.a.a.a.a.a.a.a.a.a.a.a.a.a.a.a.a.a.a.a.a.p.x.B.R ` 6.2.L O.m.4.Y :.,.,.,.,.o.D p.i.s.s.a.a.a.a.a.a.a.a.a.a.a.a.p.p.a.a.d.a.a.",
"a.d.a.a.a.a.a.a.a.a.a.a.a.a.a.a.a.a.a.a.a.a.p.k.m.` >.4.V.U X.m.4.R 3.n.5.n.n.1.D p.w.a.a.u.a.a.a.a.a.a.a.a.a.a.a.a.a.a.a.a.a.a.",
"a.a.a.a.a.a.a.a.a.a.a.a.a.u.8.q.a.a.a.a.a.a.q.k.m.` >.,.6.R X.6.3.Q K.Q.E.P.Q.J.D p.a.a.a.a.a.a.a.a.a.a.a.a.a.a.a.a.a.a.a.a.p.d.",
"a.a.a.a.a.a.a.a.a.a.a.a.u.p   p a.a.a.a.a.a.s k.m.` ,.,.5.R X.6.4.R K.Q.E.E.Q.J.F p.a.a.a.a.a.a.a.a.a.a.p.a.a.a.a.a.p.a.a.a.a.a.",
"a.a.a.p.a.a.a.a.a.a.a.a.a.= O - a.a.a.a.a.a.p.k.m.` >.,.4.T X.6.4.R 3.n.c.c.n.1.H A a.a.i.a.a.a.a.a.a.a.s.s.a.a.a.a.a.a.a.a.a.a.",
"a.a.a.a.a.a.a.a.p.a.a.a.a.$.=.$.9.a.a.u.a.a.q.k.m.` >.1.2.I X.6.4.Y :.,.,.,.2.o.D p.a.a.a.a.a.a.a.a.a.&.-.s.a.a.a.a.a.a.a.a.a.a.",
"a.a.a.a.a.a.a.a.a.a.a.a.a.$.@.$.w.a.a.p.9.a.q.k.m.` >.2.4.I X.6.4.Y :.2.2.2.2.:.D p.i.a.a.a.a.a.a.a.p.*.;.d.a.a.a.p.a.a.a.a.a.a.",
"a.a.q.q.q.w.a.a.a.u.a.a.a.> : % O p a.w.c t.x h.m.) >.,.2.I X.6.3.Q >.2.,.,.2.o.D p.a.a.a.a.a.a.a.a.w.*.;.%.a.a O p u.a.a.a.a.a.",
"a.u.w.q.q.a.a.a.a.a.a.a.a.> & + X = a.0.c r.l h.m.) >.2.4.I X.m.4.Y 2.5.4.5.5.,.D p.p.a.a.a.a.a.a.a.w.*.;.%.w.a X * a.a.a.a.a.a.",
"a.a.a.w.q.a.a.a.a.a.a.u.a.- & w 3 e r.r.c r.f k.B.) >.,.,.I X.6.4.R 5.B.m.m.B.4.H p.a.a.a.a.a.a.a.a.a.i.s.t 5 j u.8.a.a.a.a.a.a.",
"a.a.a.u.a.a.a.a.a.i.a.p.a.- & w m 6 r.c r.t.q.k.m.) o.,.2.I X.6.3.Q 5.B.6.m.B.2. .p.a.a.a.a.a.a.p.a.a.a.p.h m j i.a.a.a.a.9.a.a.",
"a.a.a.a.a.a.a.a.a.a.a.a.a.p.A s d f w.0.w.w.s k.m.) [ ,.2.I X.6.4.R 4.m.6.6.6.2.D A p.a.a.a.a.a.u.r.Z w.a.i 0 i a.s * p a.u.a.a.",
"a.a.a.a.a.a.a.a.a.a.a.a.a.a.a.a.a.a.a.a.a.a.p.k.B.^ [ ,.2.I X.6.3.Y >.2.2.2.2.o.D p.a.a.a.a.a.a.a.Z V 0.i.p o p a.a   * p.w.a.i.",
"a.a.a.a.a.a.a.a.a.a.a.a.a.a.a.a.a.a.a.a.a.a.8.k.m.) ' >.2.T X.6.4.Q >.2.2.2.2.o.S p.u.a.a.a.a.a.a.0.t.v v h 2 r d.s . * a.a.a.a.",
"a.a.a.a.a.a.a.a.a.a.a.u.a.a.p.a.a.a.a.a.a.a.q.f.B.E Q [ o.K O.6.4.Y :.2.>.2.2.o. .p.a.a.a.a.a.w.a.u.a.Z V N m h a.a   * a.a.a.a.",
"a.a.a.a.a.a.a.a.a.a.a.a.a.a.a.a.a.a.a.a.a.a.p.k.B.T K / Q P >.m.4.Y >.2.,.,.2.o.D A p.a.a.a.a.a.a.a.a.t.v x h d i.8.= a u.a.a.a.",
"a.a.a.a.a.a.a.a.a.a.a.a.a.a.a.a.a.a.a.a.a.a.p.k.B.E K Q ! W 2.6.3.Q o.>.>.>.,.o.D A a.a.a.a.a.a.a.a.a.a.a.a.i.a.a.a.w.a.a.a.a.a.",
"a.a.a.a.a.a.a.a.a.a.a.a.a.a.a.a.a.a.a.a.a.a.p.k.B.5.L L P ( C.4.4.U ] o.] ] o.'  .p.a.a.a.a.a.a.a.a.a.a.a.a.w.a.a.a.a.a.u.a.a.a.",
"a.a.a.a.a.a.a.a.a.a.a.a.a.a.a.d.a.a.a.a.a.a.8.k.6.A.m.1.2.C.C.2.5.Y ] o.o.o.o.( H p.a.a.a.a.a.a.w.a.a.a.a.a.a.a.a.a.a.a.a.a.a.a.",
"a.i.a.a.a.q.w.u.a.a.a.a.a.a.a.a.a.a.a.a.a.a.q.l.4.6.D.D.D.C.4.2.6.I ] o.] o.o.' H n w.u.a.a.a.a.u.a.a.a.a.a.a.a.a.a.a.a.a.a.a.a.",
"a.a.a.a.a.g q.a.a.a.a.a.a.a.a.a.a.a.a.a.a.a.p.l.5.>.2.4.5.2.,.2.6.Y ] o.o.] o.' D Z r.w.a.a.a.a.a.a.a.a.a.a.a.a.a.a.a.a.a.a.a.a.",
"a.a.a.a.q.0.q.q.a.a.a.a.a.a.a.a.a.a.a.a.a.a.q.k.6.>.,.>.,.2.>.5.6.U ] o.[ [ o.' F v t.p.a.a.a.a.a.a.a.a.a.a.a.a.a.a.a.a.a.a.a.a.",
"a.a.a.a.u.g q.a.a.a.a.a.a.a.a.a.a.a.a.a.a.a.a.d.Z.6.2.2.,.,.2.A.O.P ] ] ] ] ] ( 7.p.a.a.a.a.i.a.a.a.a.a.a.a.a.a.a.a.a.a.a.a.a.a.",
"a.a.a.a.a.0.q.p.u.a.a.a.a.a.a.a.a.a.a.a.a.d.a.p.x.F.A.V.V.C.D.6.Y / _ ` ( ( ( } v a.a.a.a.a.a.a.a.a.a.a.a.a.a.a.a.a.a.a.a.a.a.a.",
"a.a.a.a.a.a.a.a.a.a.a.a.a.a.a.a.a.a.a.a.a.p.a.p.d.<.m.A.C.V.2.U Y ( ( ( ( ( | r.t.a.a.a.a.a.a.a.a.a.a.a.a.a.a.a.a.a.a.i.a.a.a.a.",
"a.a.a.a.a.a.a.a.a.a.a.a.a.a.a.a.p.a.a.a.a.a.a.a.a.e.} ~ ^ U U R _ _ ( _ |  .w.c t.p.a.a.a.a.a.a.a.a.a.a.a.a.a.a.a.a.a.i.a.a.a.a.",
"a.a.a.a.a.a.a.a.a.a.a.a.a.a.a.a.d.p.a.a.a.a.a.a.a.a.p.e.$ # , 1 y d.t 1 7 c t.w.p.a.a.a.a.a.a.a.a.a.a.a.a.a.a.a.a.i.s.s.a.a.a.a.",
"a.a.a.a.a.a.a.a.a.a.a.a.a.a.a.a.p.d.p.a.p.d.a.a.a.a.a.p.+ O 5 < t i.h < 8 c t.a.a.a.a.a.a.a.a.a.a.a.a.a.a.a.a.a.a.i.#.s.a.a.a.a.",
"a.a.a.a.a.a.a.a.a.a.a.a.a.a.a.a.d.a.a.a.p.a.a.a.a.a.a.a.x C 4 3 4 6 k x b w.w.a.a.a.a.a.a.a.a.a.a.a.a.a.a.a.a.a.a.u.i.i.a.a.a.a.",
"a.a.a.a.a.a.a.a.a.a.a.a.a.a.a.a.a.a.p.d.a.a.a.a.a.a.a.a.Z C 4 3 3 < 8 r.t.a.a.a.a.a.a.a.a.a.d.a.a.a.a.a.a.a.a.a.a.a.a.a.i.a.a.a.",
"a.a.a.a.a.a.a.a.a.a.a.a.a.a.a.a.a.a.p.a.a.a.a.a.a.w.a.u.0.n n d d d 0.0.w.a.a.a.a.a.a.a.a.a.a.a.a.a.a.a.a.a.a.a.a.a.a.a.a.a.a.a.",
"a.a.a.a.a.a.a.a.a.a.a.a.a.a.a.a.a.a.a.a.a.a.d.p.a.a.a.a.a.d.a.a.a.a.a.i.a.a.a.a.a.a.a.a.a.a.a.a.a.a.a.a.a.a.a.a.a.a.a.a.u.a.a.a.",
"a.a.a.a.a.a.a.a.a.d.a.a.a.a.a.d.a.a.a.a.a.a.a.a.a.a.a.a.a.a.a.a.a.a.a.a.a.a.a.a.a.a.a.a.a.a.a.a.a.a.u.a.a.q.q.8.s q.a.a.a.a.a.a.",
"a.a.a.a.a.a.a.a.a.a.a.a.p.a.a.a.a.a.a.a.a.a.a.a.p.a.a.a.a.a.a.a.a.a.a.a.a.a.a.a.a.a.a.a.a.a.a.a.a.a.a.a.w.s d d d s i.a.a.a.a.a.",
"a.a.a.a.a.a.a.a.a.a.a.a.a.a.a.a.a.a.a.a.a.a.a.a.a.a.a.a.a.a.a.a.a.a.a.a.a.a.a.a.a.a.a.a.a.a.a.a.a.a.a.a.a.q.g 8.q.q.z b u.a.a.a.",
"a.a.a.a.a.a.a.a.a.a.a.a.a.a.a.a.a.a.d.a.a.a.d.a.a.a.a.a.a.a.a.a.a.a.a.a.a.a.a.a.a.a.a.a.a.a.a.a.a.a.a.a.u.q.0.q.i.0.B 9 a.a.9.a.",
"a.a.a.a.a.a.a.a.a.a.a.a.a.a.a.a.a.a.p.a.a.a.a.a.a.a.a.a.a.a.a.a.a.a.a.a.a.a.a.a.a.a.a.a.a.a.a.a.a.a.a.a.a.q.q.q.a.0.z b a.a.a.a.",
"a.a.a.a.a.a.p.p.a.a.a.a.a.a.a.a.a.a.a.a.a.a.a.a.a.a.a.a.a.a.a.a.a.a.a.a.a.a.a.a.a.a.a.a.a.a.a.a.a.a.a.a.a.a.a.a.a.u.a.a.q.a.a.a.",
"a.a.a.a.a.a.p.A A a.a.a.a.a.a.a.a.a.a.a.p.a.a.a.a.a.a.a.a.a.a.a.a.a.a.a.a.a.a.a.a.a.a.a.a.a.a.a.a.a.a.a.a.a.a.a.a.a.a.a.a.a.a.a."
};
