/* XPM */
static char *b7c2a55fd81a409ccf851f55b40e09e7yPcaazgS4AVM6qIf[] = {
/* columns rows colors chars-per-pixel */
"64 64 209 2 ",
"   c #4CAF38",
".  c #4DB235",
"X  c #4DB23A",
"o  c #57B637",
"O  c #6AAC2D",
"+  c #77AF31",
"@  c #65BB34",
"#  c #62B63D",
"$  c #6CBA3E",
"%  c #77BE3B",
"&  c #66C131",
"*  c #7BC039",
"=  c #478F5F",
"-  c #4B9C53",
";  c #4A915D",
":  c #52965C",
">  c #58975D",
",  c #55985A",
"<  c #5B9D5A",
"1  c #6C9C4E",
"2  c #618B50",
"3  c #719C5D",
"4  c #4DA744",
"5  c #54A846",
"6  c #5DB641",
"7  c #69AE4D",
"8  c #78AA4A",
"9  c #67B246",
"0  c #6CB840",
"q  c #74BB43",
"w  c #7ABD45",
"e  c #77B54C",
"r  c #7DB64E",
"t  c #7EBA4B",
"y  c #65A456",
"u  c #6AAC52",
"i  c #68A559",
"p  c #74A956",
"a  c #7AAD55",
"s  c #7DAD5A",
"d  c #7DB152",
"f  c #7CB558",
"g  c #428B62",
"h  c #4A8F60",
"j  c #599563",
"k  c #6C9369",
"l  c #6D966D",
"z  c #75A562",
"x  c #78A560",
"c  c #7AC147",
"v  c #9DB73A",
"b  c #9AB93B",
"n  c #9DB93B",
"m  c #B8AE2B",
"M  c #AABB38",
"N  c #B2B130",
"B  c #B9BB34",
"V  c #FE8D04",
"C  c #FE9306",
"Z  c #FF9B05",
"A  c #FE930C",
"S  c #F69B0B",
"D  c #FE9C0B",
"F  c #EB9E11",
"G  c #FE9314",
"H  c #FF9E14",
"J  c #D4A10E",
"K  c #CFAF1F",
"L  c #D4A211",
"P  c #D4A31B",
"I  c #DBA219",
"U  c #FFA707",
"Y  c #FEA40A",
"T  c #FEAB0D",
"R  c #E5A317",
"E  c #F3A516",
"W  c #FCA313",
"Q  c #FDAB12",
"!  c #FBA219",
"~  c #FEAB1A",
"^  c #FBB017",
"/  c #FBB41A",
"(  c #FBB91D",
")  c #C5A923",
"_  c #C4BA2B",
"`  c #CEBA2D",
"'  c #D0BA2F",
"]  c #D8B829",
"[  c #C2BE33",
"{  c #CFBB30",
"}  c #D0BC32",
"|  c #FFA223",
" . c #EDB121",
".. c #FDB221",
"X. c #FCBB22",
"o. c #F7B729",
"O. c #96CE3E",
"+. c #9ED433",
"@. c #9BD23A",
"#. c #A6DC32",
"$. c #A9DE30",
"%. c #A7E723",
"&. c #B7EC24",
"*. c #BCF021",
"=. c #DAC623",
"-. c #CBC034",
";. c #D0C739",
":. c #FBC523",
">. c #FCC52C",
",. c #FCC92E",
"<. c #FCD02D",
"1. c #FEC430",
"2. c #F7CD33",
"3. c #FCCC31",
"4. c #FEC639",
"5. c #FDCD3C",
"6. c #FCD235",
"7. c #FCD439",
"8. c #FCD93D",
"9. c #85A943",
"0. c #93AB47",
"q. c #81BF46",
"w. c #83B74E",
"e. c #83BC4B",
"r. c #88BF4A",
"t. c #93BE43",
"y. c #82AD56",
"u. c #81B552",
"i. c #FFB247",
"p. c #FCBB61",
"a. c #85C046",
"s. c #8CC446",
"d. c #86C44C",
"f. c #8BC34A",
"g. c #8CC849",
"h. c #94C146",
"j. c #92CA41",
"k. c #86C650",
"l. c #96CC52",
"z. c #9CCE5B",
"x. c #A4C241",
"c. c #BFC441",
"v. c #BAD951",
"b. c #CDC24D",
"n. c #CBD348",
"m. c #D1D041",
"M. c #C7DB50",
"N. c #FFC740",
"B. c #FECB42",
"V. c #E4D449",
"C. c #FED242",
"Z. c #FDDC42",
"A. c #FCD34D",
"S. c #FDD94A",
"D. c #FEC556",
"F. c #FEC853",
"G. c #FEDF55",
"H. c #FCD65A",
"J. c #FDE244",
"K. c #FDE64A",
"L. c #FEEA4D",
"P. c #FEF34D",
"I. c #FEE055",
"U. c #FEED52",
"Y. c #FDE65B",
"T. c #FEED5A",
"R. c #FEF354",
"E. c #FEF45A",
"W. c #CCD565",
"Q. c #FECF67",
"!. c #E6D361",
"~. c #FED269",
"^. c #FED76A",
"/. c #FDC878",
"(. c #FCD770",
"). c #FCDC73",
"_. c #FDDC7B",
"`. c #FDEF62",
"'. c #FDE06B",
"]. c #FEF464",
"[. c #FEFA64",
"{. c #FFF568",
"}. c #FEFA6B",
"|. c #FEEB72",
" X c #FEFF72",
".X c #FDF67D",
"XX c #FFCA80",
"oX c #FDDE82",
"OX c #FFD091",
"+X c #FFD198",
"@X c #FDE284",
"#X c #FDEC82",
"$X c #FDE58A",
"%X c #FDEB8C",
"&X c #FDF881",
"*X c #FFF58E",
"=X c #FDEF93",
"-X c #FEF193",
";X c #FDF699",
":X c #FEF99D",
">X c #FEFBA1",
",X c #FDE1BC",
"<X c #FDE8CA",
"1X c #FDEFDB",
"2X c #FCF1DF",
"3X c #FDF3E2",
"4X c #FEF8EA",
"5X c #FEFDF4",
"6X c #FEFEFE",
/* pixels */
"f.f.f.f.k.f.f.f.f.f.f.f.f.f.f.f.f.r.y.a u u r.w.0 q w.w.r.f.f.f.f.f.f.f.g.f.f.f.f.f.f.f.a.* % s.s.s.f.f.f.f.f.f.f.f.f.f.f.f.f.f.",
"f.f.f.f.f.f.f.f.f.f.f.f.f.f.f.f.f.a.f.f.s.f.f.f.f.f.s.r.f.f.f.f.f.f.f.f.f.f.f.f.f.f.f.e.f.@ @ q.a.f.f.f.f.f.f.f.f.f.f.f.f.g.f.f.",
"f.f.f.f.f.f.f.f.l.f.f.f.f.f.f.f.f.f.r.f.f.f.f.f.f.f.f.f.f.f.f.f.f.f.f.f.f.r.f.f.f.f.f.f.f.@ # r.f.s.f.f.f.f.f.f.f.f.f.f.f.f.f.f.",
"f.f.f.f.f.f.f.f.r.f.f.f.f.f.f.f.f.f.f.f.f.f.f.f.f.f.f.f.f.f.f.f.f.f.f.f.f.l.f.f.f.f.f.f.f.o . q.f.f.f.r.f.f.f.f.f.f.f.g.f.f.f.f.",
"f.f.f.g.f.f.f.f.f.f.f.f.f.f.f.f.f.f.f.f.f.f.r.f.f.r.f.f.f.f.g.f.f.f.f.f.f.f.f.f.f.f.f.f.f.5 4 e.f.q.q q.f.f.f.f.f.f.f.f.l.f.f.f.",
"f.f.f.f.f.f.f.f.f.f.f.f.f.f.f.f.f.f.f.s.f.f.f.s.f.f.f.f.f.f.f.f.f.r.l.f.f.f.f.f.f.f.f.f.r.: h t s.# X w f.f.f.f.f.f.f.f.r.f.f.f.",
"f.f.f.f.g.f.f.f.f.f.f.f.f.f.f.f.f.f.f.f.f.f.f.f.f.f.f.f.f.f.f.f.f.f.f.f.f.f.f.f.f.f.f.f.e., ; t s.9 4 w f.f.f.f.f.f.f.f.l.f.f.f.",
"f.f.g.f.f.f.f.f.f.f.f.f.f.f.f.f.a.r.f.f.f.f.f.f.f.f.f.f.f.f.f.f.f.f.f.f.f.f.f.g.f.f.f.f.f.: = r f.< = 8 s.f.f.f.f.f.f.f.r.f.f.f.",
"f.f.f.f.f.f.f.f.f.f.f.f.f.f.f.f.f.s.s.s.f.f.f.f.f.f.f.f.f.f.f.f.f.f.f.f.f.f.f.f.f.f.f.f.f.< , t f.y : d g.f.f.f.f.g.f.f.f.f.f.f.",
"f.f.f.f.f.f.f.f.f.f.f.f.f.f.f.f.O.O.O.j.f.f.f.f.f.f.f.f.f.f.f.f.f.f.f.g.f.f.f.f.f.f.f.f.a.e.f.f.f.e.f.f.f.f.f.f.f.f.f.f.l.r.f.f.",
"f.f.f.f.a.f.f.e.f.f.f.f.f.f.f.j.O.O.O.j.f.f.f.r.f.f.f.f.f.f.f.f.f.f.f.f.f.f.f.f.r.f.f.f.f.f.f.f.f.s.f.f.f.f.f.f.f.f.f.f.f.f.f.f.",
"f.f.f.f.r.e.e.a.f.f.f.f.f.r.f.f.s.s.a.s.r.s.s.f.f.f.f.f.f.f.f.r.f.f.r.f.f.f.f.f.s.f.f.f.f.f.f.f.f.f.r.f.f.f.f.f.f.f.f.g.f.f.f.f.",
"f.f.r.a.f.e.r f.a.r.r.f.f.f.f.f.f.f.f.f.q.a.k.k.k.k.k.k.k.k.k.k.k.k.d.d.d.d.f.d.d.d.k.f.f.f.f.f.f.f.f.f.f.f.f.f.f.f.f.f.f.f.f.f.",
"f.f.f.e.e.f.r.e.e.e.e.f.f.f.f.f.s.a.r.a.z.n.) L L L J L J J J L P I P P P P P P I ) N t.d.f.f.f.f.f.f.f.f.f.f.f.f.f.f.f.f.f.k.g.",
"f.f.r.e.e.a.f.e.t w.t e.f.f.f.f.f.r.l.W.o.D i.XXOXOXOXOXOXOX+X_.4.3.,.3.3.3.3.5.B.1.~ F M d.f.s.f.f.f.f.f.f.r.l.f.f.f.f.l.f.r.f.",
"f.f.a.e.e.a.r.f.a.e.e.f.a.f.f.f.r.z.!.! i.<X6X6X6X6X6X6X6X6X6X.XR.E.E.R.E.R.[. X X X}.S.! ) d.f.f.f.f.f.f.f.f.f.f.f.f.f.r.f.f.f.",
"f.f.f.f.f.f.f.r.f.f.f.f.f.f.f.f.f.V.Z /.6X6X6X6X6X6X6X6X6X2XA.,.2.6.6.6.3.J.U.U.T.T.{. X]...m d.s.f.f.f.f.g.f.f.f.f.f.f.f.f.f.f.",
"f.f.f.f.f.f.f.f.f.f.f.f.f.f.f.f.M.T p.6X6X6X6X6X6X6X5X6X4XA.:.3.3.,.,.>.8.L.L.L.L.L.L.E. X{.E b f.f.f.f.f.g.f.f.f.f.f.f.f.f.g.f.",
"f.f.f.f.f.f.a.f.f.f.f.f.f.f.f.l.2.| 4X6X6X6X6X6X6X6X6X4XH.:.,.,.,.>.>.8.L.L.L.U.L.L.L.K.T. XC.K d.f.f.f.f.f.f.f.f.f.f.f.f.k.f.f.",
"f.f.f.f.f.f.f.f.f.f.f.f.f.f.f.v.Q /.6X6X6X6X6X6X6X6X5XG.,.7.6.6.6.6.Z.T.U.U.L.L.L.U.U.L.U.E.U. .r.f.f.f.f.f.f.f.f.f.l.r.f.f.f.f.",
"f.f.f.f.f.f.f.f.f.f.f.f.f.f.d.n.Y ,X6X6X6X6X6X6X6X5X.XP.E.E.E.E.E.[. X X X X{.U.L.L.L.U.Z.8.E.2.v f.f.f.f.f.f.f.f.f.f.f.f.f.f.f.",
"f.f.f.f.f.f.f.f.f.f.f.f.f.f.d.m.! 1X6X6X6X6X6X6X5X|.>.>.>.1.>.X.>.4.4.4.4.5.Y. XE.K.U.J.,.6.R.7.n d.f.f.f.f.f.f.l.f.f.f.f.f.f.f.",
"f.f.f.f.f.f.f.g.f.f.f.f.f.f.d.;.H 3X6X6X6X6X6X6X^.Z D Z Z Z Z D Z Z Z Z Z C A 4. XR.J.,.,.3.U.8.n d.f.f.f.f.f.f.r.f.f.f.f.f.f.l.",
"r.l.f.g.f.f.f.f.f.f.f.f.f.f.d.' H 3X6X6X6X6X6X^.Z T T T T Q T T T T T Q T Q Z V N.[.,.,.3.3.U.Z.M d.f.f.f.f.f.d.f.f.f.f.f.f.f.r.",
"f.f.f.f.f.f.f.f.f.f.f.f.f.f.d.' H 3X6X6X6X6X#XT Y T Y D D D D D D D D D Y Y T Z G K.7.,.,.3.R.8.M d.f.f.f.f.f.f.f.f.l.r.f.f.f.f.",
"f.f.f.f.f.f.f.f.f.f.f.f.f.f.d.' D 3X6X6X6X|.8.Y T Y C ! >.>.>.3.8.8.8.7.8.1.T Y V 7.Z.>.3.3.U.8.b f.f.f.f.f.f.f.f.f.f.f.f.f.f.f.",
"f.f.f.f.f.f.f.f.f.f.f.f.f.f.k.} H 3X6X6X^.6.Z.Y Y C ! ,.3.3.3.,.3.8.J.J.J.J.3.Y V 5.J.,.,.3.R.8.n d.f.f.f.f.f.f.f.f.f.f.f.f.f.f.",
"f.g.f.f.f.f.f.f.f.f.f.f.f.e.c b.H 3X6X).:.Z.Z.Y T V / 6.,.,.,.,.,.,.7.J.Z.Z.8.Q V 3.J.>.,.6.U.Z.n d.f.f.f.f.f.f.f.f.f.f.f.f.f.f.",
"f.f.f.f.f.r.f.f.f.f.f.f.f.$ X c.H 3X%X:.,.8.8.Y Y V ..3.,.3.,.3.3.,.,.7.J.Z.8.T V 5.J.>.3.,.].(.n d.f.f.f.f.f.f.f.f.f.f.f.f.f.f.",
"f.f.f.f.f.f.f.f.f.f.f.f.f.$ . B H #XJ.>.,.8.Z.Y Q V ..6.,.,.3.,.3.,.,.,.7.J.8.Q V 5.J.>.>.7.;X).M d.f.f.s.f.f.a.f.f.f.f.f.f.g.f.",
"f.f.f.f.f.f.f.f.f.f.f.f.r.+.%.] H K.K.,.,.8.8.Y Y V ..3.,.,.,.,.,.,.3.,.,.8.8.Q C 5.J.>.2._.>X(.M k.e.#.&.@.f.f.r.f.f.f.f.f.f.f.",
"f.f.r.f.f.r.f.f.f.f.f.f.f.#.%.=.A L.K.,.,.8.Z.Y T V ..3.3.3.3.3.3.,.,.3.,.<.8.Q V 5.8.2._.@X:X(.v k.r.%.*.@.r.f.e.f.f.f.f.f.f.f.",
"f.f.f.t e.f.f.f.f.f.s.f.a.* & _ Z K.K.,.>.Z.I.Y T V ~ 2.,.3.3.,.3.3.,.3.,.,.3.Q C 2.K.(.oXoX:X).n d.a.$.*.@.f.q X 0 f.f.f.f.f.f.",
"f.a.r.w.t f.f.f.a.f.f.f.s.* @ B Y K.K.>.3.E.I.U T V W ,.,.,.,.,.,.,.3.,.,.3.,.T V B.#XoXoXoX:X).v d.f.$.&.@.r.q X # f.a.f.f.f.f.",
"f.f.a.f.r.f.f.f.f.f.d.a.s.% & -.H L.K.3.K.E.G.Y T V W ( ,.,.,.3.3.,.3.3.,.,.,.Y V Q.=XoXoXoX:X).v d.f.s.j.e , u q.q.f.f.r.s.f.f.",
"f.f.r.f.f.f.f.f.f.f.f.s.a.* o _ D K.U.K.L.E.I.Y Y V W / ( ,.3.,.,.3.,.,.3.3.,.T V Q.=X_.oX@X:X).v f.s.f.f.y g u h.f.f.f.r.f.f.f.",
"f.f.f.f.f.f.f.f.f.a.f.f.f.q.c -.D U.].L.K.E.I.U T V W X./ ( ,.,.,.,.3.3.,.3.,.Y V ~.=XoXoX@X;X).v s x w.f.9 4 9 s.w # 0 s.f.f.a.",
"f.f.f.f.f.f.f.f.f.f.f.f.r.f.f.} Z ].].L.L.E.I.T Y V E ( / / X.>.,.,.,.,.,.,.,.Q V ~.=X_.@X@X:X).b z l w.j.$ . $ f.w   # f.f.f.f.",
"f.f.f.f.f.f.f.f.f.f.f.f.f.f.d.{ D `.].L.L.E.I.Y T A D ( / ( / ( >.,.3.3.,.3.X.Y V Q.=XoX_.@X*XS.b r u.s x y - 7 h.w   # f.f.f.f.",
"f.f.f.f.f.f.f.f.f.f.f.f.f.f.d.} D ].[.L.K.E.Y.Y T Z A D ^ ~ / / ^ X.X.>.>.X.T Y V ~.=X_.@X_.E.7.n d.s.x l j = i f.w   # f.f.f.f.",
"f.f.f.f.f.f.f.f.f.f.f.f.f.f.d.} D ].[.L.L.U.{.~ U T Y Z Z D Z D S D D Z Y Y T Z G $X$XoX).7.U.Z.n d.f.u.s p i e f.a.0 q f.f.f.f.",
"f.f.f.f.f.f.f.f.f.f.f.f.f.f.d.` D `.{.L.L.L.}.S.Z T T T T T T T T T T T T T S V D.;XoX_.5.,.R.8.n f.f.f.a.s.f.f.f.f.f.a.a.f.f.f.",
"f.f.f.f.f.f.f.f.f.f.f.f.f.f.f.` D `.{.L.U.L.U.E.3.W Z Z Z Z D Z Z Z Z Z Z C C p.:X$X_.5.:.6.R.8.n f.f.f.f.f.f.f.f.f.f.f.f.f.f.f.",
"f.f.f.f.f.f.f.f.f.f.f.f.f.f.f.` D Y.}.U.L.L.6.7.R.K.2.>.3.1.>.1.F.F.F.F.D.D.|.:X%X(.5.,.,.7.E.7.n d.f.f.f.f.f.f.f.f.f.f.f.f.f.f.",
"f.f.f.f.f.e.e.a.f.f.f.f.r.f.d.[ Z S.}.T.K.7.,.,.2.K.R.E.R.E.R.&X:X:X:X>X:X:X-X$X_.5.,.,.,.Z.E.o.t.f.f.f.f.f.f.f.f.f.f.f.f.f.f.f.",
"f.f.f.f.f.t w.f.f.f.a.f.f.f.d.x.W ..}.[.8.>.,.,.,.,.6.7.7.7.'.$X@X#X@X@X$X@XoX_.5.,.3.,.2.R.K.R r.f.f.f.f.f.f.f.f.f.f.f.f.f.f.f.",
"f.f.f.f.f.t e.f.f.f.f.f.f.f.f.f.] Z S.[.J.,.,.,.,.,.,.>.,.H.oXoXoXoX_.oX|.oX_.5.>.,.>.6.L.E.( N d.f.f.f.f.f.f.f.f.f.f.f.f.f.f.f.",
"f.f.f.a.r.t t f.f.f.f.f.f.f.f.d.x.Q S J.E.K.7.3.,.>.,.,.^.oX_.oXoXoX@XoXoXoXB.>.2.3.8.L.E.,.P d.f.f.f.f.f.f.f.f.a.f.f.f.f.f.f.f.",
"f.f.f.f.f.w.e.f.f.f.f.f.f.f.f.f.f.M H Y 7.R.R.L.K.K.K.|.-X=X-X-X=X-X=X-X%XU.J.K.K.U.E.U.X.R t.f.f.f.f.f.f.f.f.f.f.f.f.f.f.f.f.f.",
"f.f.f.f.f.f.f.f.f.f.f.f.f.f.f.f.f.f.M E D ~ 7.K.U.L.|.-X-X*X-X-X-X-X-X-X`.L.R.U.L.J.,.! I t.f.f.f.f.f.f.f.f.f.f.f.f.f.f.f.f.f.f.",
"f.f.s.f.f.d.f.f.f.f.f.f.f.f.a.f.f.f.f.t._ F S W W Q ! ! ! ! ! ! ! ! H H W W W W W E I N k.g.f.f.f.f.f.f.f.f.f.f.f.f.s.s.r.f.f.f.",
"f.f.f.f.f.f.f.f.f.f.f.f.f.f.f.f.f.f.f.k.r.f.t.t.t.b n b + O 1 2 9.O.9.2 1 0.0.b b t.f.k.f.f.f.f.f.f.f.f.f.f.f.f.f.s.O.j.a.f.f.f.",
"f.f.f.f.f.f.f.f.f.f.f.f.f.f.f.f.f.f.f.f.f.f.f.k.d.d.f.d.6 X - g u s.y g < y.d f.d.f.f.f.f.f.f.f.f.f.f.f.f.f.r.f.f.s.O.j.f.f.f.f.",
"f.f.f.f.f.f.f.f.f.f.f.f.f.f.f.f.f.f.f.f.f.f.f.f.f.f.s.r.p k > ; > , i p a r.f.f.f.f.f.f.f.r.f.f.f.f.f.f.f.f.f.f.s.f.s.s.a.f.f.f.",
"f.f.f.f.f.f.f.f.f.g.g.f.f.f.f.f.f.f.f.f.f.f.f.f.f.f.f.s.s l > ; ; = y y.w.f.r.f.f.f.f.f.f.f.f.f.f.f.f.f.f.f.f.f.r.f.f.s.f.f.f.f.",
"f.f.f.f.f.f.f.f.f.f.f.f.f.f.f.f.f.f.f.f.f.f.f.f.f.f.f.r.w.f r e e e w.w.e.f.f.f.f.f.f.f.f.f.f.r.f.f.f.f.f.f.f.f.f.f.f.f.f.f.f.f.",
"f.f.f.f.f.f.f.f.f.f.f.f.f.f.f.f.f.f.f.f.f.f.f.f.f.f.f.f.f.f.f.f.f.f.f.s.f.f.f.f.f.f.f.f.g.f.f.l.f.f.f.f.f.f.f.f.f.f.s.f.f.f.f.f.",
"f.f.f.f.f.f.f.f.f.f.f.f.f.f.f.f.f.f.f.g.f.f.f.r.f.f.f.f.f.f.f.f.f.f.f.f.f.f.f.f.f.f.f.f.k.f.f.f.f.f.f.f.a.e.t q.q.e.f.f.f.f.f.f.",
"f.g.f.f.f.f.f.f.f.f.f.r.f.f.g.f.f.f.f.f.f.f.f.l.f.f.f.f.f.f.f.f.r.f.f.f.f.f.f.f.f.f.f.f.f.f.f.f.f.f.f.f.f.e.e e e t a.a.f.f.f.f.",
"f.f.f.f.f.f.f.f.f.f.f.l.f.f.f.f.f.f.f.r.f.f.f.f.f.f.f.f.f.f.f.f.f.f.f.f.f.f.f.f.f.f.f.f.f.f.f.f.f.f.f.f.a.e.t q.q.w.a y.f.f.f.a.",
"f.f.f.f.f.f.f.f.f.f.f.f.f.f.f.f.f.f.f.l.f.f.f.f.f.f.f.f.r.f.f.f.f.f.f.f.f.f.f.f.g.g.f.f.f.f.f.f.f.f.f.f.f.e.e.e.h.u.k 3 f.f.f.f.",
"f.g.f.f.f.f.f.f.r.f.f.f.f.f.f.f.f.f.f.f.f.f.f.f.f.f.f.f.l.f.f.f.g.f.f.f.f.f.f.f.f.f.f.f.f.f.f.f.f.f.f.f.a.r.e.e.a.w.p a a.f.f.f.",
"f.f.g.f.f.f.f.f.f.f.f.f.f.f.f.l.f.f.r.l.f.f.f.g.f.f.f.f.f.f.f.f.f.f.f.f.f.f.f.f.f.f.f.f.f.f.f.f.f.f.f.f.f.r.f.r.f.s.s.f.f.f.f.f.",
"f.f.f.f.f.f.f.w w e.f.f.f.f.f.r.f.f.f.f.f.f.f.f.f.f.f.g.f.f.f.f.f.f.g.f.f.f.f.f.f.f.f.f.f.f.f.f.f.f.f.f.f.f.f.f.f.f.r.f.f.r.f.f."
};
