/* XPM */
static char *_5cb3c3a615c42cc98d57840fc237d4bgHcWoGHrWUPwG7ab[] = {
/* columns rows colors chars-per-pixel */
"64 64 135 2 ",
"   c #5D5D5E",
".  c #605F5F",
"X  c #5E615D",
"o  c #5A685A",
"O  c #4A7E5F",
"+  c #56715E",
"@  c #5A735D",
"#  c #61625E",
"$  c #646C5B",
"%  c #667457",
"&  c #687757",
"*  c #6A7B56",
"=  c #66715B",
"-  c #69765A",
";  c #627C5B",
":  c #6B7B58",
">  c #5B5660",
",  c #5E5C60",
"<  c #615F63",
"1  c #625F6B",
"2  c #5F6060",
"3  c #4D7760",
"4  c #636363",
"5  c #666863",
"6  c #686A67",
"7  c #66646B",
"8  c #68676A",
"9  c #6B6B6B",
"0  c #6F6C72",
"q  c #716F73",
"w  c #737373",
"e  c #777876",
"r  c #787877",
"t  c #777579",
"y  c #7B7B7B",
"u  c #4CAF38",
"i  c #4BB135",
"p  c #4DB038",
"a  c #52B337",
"s  c #52B23A",
"d  c #59B439",
"f  c #60B736",
"g  c #6ABD32",
"h  c #62B63D",
"j  c #64B838",
"k  c #79BF3D",
"l  c #458F5F",
"z  c #488F5E",
"x  c #45905F",
"c  c #4B925E",
"v  c #52965C",
"b  c #569A59",
"n  c #5B9E59",
"m  c #78874C",
"M  c #609C46",
"N  c #7F9246",
"B  c #77994F",
"V  c #7A9F4F",
"C  c #638257",
"Z  c #6E8356",
"A  c #648458",
"S  c #6E8459",
"D  c #6C8B5A",
"F  c #708756",
"G  c #728C54",
"H  c #61925B",
"J  c #649E5A",
"K  c #759453",
"L  c #779851",
"P  c #799C51",
"I  c #719C5D",
"U  c #4DA743",
"Y  c #57AA46",
"T  c #62A943",
"R  c #6AAB48",
"E  c #7EA64F",
"W  c #7FA94E",
"Q  c #6BB840",
"!  c #74BB43",
"~  c #7ABD45",
"^  c #77B44C",
"/  c #7EB74D",
"(  c #7FBA4B",
")  c #65A655",
"_  c #69AB52",
"`  c #64A059",
"'  c #7CA251",
"]  c #71AC54",
"[  c #7AAD54",
"{  c #75A35B",
"}  c #77A85F",
"|  c #7DAE5A",
" . c #6DB152",
".. c #7EB052",
"X. c #7EB558",
"o. c #438A61",
"O. c #4A8F60",
"+. c #599862",
"@. c #668B67",
"#. c #6E976D",
"$. c #96CD3E",
"%. c #9BD23A",
"&. c #BAEF22",
"*. c #BCF322",
"=. c #819547",
"-. c #81AD4D",
";. c #81BF46",
":. c #83B44C",
">. c #84BC4A",
",. c #89BE4B",
"<. c #82AE55",
"1. c #81B352",
"2. c #89BA52",
"3. c #839B6E",
"4. c #889F6D",
"5. c #80817F",
"6. c #889B72",
"7. c #85A664",
"8. c #88A26A",
"9. c #84C046",
"0. c #8BC446",
"q. c #8ECB47",
"w. c #87C049",
"e. c #8BC34A",
"r. c #8DC948",
"t. c #92CB42",
"y. c #7E7C81",
"u. c #868686",
"i. c #888787",
"p. c #878986",
"a. c #888887",
"s. c #878689",
"d. c #888788",
"f. c #878888",
"g. c #888888",
/* pixels */
"e.e.e.e.e.e.e.e.e.e.e.e.e.e.e.e.0.>.<.[ _ ] >.:.! ! :.1.,.e.e.w.e.e.e.e.e.e.e.e.e.e.w.e.w.k k 9.w.e.e.e.e.e.e.e.e.e.e.e.e.r.e.e.",
"e.e.e.e.e.e.e.e.e.e.e.e.e.e.e.e.w.,.e.e.r.e.0.w.e.e.0.e.e.e.e.e.e.e.e.e.e.e.e.e.e.e.w.e.0.g g 9.0.0.e.e.e.e.e.e.e.e.e.e.e.e.e.e.",
"e.e.e.e.r.r.e.e.e.e.e.e.e.e.e.e.e.e.e.e.e.e.e.e.e.e.e.e.e.e.e.e.e.e.e.e.e.e.e.e.e.e.e.e.e.j f 9.e.e.e.w.e.e.e.e.e.e.e.e.e.e.e.e.",
"e.e.e.e.e.e.e.e.e.e.e.e.e.e.e.e.e.e.e.0.e.e.e.e.e.e.e.e.e.e.e.e.e.e.e.e.e.e.r.e.e.e.e.e.w.d a ;.,.e.e.0.e.e.e.e.e.e.e.e.e.e.e.e.",
"e.e.e.e.e.e.e.e.e.e.e.e.e.e.e.e.e.e.e.,.e.e.,.e.e.e.e.e.e.e.e.e.e.e.e.e.e.e.e.e.e.e.e.e.,.Y U >.e.;.! 9.e.e.e.e.e.e.e.e.e.e.e.e.",
"e.e.e.e.e.e.e.e.e.e.e.e.e.e.e.e.0.e.e.e.e.0.e.e.e.e.e.e.e.e.e.e.e.e.e.e.e.e.e.e.e.e.w.e.>.+.O.( 0.h i ~ e.e.e.e.e.e.e.e.e.e.e.r.",
"e.e.e.e.e.e.e.e.e.e.e.e.e.e.e.e.e.e.e.e.e.e.e.e.e.e.e.e.e.e.e.r.e.e.e.e.e.e.e.e.e.e.e.e.w.v c ( 0.T U ~ e.e.e.e.e.e.e.e.r.e.e.e.",
"e.e.r.e.e.e.e.e.e.e.e.e.e.e.e.e.w.e.e.,.e.e.e.e.e.e.e.e.w.e.e.E 2.e.e.e.e.e.e.e.e.e.e.0.e.c x ( 0.J o...q.e.e.e.e.e.e.e.e.e.e.e.",
"e.e.w.e.e.e.e.e.e.e.e.e.e.e.e.e.0.0.0.0.,.e.e.e.e.e.e.e.e.:.: = e.e.e.e.e.e.e.e.e.q.e.e.,.n b ( r.` +.2.e.e.e.e.e.e.e.e.e.r.r.e.",
"e.e.e.e.e.e.e.e.e.e.e.e.e.e.2.r.$.$.$.t.e.0.e.e.e.e.e.e.-.$ > G r.e.e.e.e.e.,.-.P P ,.e.w.,.,.w.e.w.2.2.e.e.e.e.e.e.e.r.e.2.e.e.",
"e.e.e.e.w.e.w.e.e.e.e.e.e.e.e.r.$.$.%.0.,.e.e.e.e.e.e.>.$ < X E e.e.e.e.,.L $ . , G w.e.e.e.e.e.e.e.e.e.e.e.e.e.e.e.e.e.e.r.e.e.",
"e.e.e.w.e.( >.w.e.e.e.e.e.e.e.e.0.w.0.F B 0.e.e.e.e.e.F   # # -.r.e.r.1.&   <   Z 0.w.e.e.e.e.e.e.e.e.e.e.e.e.e.e.e.e.e.e.2.r.e.",
"e.e.,.w.e.( ( w.e.e.w.e.e.e.e.e.e.e.W , G 0.e.0.,.0.:.# X   # V :.:.-.$   # < $ ,.e.e.e.e.,.e.e.e.e.e.e.e.e.e.e.e.e.e.e.e.r.e.e.",
"e.e.,.,.>.9.,.>.( ( >.,.e.e.e.e.e.0.G > : e.e.0.e.,.G     4 4 6 6 4 # . .     L r.e.e.e.e.e.e.e.w.e.w.e.e.e.e.e.e.e.e.r.e.e.r.2.",
"e.e.9.>.( e.e.( ( :.:.w.e.e.e.e.e.,.$ . # -.q.-.G = 9 r y u.u.u.u.u.u.5.r 9 4 & P ,.e.e.e.e.e.t.e.e.e.e.e.e.e.e.e.2.2.r.e.e.e.e.",
"e.e.9.,.,.e.w.w.w.w.,.e.e.e.e.,.e.:.# # , : G 4 w u.i.y q 6 4 4 4 4 5 0 y u.u.w 4 % -.e.>.-.P P [ ,.r.e.e.e.e.e.r.r.e.e.e.e.r.e.",
"e.e.e.e.e.e.e.,.e.e.e.e.e.e.e.e.e.-.# #   1 0 s.u.9 #   4 6 w w w w 9 8     9 u.u.w 4 & $ , ,   . # F :.e.e.e.e.e.e.e.e.e.e.r.e.",
"e.e.e.e.e.e.e.e.e.e.e.e.e.e.e.e.0.-.#   4 #.u.0   8 w u.g.g.g.g.g.g.g.u.u.e 8   9 u.y 4     #   . = G -.e.e.w.e.e.e.e.e.e.e.e.e.",
"e.e.e.e.e.e.e.e.e.e.e.-.>.e.e.e.e.,.$ 8 i.y.. < y u.g.f.f.d.u.u.p.p.u.d.u.p.u.y 4 < y p.6     $ P ,.0.e.e.e.e.e.e.e.e.e.e.e.e.e.",
"e.e.e.e.e.e.e.e.e.e.r.Z G r.e.,.e.L 6 p.r . 9 y.g.u.f.d.u.g.f.g.g.d.g.f.u.u.u.g.u.9   t d.9 X E t.e.e.e.e.e.e.e.e.e.e.e.e.e.e.e.",
"e.e.e.e.e.e.e.e.e.e.e.Z , L 0.0.-.5 u.r . q i.i.u.d.f.u.d.u.u.i.u.u.u.f.u.g.u.u.u.g.w   w u.8 * e.e.e.e.e.e.e.e.e.e.e.e.e.e.e.r.",
"e.e.e.e.e.e.e.e.e.e.r.Z , # L >.$ y 5.  0 i.i.i.p.g.u.d.a.i.g.i.g.a.d.a.d.p.g.d.p.u.g.w   y u.  L e.e.e.e.e.e.e.e.e.e.e.e.e.e.r.",
"e.e.e.e.e.e.e.e.e.e.e.K <   X $ q i.4 9 i.i.i.i.d.u.f.u.a.f.d.i.d.p.f.a.u.g.f.u.g.u.u.g.9 < u.w # :.q.e.e.e.e.e.e.e.e.e.e.e.e.e.",
"e.r.e.e.e.e.e.e.e.e.e.E # #   4 i.0 # 5.i.i.i.i.u.g.f.d.d.a.d.d.a.a.a.f.d.u.g.d.u.g.u.u.u.4 9 d.8 % P :.e.e.e.e.e.e.e.e.e.e.e.e.",
"e.e.e.e.e.e.e.e.e.e.e.e.& ,   e 5.. r i.u.u.u.u.g.d.g.a.i.u.u.s.d.d.u.a.a.i.u.i.u.d.f.u.g.y   5.r   , X : W 0.e.e.e.e.e.e.e.e.e.",
"e.e.e.e.e.e.e.e.e.e.e.r.E X 4 u.w 5 i.i.f.g.g.g.u.g.p.u.i.p.6.4.6.6.p.d.i.p.a.a.d.d.f.u.u.g.6 6 u.4   #   # K e.e.e.e.e.e.e.e.e.",
"e.e.e.e.e.e.e.e.e.e.e.e.0.G 9 p.. w g.i.f.u.f.u.g.p.a.d.4.2.e.w.w.e.>.4.d.d.p.d.p.d.u.g.f.g.y 4 u.0   , , ,   Z e.e.e.e.e.e.e.e.",
"r.e.e.e.e.e.e.e.,.e.e.e.r.G t y   u.i.i.d.u.d.d.g.p.u.8.0.w.e.e.e.e.e.w.7.u.u.i.f.d.u.g.u.g.u.  y y   = : Z : = <.r.e.e.e.e.e.e.",
"r.e.e.e.e.e.e.e.e.e.e.e.e.& y.0 8 u.u.d.u.g.a.d.i.d.6.0.e.e.e.e.e.e.>.>.( 3.u.p.f.p.d.u.g.u.d.6 q 5.# V e.e.e.,.2.e.e.e.e.e.e.e.",
"e.e.e.e.e.e.e.:.,.e.e.e.>.$ u.6 6 p.d.g.u.p.f.a.u.p.2.e.w.e.e.e.e.w.,.>.>.1.p.f.f.f.u.d.u.i.g.w 6 u.< K q.e.e.e.r.e.e.e.e.e.e.e.",
"e.e.e.e.e.,.e.' = L :.,.:.5 u.4 w g.u.u.d.a.f.a.d.6.,.e.e.e.e.e.w.e.w.e.w.w.4.d.a.p.g.u.g.u.g.w # u.1 =.*.%.e.e.e.e.e.e.e.e.e.e.",
"e.e.2.e.e.e.e.e.$ , # - % 6 u.4 w d.u.g.u.g.p.g.d.4.e.e.e.e.e.e.e.e.0.w.0.w.8.d.g.p.a.u.g.d.g.w . u.7 N *.%.2.e.e.2.e.e.e.e.e.e.",
"e.w.,.>.>.w.e.e.' , . <   4 u.4 w g.u.g.u.a.p.a.d.4.e.e.e.e.e.e.e.e.e.e.e.w.8.d.i.p.a.u.g.u.g.w 4 u.7 m &.%.,.! s Q ,.e.0.e.e.e.",
"e.e.w.>.( e.e.e.e.G   #   4 u.4 w g.d.u.d.f.d.g.d.6.e.w.e.w.e.e.e.e.e.e.e.e.6.d.a.g.a.d.u.d.g.w 4 u.6   =.$.,.! s h 0.e.e.e.,.e.",
"e.e.w.e.,.w.e.e.e.w.K     4 u.6 6 g.g.g.u.f.f.p.d.p.2.e.e.e.e.e.e.,.e.e.e.e.5.g.g.f.p.u.f.u.g.q 4 u.4 X > % b _ ;.>.0.e.0.e.e.e.",
"e.e.w.w.e.e.e.e.e.e.e.E : X 5.q 8 g.u.g.u.a.f.d.u.d.8.e.e.e.e.e.e.e.e.e.r.8.g.g.g.u.g.d.g.u.g.6 9 u.< X . . O ) r.e.0.,.,.e.e.e.",
"e.e.e.e.e.e.e.e.0.e.e.e.0.* y y   u.u.u.p.d.u.d.u.u.d.7.0.e.e.w.e.e.e.0.<.g.d.g.g.u.g.u.u.u.u.4 y y     , X o R e.~ h Q 0.e.e.e.",
"e.w.e.e.e.e.e.e.e.e.e.e.0.B 9 i.4 w g.u.g.u.g.u.d.p.g.p.4.,.0.0.0.e.,.8.d.d.a.d.g.u.u.g.d.p.r 4 u.w X S $ #   R r.! p h e.,.e.w.",
"e.e.e.e.e.e.e.e.e.e.e.e.0.:.5 u.9 8 u.u.d.f.u.g.d.g.p.u.d.p.6.8.8.8.p.u.u.f.g.i.u.f.g.d.u.g.6 9 u.4 Z X.{ ; 2 A e.~ p h e.e.e.e.",
"e.e.e.e.e.e.,.e.e.e.e.e.w.w.Z t u.  y g.u.u.d.u.f.p.d.g.u.d.d.d.s.s.d.p.p.d.p.u.d.u.f.u.g.y   y r   E } #.+.3 A 0.~ u h e.e.e.0.",
"e.e.e.e.e.e.e.e.e.e.q.e.e.:.: 4 u.9 4 u.u.u.g.u.d.d.p.f.f.p.a.a.g.g.f.g.g.g.u.u.f.g.u.f.p.4 6 u.8 % ,.1.| [ ) ^ e.,.h ~ 0.0.e.,.",
"e.e.e.e.e.e.e.e.e.' G G : #     w u.X 9 d.u.d.g.u.d.d.d.f.d.f.p.f.g.d.d.f.u.u.d.g.u.u.g.q X u.e   P 0.e.e.e.e.0.w.w.e.e.,.e.e.e.",
"e.e.e.e.e.e.e.e.e.:.= >   # # . X y.y   w g.u.u.d.g.u.f.p.d.p.f.g.a.u.f.u.d.g.g.u.u.g.y   r u.4   G 0.e.e.e.,.e.0.0.e.e.e.e.e.e.",
"e.e.e.e.e.e.e.e.e.e.,.K $ <   ,   4 a.r   w g.d.u.p.g.u.d.u.d.u.u.u.f.u.d.f.p.u.u.g.w   q u.8     $ >.e.e.,.e.e.e.e.e.e.e.e.e.e.",
"e.,.e.e.e.,.,.w.e.,.e.0.,.' G G G % 8 i.w   q u.g.u.u.d.g.f.d.g.g.a.p.g.u.u.d.g.u.w   q p.9   # X # -.e.e.e.e.e.e.0.,.e.e.e.e.e.",
"e.e.e.e.e.>.( w.e.e.e.e.e.r.e.e.0.>.$ 8 p.y X 4 y g.g.g.u.u.d.d.d.u.u.u.g.g.g.y 8   y u.9   $   X   E q.e.e.e.e.e.e.e.e.e.e.e.e.",
"e.e.e.e.w.>.( e.0.e.e.,.,.e.e.e.,.e.,.% 4 u.u.6   6 y u.g.g.g.g.g.g.g.u.u.y 6   6 u.u.8   L ,.%   . P 0.e.,.e.e.e.e.e.e.e.e.e.e.",
"e.w.e.e.e.( ( ,.e.e.e.e.e.e.e.e.e.e.w.,.% < w u.y.9   4 6 9 w w y w w 8 4   6 y.u.w   $ E 0.e.:.# # -.e.e.e.e.e.e.e.e.e.e.e.e.e.",
"e.e.e.e.e.:.>.w.e.e.e.e.e.e.e.e.e.e.r.:.$ ,   4 r u.u.r 9 8 #   .   8 9 r u.u.y <   $ 1.r.e.e.r.K # :.e.e.e.e.e.e.e.e.e.e.e.e.e.",
"e.e.e.w.e.e.e.e.e.e.e.e.e.e.e.e.e.r.' $   4 <     4 9 y u.u.u.u.u.u.u.u.y 0 4   . < F r.e.e.e.e.:.G e.e.e.e.e.e.e.e.0.,.e.e.e.e.",
"e.e.0.e.e.e.e.e.e.e.e.e.e.e.e.e.2.Z # < , ,   & E B : $ . 4 8 6 6 8 < # X % = , . . G r.e.e.e.e.0.,.e.e.0.e.e.e.,.0.0.0.w.e.e.e.",
"e.e.e.e.e.e.e.e.e.e.e.e.e.e.e.e.=.: - 9 = F ' ,.0.e.e.>.M o       $ C O H <.K # . . { e.e.e.2.e.e.e.e.e.e.w.e.e.e.0.$.t.0.e.e.,.",
"e.e.e.e.e.e.e.2.e.e.e.e.e.e.e.e.e.r.e.2.2.r.r.e.e.e.e.0.Y X < X   B  .l ` 1.' # . $ :.e.e.e.e.e.e.e.e.e.e.e.e.e.e.0.$.t.e.e.e.e.",
"e.e.e.e.e.e.r.e.e.e.e.e.e.e.e.e.e.e.e.e.e.r.2.e.e.e.e.e.D . 2   @ b ` { [ ,.:.$ > K 0.e.e.e.e.e.e.,.e.e.e.e.e.e.,.0.0.0.0.,.e.0.",
"e.e.e.e.e.r.e.e.e.e.e.e.e.e.e.e.e.e.e.e.e.e.e.e.e.e.e.,.=     + z l J <.1.0.:.# & e.e.e.e.e.e.e.e.e.e.e.e.e.e.e.0.0.e.e.e.e.e.e.",
"e.e.e.e.e.e.e.e.e.e.e.e.e.e.e.e.e.e.e.e.e.e.e.e.e.e.e.G   = K ^ ^ ^ / ,.,.0.:.F ,.e.e.e.e.e.e.e.e.e.e.e.e.e.e.,.e.,.e.e.e.e.,.e.",
"e.e.e.r.e.e.e.e.e.e.e.e.e.e.e.e.e.e.e.e.e.e.e.e.,.0.,.7.<.e.r.e.0.e.e.0.e.e.,.,.r.e.e.e.e.e.e.e.e.e.e.e.e.e.e.e.e.e.e.e.e.e.e.e.",
"e.e.e.e.e.e.e.e.e.e.e.e.e.e.e.e.e.e.e.e.e.r.e.e.0.0.,.r.e.e.2.e.e.e.e.e.e.e.0.e.e.e.e.e.e.e.r.e.e.e.e.e.w.>.( ;.>.,.e.e.e.e.e.e.",
"e.e.e.e.e.e.e.e.e.r.e.e.e.e.r.e.e.r.e.e.e.e.e.e.e.e.e.e.,.e.e.e.e.e.e.e.e.e.e.e.e.e.e.e.e.e.e.e.e.e.e.e.w.;.^ ^ ^ ~ 0.e.e.e.e.e.",
"e.e.e.e.e.e.e.e.e.e.e.e.r.e.e.e.e.e.e.e.e.e.e.e.e.e.e.e.e.e.e.e.e.e.e.e.e.e.e.e.e.e.e.e.e.e.e.e.e.e.e.e.e.>.( ~ ;./ ' ..e.e.e.e.",
"e.e.e.e.e.w.e.e.e.e.e.e.e.e.e.e.e.e.e.e.e.e.e.e.e.e.e.e.e.e.r.e.e.e.e.e.e.e.e.e.e.e.e.e.e.e.e.e.e.e.e.e.0.,.( >.0.1.@.I e.e.e.e.",
"e.e.e.e.e.e.e.e.e.e.e.e.e.e.e.e.r.e.e.e.e.e.e.e.e.e.e.e.e.e.e.e.e.e.e.e.e.e.e.e.e.e.e.e.e.e.e.e.e.e.e.e.w.,.>.,.0.>.{ ..,.w.e.e.",
"e.e.e.e.e.e.e.e.e.e.e.e.e.e.e.e.e.e.e.e.e.e.e.e.e.e.e.e.r.e.e.e.e.e.e.e.e.e.e.e.e.e.e.e.e.e.e.e.e.e.e.e.,.w.e.e.e.w.0.0.,.e.e.e.",
"e.e.e.e.e.e.e.( / e.e.e.e.e.e.e.e.e.e.e.e.e.e.r.e.e.e.e.e.e.e.e.e.e.e.e.e.e.e.r.e.e.e.e.e.e.e.e.e.e.e.e.e.e.e.e.e.e.e.e.w.e.e.e."
};
