/* XPM */
static char *_133cf3ac13449aaa0d80709401afe69Z4StK8pSpKssXuMH[] = {
/* columns rows colors chars-per-pixel */
"64 64 184 2 ",
"   c #352F3E",
".  c #3A363E",
"X  c #3D3D3E",
"o  c #3F403E",
"O  c #40413F",
"+  c #484F3F",
"@  c #4B553F",
"#  c #4D5A3F",
"$  c #515E3F",
"%  c #54643F",
"&  c #586B3C",
"*  c #5E713F",
"=  c #332941",
"-  c #373140",
";  c #393342",
":  c #3D3A41",
">  c #403E42",
",  c #433D4B",
"<  c #414141",
"1  c #474C41",
"2  c #494B46",
"3  c #454149",
"4  c #48464B",
"5  c #4B4B4B",
"6  c #4C5442",
"7  c #4F504E",
"8  c #515F41",
"9  c #50514F",
"0  c #555D4C",
"q  c #494352",
"w  c #4E4B52",
"e  c #514F54",
"r  c #545455",
"t  c #575856",
"y  c #595B56",
"u  c #555358",
"i  c #5A575D",
"p  c #5B5B5B",
"a  c #546442",
"s  c #576942",
"d  c #5B6E44",
"f  c #5D7344",
"g  c #5C6354",
"h  c #5F6B52",
"j  c #5F605D",
"k  c #627C43",
"l  c #64764B",
"z  c #616C54",
"x  c #647452",
"c  c #687C51",
"v  c #69715E",
"b  c #6A785B",
"n  c #5F5C62",
"m  c #635F69",
"M  c #646464",
"N  c #686867",
"B  c #66626C",
"V  c #6A666E",
"C  c #6C6C6C",
"Z  c #70746C",
"A  c #767D6B",
"S  c #6D6973",
"D  c #706F70",
"F  c #726D7B",
"G  c #767676",
"H  c #777875",
"J  c #787A76",
"K  c #767479",
"L  c #78777A",
"P  c #797A79",
"I  c #68843B",
"U  c #6E8E3A",
"Y  c #72933D",
"T  c #779C3D",
"R  c #4DB136",
"E  c #51B337",
"W  c #5EB739",
"Q  c #7DA43E",
"!  c #6ABC32",
"~  c #61B63D",
"^  c #65BA38",
"/  c #79BF3D",
"(  c #488D5F",
")  c #4B905D",
"_  c #50945C",
"`  c #549B5B",
"'  c #5D9C5B",
"]  c #668345",
"[  c #698744",
"{  c #6B8D45",
"}  c #6A834D",
"|  c #6D8C4A",
" . c #718F4E",
".. c #6E9146",
"X. c #709445",
"o. c #739A46",
"O. c #7A9C44",
"+. c #73944D",
"@. c #769D4A",
"#. c #7A9D4C",
"$. c #6B8350",
"%. c #728A56",
"&. c #758D59",
"*. c #749153",
"=. c #719C5D",
"-. c #4EA645",
";. c #59AE45",
":. c #7BA445",
">. c #7DAB47",
",. c #76A14D",
"<. c #7BA64C",
"1. c #7DAA4A",
"2. c #61B045",
"3. c #6DB941",
"4. c #74BB43",
"5. c #7ABD45",
"6. c #76B54B",
"7. c #7EB44C",
"8. c #7EBA4B",
"9. c #66A754",
"0. c #7BA357",
"q. c #77AB57",
"w. c #7AAD55",
"e. c #468C61",
"r. c #668B67",
"t. c #758266",
"y. c #79826C",
"u. c #7D8E69",
"i. c #7D9264",
"p. c #7C9964",
"a. c #7A8271",
"s. c #7F807E",
"d. c #7E9371",
"f. c #83AF3C",
"g. c #84B03E",
"h. c #8BBC3B",
"j. c #8FC23D",
"k. c #819E5E",
"l. c #81AA48",
"z. c #82B547",
"x. c #84BE46",
"c. c #83B54B",
"v. c #84BC4B",
"b. c #89BD4B",
"n. c #80A357",
"m. c #85A954",
"M. c #88A953",
"N. c #83A35D",
"B. c #83A859",
"V. c #8EAE59",
"C. c #85B252",
"Z. c #88B555",
"A. c #8ABA51",
"S. c #8AB15B",
"D. c #92B35E",
"F. c #829F61",
"G. c #859A6D",
"H. c #80817F",
"J. c #848B7C",
"K. c #869475",
"L. c #899D70",
"P. c #87A269",
"I. c #94B560",
"U. c #83C046",
"Y. c #8BC547",
"T. c #8DC846",
"R. c #8BC34A",
"E. c #8DC549",
"W. c #8EC94A",
"Q. c #90CC4A",
"!. c #7C7685",
"~. c #7C7884",
"^. c #807D85",
"/. c #807B89",
"(. c #838283",
"). c #838383",
"_. c #838483",
"`. c #848483",
"'. c #838285",
"]. c #848386",
"[. c #868686",
"{. c #878886",
"}. c #888987",
"|. c #888888",
/* pixels */
"R.R.R.R.R.R.R.W.R.R.R.R.R.R.R.R.R.v.w.w.9.q.c.8.4.4.c.C.v.R.R.R.R.R.R.R.R.E.R.R.R.R.R.R.R./ / U.Y.U.R.R.R.R.R.R.R.R.E.R.R.R.R.R.",
"R.R.E.R.R.R.R.R.R.R.R.W.R.R.R.R.R.R.R.R.T.T.R.R.R.R.R.U.R.R.R.R.R.R.R.R.R.E.R.R.R.R.v.R.R.! ! U.R.Y.R.R.R.R.R.R.R.R.E.R.E.R.R.E.",
"R.E.E.R.R.R.W.R.R.R.R.R.R.R.R.R.R.R.R.R.R.R.R.R.R.R.R.R.R.R.R.R.R.R.R.R.R.R.R.R.R.R.E.z.z.^ W U.R.R.R.R.R.R.R.R.R.R.R.R.R.R.R.R.",
"R.R.R.R.R.R.W.R.R.R.R.R.R.R.R.R.R.R.R.R.R.R.R.R.R.R.R.R.R.R.R.R.R.R.R.R.b.R.R.R.W.R.{ 6 <.W E U.R.R.R.R.R.R.R.R.R.R.R.R.R.R.R.R.",
"R.R.R.R.R.R.R.R.R.R.R.R.R.R.R.B.b.W.R.R.R.R.R.R.R.Y.T.R.R.R.R.R.b.R.R.R.R.Y.R.W.:.a . r w.;.-.v.R.5.4.x.b.R.R.E.R.R.R.R.R.R.W.R.",
"R.E.R.R.R.R.R.R.R.R.R.R.R.R.W.h g 1.W.R.R.R.Y.R.v.Z.k.L.K.J.J.J.J.J.K.G.P.S.v.f o . 2 t <.` ( 8.R.^ R 5.R.R.R.R.R.R.R.R.R.R.R.R.",
"R.R.R.R.R.R.R.R.R.R.R.R.R.R.W.f , t } z.R.R.m.i.a.S e B ^.].].].'.'.].]./.].H.C t 5 5 t <.` ( 8.E.2.-.5.E.R.R.E.R.R.R.R.R.R.R.W.",
"R.R.R.R.R.R.R.R.R.R.b.R.R.R.W.f : 9 w g i.a.K K L 2 2 r p J ].`.`.`.`.`.`.).].|.{.P G j <.` e.8.E.' ( 6.E.R.R.b.R.R.R.R.R.R.R.R.",
"R.R.R.R.R.R.R.R.R.R.R.R.R.b.T.k . 2 M G G G H H j X 2 r r r D `.`.).`.).`.`.[.'.).).`.`.G.' ` v.b.9._ 8.R.R.R.W.Q.W.R.R.R.R.R.R.",
"R.R.R.R.R.R.R.R.R.R.R.R.R.R.W.* 4 C K H G G K G 2 . < r t r r M ).`.).`.`.`.'.).`.).).`.).).N.U.R.R.R.W.Q.R.v.>.|  .R.R.R.R.R.R.",
"R.R.R.R.R.U.R.b.R.R.R.R.R.R.Y.%.G H H K K K J p . o o r r r r r M `.`.'.).).`.`.).`.`.'.`.[.[.G.b.v.>.X.] s 1 o , } R.R.R.R.R.R.",
"R.b.R.R.b.v.8.R.R.R.R.R.R.b.i.L H K H H G K C < X o . 2 t t t r r P ].`.[.'.`.`.).`.`.`.).).C n 0 6 < X . X . 4 u l.W.R.R.R.R.R.",
"R.T.Y.Y.R.v.v.R.R.R.R.R.R.u.K K H H K K K P y X o o X < r t t r t P `.`.`.].`.[.].`.).).].j X X X : o < o o 2 r z R.R.R.R.R.R.R.",
"R.O.0.,.,.7.7.7.7.8.v.v.u.L H K K H H H H P r X O X o X < r r r D }.).`._.`.`.`._.`.`.'.].7 X O o o < o o 3 r r *.Q.R.R.R.R.R.R.",
"W.] 3 r t y y g g g h h n N H K K H H H H P C < X X X X . O r G ].`.`.`.`.`.`._.`.`.`.`.}.N X O o < : O o r u p v.E.R.R.R.R.R.R.",
"R.z.+ < 5 r r u u r r r r r D J H K H K H K P C r w 5 2 r M P {.`.`.`.'.`.`.].].`.`.]._.].P 3 o < o < X 5 t u c E.R.R.R.R.R.R.R.",
"R.W.[ . O < 5 r r t t i y r D P K J H H H H H H s.`.H.H.`.}.{.`._.}.`.{.`.`.`.{.`.`.`.].[.|.z X < O o < t r u @.T.b.R.R.R.R.R.R.",
"R.R.v.6 X o X O < 2 5 5 , , S F F F F F F F F F !./././././././././.~./.~././././././.!././.!.q   ; - 4 t e g b.R.R.R.R.R.R.R.R.",
"R.R.W.X.X < O X X X X O I O.V.V.V.V.V.V.V.V.V.V.D.D.D.D.D.D.I.D.D.D.D.I.I.I.D.D.D.I.D.I.D.I.D.V.Y X.Y l u r b R.E.R.R.R.E.E.R.R.",
"R.R.R.R.a . < < < < X @ j.Y U Y U U U U U U U U U U Y U U U U U U U U U U U U U U U U U U U U U Y U f.:.e t P D.Y.R.R.b.E.R.R.R.",
"R.R.R.E.o.X < o < O : @ T : ; ; ; : ; ; ; : ; ; ; ; ; : ; ; ; ; : ; ; ; ; ; ; ; ; ; ; ; ; ; ; ; . = 8 O.q M ].K.R.R.R.R.R.E.R.R.",
"R.R.R.R.R.a . < X < X 6 Q O < O < O < < O O < O < < < O O < < < O < O < O < < O O < @ < < < < < O > & l.V H.`.{.Z.R.R.R.R.R.R.R.",
"R.R.R.R.W.:.< < < X < v l.O < < < < < < < < < < < < < < < < < o < < < < < < < < < < > < < < < < > : & M./.{.`.^.G.Y.R.R.R.R.R.R.",
"R.R.R.R.R.W.d . X < N y.Q X : < < < < < < < < < < < < < < < < < < < < < < < < < < > < < < < < < O > & M.^.`.`.^.J.R.R.R.R.R.R.R.",
"R.R.R.R.R.R.A 7 5 C L y.Q < o < < < < < < > < < < < < < < < > < < < < < < < < < < < < < < > > < o : & M.~.`.).`.].0.U.Q.E.R.R.R.",
"R.R.R.R.R.C.L K P P K y.Q < < < < < < > < < < < < < < < < < < < < < < < < < < < < < < < < < < < o : & M.).`.).).].M @ ] l.W.W.R.",
"R.R.R.v.T.N.K H H K K y.Q < o < < < < < < < < < < < > < < < < < < < < < < < < < O < < O < < < < O : & m.~.`.).`.].C . . O s @.R.",
"R.R.R.R.T.i.K H K K K y.Q : < < < < < < < < < < < < < < < < < < < < < < < < < < < X 3 < < < < < < : & m.).[._.).}.K 1 2 5 w | R.",
"R.R.R.v. .Z H K H H K y.Q o < < < < < < < > > < < < < < < < < > < < < < < < < < < < < < < < < < < : & m.).`.`.`.].P p u g <.W.R.",
"R.R.| 7 w D J K H H K y.Q o o o < < < < < < < < < < < < < > < < < < < < < < < < < < < < < < < < < : & M.~.`.`.`.].).i x c.W.R.R.",
"R.R.>.s > C J H K G K y.Q o o < > < < < < < < < < < < < < < < < < < < < X 3 < < < < < < < < < < < : & m.'.`.`.`.{.).*.R.R.R.R.R.",
"R.R.R.W.{ G L K H H K y.Q o 3 o < < < < < < < < > < < < < < < < < < < < o < < < > < < < < < < < < : & M.~.`.).`.`.`.A.R.R.R.R.R.",
"R.R.v.v.v.y.K H K H K y.Q < > O o 3 < < > < < < < < > < < < < < < < o < < < < < < < < > < < < < < : & M.).`.`.`.`.`.Z.R.R.R.R.R.",
"R.R.R.8.8.y.K H H K K y.Q X < < o < < < < < < < < < < < < < < < 3 < < < < < < < < < < < < < < > < : & M.~._.`.).`.`.A.R.R.R.R.R.",
"R.R.R.R.b.y.K H H H K y.Q < < O < < < o < < < < < < < < < < < < o < < o < < < < < < > < < < < < O ; & M.).`.].`._.).v.R.R.R.R.R.",
"R.R.R.R.R.u.K K H K L y.Q X > O < < < < < < < < < < < < < < < < o < o 3 > < < < < < < < < < < < < : & M.~.`.`.`.).J.R.R.R.R.R.R.",
"R.R.R.R.T.F.F J H H L y.Q X < < < < < < < < < < < > < < < < < < < < o 3 < < < < < < < < < < < < O : & M.~.`.`.`.].d.2.3.R.R.R.R.",
"R.R.R.R.R.B.L K H K K y.Q O < < < < < > < < > < < < < < < < < < < < o < < < < < < < < < < < < < < : & M.'._.`.`.^.p.R W U.R.R.R.",
"R.R.R.R.T.v.H H H H K y.Q > > O < < < < < < < < < < < < < < < < < < < < o < < o < < < < < < < < < : & M.~.`.`.`.].0.E ~ R.R.R.R.",
"R.R.R.R.R.c C H K K K y.Q O < < < < < < < < < > < < < < < < < < < < < < < < o 3 > < < < < < < < < : & M.'.{.`.`.}.6.R W R.R.R.R.",
"R.v.R.E.*.e M G K H K y.Q X < O < < < < < < < < < < < < < < < < < < < < < < < < < > < < < < < < X > % M.L N p S K.x.3.4.R.R.R.b.",
"R.R.W.:.t r p H H K K y.Q O < < o < < < < < < < < < < < < < < < < < < > < < < < < < < < < < < < < : & l.3 7 r r n.Y.R.R.R.R.R.R.",
"R.R.z.y r r 2 N P H K y.Q < < < < < < < < < < < O O O O < < < < < < < < < O < O < < < O < < O < O > * Y : e t e  .W.R.R.R.R.R.R.",
"R.b.z r 2 O X w H H K A Q ; ; ; ; ; ; ; : ; ; ; ; ; ; ; : ; ; ; ; ; ; ; ; ; : ; ; ; ; : ; ; : ;     % Y . 5 t r g R.R.R.R.R.R.R.",
"T.} 3 : . : . . m H K A h.U U U U U U U U U Y U U U U U U U U U U U Y U U U U U U U U U U U U U Y { g.T . 2 u u t <.T.R.R.R.R.R.",
"R.>.o...] f s # 0 G H H N.D.V.V.V.V.V.V.V.V.V.V.V.V.V.V.V.V.V.V.D.S.V.V.V.V.D.I.I.D.I.D.I.D.D.D.O.U Y & : O 7 t u | R.b.R.R.R.R.",
"R.Y.W.W.R.8.8.R.b.F.K K F B m F K F F F F F F F F F F F F F F F F F F F F F !.!./././././././.F ;   ; > O X O u e z v.T.R.R.R.R.",
"R.R.R.R.R.8.8.R.R.b.a.K z X < 2 r G J H H H H H H H H H H H H H J J Z C Z Z G J `.`.`.`.`.`.}.j X < < > > O > 5 t u <.Y.R.R.R.R.",
"R.R.R.R.R.8.v.R.R.R.A.H 5 X o o X 3 p H H K H K H H K H G L H L N 5 2 : r t p C P _.`.`.'.`.[.r . > O < < > O < r e } Q.R.R.R.R.",
"R.R.R.R.R.R.R.R.R.R.R.B.3 o o o < o X r G H H H K H K H H G G r X X . 2 r r r r C P s.`.`.].[.H 9 1 > . . X X O < r y v.R.R.R.R.",
"R.R.R.R.R.R.R.R.R.R.R.8.O > o < o o o X 7 G P K H K H H H G r . o o o 2 t r r r N G K P ).`.].{.].P %.{ f 6 X X . > w #.T.R.R.R.",
"R.R.R.R.R.R.R.R.R.R.R.:.< X o o < o : o X t P K H H H K P C o o O : : 2 r r t r C G H K G P P '.^.P.W.W.R.R.>.{ f $ 1 l E.b.R.R.",
"R.R.R.R.R.R.R.R.R.R.W.X.X : < O o o 2 7 r r C H K H H H H C o o o o X 2 r t r p K G K H H G G H V.R.b.R.R.R.T.W.T.Y.h.f.b.R.R.R.",
"R.R.R.R.R.R.R.R.R.R.Q.{ X < < X 3 r r t t r N K H K K G H G t X X < X 5 t r r N H H K H K K y.C.T.b.R.R.R.R.R.R.b.b.T.Y.R.R.R.Y.",
"R.R.R.R.R.R.R.R.R.R.W.] : < o 2 r t u e r j G G K H H H L H K p X X X 2 t r p K H H H P G v b.R.R.R.R.R.R.E.R.R.E.R.R.Y.R.R.b.R.",
"R.R.R.R.E.R.R.E.R.R.W.s X < 5 r u r r x Z K L H H H K H K H H G N 2 . 3 r t D P G H K M 4 % R.R.R.R.R.R.R.R.b.R.R.R.R.R.R.R.R.R.",
"R.E.R.R.R.R.R.R.b.R.T.a . 5 r u p c <.R.A.0.y.H K K K J K K H K P G r X 5 M K K G N 9 X . s R.Y.R.R.R.R.R.R.R.Y.b.R.R.R.R.R.R.R.",
"R.R.R.E.R.R.R.R.R.R.v.@ 3 u y } C.R.W.R.R.R.R.Z.k.u.H K J K K K G K L N r t.k.&.u r r < . f W.R.U.R.R.R.R.x.v.8.8.x.R.R.R.R.R.R.",
"R.R.E.R.R.R.R.R.R.R.z.2 y | c.R.R.R.R.R.R.R.R.R.Y.T.*.r 9 &.N.N.=.N.m.Z.b.R.T.Y.@.y u 7 . k Q.R.R.R.R.R.R.8.6.6.6.8.Y.R.R.R.R.R.",
"R.R.R.R.R.R.R.E.R.Y.z.+.v.W.R.R.R.R.R.R.R.R.R.R.R.Y.c.7 % T.W.R.T.E.R.T.R.R.b.R.W.c.x r > ] Q.R.R.R.R.R.R.8.8.8.x.8.w.1.R.R.R.R.",
"R.R.R.R.R.R.R.R.R.R.R.R.R.R.R.R.R.R.R.R.R.R.R.R.R.R.R.[ 1.W.R.R.R.R.R.R.R.R.R.R.R.R.R.*.4 { T.b.R.R.R.R.R.x.8.v.Y.C.r.=.U.R.R.R.",
"R.R.R.R.R.R.R.R.R.R.R.R.R.R.R.R.R.R.R.R.R.R.R.R.R.R.R.R.R.R.R.R.R.R.R.R.R.R.R.R.R.R.R.W.<.>.W.R.R.R.R.R.R.x.v.x.R.v.q.w.R.R.R.R.",
"R.R.W.R.R.R.R.R.E.R.b.R.R.R.R.R.R.R.R.R.R.E.R.R.R.R.R.R.R.R.R.R.R.R.R.R.R.R.R.R.R.R.R.R.R.R.R.R.R.R.R.R.R.R.Y.b.b.Y.R.R.R.b.R.R.",
"R.R.R.R.R.R.R.5.4.R.R.R.R.R.R.R.R.R.R.R.R.R.R.R.R.R.R.R.R.R.R.R.R.R.E.R.R.R.R.R.E.R.R.R.R.R.R.R.R.R.R.R.b.R.R.R.R.R.R.R.R.R.R.R."
};
