/* XPM */
static char *_5af5d0c60e54a62e5128ceea3addd0dndiWgBYQ3QGhhoSx[] = {
/* columns rows colors chars-per-pixel */
"64 64 134 2 ",
"   c #55B33B",
".  c #54B13E",
"X  c #57B43C",
"o  c #58B53A",
"O  c #5EB63D",
"+  c #61B936",
"@  c #6ABD33",
"#  c #6DBE32",
"$  c #6BBE37",
"%  c #6FBE37",
"&  c #62B73F",
"*  c #63B73F",
"=  c #76BF3C",
"-  c #6DC135",
";  c #76C430",
":  c #7AC434",
">  c #79C03D",
",  c #4F9C55",
"<  c #4D935F",
"1  c #4E9958",
"2  c #53975D",
"3  c #53985D",
"4  c #569A5C",
"5  c #5C9E5A",
"6  c #609D5C",
"7  c #619E5C",
"8  c #53AC43",
"9  c #52A847",
"0  c #5DAC45",
"q  c #55A44E",
"w  c #5CA948",
"e  c #60B145",
"r  c #6AB447",
"t  c #6CB547",
"y  c #66B840",
"u  c #67B840",
"i  c #6AB941",
"p  c #6CB943",
"a  c #6DBA42",
"s  c #6FBB42",
"d  c #69B348",
"f  c #70BB42",
"g  c #72BC43",
"h  c #74BC44",
"j  c #75BC44",
"k  c #76BD44",
"l  c #79BE45",
"z  c #7DBF46",
"x  c #7BB74F",
"c  c #78BB48",
"v  c #7BB94A",
"b  c #7DBC49",
"n  c #7EBA4C",
"m  c #66A756",
"M  c #67A756",
"N  c #6CAD51",
"B  c #6BAA55",
"V  c #69A856",
"C  c #6FAD54",
"Z  c #60A258",
"A  c #67A25A",
"S  c #72AF53",
"D  c #74AD57",
"F  c #7FAD57",
"G  c #76A25C",
"H  c #7AA958",
"J  c #7EAF5B",
"K  c #7BAB5E",
"L  c #71B051",
"P  c #76B351",
"I  c #77B451",
"U  c #7AB650",
"Y  c #7BB157",
"T  c #7FB154",
"R  c #7EB850",
"E  c #7EB05A",
"W  c #569760",
"Q  c #579662",
"!  c #5D9863",
"~  c #6E9663",
"^  c #729E69",
"/  c #6EA163",
"(  c #76A464",
")  c #78A762",
"_  c #79A960",
"`  c #7CC042",
"'  c #98CF3F",
"]  c #9ED536",
"[  c #9ED53B",
"{  c #A4DD2C",
"}  c #A9DF2A",
"|  c #A1D832",
" . c #A9DF32",
".. c #A9E226",
"X. c #AFE524",
"o. c #B8ED26",
"O. c #80BC4A",
"+. c #83BE4B",
"@. c #84BE4A",
"#. c #84BF4A",
"$. c #81BB4D",
"%. c #85B94F",
"&. c #82BC4D",
"*. c #85BE4C",
"=. c #87BD4F",
"-. c #89BF4C",
";. c #89BF4D",
":. c #88BD4E",
">. c #80AE56",
",. c #80AF56",
"<. c #84B652",
"1. c #81B154",
"2. c #83B754",
"3. c #82B655",
"4. c #86B950",
"5. c #80B258",
"6. c #81C143",
"7. c #81C047",
"8. c #85C246",
"9. c #8FC746",
"0. c #83C148",
"q. c #87C249",
"w. c #88C248",
"e. c #88C04B",
"r. c #8AC34A",
"t. c #8BC34A",
"y. c #8CC449",
"u. c #8CC44A",
"i. c #89C04C",
"p. c #93CB43",
"a. c #94CB42",
"s. c #94CC42",
"d. c #95CC42",
"f. c #91C945",
/* pixels */
"t.t.t.t.t.t.t.t.t.t.t.t.t.t.t.t.t.=.E Y C S =.%.f f <.%.t.t.t.t.t.t.t.t.t.t.t.t.t.t.t.t.t.= = t.t.t.t.t.t.t.t.t.t.t.t.t.t.t.t.t.",
"t.t.t.t.t.t.t.t.t.t.t.t.t.t.t.t.t.t.t.t.t.t.t.t.t.t.u.u.t.t.t.t.t.t.t.t.t.t.t.t.t.t.t.t.t.@ @ q.t.t.t.t.t.t.t.t.t.t.t.t.t.t.t.t.",
"t.t.t.t.t.t.t.t.t.t.t.t.t.t.t.t.t.t.t.t.t.t.t.t.t.t.u.u.t.t.t.t.t.t.t.t.t.t.t.t.t.t.t.t.t.+ + 8.t.t.t.t.t.t.t.t.t.t.t.t.t.t.t.t.",
"t.t.t.t.t.t.t.t.t.t.t.t.t.t.t.t.t.t.t.t.t.t.t.t.t.t.t.u.t.t.t.t.t.t.t.t.t.t.t.t.t.t.t.t.t.    q.t.t.t.t.t.t.t.t.t.t.t.t.t.t.t.t.",
"t.t.t.t.t.t.t.t.t.t.t.t.t.t.t.t.t.t.t.t.t.t.t.t.t.t.t.t.t.t.t.t.t.t.t.t.t.t.t.t.t.t.t.t.t.9 9 t.t.z l q.t.t.t.t.t.t.t.t.t.t.t.t.",
"t.t.t.t.t.t.t.t.t.t.t.t.t.t.t.t.t.t.t.t.t.t.t.t.t.t.t.t.t.t.t.t.t.t.t.t.t.t.t.t.t.t.t.t.t.< < $.t.&   l t.t.t.t.t.t.t.t.t.t.t.t.",
"t.t.t.t.t.t.t.t.t.t.t.t.t.t.t.t.t.t.t.t.t.t.t.t.t.t.t.t.t.t.t.t.t.t.t.t.t.t.t.t.t.t.t.t.t.< < @.t.e 8 c t.t.t.t.t.t.t.t.t.t.t.t.",
"t.t.t.t.t.t.t.t.t.t.t.t.t.t.t.t.t.t.t.t.t.t.t.t.t.t.t.t.t.t.t.t.t.t.t.t.t.t.t.t.t.t.t.t.t.< < &.t.5 < P t.t.t.t.t.t.t.t.t.t.t.t.",
"t.t.t.t.t.t.r.r.t.t.t.t.t.t.t.u.u.u.u.9.t.t.t.t.t.t.t.t.t.t.t.t.t.t.t.t.t.t.t.t.t.t.t.t.t.2 2 =.u.q 2 P t.t.t.t.t.t.t.t.t.t.t.t.",
"t.t.t.t.t.t.u.r.t.t.t.t.t.t.t.f.' ' ' a.t.t.t.t.t.t.t.t.t.t.t.t.t.t.t.t.t.t.t.t.t.t.t.t.t.t.t.t.u.t.u.t.t.t.t.t.t.t.t.t.t.t.t.t.",
"t.t.t.t.t.t.t.t.t.t.t.t.t.t.t.f.' ' ' p.t.t.t.t.t.t.t.t.t.t.t.t.t.t.t.t.t.t.t.t.t.t.t.t.t.t.t.t.u.u.t.t.t.t.t.t.t.t.t.t.t.t.t.t.",
"t.t.t.t.t.$.n t.t.t.t.t.t.t.t.t.t.t.t.t.t.t.t.t.t.t.t.t.t.t.t.t.t.t.t.t.t.t.t.t.t.t.t.t.t.t.t.t.-.u.t.t.t.t.t.t.t.t.t.t.t.t.t.t.",
"t.t.t.t.t.$.$.t.t.t.t.t.t.t.t.t.t.t.t.t.t.t.t.t.t.t.t.t.t.t.t.t.t.t.t.t.t.t.t.t.t.t.t.t.t.t.t.t.u.u.-.u.t.t.t.t.t.t.t.t.t.t.t.t.",
"t.t.t.&.$.t.t.$.$.$.$.t.t.t.t.t.t.t.t.t.t.t.t.t.t.t.t.t.t.t.t.t.t.t.t.t.t.t.t.t.t.t.t.t.t.t.t.t.u.u.u.u.t.t.t.t.t.t.t.t.t.t.t.t.",
"t.t.t.$.&.t.t.$.$.$.n i.t.t.t.t.t.t.t.t.t.t.t.t.t.t.t.t.t.t.t.t.t.t.t.t.t.t.t.t.t.t.t.t.t.t.t.t.9.u.u.-.t.t.t.t.t.t.t.t.t.t.t.t.",
"t.t.t.t.i.t.t.i.t.i.t.t.t.t.t.t.t.t.t.t.t.t.t.t.t.t.t.t.t.t.t.t.t.t.t.t.t.t.t.t.t.t.t.t.t.t.t.t.*.-.u.u.t.t.t.t.t.t.t.t.t.t.t.t.",
"t.t.t.t.t.t.t.t.t.t.t.t.t.t.t.t.t.t.t.t.t.t.t.t.t.t.t.t.t.t.t.t.t.t.t.t.t.t.t.t.t.t.t.t.t.t.t.t.u.u.9.-.t.t.t.t.t.t.t.t.t.t.t.t.",
"t.t.t.t.t.t.t.t.t.t.t.t.t.t.t.t.t.t.t.t.t.t.t.t.t.t.t.t.t.t.t.t.t.t.t.t.t.t.t.t.t.t.t.t.t.t.t.t.u.-.t.t.t.t.t.t.t.t.t.t.t.t.t.t.",
"t.t.t.t.t.t.t.t.t.t.t.t.t.t.t.t.t.t.t.t.t.t.t.t.t.t.t.t.t.t.t.t.t.t.t.t.t.t.t.t.t.t.t.t.t.t.t.t.t.t.t.t.t.t.t.t.t.t.t.t.t.t.t.t.",
"t.t.t.t.t.t.t.t.t.t.t.t.t.t.t.t.t.t.t.t.t.t.t.t.t.t.t.t.t.t.t.t.t.t.t.t.t.t.t.t.t.t.t.t.t.t.t.t.t.t.t.t.t.t.t.t.t.t.t.t.t.t.t.t.",
"t.t.t.t.t.t.t.t.t.t.t.t.t.t.t.t.t.t.t.t.t.t.t.t.t.t.t.t.t.t.t.t.t.t.t.t.t.t.t.t.t.t.t.t.t.t.t.t.t.t.t.t.t.t.t.t.t.t.t.t.t.t.t.t.",
"t.t.t.t.t.t.t.t.t.t.t.t.t.t.t.t.t.t.t.t.t.t.t.t.t.t.t.t.t.t.t.t.t.t.t.t.t.t.t.t.t.t.t.t.t.t.t.t.t.t.t.t.t.t.t.t.t.t.t.t.t.t.t.t.",
"t.t.t.t.t.t.t.t.t.t.t.t.t.t.t.t.t.t.t.t.t.t.t.t.t.t.t.t.t.t.t.t.t.t.t.t.t.t.t.t.t.t.t.t.t.t.t.t.t.t.t.t.t.t.t.t.t.t.t.t.t.t.t.t.",
"t.t.t.t.t.t.t.t.t.t.t.t.t.t.t.t.t.t.t.t.t.t.t.t.t.t.t.t.t.t.t.t.t.t.t.t.t.t.t.t.t.t.t.9.9.t.t.t.t.t.t.t.t.t.t.t.t.t.t.t.t.t.t.t.",
"t.t.t.t.t.t.t.t.t.t.t.t.t.t.t.t.t.t.t.t.t.t.t.t.t.t.t.t.t.t.t.t.t.t.t.t.t.u.r.u.t.t.t.' ' t.t.t.t.t.t.t.t.t.t.t.t.t.t.t.t.t.t.t.",
"t.t.t.t.t.t.t.t.t.t.t.t.t.t.t.t.t.t.t.t.t.t.t.t.t.t.t.t.t.t.t.t.t.t.t.t.q.@.t.t.t.t.u.a.a.t.t.t.t.t.t.t.t.t.t.t.t.t.t.t.t.t.t.t.",
"t.t.t.t.t.t.t.t.t.t.t.t.t.t.t.t.t.t.t.t.t.t.t.t.t.t.t.t.t.t.t.t.t.t.t.t.@.v n t.t.t.t.t.t.t.t.t.t.t.t.t.t.t.t.t.t.t.t.t.t.t.t.t.",
"t.t.t.t.t.t.t.t.t.t.t.t.t.q.0.q.t.t.t.t.t.t.t.t.t.t.t.t.t.t.t.t.t.t.t.t.@.v n t.t.t.t.t.t.t.t.t.t.t.t.t.t.t.t.t.t.t.t.t.t.t.t.t.",
"t.t.t.t.t.t.t.t.t.t.t.t.t.u   s t.t.t.t.t.t.t.t.t.t.t.t.t.t.t.t.u.u.@.$.O.$.$.$.*.i.u.t.t.t.t.t.t.t.t.t.t.t.t.t.t.t.t.t.t.t.t.t.",
"t.t.t.t.t.t.t.t.t.t.t.t.t.i o s t.t.t.t.t.t.t.t.t.t.t.t.t.t.t.t.t.u.*.$.$.$.$.$.$.t.u.t.t.t.t.t.t.t.t.9.u.u.t.t.t.t.t.t.t.t.t.t.",
"t.t.t.t.t.t.t.t.t.t.t.t.t.| X.] t.t.t.t.t.t.t.t.t.t.t.t.t.t.t.t.t.t.t.t.t.t.t.t.t.t.t.t.t.t.t.t.t.t.t. .o.[ t.t.t.t.t.t.t.t.t.t.",
"t.t.t.t.t.t.t.t.t.t.t.t.t.| X.] t.t.t.t.t.t.t.t.t.t.t.t.t.t.t.t.t.t.t.t.t.t.t.t.t.t.t.t.t.t.t.t.t.t.t. .o.[ t.t.t.t.t.t.t.t.t.t.",
"t.t.t.$.n t.t.t.t.t.t.t.r.= # + . i u.*.F F J >.t.t.t.t.t.t.t.t.t.t.t.t.t.t.t.t.t.t.t.t.t.t.t.t.t.t.t. .o.[ r.h X i u.t.t.t.t.t.",
"t.t.t.$.O.t.t.t.t.t.t.t.y.> @ +   i t.-.F F >.F t.t.t.t.t.t.t.t.t.t.t.t.t.t.t.t.t.t.t.t.t.t.t.t.t.t.t. .o.[ r.h   u r.u.t.t.t.t.",
"t.t.t.t.i.t.t.t.t.t.t.t.r.> @ 0 1 Z >.1.F >.-.-.t.t.t.t.t.t.t.t.t.t.t.t.t.t.t.t.t.t.t.t.t.t.t.t.t.t.t.9.p.L 4 C ` i.r.r.t.t.t.t.",
"t.t.t.t.t.t.t.t.t.t.t.t.t.= @ w < 6 F F >.1.t.t.t.t.t.t.t.t.t.t.t.t.t.t.t.t.t.t.t.t.t.t.t.t.t.t.t.t.t.t.t.m < B t.u.r.u.t.t.t.t.",
"t.t.t.t.t.t.t.t.t.t.t.t.t.8.6.n x x -.%.*.-.u.t.t.t.t.t.t.t.t.t.t.t.t.t.t.t.t.t.t.t.t.t.t.t.t.t.t.J K 4.t.d 9 t r.b y f t.t.t.t.",
"t.t.t.t.t.t.t.t.t.t.t.t.t.t.t.t.u.t.u.u.t.t.u.t.t.t.t.t.t.t.t.t.t.t.t.t.t.t.t.t.t.t.t.t.t.t.t.t.t.) ^ 3.t.s   i r.k   O t.t.t.t.",
"t.t.t.t.t.t.t.t.t.t.t.t.t.t.t.t.-.y.t.u.t.t.t.t.t.t.t.t.t.t.t.t.t.t.t.t.t.t.t.t.t.t.t.t.t.t.t.t.t.4.3.E K A 1 d u.`   y t.t.t.t.",
"t.t.t.t.t.t.t.t.t.t.t.t.t.t.t.t.9.u.-.u.t.t.t.t.t.t.t.t.t.t.t.t.t.t.t.t.t.t.t.t.t.t.t.t.t.t.t.t.t.t.i._ / ! < B t.k   y t.t.t.t.",
"t.t.t.t.t.t.t.t.t.t.t.t.t.t.t.t.t.-.t.t.t.t.t.t.u.t.t.t.t.t.t.t.t.t.t.t.t.t.t.t.t.t.t.t.t.t.t.t.u.r.t.<.E D B U t.*.s k t.t.t.t.",
"t.t.t.t.t.t.t.t.t.t.t.t.t.t.t.t.u.t.t.t.t.t.t.t.r.u.t.t.t.t.t.t.t.t.t.t.u.u.t.t.t.t.t.t.t.t.t.t.t.r.t.t.t.t.u.t.r.r.t.t.t.t.t.t.",
"t.t.t.t.t.t.t.t.t.t.t.t.t.t.t.t.t.t.t.t.t.t.t.t.u.r.h h q.r.u.t.t.t.t.t.@.k z t.t.t.t.t.t.t.t.t.t.t.t.t.t.t.t.t.u.t.t.t.t.t.t.t.",
"t.t.t.t.t.t.t.t.t.t.t.t.t.t.t.t.t.t.t.t.t.t.t.t.r.r.X X &.u.t.t.t.t.t.t.k   * t.t.t.t.t.t.t.t.t.t.t.t.t.t.t.t.t.r.u.t.t.t.t.t.t.",
"t.t.t.t.t.*.t.t.t.t.t.t.t.t.t.t.t.t.t.t.t.t.t.t.t.t.u i ` 6.r.t.t.t.n P d   u u.t.<.-.t.t.t.t.t.t.t.t.t.t.t.t.t.t.t.t.t.t.t.t.t.",
"t.t.t.t.t.n n t.t.t.t.t.t.t.t.t.t.t.t.t.t.t.t.t.t.t.u.i.- - ` t.t.t.B < q   u u.-.>.>.u.t.t.t.t.t.t.t.t.t.t.t.t.t.t.t.t.t.t.t.t.",
"t.t.t.t.t.$.$.t.t.t.t.t.t.t.t.t.t.t.t.t.t.t.t.t.t.t.t.u.: ; ` ` t.t.C 1 q O t *.*.>.1.u.t.t.t.t.t.t.t.t.t.t.t.t.t.t.t.t.t.t.t.t.",
"t.t.t.t.t.$.n t.t.t.t.t.t.t.t.t.t.t.t.t.t.t.t.t.t.t.t.i...X.-   k t.s   i t.*.>.1.u.u.t.t.t.t.t.t.t.t.t.t.t.t.t.t.t.t.t.t.t.t.t.",
"t.t.t.t.t.$.*.u.t.t.t.t.t.t.t.t.t.t.t.t.t.t.t.t.t.t.t.t.....$ 8 n u.f . i i.4.F T t.t.t.t.t.t.t.t.t.t.t.t.t.t.t.t.t.t.t.t.t.t.t.",
"t.t.t.t.t.t.i.u.t.t.t.t.t.t.t.t.t.t.t.t.t.t.t.t.t.t.t.t.O   , < P u.m < m u.*.>.1.t.t.t.t.t.t.t.t.t.t.t.t.t.t.t.t.t.t.t.t.t.t.t.",
"t.t.t.t.t.t.t.t.t.t.t.t.t.t.t.t.t.t.t.t.t.t.t.t.t.t.t.t.O   , < P t.B < m u.*.>.1.t.t.t.t.t.t.t.t.t.t.t.t.t.t.t.t.t.t.t.t.t.t.t.",
"t.t.t.t.t.t.t.t.t.t.t.t.t.t.t.t.t.t.t.t.t.t.t.t.t.t.t.t.O   , < L t.B < 7 >.1.t.t.t.t.t.t.t.t.t.t.t.t.t.t.t.t.t.t.9.' d.t.t.t.t.",
"t.t.t.t.t.t.t.t.t.t.t.t.t.t.t.t.t.t.t.t.t.t.t.t.t.t.t.t.O   4 < P t.B < 7 F <.t.t.t.t.t.t.t.t.t.t.t.t.t.t.t.t.t.t.9.' d.t.t.t.t.",
"t.t.t.t.t.t.t.t.t.t.t.t.t.t.t.t.t.t.t.t.t.t.t.t.t.t.t.t.G ^ Q < 2 4 A H T -.t.t.t.t.t.t.t.t.t.t.t.t.t.t.t.t.t.t.t.t.9.u.t.t.t.t.",
"t.t.t.t.t.t.t.t.t.t.t.t.t.t.t.t.t.t.t.t.t.t.t.t.t.t.t.t.( / Q < < < 6 T <.t.t.t.t.t.t.t.t.t.t.t.t.t.t.t.t.t.t.t.t.t.t.t.t.t.t.t.",
"t.t.t.t.t.t.t.t.t.t.t.t.t.t.t.t.t.t.t.t.t.t.t.t.t.t.t.t.n 4.R U x U $.-.-.t.t.t.t.t.t.t.t.t.t.t.t.t.t.t.t.t.t.t.t.t.t.t.t.t.t.t.",
"t.t.t.t.t.t.t.t.t.t.t.t.t.t.t.t.t.t.t.t.t.t.t.t.t.t.t.t.t.t.t.t.u.u.t.u.-.t.t.t.t.t.t.t.t.t.t.t.t.t.t.t.t.t.r.r.t.t.t.t.t.t.t.t.",
"t.t.t.t.t.t.t.t.t.t.t.t.t.t.t.t.t.t.t.t.t.t.t.t.t.t.t.t.t.t.t.t.u.u.t.r.u.9.t.t.t.t.t.t.t.t.t.t.t.t.t.t.t.q.O.n b O.t.t.t.t.t.t.",
"t.t.t.t.t.t.t.t.t.t.t.t.t.t.t.t.t.t.t.t.t.t.t.t.t.t.t.t.t.t.t.t.-.-.9.t.t.t.t.t.t.t.t.t.t.t.t.t.t.t.t.t.t.O.n v n &.t.t.t.t.t.t.",
"t.t.t.t.t.t.t.t.t.t.t.t.t.t.t.t.t.t.t.t.t.t.t.t.t.t.t.t.t.t.t.t.y.y.t.-.t.t.t.t.t.t.t.t.t.t.t.t.t.t.t.u.r.*.n &.q.n H 1.t.t.t.t.",
"t.t.t.t.t.t.t.t.t.t.t.t.t.t.t.t.t.t.t.t.t.t.t.t.t.t.t.t.t.t.t.t.t.t.t.t.t.t.t.t.t.t.t.t.t.t.t.t.t.t.t.t.t.$.$.O.t.1.~ G t.t.t.t.",
"t.t.t.t.t.t.t.t.t.t.t.t.t.t.t.t.t.t.t.t.t.t.t.t.t.t.t.t.t.t.t.t.t.t.t.t.t.t.t.t.t.t.t.t.t.t.t.t.t.t.t.t.u.8.-.q.t.=.H F t.t.t.t.",
"t.t.t.t.t.t.t.t.t.t.t.t.t.t.t.t.t.t.t.t.t.t.t.t.t.t.t.t.t.t.t.t.t.t.t.t.t.t.t.t.t.t.t.t.t.t.t.t.t.t.t.t.t.t.t.t.t.t.t.t.t.t.t.t.",
"t.t.t.t.t.t.t.l l q.t.t.t.t.t.t.t.t.t.t.t.t.t.t.t.t.t.t.t.t.t.t.t.t.t.t.t.t.t.t.t.t.t.t.t.t.t.t.t.t.t.t.t.t.t.t.t.t.t.t.t.t.t.t."
};
