/* XPM */
static char *_ad7db175c66452fdba6aa8c6b2837cbCerzQ8G98l0F1Iop[] = {
/* columns rows colors chars-per-pixel */
"64 64 160 2 ",
"   c #3A363E",
".  c #3D3D3E",
"X  c #3F403E",
"o  c #40413F",
"O  c #4C573F",
"+  c #4D5A3F",
"@  c #515E3F",
"#  c #54663F",
"$  c #3F3D41",
"%  c #413E42",
"&  c #433D4A",
"*  c #424242",
"=  c #474C41",
"-  c #494C45",
";  c #454149",
":  c #49474A",
">  c #4B4B4B",
",  c #4B5342",
"<  c #515F41",
"1  c #50514F",
"2  c #555D4C",
"3  c #4E4B53",
"4  c #514F54",
"5  c #545455",
"6  c #575856",
"7  c #595C55",
"8  c #555358",
"9  c #5A575D",
"0  c #5B5B5B",
"q  c #546442",
"w  c #576942",
"e  c #5B6E44",
"r  c #5D7344",
"t  c #5C6354",
"y  c #5F6B52",
"u  c #5F605E",
"i  c #627C43",
"p  c #64774B",
"a  c #616C54",
"s  c #647452",
"d  c #687C51",
"f  c #68705E",
"g  c #6A785B",
"h  c #5F5C62",
"j  c #615F64",
"k  c #646464",
"l  c #6A666E",
"z  c #6C6C6C",
"x  c #71756C",
"c  c #747C6A",
"v  c #6D6A70",
"b  c #706F70",
"n  c #767676",
"m  c #777876",
"M  c #787976",
"N  c #767379",
"B  c #787779",
"V  c #7A7A7A",
"C  c #4DB136",
"Z  c #51B337",
"A  c #5FB736",
"S  c #5FB53D",
"D  c #5BBA39",
"F  c #6ABC32",
"G  c #61B63D",
"H  c #65BA38",
"J  c #79BF3D",
"K  c #488D5F",
"L  c #4B905D",
"P  c #549B5B",
"I  c #5D9C5B",
"U  c #668345",
"Y  c #698744",
"T  c #6B8D45",
"R  c #6A834D",
"E  c #6D8C4A",
"W  c #718F4E",
"Q  c #6E9146",
"!  c #709445",
"~  c #739A46",
"^  c #73944D",
"/  c #769D4A",
"(  c #789D4E",
")  c #6B8350",
"_  c #708D50",
"`  c #758D59",
"'  c #749153",
"]  c #719C5D",
"[  c #4EA645",
"{  c #59AE45",
"}  c #79A547",
"|  c #7DAB47",
" . c #76A14D",
".. c #7BA64C",
"X. c #7DAA4A",
"o. c #61B045",
"O. c #74BB43",
"+. c #7ABD45",
"@. c #76B54B",
"#. c #7EB44C",
"$. c #7EBA4B",
"%. c #66A754",
"&. c #7BA357",
"*. c #70AD52",
"=. c #7AAD55",
"-. c #76A45A",
";. c #7EAF59",
":. c #438A61",
">. c #498D60",
",. c #668B67",
"<. c #758266",
"1. c #7A866D",
"2. c #7D8E69",
"3. c #7D9264",
"4. c #7C9964",
"5. c #7A8271",
"6. c #8ABA3C",
"7. c #819E5E",
"8. c #81AF4B",
"9. c #82B547",
"0. c #84BE46",
"q. c #83B54B",
"w. c #84BC4B",
"e. c #89BD4B",
"r. c #80A357",
"t. c #82A955",
"y. c #82A35E",
"u. c #83A859",
"i. c #85B252",
"p. c #88B555",
"a. c #8ABA51",
"s. c #8AB15B",
"d. c #829F61",
"f. c #859A6D",
"g. c #80817F",
"h. c #848B7C",
"j. c #869475",
"k. c #899D70",
"l. c #86A168",
"z. c #88A369",
"x. c #83C046",
"c. c #8BC547",
"v. c #8DC846",
"b. c #8BC34A",
"n. c #8DC549",
"m. c #8EC94A",
"M. c #90CC4A",
"N. c #817E83",
"B. c #837E88",
"V. c #838283",
"C. c #838483",
"Z. c #848483",
"A. c #838285",
"S. c #838186",
"D. c #848484",
"F. c #858585",
"G. c #868686",
"H. c #888887",
"J. c #878589",
"K. c #888888",
/* pixels */
"b.b.b.b.b.b.b.m.b.b.b.b.b.b.b.b.b.w.;.=.%.*.q.q.O.O.q.i.e.b.b.b.b.b.b.b.b.b.b.b.b.b.b.b.b.J J x.v.b.b.b.b.b.b.b.b.b.n.b.b.b.b.b.",
"b.b.n.b.b.b.b.b.b.b.b.m.b.b.b.b.b.b.b.c.b.v.c.b.b.b.b.b.b.b.b.b.b.b.b.b.b.b.b.b.b.b.b.b.b.F F x.b.b.b.b.b.b.b.b.b.b.n.n.n.b.b.n.",
"b.n.n.b.b.b.m.b.b.b.b.b.b.b.b.b.b.b.b.b.b.b.b.b.b.b.b.b.b.b.b.b.b.b.b.b.b.b.b.b.b.b.m.9.#.H A x.e.c.b.b.b.b.b.b.b.b.b.b.b.b.b.b.",
"b.b.b.b.b.b.m.b.b.b.b.b.b.b.b.b.b.b.b.b.b.b.b.b.b.b.b.b.b.b.b.b.b.b.b.b.b.b.b.b.m.b.T , } D Z +.b.b.c.e.b.b.b.b.b.b.b.b.b.b.b.b.",
"b.b.b.b.b.b.b.b.b.b.b.b.b.b.b.u.e.b.b.b.b.b.b.b.b.x.v.b.b.b.b.b.b.e.b.b.b.b.b.m.} < $ 1 ..{ [ w.n.+.J 0.b.b.b.b.b.b.b.b.b.b.b.b.",
"b.n.b.b.b.b.b.b.b.b.b.b.b.b.m.y t 8.v.b.b.b.b.b.e.p.7.f.j.h.h.h.h.h.j.f.l.s.w.r .   : 6 ..P >.$.n.G C +.b.b.b.b.b.b.b.b.b.b.m.b.",
"b.b.b.b.b.b.b.b.b.b.b.b.b.b.m.r & 5 ) 9.c.e.r.3.5.z 3 l N.F.A.A.A.A.A.B.B.D.5.v h > 1 5 ..P L $.n.o.C #.b.b.e.b.b.b.b.b.b.b.b.m.",
"b.b.b.b.b.b.b.b.b.b.e.b.b.b.m.r . 4 4 t 3.5.n n n > : 6 0 V F.D.D.D.F.F.F.F.J.J.J.5.b u ..P K #.n.I :.=.v.b.b.b.b.b.b.b.b.b.b.b.",
"b.b.b.b.b.b.b.b.b.b.b.b.b.e.v.i   ; k n n b m M a . ; 6 5 6 z F.D.V.D.D.V.Z.C.V.D.F.F.D.f.I P $.b.%.L #.b.b.b.m.M.m.b.b.b.b.b.b.",
"b.b.b.b.b.b.b.b.b.b.b.b.b.b.M.# : z M M B B M m ; . * 5 5 5 6 k V.D.D.D.F.C.V.C.V.C.V.F.A.h.y.b.c.b.b.m.m.m.w.} E _ b.b.b.b.b.b.",
"b.b.b.b.x.b.b.b.b.b.b.b.b.b.v.` b V m m N N V 0   X . 4 6 5 6 4 k A.D.C.F.D.F.V.V.C.F.V.C.F.J.k.e.w.| ~ U w = X & ) b.b.b.b.b.b.",
"b.e.b.b.e.$.w.w.b.b.b.b.b.e.3.V m n n N N M z o . X . : 6 5 5 6 6 V F.V.D.D.F.D.F.C.F.D.Z.C.z 0 q , * .     . : 8 X.m.b.b.b.n.b.",
"b.v.v.b.b.w.w.b.b.b.e.b.b.2.N N N M m m n V 5 . X X . X 1 6 6 5 6 V F.C.F.F.F.D.F.F.F.V.F.k   X $ $ . % o X : 5 a b.b.b.b.b.b.b.",
"b./  . ...8.#.#.#.$.w.w.2.B M N N M m m n V 5 . % X X . * 5 5 5 b J.V.C.D.D.D.F.F.C.V.C.F.> . * $ % % X % * 5 5 ' m.b.b.b.b.n.b.",
"m.U ; 6 6 7 7 7 t t y y 0 z m N n n M N n V z * . . . . . X 6 N D.F.V.F.F.F.D.D.D.D.V.V.K.k . * % X X X % 5 8 0 w.n.b.b.b.b.b.b.",
"b.9.= * > 5 6 5 5 5 5 5 5 5 b M n n n n M N B z 6 > > > 5 k V F.C.C.F.V.D.D.F.D.F.D.F.V.F.V : . X X % X > 6 5 d n.b.b.b.b.b.b.b.",
"b.M.Y   o * > 5 6 5 5 6 5 5 z n n n B n n n n n V.V.V V.F.K.F.C.V.F.V.V.D.F.D.F.C.F.V.V.A.J.k . * X X * 5 0 5 ( b.b.b.b.b.b.b.b.",
"b.b.w., . X . X * : > > > > n n n M n M n n n n V C.F.F.C.D.V.F.C.V.F.F.D.C.F.D.F.F.F.F.A.J.5.> . % X > 5 5 t w.b.b.b.b.b.b.b.b.",
"b.b.m.! . % % X X X X X . 5 V n n n n n n n n M V.F.C.V.C.V.F.V.V.F.D.D.F.D.F.D.F.C.F.V.F.A.F.V : . * 1 0 5 g n.b.b.b.b.b.b.b.b.",
"b.b.b.b.< . * X X % X % X k V n n B n B n B n V C.F.V.V.F.F.D.F.F.F.F.D.F.D.F.F.D.F.F.C.V.F.D.F.m : X 5 5 8 V s.c.b.b.b.b.n.b.b.",
"b.b.e.M.~ . % o % X X . 1 m n m m N M M n n n V F.V.V.F.F.F.F.C.F.C.F.F.V.C.F.Z.V.V.V.V.F.C.F.V.F.V 0 5 1 k A.j.b.b.b.b.b.n.b.b.",
"b.b.b.b.b.q   o X X X * x N n N N M N N B M n V.F.V.C.F.F.V.F.F.D.F.F.V.C.F.V.V.F.F.F.C.V.F.V.F.F.F.F.N v 5.F.D.p.b.b.b.b.b.b.b.",
"b.b.b.b.b.| o * o X * k B n n n M m m m M N B V.F.V.V.Z.C.F.Z.F.C.F.V.V.Z.V.V.C.F.V.V.F.Z.V.F.V.F.C.C.F.K.F.D.A.f.m.b.b.b.b.b.b.",
"b.b.b.b.b.b.e   o ; k B n n n n m m M N m N M Z.F.V.F.F.V.F.A.F.F.F.V.F.V.C.C.N k 6 k z V.F.V.F.C.C.V.C.A.D.D.A.h.b.b.b.b.b.b.b.",
"b.b.b.b.b.b.c 4 > z V N n n n n N n M n M N M V.Z.C.V.F.F.F.F.F.F.C.D.V.F.5.8 ; 5 5 5 4 0 V F.Z.F.V.D.D.F.Z.C.C.V.&.0.m.m.b.b.b.",
"b.b.b.b.b.i.n B M V N M n n n n M m N B m N m V.Z.V.V.F.V.F.C.F.F.F.V.F.F.k   $ * 5 5 6 8 a V.F.V.D.F.F.F.F.V.C.F.j + U | m.m.b.",
"b.b.b.e.v.7.N n m m M N n n m m m m m N m m M V F.Z.F.C.F.F.F.C.V.F.V.F.g.* X X . o > 6 8 5 N F.C.V.F.D.D.F.V.V.K.z     * w / b.",
"b.b.b.b.M.3.N n m N m m m n n m m m N m m N N V F.V.C.V.V.V.F.F.F.F.V.F.x . X . . . . > 8 5 k Z.V.C.D.D.F.D.F.C.F.N : - > > E c.",
"b.b.b.w._ x n n m N N M m m N m N M N B B B m m V.V.C.F.C.V.Z.F.D.D.Z.K.l . . X . . . > 6 5 k F.D.C.F.F.D.D.V.D.J.V 0 5 t 8.n.b.",
"b.b.E > 4 b V n m m m N m N m N N k a k k N N n V V.F.C.F.C.C.F.F.D.F.F.N   . X o . . > 6 6 k F.V.D.D.D.F.D.C.V.F.V.9 s q.b.e.b.",
"b.b.| w % z B n N N M m m n N n 1 . > 5 5 6 z m N V Z.Z.V.F.C.V.D.D.V.F.V ; . X . o . > 6 5 z K.V.V.F.D.D.F.F.C.F.V.' b.b.b.b.b.",
"b.b.v.v.E x B n m m m m m m m 1 . X 5 5 5 5 5 z M N V Z.F.V.V.F.V.A.A.A.K.a . X % X o 4 6 8 V F.D.D.F.D.D.F.Z.Z.F.Z.a.b.b.b.b.b.",
"b.b.0.w.e.M N n B n n n n V k . X * 5 6 5 6 5 6 m N N M C.F.Z.Z.F.V.F.V.F.V.6   . . X 1 6 N F.F.F.V.F.F.F.D.F.Z.A.Z.a.b.e.b.b.b.",
"b.b.e.$.w.1.N n M B n n n V 6 . X : 5 5 5 6 5 6 z M m m M V F.F.V.F.C.F.V.F.Z.k > : > k M C.V.D.V.C.D.F.D.D.D.D.C.Z.a.b.b.b.b.b.",
"b.b.e.b.w.1.N n n n n n m n 1   X : 5 5 8 5 8 5 z N N m N N V F.Z.V.F.V.F.V.Z.F.F.V V F.F.V.F.F.V.D.D.F.D.F.Z.Z.A.h.e.b.b.e.b.b.",
"b.b.b.b.v.2.N n B n n n n V 5 . X > 0 5 5 5 6 5 z m m N M M m V F.V.V.C.C.F.C.F.F.F.F.V.V.F.F.C.F.F.D.D.F.D.D.C.A.h.e.b.b.b.b.b.",
"b.b.b.b.v.d.N B n n n n n V u . X % 1 5 6 5 6 5 z m m m N m m m V C.V.F.V.F.F.V.C.V.C.V.V.F.C.F.F.D.F.F.F.D.C.C.B.j.G H b.b.b.b.",
"b.b.b.b.v.u.N b m m n B n n n * . X X > 6 6 5 6 m m m N M N m N V V.F.C.C.V.F.F.D.F.F.D.F.D.F.V.F.D.V.C.F.V.C.D.D.4.Z S b.b.b.b.",
"b.b.b.b.v.a.m n m n n n n n V k . . X . * 1 6 z N n N m N M N m m V C.V.C.V.F.C.D.D.D.D.D.F.F.F.D.V.V.F.V.D.F.V.B.-.Z G b.b.x.b.",
"b.b.b.b.v.d l n n m m V n n n V k : $ $ o > z N m m m m m m M m n V V.F.V.F.V.F.F.D.F.F.D.D.F.V.C.F.C.V.F.F.C.F.F.#.C S b.b.b.b.",
"b.b.b.b.^ 4 k V n n m n n n n n V m z k z n n n N M m m m N M N V N M Z.F.V.V.C.F.F.F.C.A.F.Z.V.D.Z.Z.H.V k 0 b j.+.H +.b.b.b.b.",
"b.w.v...6 6 0 N n n n n n n n n n n V V V n n n m m N m M M N M N m B 5.F.C.F.V.F.V.F.F.Z.F.C.F.Z.N.H.v > 4 5 8 r.v.e.b.e.b.b.b.",
"b.v.q.7 8 2 * z V m B n n n n n n n n n n n n n N M M N N M m M n n B V F.F.V.F.V.F.V.F.F.V.F.V.Z.H.z X X 1 0 4 W m.b.b.b.b.b.b.",
"b.e.a 4 > o . > B n n n n n n n n n M n n V n n M N m m M N m N B n n n V F.C.V.F.V.F.F.F.V.F.F.F.z X X X > 5 5 a e.b.b.c.b.b.b.",
"m.R ; .     .   j B N n n n m m n n n n n n n n m N M M N m N m n n m m n V F.C.F.C.V.F.V.C.V.F.V * % % X * 6 5 5 ..v.e.e.b.b.b.",
"b.} ~ Q U r w + 2 b B n n n n m n n n n n n V n m N M N m m m m n n n n N V V.F.V.V.F.C.F.V.C.F.6 . * X X X 4 5 8 E b.b.b.b.b.b.",
"b.m.m.m.b.w.w.w.0.d.N B n l l m B M n n n n n n m m m m m m N m n N V m m n V Z.F.V.F.V.F.C.F.V o . % X % X ; 5 5 a e.b.b.b.b.b.",
"b.b.b.b.b.$.$.e.b.e.1.N a . X : 0 b V n n n n n N m N m m N m N V B N z b x N V C.F.V.C.V.V.K.0 . * % X X o o > 8 5 ..v.b.b.b.b.",
"b.b.b.b.b.$.w.b.e.b.q.V > . o . . * u m m n n n n n B n m N m m k 1 * * 5 5 7 z V V.F.Z.N.Z.D.6   o o o % X o o 5 4 R b.b.b.b.b.",
"b.b.b.b.b.b.b.b.b.b.v.t.* o X * % X . 1 n n n n n n m n N m m 5 X . X * 6 6 5 5 z V g.Z.D.D.K.n 1 ; X     . $ o * 4 t w.b.b.b.b.",
"b.b.b.b.b.b.b.b.b.b.b.#.o % % o X X X . 1 n m n n n n n m m 5   X % . : 6 5 6 5 k V m M V.D.D.D.F.V ` T r , X .   % 3 ( v.b.b.b.",
"b.b.b.b.b.b.b.b.b.b.m.} o . * . % X X % $ 6 m n n B n n V z X X X X . : 5 5 5 5 l V N N B V g.D.D.z.b.m.m.e.| T r @ = p c.b.b.b.",
"b.b.b.b.b.b.b.b.b.b.m.~ . X * . $ % : 1 5 5 z m n n n n m v . . X $ . > 6 5 5 0 m N m m n n N B y.b.b.b.b.b.c.M.v.c.6.6.e.b.b.e.",
"b.b.b.b.b.b.b.b.b.b.m.T . % * . * 1 6 6 5 5 l m n n n n n V 6 . X X . : 5 6 6 l m m m m M B 1.i.v.b.b.b.b.b.b.e.e.e.c.v.b.b.c.b.",
"b.b.b.b.b.b.b.b.b.e.m.U   o . > 5 6 5 5 5 u n n n n n m N m m 0 o . . ; 5 5 0 N m m N M b f w.b.b.b.b.b.b.b.b.b.b.e.e.b.b.b.c.e.",
"b.b.b.b.b.b.n.n.b.b.b.e . o > 6 8 5 5 s x N N m m n n n m N m V z : . o 5 5 x M N N m k : # b.b.b.b.b.b.b.b.b.b.b.b.b.b.b.b.b.c.",
"b.b.b.b.b.b.b.b.b.b.c.< . 1 6 4 6 d X.n.a.d.1.m N N n n n n n n M x 6 . > j N n b l 5 .   e m.b.b.b.b.b.b.b.b.b.c.b.b.b.v.b.b.b.",
"b.n.b.b.b.b.b.b.b.b.w.O ; 4 5 ) i.b.n.b.b.b.b.i.7.2.M N V N N N N N B k 5 <.d.` 5 5 1 * . # m.e.b.b.b.b.b.w.$.w.$.0.w.b.b.e.b.b.",
"b.n.n.n.b.b.b.b.b.b.9.- 7 R q.m.b.b.b.b.b.b.b.b.v.v.^ 8 5 ` y.y.y.7.u.p.w.b.c.c.( t 8 1 . i M.b.b.b.b.b.b.$.@.O.@.+.b.b.b.b.b.b.",
"b.b.b.b.b.b.b.b.b.c.9.^ e.M.b.b.b.b.b.b.b.b.b.b.b.b.q.> # v.v.b.v.v.v.b.b.b.b.b.b.q.s 5 $ U M.b.b.b.b.x.b.w.$.$.0.#.=.i.b.b.b.b.",
"b.b.b.b.b.b.b.b.b.b.b.b.b.e.b.b.b.b.b.b.b.b.b.b.b.e.b.Y 8.m.e.b.b.b.b.b.b.b.b.b.b.b.b.^ > T m.b.b.b.b.b.b.0.$.w.b.q.,.] b.e.b.b.",
"b.b.b.b.b.b.b.b.b.b.b.b.b.b.b.b.b.b.b.b.b.b.b.b.b.b.b.b.b.b.b.b.b.b.b.b.b.b.b.b.b.b.b.m...| b.b.b.b.b.b.b.0.w.w.b.q.=.=.b.b.b.b.",
"b.b.b.b.b.b.c.b.b.b.b.b.b.b.b.b.b.b.b.n.n.b.b.b.b.b.b.b.b.b.b.b.b.b.b.b.b.b.b.b.b.b.b.b.b.b.b.b.b.b.b.b.b.b.b.b.b.b.c.b.0.b.b.b.",
"b.b.b.b.b.b.b.+.+.x.b.b.b.b.b.b.b.b.b.b.b.b.b.b.b.b.b.b.b.b.b.b.b.b.b.b.b.b.b.b.b.b.b.b.b.b.b.b.b.b.b.e.b.e.b.b.b.b.b.b.b.b.b.b."
};
