/* XPM */
static char *_13c7a1ed8914715c28778258ef63820HSP6tWpFBlzWEttU[] = {
/* columns rows colors chars-per-pixel */
"64 64 216 2 ",
"   c #0A060C",
".  c #0C0A0D",
"X  c #140E0E",
"o  c #17120F",
"O  c #0E0611",
"+  c #0E0D11",
"@  c #130D13",
"#  c #0F1313",
"$  c #151314",
"%  c #1A1515",
"&  c #141A14",
"*  c #1C1A16",
"=  c #1C1419",
"-  c #1D1B1A",
";  c #211513",
":  c #221915",
">  c #2C1C14",
",  c #231D1A",
"<  c #291D1A",
"1  c #1A2315",
"2  c #1D2218",
"3  c #1E3D1C",
"4  c #2A2316",
"5  c #232C15",
"6  c #25211D",
"7  c #2D221B",
"8  c #232A1A",
"9  c #36271B",
"0  c #33241C",
"q  c #3A2A1D",
"w  c #283517",
"e  c #25311C",
"r  c #2A361D",
"t  c #2C3A1E",
"y  c #191B20",
"u  c #2B2523",
"i  c #282727",
"p  c #2D2924",
"a  c #332C25",
"s  c #3D2C21",
"d  c #322B29",
"f  c #2B3B23",
"g  c #353827",
"h  c #39322A",
"j  c #2F2F31",
"k  c #2E3033",
"l  c #373535",
"z  c #3C3935",
"x  c #432D1E",
"c  c #442E22",
"v  c #4B3423",
"b  c #4E3A29",
"n  c #553B27",
"m  c #443E35",
"M  c #35461F",
"N  c #2D4321",
"B  c #2F4F29",
"V  c #364826",
"C  c #3D5326",
"Z  c #3F5828",
"A  c #345638",
"S  c #5B412A",
"D  c #425826",
"F  c #435C29",
"G  c #4B433B",
"H  c #63452B",
"J  c #64442A",
"K  c #67482C",
"L  c #6C4A2C",
"P  c #724E2E",
"I  c #744F30",
"U  c #745231",
"Y  c #7B5532",
"T  c #7D5C37",
"R  c #466727",
"E  c #4A652C",
"W  c #4C6A2D",
"Q  c #506D2E",
"!  c #4F702F",
"~  c #52732F",
"^  c #537331",
"/  c #587832",
"(  c #3B3D40",
")  c #4A4844",
"_  c #534C49",
"`  c #58554A",
"'  c #585755",
"]  c #635C54",
"[  c #65625A",
"{  c #716D5E",
"}  c #787265",
"|  c #815732",
" . c #855B35",
".. c #895D36",
"X. c #8D6037",
"o. c #8D6339",
"O. c #89663C",
"+. c #906237",
"@. c #936439",
"#. c #98673A",
"$. c #976B3E",
"%. c #9B6A3B",
"&. c #A26E3E",
"*. c #A7713F",
"=. c #A9723F",
"-. c #997341",
";. c #AD7541",
":. c #A97A44",
">. c #B07742",
",. c #B47A43",
"<. c #BA7E45",
"1. c #5F8335",
"2. c #5B823A",
"3. c #599836",
"4. c #618637",
"5. c #648C35",
"6. c #658B39",
"7. c #6B933B",
"8. c #6A983A",
"9. c #719D3D",
"0. c #4EAC38",
"q. c #4BB135",
"w. c #57B73A",
"e. c #75A33F",
"r. c #65B939",
"t. c #79BF3D",
"y. c #478D5D",
"u. c #4A925E",
"i. c #52965C",
"p. c #589B5A",
"a. c #6B9D5C",
"s. c #53AD44",
"d. c #75A440",
"f. c #78A741",
"g. c #7CAC42",
"h. c #67B343",
"j. c #76B843",
"k. c #7ABD45",
"l. c #76B54B",
"z. c #7BB64D",
"x. c #7FBA4B",
"c. c #68A652",
"v. c #69A755",
"b. c #78AB56",
"n. c #7EB253",
"m. c #478D61",
"M. c #4B9664",
"N. c #5C9D66",
"B. c #668B67",
"V. c #79A76A",
"C. c #6EC244",
"Z. c #97C92E",
"A. c #91C63C",
"S. c #96CD3D",
"D. c #99D13F",
"F. c #A1DA3D",
"G. c #B4E724",
"H. c #AC8148",
"J. c #BC8246",
"K. c #B98749",
"L. c #82B545",
"P. c #85BD47",
"I. c #88BE47",
"U. c #83B74E",
"Y. c #83BC4A",
"T. c #88BE48",
"R. c #82AD56",
"E. c #81B351",
"W. c #8C8475",
"Q. c #C28C4B",
"!. c #C6914E",
"~. c #C99851",
"^. c #84C046",
"/. c #8CC446",
"(. c #8FC847",
"). c #87C04A",
"_. c #8BC34A",
"`. c #8DC549",
"'. c #8EC94B",
"]. c #92C943",
"[. c #91CC4C",
"{. c #95D14E",
"}. c #9BD850",
"|. c #838383",
" X c #9C9782",
".X c #949392",
"XX c #A29A85",
"oX c #A59E88",
"OX c #B0A990",
"+X c #AEACAA",
"@X c #B0AFAD",
"#X c #BDBCB9",
"$X c #C7BC9B",
"%X c #C3BAA1",
"&X c #C9C0A5",
"*X c #CDC5A9",
"=X c #D3CAAC",
"-X c #DCD4B4",
";X c #E6D4AA",
":X c #E5DBBA",
">X c #F0E6BF",
",X c #CAC9C7",
"<X c #D3D0CD",
"1X c #D5D4D2",
"2X c #DDDBD9",
"3X c #E0DFDC",
"4X c #EDE4C1",
"5X c #F4EAC6",
"6X c #F7EDC8",
"7X c #F9EFCA",
"8X c #FDF3CD",
"9X c #E3E2DF",
"0X c #FFF6D0",
"qX c #FFFCD5",
"wX c #FFFFD8",
"eX c #E4E3E0",
/* pixels */
"_._._._._._.'._._._._._._._._._./.Y.R.b.v.l.U.Y.j.j.z.Y.P._._._._._._._._._._._._._._._.T.k.t.A.^.)././._._._._._._.`._._._._.`.",
"_._._._._._._._._._._._._._._._.).)._./._._._._._._._._._._._._._._._.`._.`._._._._._._./.r.r.^.)././.)._._._._._._._.`._._._._.",
"_._._.`._._._._.'._.'._._._._._._._._._._._._._._._._._._._._._._._._._._._.`._._._._._.).r.r.^.`.T._._._._._._._._._.`._._._._.",
"_._._.`._._._._._._._._._._._._.)._._._._._._._._._._._._._._._._._._._._._._._._._._._.).w.q.^._._._./._._._._._._._.`._._._._.",
"`._._._._._._._._._._._._._._._._._._._._._.T._._._._._._._._._._._._._._._._._._._._._.T.s.s.Y.`.x.j.^._._._._._._._._._._._._.",
"_._._.`._._._._._._._._._._._._._._.T._._._._._._._._._._._._._._._._._._._._._._._._._.T.i.m.x./.r.q.j._._._._._._.'._._._._._.",
"_._._._._._._._.'._._._._._._._._._._._._._._._._._._._._._._._.'._.'._.'._._._._._._._.Y.i.u.Y._.h.s.j._._._._._._._._._._._._.",
"_._._._._._._._._._.T._._._._._._._._.T._.P._._.P._._._._._._._._._._._._._._._._._._._.T.i.m.z./.p.m.b./._._._._._.'._._._.'._.",
"_._._._._._._._._._._._._._._._./././.].[.[._._.[._.T._._.)._._._._._._._._._.'.T._._.'._.N.p.Y._.v.N.R.[.T.T.'._._._._._._._.'.",
"_._._._._._._._._._._._._._._._.S.S.A.E D 8.'._.7.g.[._.)._._._._._._._._._.'.T.'.U._.T._.U.P._._.).P.U.U.'.T.T._._._._._._._._.",
"_._._._.P._.)._._._._._._._._./.S.D.R O @ * D D @ 2 E P.[.I._._._._._._._._._._._._._._.T.'.T.'._._.T.'.'.T.T.'._._._._.'.T._._.",
"_._._._.).Y.Y._.T._._._._._._._.}.e.% a 6 0 s O p % ; r g.[._._._._._._.'._._._._._._._.T.'.T._._._.'.T.T.'.T.[._.'._._.T.'.T.'.",
"_._.P._.).x.Y.)._.).).'.[.'.I.e.9.C $ p u * , u h % S v & f.'._._._._._._._._._._._.'.T.T._.T.T._._._._.T.'.T.T.T.'.T.'.'.'.T.'.",
"_._.P.Y.Y.P.P.Y.x.).).g.! N 8 * * - , * * $ $ a h , s ;.0 2 g.'._._.T._._._._._._._._._.T.'.'._._._._._.T.[.'.T.T.T.'.T.T.T.'.T.",
"_._._.x.Y._._.Y.).c.C & 0 S O.:.H.K.K.H.H.s * h h u - X.$.$ t _._._._._._._._._._._._._._.'.T.T._._._._.T.T.'.T.'.T.T.'.'.T.T.T.",
"_._._.P.I.)._._.^ $ s O.K.Q.K.J.,.;.,.,.H.9 , h h p * U %.Y   Q [._._._.'._._._.'._._._.'.T._.'._._._._.[.T.T.'.T.'.T.'.T.'.T.'.",
"_._._._._._._.C @ T J.<.;.;.;.;.;.X.#.>.;.0 = h h p % U  .%.x & g.`._._.`._._._._._.`._._._._._._.`._._._._._._.'._._.'._._._._.",
"_._._._._._.D = -.<.;.;.;.-.;.<.;.;.%.#.>...$ u h p $ U ..X.T @ Q [.T._._._._._._._._._._._._._._._._._._._._._._._._._._._.'._.",
"_._._.T.[.6.$ X.,.;.;.,.n O < K ;.>.@. .&.<.L # h a % U X. .#.0 f _._._._._._._._._._._.`._._._._._._.`._._._._._._._._.T.'.T.'.",
"_._._.T.[.W < ;.;.;.;.;.-.Y n @ < %.>.;.;.;.;.0 - a % U .. .X.n & g.`._._._._._._._._.`._._._._._._._._._._.'._._._._._.'.T.'.T.",
"_._._.T.[.9.% ..,.;.;.;.#.@.>.-.0 Y ,.;.;.;.,.L $ u * Y .. ...U % 6.[._._._._._._._._._._._.)._._._._._._._.'._.T.T.'.T.T.T.'.T.",
"`._._._._.`.f n <.:.;.s $ 6 $ s $.>.;.;.;.;.>.%.- 6 <  .......Y = 2.[.I._._._._.`._._._._._._./._._._._._._._._.'.'.T.'.T.'.T.'.",
"_._._._.T.[.F 0 ,.,.d i +X,X.X( $ +.>.;.;.;.;.;.7 # a .... ... .$ Q [._._._._._._._._._.T._._._._._._._._._._._.T.'.'.T.T.'.'.T.",
"_._._._._.[.Q u K.P @ %X9X1X3X2X) 4 ,.;.;.;.;.,.v   v X. .....| @ D '._._._._._._._._._.].)._._._._._._.'._._._.'.T.T.T.'.T.'.T.",
"_._._._.).[.1.g ;X9 [ |.' #X<X2X@X$ +.>.;.;.-.*.#.K | .... ...L @ V `._._._._._._._.).S.S.)._._._._._._._._._._.T.'.T.[.T.T.[.T.",
"_.`._._.).[.7.a -Xp ' - ' |.,X1X1Xj P <.;.;.*.#.#....... ... .n c f T._.T.P.T._._././.S.]./._._._._._._._._._._.T.T.T.[.T.'.[.T.",
"_._._._.).[.5.j -Xi l - ) [ <X1X1Xj L ,.;.;.+.;.X. ....... . ...n r I.`.Y.j.Y._.)./.T._./.I._._._./._._._._._._.'.[.T.T.'.T.T.T.",
"_._._._.).[./ h >Xa ' ) k +X1X2X+X$ +.,.;.;.X.%... ... ... . .+.n t _.T.Y.l.x.).).)._._._._._._._._._._._._._._.T.T.'.T.T.[.U.[.",
"_._.T._.T.{.Z _ 8XK y @X1XeX9X<Xz 0 >.;.;.;.>.%. ....... .....+.c V _.x.Y.x.x.Y.Y._._._._._._./._._._.I.T._._._.T.'.T.T.T.T.[.T.",
"_._.[.T.T.[.w ] $X*.x i |.|.W.j ; %.>.;.;.>.;.#. ......... .....0 F _.U.x.x.Y.x.Y._.T._._._./.)._._.'.(.(._.)./.T.T.'.'.'.T.T.'.",
"_._.W f f g % % $ 4 x q 4 : ; n %.>.;.>.;.;.>.%. ... . . ... .X.0 F [.Y.T.T.Y.T._._./.)._._.).[.[.).g.Z.G.F.'.T.'.T.'.T.'.T.T.[.",
"[./ O < u @ p =X=XW.) * v $.=.Q.>.;.;.;.;.;.>.%. . ... .Y I  .X.c C }.[.{.{.{.[.[._._._._._.[.7.N 2 6 4 5 D R.[.T.T.T.T.T.'.T.T.",
"[.E * z h   { wX0XwXwXOXm . n %.<.>.;.>.;.;.=.&. .......P L  .+.v 8 / W E W W ^ 1.e._.'.'.).C $ b O.:.:.T u 1 3.w.h.).)./._._.).",
"[.4.@ 7   ` 6X8X8X7X8XqX8X Xj . v %.>.;.>.;.>.%. ... .I I  . ...n % v b b b b h 6 - e / L.t < -.Q.<.;.J.!.~.n 1 0.h._._._._./._.",
"/.P.M   [ 8X8X8X8X8X8X5X4XwX5XOXl X  .>.=.;.>.X. . . .Y | ....#.v s Q.K.Q.Q.Q.!.K.H.U , & 0 :.,.*.;.;.;.*.J.~.6 ~ (.^._._._._._.",
"T.[.9.* -XqX7X8X8X7X8X4X=X6X8XwX8X} . +.,.;.%.| .. . ..... .U v # S ,.=.=.=.=.=.,.Q.~.:.q 6 &.=.*.#.;.;.;.*.!.S N [._._.)._.I._.",
"_._.T.1  XwX6X7X8X0X8X8X:X-X8X7X8XqX) q =.X. . ..... ...Y 7 $ 4 K ;.;.>.;.;.;.;.;.;.;.>.;.n *.,.$.@.=.=.=.=.Q.U e I.w.h.[.4.4.[.",
"_.T.[.D i 4XwXwX0X:X7X8X5X5X8X8X6XwXoXo |  ..... . . .X.L $ Y ;.<.;.;.;.,.;.,.;.;.;.;.;.>.>.L %.#... .X.*.&.K.O.e C.q.C.e.$ / [.",
"_._._.I.5 m %XoX) i *X0X0X0X8X8X8X8XXX$ Y .. . .......@.L , #.&.=.;.;.;.*.*.;.;.;.>.;.;.>.%.$ K |  .X. ...#.J.$.* 8.w.3.8 O Q [.",
"_._.T.'.L.1 . p G  X%X&X-X:X4X4X:X-X{ % ..X.+. .| Y I P 0 0 ;.;.;.;.;.=.#.X.=.;.;.;.;.;.,.&.: $ % = n .. .%.=.Q.b # 3 # v x F {.",
"/._._.T.[.9.* z XX*X&X*X*X*X*X*X*XXX, b X.L b 0 * % $ $ 4 | >.;.;.;.,.%.$.=.=.,.;.;.;.;.=.&.% E 7.Q # J ..X.=.,.K.O.K Y ,.0 ! [.",
"_._._._.T.[.f.M $ d ) ] } W.W.} _ =   > : * 8 1 q Y ..@.;.,.;.;.;.;.;.;.=.;.<.=.=.,.;.;.<.#.o L.{.{.E ;  ...*.=.=.K.J.J. .# 8.[.",
"_._._._._._.`.`.f.! M w 5 6 5 5 t D F Q 4.f.[.E ; %.<.,.;.;.;.;.;.;.;.;.=.=.X.=.>.=.;.#.K n 8 Y.)._.L.1 v +...=.=.=.=.#.0 t _._.",
"_._._._._._._._.[.{.[._.T.T.P._.[.[.[.[.[.`.'.f.* n P X.>.;.;.+.#.;.;.;.<.U * =.,.=.$.+.=   D [._.).[.1.@ J X.+.%.$.Y 0 * e.[._.",
"_._._._.T.P.Y._.)._.)._._._.`._._._.)._.T._._.[.D X $ K <.;.>...6 X.=.=.J.S 6 =.;.=.=.%.q & d.[._._.P.[.Q @ 0 v c 0 $ e e.'._._.",
"_._._._._.x.x._._._._._._._._._.T._._._._._.T.[.6.$ + H ,.;.=...* K +.o.&.K , *.=.;.;.*.0 C [._._._._._.[.7.V r r C 6._.'._._._.",
"_._._._._.x.Y.T._._._._._._._._._._._._._._._.`.f.6 0 s ,.;.=. .* o > 9 v x * %.&.=.;.%.0 E [.T.)._._._.T.[.[._._.[.[._._._._._.",
"_._._._.T.Y.z._._._._._._._._._._._._._._._._.`.L.8 q < &.*.*.Y * Q R B & o * P *.;.=.@.0 Q [._._._._._._.T._._._.T.T._._._._.^.",
"_._._._.).Y.x.T._._._._._._._._.T.T.[.'.T.'.'.T.T.f < , %.=.$.K 8 [.C.s.N n q b >.;.;..., 4.[.T._._._._._._._._._._._._._._._._.",
"_._._._._._._._._._._._._._._._.[.T.T.T.'.T.T.T.[.z @ $ U %.+.v f ].v.M.A % * s ;.;.X.n % d.'._._._._._._._._._._.)._._._._._.).",
"_._._._._._._._._._._._._.`._._.[.T.T.T.T.U.[.'._.r d 6 @ * - + D [.v.M.A - i $ % * % $ f T._._._._._._._._._._._./.)./.).T._./.",
"_._._._._._._._._._._._._._._._.T.T.[.[.T.[.T.T._.g @ = z G l O 2.{.c.M.A : p - m m m @ ^ [._._._._._._._._._._._.).S.S./._._._.",
"_._.`._._._._._._._._._._._._._.'.T.T.T.'.T.'.T._.g.W * : p % f l.(.c.M./ l 2 $ u u = f Y._.`._._._._._._.`._._._./.S.]._._._._.",
"_._._._._._.`._._._._._._._._._.T.'.[.T.T.'.T.T._.'.{.7.V V A y.i.p.a.b.E._.z.W C C E L._._._._._._._._._._._._.)./././.)./._.T.",
"_._._._._._._._._._._._._._._._.'.T.T.T.T.[.T.'._._.I.'.V.V.N.M.y.m.p.R.E._.'.[.[.[.[._._._._._._._._._._._._._./._._._._._._._.",
"_._._._._._._._._._.'._._._._._.T.T.[.[.T.T.T.[._._._.I.E.E.n.b.z.l.U.T.T.T._.T.T._.T.T._._._._._._._._._._._._.T._._._._._._._.",
"_._._._._._._._.'._._._.'._._._.T.'.T.T.'.T.T.T._._._._._._._.'._._._._._._./._._._._._._._._._._._._._._._._._._._._._.)._._._.",
"_._._.'._._._._._._._._._._._._.'.T.'.T.T.'.'.T._._._._._._._._._.T._._._._._.T._._._._._._._._._._._._.).^.x.Y.Y.P.)._./._._._.",
"_._._._._._._._._._._._._._._._.T.'.T.'.'.T.T.'._._._._._._._._._._._._._._._._._._._._._._._._._._._._._.x.l.l.l.x././.)._._._.",
"_._._._._._._._.'._._._.'._._._.T.'._.T.T.'.'.T._._._._._._._._._._._._._._._._._._._._._._._.'._._./._.).Y.z.Y.P.z.b.n.)._._._.",
"_.'._._._._._._._._._._._._._._.T._.'.'._._._._._._._._.'._._._._._._._._._._._._._.`._._._._._._._._._._.Y.x.P.(.R.B.a./._._._.",
"_._._._._._._._.T._._._._._._._.'.T.T._._._._._._._._._._._._._._._.`._._._._._._._._._._._._._._._._.)._.P.Y.P./.U.b.n.)./._.T.",
"_._._._._._._._.'.T._._.T._._._._.'._._._.'._.'._._._.`._._._._._._._._._._._._.`._._._._.`._._._._._._._._._._.T._._./._._._._.",
"_._._._._._._.k.z.T._._._.'._._._._._._._._._._._._._._._._._._._._.`._._._.`.`._._._._.`._._._._._._._._._.T._._._._.T._._._._."
};
