/* XPM */
static char *f5bf7f13562d4c18e97d91752f1dc1a6Ml9qHiXDF0IHATlS[] = {
/* columns rows colors chars-per-pixel */
"64 64 197 2 ",
"   c #4DAE38",
".  c #4DB235",
"X  c #4EB139",
"o  c #53B238",
"O  c #62B72D",
"+  c #69BB2B",
"@  c #60AE31",
"#  c #68B834",
"$  c #62B63D",
"%  c #6CBA3F",
"&  c #76BF3C",
"*  c #7ABE3D",
"=  c #7AC13B",
"-  c #5E9B4A",
";  c #478F5F",
":  c #558C58",
">  c #4B9C52",
",  c #4A915D",
"<  c #53965C",
"1  c #55985B",
"2  c #5A9D59",
"3  c #6E9C51",
"4  c #629F5B",
"5  c #719C5D",
"6  c #4DA744",
"7  c #54A846",
"8  c #5EB640",
"9  c #69AE4D",
"0  c #77AB4C",
"q  c #67B246",
"w  c #6BB941",
"e  c #74BB43",
"r  c #7ABC45",
"t  c #77B54C",
"y  c #7DB64E",
"u  c #7EBA4B",
"i  c #64A555",
"p  c #6BAC52",
"a  c #68A459",
"s  c #7BAD56",
"d  c #74A858",
"f  c #7DAD5A",
"g  c #7EB253",
"h  c #438B62",
"j  c #4A8F60",
"k  c #599563",
"l  c #6C9369",
"z  c #6B966E",
"x  c #75A461",
"c  c #9EB938",
"v  c #AAB435",
"b  c #A1BB3C",
"n  c #B0B232",
"m  c #FE8E03",
"M  c #ED9D0F",
"N  c #FE9203",
"B  c #FF9A04",
"V  c #FD9108",
"C  c #F59C0D",
"Z  c #FE9C0A",
"A  c #E19E14",
"S  c #F69F13",
"D  c #CEA71A",
"F  c #C5A81C",
"G  c #DDA112",
"H  c #DEA91D",
"J  c #FFA303",
"K  c #FDA30D",
"L  c #FEAB0D",
"P  c #E7A417",
"I  c #F5A213",
"U  c #F9A314",
"Y  c #FDAC14",
"T  c #FCA51B",
"R  c #FAAC19",
"E  c #FDB316",
"W  c #FBB41B",
"Q  c #FBBA1F",
"!  c #C6AD28",
"~  c #CAB42A",
"^  c #CBBA2F",
"/  c #D3B82C",
"(  c #D8BB2F",
")  c #C7BC30",
"_  c #CBBA30",
"`  c #D2BC34",
"'  c #D8BC33",
"]  c #FEAD24",
"[  c #F9AD2C",
"{  c #FEB324",
"}  c #FDBA24",
"|  c #FFB42E",
" . c #FEBD2B",
".. c #FFBD33",
"X. c #FAB13F",
"o. c #FFBB3D",
"O. c #A6DF1E",
"+. c #9CC33F",
"@. c #96CE3E",
"#. c #9BD23A",
"$. c #AADF2F",
"%. c #A7DC32",
"&. c #AADE30",
"*. c #B7EC24",
"=. c #BCF021",
"-. c #E1C72C",
";. c #FBC325",
":. c #F5C12C",
">. c #FCC62B",
",. c #FCC92E",
"<. c #FCD32C",
"1. c #FEC133",
"2. c #FCCB31",
"3. c #FDCD3B",
"4. c #E6D13E",
"5. c #FCD235",
"6. c #F5D13A",
"7. c #FDD53B",
"8. c #FDD93D",
"9. c #FBE23E",
"0. c #8CAD4B",
"q. c #84BF46",
"w. c #88BF47",
"e. c #83B74E",
"r. c #83BD4A",
"t. c #88BF4A",
"y. c #93BD42",
"u. c #82AD56",
"i. c #81B552",
"p. c #8CB759",
"a. c #84AA60",
"s. c #D5B844",
"d. c #FFBC41",
"f. c #FFB95A",
"g. c #85C146",
"h. c #8CC446",
"j. c #86C34B",
"k. c #8BC34A",
"l. c #8EC84D",
"z. c #93C345",
"x. c #92CA41",
"c. c #95C74A",
"v. c #98C749",
"b. c #98CA4D",
"n. c #88C852",
"m. c #99CE50",
"M. c #98CB59",
"N. c #B3D54F",
"B. c #B1CF59",
"V. c #A9D260",
"C. c #BBD867",
"Z. c #C7DB4E",
"A. c #FDCD41",
"S. c #FFD445",
"D. c #FCDE42",
"F. c #FFD44C",
"G. c #FCD94D",
"H. c #E7C852",
"J. c #FECF55",
"K. c #FDD654",
"L. c #FED15C",
"P. c #FDE245",
"I. c #FDE549",
"U. c #FEEA4D",
"Y. c #FFF04D",
"T. c #FEED53",
"R. c #FEE759",
"E. c #FEF355",
"W. c #FDF55B",
"Q. c #FDF85B",
"!. c #FFC16A",
"~. c #FED262",
"^. c #FCDA6D",
"/. c #FCD971",
"(. c #FDDD7E",
"). c #FDE46E",
"_. c #FEF562",
"`. c #FDFA65",
"'. c #FEF56C",
"]. c #FEFC6D",
"[. c #FDEA79",
"{. c #FEFF72",
"}. c #FFCF87",
"|. c #FDDE82",
" X c #FDE384",
".X c #FDE58A",
"XX c #FFED8A",
"oX c #FDF087",
"OX c #FDF294",
"+X c #FDFB93",
"@X c #FDF39A",
"#X c #FDFD9D",
"$X c #FFDCAF",
"%X c #FEFCA2",
"&X c #FFF4D7",
"*X c #FDF7E9",
"=X c #FDFFFE",
/* pixels */
"k.k.k.k.k.k.k.k.k.k.k.k.k.k.k.k.k.r.u.s p p e.e.w e e.r.t.k.k.k.k.k.k.k.k.k.k.k.k.k.k.k.w.* = g.j.j.k.k.k.k.k.k.k.k.k.k.k.k.k.k.",
"k.k.k.k.k.k.k.l.k.k.k.k.l.k.k.k.w.k.k.k.z.k.h.k.k.k.k.k.k.w.k.k.k.k.k.k.k.k.l.k.k.k.k.k.k.# + q.k.k.k.k.k.k.k.k.k.k.k.k.k.l.k.k.",
"k.k.k.k.k.k.k.k.k.l.k.k.k.k.k.k.k.k.k.k.k.k.k.k.k.k.k.k.k.k.l.k.k.k.k.k.k.k.k.k.k.k.k.k.k.# # q.k.k.k.k.k.k.k.k.k.k.l.k.k.k.k.k.",
"k.k.k.k.k.l.k.k.k.k.k.k.k.k.k.k.k.k.k.k.k.k.k.k.k.k.k.k.k.k.k.k.k.k.k.k.k.k.k.k.k.k.k.k.g.o X q.h.k.k.k.k.k.k.k.k.k.k.k.k.k.k.k.",
"k.k.k.k.k.k.k.k.k.k.k.k.k.k.k.k.k.k.k.w.k.t.k.k.k.k.k.k.k.k.k.k.k.k.k.k.l.k.k.k.k.k.k.k.k.7 7 r k.r e g.k.j.k.k.l.k.k.k.k.k.k.k.",
"k.k.l.k.k.k.k.k.k.k.k.k.k.k.t.k.w.k.k.k.k.k.k.k.k.k.k.k.k.k.k.k.k.k.k.k.k.k.k.k.k.k.k.k.r.< j e.h.$   r k.k.k.k.k.k.k.k.k.k.k.k.",
"k.k.k.k.k.k.k.k.k.k.k.k.k.k.k.k.k.k.k.k.k.k.k.k.k.k.k.k.k.k.k.k.l.t.k.l.k.k.k.l.k.k.k.k.k.< , u k.q 6 r k.k.k.k.k.k.k.k.k.k.k.k.",
"k.k.k.k.k.k.k.k.k.k.k.k.k.k.k.k.k.k.k.k.k.k.k.k.k.k.k.k.k.k.k.k.k.k.k.k.k.k.k.k.k.k.k.k.r.< ; u z.2 h t z.k.k.k.k.k.k.l.k.k.k.k.",
"k.k.k.k.k.k.k.k.k.k.k.k.k.k.k.k.k.g.h.w.w.k.h.k.k.k.k.k.k.k.k.k.k.k.k.l.k.k.k.k.k.k.k.k.r.2 1 u h.i < g k.t.k.h.k.k.k.k.k.k.k.l.",
"k.k.k.w.k.k.k.k.k.k.k.k.k.k.k.h.@.@.@.@.k.h.k.t.k.k.k.k.k.k.k.k.k.k.k.k.k.k.k.k.k.k.k.k.k.w.k.k.k.k.r.k.h.k.k.k.l.k.k.l.k.k.k.k.",
"k.k.k.k.w.k.r.k.k.k.k.k.k.k.k.h.@.@.@.x.k.k.h.k.k.k.k.k.k.k.k.k.k.k.t.k.k.k.k.w.k.k.k.k.k.k.k.k.k.k.k.k.k.k.k.k.k.k.k.k.k.k.k.k.",
"k.k.k.k.w.r.r.j.k.k.k.k.k.k.k.k.k.k.k.k.w.k.k.k.k.k.k.k.k.k.k.j.k.k.k.k.k.k.k.j.h.k.k.k.k.k.k.k.k.k.k.k.k.k.k.t.k.k.k.k.l.k.k.k.",
"k.k.r.k.k.r.u k.k.r.k.k.k.k.k.k.k.k.k.w.j.n.j.k.k.l.k.k.k.l.k.l.k.l.k.k.l.j.k.l.k.l.n.q.k.k.k.k.k.k.k.k.k.k.k.l.h.t.t.l.k.k.k.k.",
"k.k.k.r.r.r.r.r.r.r.r.r.g.k.k.k.k.k.k.n.c F G A A A A A A A A A A A A A A A A A G H ` B.n.w.k.k.k.k.k.k.k.t.k.k.k.l.k.k.k.k.k.k.",
"k.k.w.u u w.w.r.u r.u r.k.k.k.k.t.k.y.D ] f.}.F.2.7.3.5.2.5.S.S.F.S.S.S.S.S.S.S.S. .K T H.V.j.k.k.k.k.k.k.l.t.l.k.k.l.t.k.k.l.t.",
"k.k.k.r.w.k.w.k.r.r.w.w.k.k.k.h.n.c A !.&X=X#XE.E.E.E.E.E.`.{.{.{.{.{.{.{.{.{.{.{.W.U.>.Z o.C.g.k.k.k.k.k.k.h.k.t.l.k.t.l.k.k.k.",
"k.k.k.k.w.k.k.k.k.k.k.t.k.k.k.k.z.P $X=X=X).<.5.2.5.2.2.D.T.T.U.T.T.U.T.T.U.T.U.7.8.Y.Q.D.Z  .N.w.k.k.k.l.k.k.k.k.k.l.k.k.k.k.k.",
"k.k.k.k.k.k.k.k.k.k.k.k.k.k.k.j.D }.=X*XK.;.>.,.,.,.,.8.U.U.U.T.U.U.U.U.U.U.I.5.,.>.5.I.Q.S.Z 6.b.g.k.k.k.k.k.k.k.k.k.k.k.k.k.k.",
"k.k.k.k.k.k.k.g.k.k.k.k.h.t.k.c X.=X*XL.>.2.,.2.,.,.D.T.U.U.U.T.U.U.T.U.U.I.2.>.>.2.,.,.I.Q.} Y Z.k.k.k.k.k.k.k.k.k.k.k.k.k.l.k.",
"k.k.k.k.k.k.k.k.k.k.k.l.k.k.n.F $X=XK.>.,.2.2.>.,.8.T.T.T.E.T.T.T.E.T.T.T.5.>.>.,.,.,.>.,.E.P.Z 4.k.k.k.k.k.k.k.l.k.k.k.k.k.k.k.",
"k.l.k.k.k.k.k.k.k.k.k.k.k.k.g.s.&X[.,.2.,.,.>.,.I.].{.{.{.{.{.{.{.{.{.{.W.E.U.7.,.>.,.2.,.I.E.Y :.m.k.k.k.k.k.k.k.k.k.l.k.k.k.k.",
"k.k.k.k.k.k.k.k.k.k.k.k.k.k.w.s.'.9.,.>.5.,.,.T.{.K...1.1.1.1.1.1.1.1. . .>.D.W.P.,.,.2.>.8.Q.Q } m.g.k.k.k.k.k.k.k.k.k.k.l.k.k.",
"k.k.k.k.k.k.k.k.k.k.k.k.k.k.w./ Y.P.,.2.2.,.T.'.] m N B B B B B B B B Z B B Z >.E.7.,.,.>.7.`.o.R m.g.k.k.k.k.k.k.k.k.k.k.k.k.k.",
"k.k.k.k.k.k.k.k.k.k.k.k.k.k.w.' U.P.>.2.>.D.].] m K L L L L L L L L L L L L L B >.T.5.,.,.S.#Xd.I v.k.k.k.k.k.k.l.k.k.k.k.k.l.k.",
"k.k.k.k.k.k.k.k.k.k.k.k.k.k.w.( E.P.>.,.8.`.G.m Z L J Z Z Z K Z Z Z Z Z Z Z L L K P.D.;.3. X%Xd.K v.g.k.k.k.k.k.t.l.k.k.l.l.t.k.",
"k.l.k.k.k.k.k.k.k.l.k.k.k.k.w.( Y.D.>.D.U.]...m L Y } :.>.,.5.8.8.8.7.8. .V B L J 3.I.3.(..X%Xd.I v.k.k.k.k.k.k.k.t.h.k.t.k.k.h.",
"k.k.k.k.k.k.k.k.k.k.k.k.k.k.w.' T.D.D.T.U.].| m L ,.2.2.2.,.>.5.D.P.D.P.I.{ N L K 2.R./. X X%Xo.Y b.k.k.k.k.k.k.k.k.k.t.k.t.k.l.",
"k.l.k.k.k.k.k.k.k.k.k.k.k.w.r / T.E.U.U.U.].| N E 2.>.2.,.,.,.,.>.8.D.D.P.3.V K J A.OX|.(. X%Xo.[ M.k.k.k.k.k.k.k.k.k.l.h.l.k.t.",
"k.k.k.k.k.k.k.k.k.k.k.k.k.w   ~ _._.U.U.U.].| m E 2.2.2.,.2.5.,.,.,.7.P.P.2.V K J L.@X|. X X%Xo.[ M.j.k.k.k.k.k.k.k.k.k.k.t.l.k.",
"k.k.k.k.k.k.k.k.k.k.k.k.k.% . ^ ].W.U.U.U.].| m E 2.,.,.2.,.,.,.,.,.,.7.P.2.V K J L.OX(.(..X%Xd.I b.g.k.h.k.k.k.k.k.k.h.k.k.k.k.",
"k.k.k.k.k.k.k.k.k.k.k.k.k.#.O.-.'._.U.T.U.].| m E 2.,.2.,.2.2.,.2.,.,.,.D.2.V K J L.@X(. X X%Xd.K v.r.&.*.#.w.k.k.k.k.k.h.t.k.k.",
"k.k.k.w.w.k.w.k.k.w.k.k.w.%.O.-.'._.U.U.U.].| N E 2.>.2.,.,.,.2.,.2.,.>.5.3.V Z J L.@X(. X X%Xd.K b.r.$.=.#.t.k.w.w.t.k.k.t.l.k.",
"k.k.r.u r.w.k.k.k.k.k.k.h.* + ` ].W.U.U.U.].[ m L ,.,.2.2.2.2.2.2.,.5.,.,.>.V Z J L.OX(.|..X+X .U v.r.$.=.#.t.e o w k.k.k.k.k.k.",
"k.k.k.r.u k.k.k.k.k.k.w.h.& O ^ ]._.U.T.U.].| m L Q ,.2.>.2.>.2.,.2.,.2.<.} V K J L.@X(.|.[.W.} Y v.j.&.=.#.t.e X q k.g.k.k.k.k.",
"k.k.w.w.r.k.k.k.k.w.k.k.k.& O _ '._.U.U.U.`.] N Y W } 2.,.2.2.2.,.2.,.,.2.} V K J L.@X|./.S.Q.} R b.r.x.x.t 1 p r g.k.k.k.k.k.k.",
"k.k.k.k.k.k.k.k.k.k.k.k.k.& O ) '._.U.U.P.Y.{ m Y W W ;.2.>.,.2.,.2.,.,.2.{ V K J L.@X^.1.7.Q.} R v.j.k.w.i h p z.k.k.k.g.k.k.k.",
"k.k.k.k.k.k.k.k.k.k.k.g.k.q.* ' ].W.U.P.2.Y.{ N Y Q E E ;.>.,.,.,.2.,.,.2.} V K J ~.oX2.>.7.Q.} R p.x e.l.q 6 q h.r $ % k.k.k.k.",
"k.k.k.k.k.k.k.k.k.k.k.k.k.k.w.' '._.P.,.:.T.{ N Y Q W W W ;.,.,.,.,.2.,.2.} V K J J.R.>.,.7.Q.{ U a.z e.h.% o % h.e   $ k.k.k.w.",
"k.k.k.k.k.k.k.k.k.k.k.k.k.k.j.' {.R.,.,.2.Y.{ m L W W W W W Q ,.2.,.,.2.2.R N K J 2.U.>.,.7.Q. .U k.g f f i > 9 c.r X $ k.k.k.k.",
"k.k.k.k.k.k.k.k.k.k.k.k.k.k.w.' `.D.>.2.:.U.} m L L I W Y W Y E } ;. .>.R V Z L J 5.I.,.,.7.E.} U v.k.x z k h i k.r   $ g.k.k.k.",
"k.k.k.k.k.k.k.k.k.k.k.k.k.k.w.' T.P.,.,.:.I.8.m Z L J Z Z Z Z Z Z Z Z Z Z Z L L K I.D.>.,.8.E.} U v.k.i.f d i t k.q.w e k.k.k.k.",
"k.k.k.k.k.k.k.k.k.k.k.k.k.k.r.( E.D.,.2.>.5.E.] m K L Y L L L L L L L L L L L B 2.T.2.,.>.7.E. .U v.r.h.k.h.h.k.w.k.k.k.w.k.k.k.",
"k.k.k.k.k.k.k.k.k.k.k.k.k.k.w.( U.P.,.2.>.,.8.T.{ Z N B B B B B B B B B Z B K 2.E.7.>.2.2.8.E.} K z.j.w.k.k.k.j.k.k.k.k.w.k.k.k.",
"k.k.k.k.k.k.k.k.k.k.k.k.k.k.k./ U.U.,.,.2.>.,.P.E.K.~.~.L.~.L.~.L.~.~.F.2.7.I.E.8.,.,.,.2.P.E.{ I v.j.k.k.k.k.k.k.k.k.k.k.k.k.k.",
"k.k.k.k.w.r.w.k.k.k.k.k.k.h.j.! 8.E.5.,.,.2.2.,.G.OX#X%X%X%X%X%X%X%X+X_.E.E.I.7.>.,.2.,.5.U.I.Z P h.k.k.k.k.k.k.k.k.k.k.k.k.k.k.",
"k.k.k.w.k.u u w.k.k.g.k.k.k.n.v } E.U.>.>.2.,.S.(.|.|. X|. X|. X.X^.5.2.7.2.2.>.2.2.,.>.P.Q.2.B ` l.h.k.k.k.k.k.k.k.k.k.k.k.k.k.",
"k.k.k.k.k.y e.j.k.k.k.k.k.k.k.k.H 7.Q.P.>.>.6.(.|.|.|.(.|.|.|.|.^.2.,.,.,.>.2.>.>.>.>.8.E.I.U Y +.j.k.k.k.k.k.k.k.k.k.k.k.k.k.k.",
"k.k.k.k.k.r.u k.k.k.k.k.k.k.k.j.c U P.Q.I.G.(.|.|.|.|.|.|.|.|.^.2.>.>.2.>.2.2.2.5.5.I.Q.U.W B ) k.k.k.k.k.k.k.k.k.k.k.k.k.k.k.k.",
"k.k.k.k.k.r.e.g.k.k.k.k.k.k.k.k.j.n U 5.'.#X@X@XOXOXOXOX@X@XoXT.U.U.U.I.I.U.U.U.U.Q.W.D.T B / h.k.k.k.k.h.k.k.k.k.k.k.k.k.k.k.k.",
"k.k.k.g.k.k.k.k.k.k.k.k.k.k.k.k.k.k.v M [ ^.[.XXXXXXXXXXXX[.I.I.I.I.U.I.U.U.I.I.I.7.{ B Z ^ t.t.k.k.k.k.k.k.k.k.k.k.k.k.k.k.k.k.",
"k.k.k.k.k.k.k.k.k.k.k.k.k.k.k.k.k.k.n.y.! G I T S S S T S S I I I U S S I S I I K C P ~ b l.k.h.k.k.k.k.k.k.k.k.k.k.k.k.g.k.k.k.",
"k.k.k.k.k.k.k.k.k.k.k.k.k.k.k.k.k.k.t.k.j.k.w.y.y.y.y.y.# @ - < 0 +.0 : 3 0.0.y.y.y.k.j.j.k.t.l.k.k.k.k.k.k.t.k.k.z.@.x.k.k.k.k.",
"k.k.k.k.k.k.k.k.k.k.k.k.k.k.k.k.h.t.l.h.k.k.k.t.l.n.k.k.8 o > h 0 k.p h 4 s i.k.j.k.k.k.h.t.l.t.k.k.k.k.k.k.k.k.w.h.@.@.k.w.h.k.",
"k.k.k.k.k.k.k.k.k.l.k.k.k.k.k.k.k.t.t.k.k.t.k.l.t.t.k.t.d 5 k , 1 2 a d s w.w.k.k.k.k.k.k.k.t.h.k.k.k.k.k.k.k.k.k.h.g.k.k.k.k.k.",
"k.k.k.k.k.k.k.k.k.k.k.k.k.k.k.k.k.l.k.k.k.k.t.k.k.k.k.t.x z k , , h 4 u.i.k.k.k.w.k.k.k.k.k.k.k.k.k.k.k.k.k.k.k.h.k.k.k.k.k.k.k.",
"k.k.k.k.k.k.k.k.k.k.k.k.k.k.k.k.k.k.k.k.k.l.l.k.k.t.k.h.y i.y t t t i.r.r.k.k.k.k.k.k.k.k.k.k.l.k.k.k.k.k.k.k.k.k.w.k.k.k.k.k.k.",
"k.k.k.k.k.k.k.k.k.k.k.l.k.k.k.k.t.h.k.l.t.k.k.k.k.k.k.k.k.k.h.h.k.k.k.h.k.k.k.k.k.k.k.k.k.k.k.k.k.k.k.k.k.k.k.h.k.k.k.k.k.k.k.k.",
"k.k.k.k.k.k.k.k.k.k.k.k.k.k.k.k.l.k.k.k.t.l.h.t.k.k.k.k.k.k.k.k.k.k.k.k.k.k.k.k.k.k.k.k.k.k.k.k.k.k.k.k.w.r.r.r r.r.w.k.k.k.k.k.",
"l.k.k.k.k.k.k.k.k.k.k.k.k.k.l.k.l.t.h.t.h.k.l.l.k.k.k.k.k.k.k.k.k.k.k.k.k.k.k.k.k.k.k.k.k.l.k.k.k.k.k.k.k.u t t t r k.h.w.k.k.k.",
"k.k.k.k.k.k.k.k.l.k.k.k.k.k.k.k.k.k.k.l.k.k.t.k.k.k.k.k.k.k.k.k.k.k.k.k.k.k.k.k.l.k.k.k.k.k.k.k.k.k.k.k.g.r.u r.q.y s s k.k.k.k.",
"k.k.k.k.k.k.w.k.k.k.k.k.k.k.k.l.k.k.k.k.k.k.k.k.k.k.k.k.k.l.k.k.k.k.k.k.k.k.k.k.k.l.k.k.k.k.k.k.k.k.k.k.k.r.u r.h.i.l 5 k.w.k.k.",
"k.k.k.k.k.k.k.k.t.k.k.k.k.k.k.t.h.t.l.t.k.l.k.k.k.k.k.k.k.k.k.k.k.k.l.k.k.k.k.k.k.k.k.k.k.k.k.k.k.k.k.k.h.r.r.r.w.e.d s k.k.k.k.",
"k.k.l.k.k.k.k.k.h.k.k.k.k.k.h.k.k.l.t.l.k.k.k.k.l.k.k.k.k.k.k.l.k.k.k.k.k.k.k.k.k.k.k.k.k.k.k.k.k.j.k.k.w.k.k.k.w.k.k.k.k.w.k.k.",
"k.k.k.k.k.k.k.r r w.k.k.k.t.l.k.t.l.k.k.k.k.k.k.k.k.k.k.k.k.k.k.k.k.k.k.k.k.k.k.k.k.k.k.k.k.k.k.k.k.k.k.k.k.k.w.h.k.k.k.k.k.k.k."
};
