/* XPM */
static char *cedc85c96a0e494aa83f21a1cbe5262dBidibD0QH7wPswOT[] = {
/* columns rows colors chars-per-pixel */
"64 64 194 2 ",
"   c #FE7F00",
".  c #4DAF39",
"X  c #4DB235",
"o  c #4DB139",
"O  c #57B437",
"+  c #53B23A",
"@  c #68BD2E",
"#  c #67BB33",
"$  c #62B837",
"%  c #6ABD32",
"&  c #62B63E",
"*  c #6DBA3F",
"=  c #75BD3B",
"-  c #79BF3D",
";  c #79C03A",
":  c #3E8C64",
">  c #458E5F",
",  c #498F5E",
"<  c #499D53",
"1  c #4A925C",
"2  c #529D52",
"3  c #53965C",
"4  c #55995A",
"5  c #5B9D5A",
"6  c #649E5A",
"7  c #719C5D",
"8  c #4DA744",
"9  c #58A945",
"0  c #5AB740",
"q  c #5FA155",
"w  c #69AE4D",
"e  c #71AF4F",
"r  c #67B246",
"t  c #6BB841",
"y  c #74BB43",
"u  c #7ABC45",
"i  c #76B44D",
"p  c #7DB64E",
"a  c #7EBA4B",
"s  c #64A555",
"d  c #6AAA52",
"f  c #67A459",
"g  c #74A757",
"h  c #78A657",
"j  c #74AC53",
"k  c #7DAC55",
"l  c #75AB59",
"z  c #7CAE59",
"x  c #6AB155",
"c  c #7DB153",
"v  c #438A62",
"b  c #4A8E60",
"n  c #599563",
"m  c #668B67",
"M  c #6D966E",
"N  c #719A6B",
"B  c #76A561",
"V  c #7FC040",
"C  c #BD9E17",
"Z  c #BB9424",
"A  c #97BA3F",
"S  c #9CBB3E",
"D  c #BDB02D",
"F  c #B3A637",
"G  c #A7B33B",
"H  c #ACBC3C",
"J  c #FE8102",
"K  c #FD8C05",
"L  c #FE9506",
"P  c #FF9907",
"I  c #FE950A",
"U  c #FE9C0C",
"Y  c #FC9E12",
"T  c #FE9E18",
"R  c #C3A019",
"E  c #D1A51E",
"W  c #FFA306",
"Q  c #FEA40B",
"!  c #FFAB0C",
"~  c #EAAC1E",
"^  c #F3A113",
"/  c #FDA513",
"(  c #FDAC14",
")  c #FEA51A",
"_  c #F6AF19",
"`  c #FDAB1B",
"'  c #FEB114",
"]  c #FBB41C",
"[  c #FCB91E",
"{  c #FF9E22",
"}  c #CCA422",
"|  c #C4AB2A",
" . c #C5B82E",
".. c #D8B529",
"X. c #FEA924",
"o. c #FEAE2D",
"O. c #E7B221",
"+. c #FDB622",
"@. c #FCBA22",
"#. c #FDBE2B",
"$. c #FEAD38",
"%. c #FEB735",
"&. c #B0E71F",
"*. c #96CE3E",
"=. c #98CE3D",
"-. c #9CD334",
";. c #9BD23A",
":. c #AFC23D",
">. c #A6DC32",
",. c #A9DE30",
"<. c #AAE320",
"1. c #B7EC24",
"2. c #BCF021",
"3. c #FBC126",
"4. c #FCC52C",
"5. c #FDC92E",
"6. c #FCC633",
"7. c #FCCD32",
"8. c #FBCE39",
"9. c #FED436",
"0. c #FFD835",
"q. c #F7D039",
"w. c #FCD53A",
"e. c #FCD93C",
"r. c #81BF45",
"t. c #8ABF46",
"y. c #83B74E",
"u. c #83BC4B",
"i. c #88BE4B",
"p. c #96B945",
"a. c #9CBD41",
"s. c #81AC56",
"d. c #82B452",
"f. c #A6AE45",
"g. c #FEB344",
"h. c #84C046",
"j. c #8CC446",
"k. c #85C24A",
"l. c #8BC34A",
"z. c #8ECA48",
"x. c #92CA41",
"c. c #9CC946",
"v. c #9AC749",
"b. c #95C849",
"n. c #92C651",
"m. c #AFC441",
"M. c #AFC945",
"N. c #AFC74D",
"B. c #B9C640",
"V. c #B0CB47",
"C. c #ADD04C",
"Z. c #B0D14C",
"A. c #AFCB59",
"S. c #C2CF47",
"D. c #C1CA4F",
"F. c #C7D549",
"G. c #C7D749",
"H. c #C7D85C",
"J. c #FACE45",
"K. c #FDDD41",
"L. c #FED64B",
"P. c #FECD5C",
"I. c #FDD659",
"U. c #FDE345",
"Y. c #FEE64B",
"T. c #FDEA4D",
"R. c #FEEE51",
"E. c #FFE95F",
"W. c #FDF355",
"Q. c #FDF658",
"!. c #C7D96E",
"~. c #CEDE68",
"^. c #C7DA71",
"/. c #C9DD70",
"(. c #FBCE6B",
"). c #FCD568",
"_. c #FDDA6D",
"`. c #FCDD76",
"'. c #FCDD7F",
"]. c #F9E978",
"[. c #FCF17C",
"{. c #FDDE81",
"}. c #E1E887",
"|. c #FEE283",
" X c #FDE883",
".X c #FEE28A",
"XX c #FEEC8D",
"oX c #FDF281",
"OX c #FFF789",
"+X c #FDE694",
"@X c #FFEB91",
"#X c #FDF295",
"$X c #FEF69B",
"%X c #FEF9A1",
/* pixels */
"l.l.l.l.l.l.l.l.l.l.l.z.l.l.l.l.j.y.z j d j y.y.t y y.y.k.l.l.l.l.l.l.l.l.l.l.l.l.k.j.l.t.- = h.l.l.l.l.l.l.l.l.l.l.l.l.l.l.l.l.",
"l.l.l.l.l.l.l.l.l.z.l.l.l.l.l.l.l.l.j.j.l.l.l.j.l.j.l.l.l.l.l.l.l.l.l.l.l.l.l.l.l.l.l.l.l.% @ h.l.j.l.l.l.l.l.l.l.l.l.n.l.l.l.l.",
"l.l.l.l.l.l.n.l.l.l.l.l.l.l.l.l.l.l.l.l.l.l.l.l.l.l.l.l.l.l.l.l.l.l.l.l.l.l.l.l.l.l.l.l.i.$ $ h.l.l.l.h.l.l.l.l.l.l.l.l.l.l.l.l.",
"l.l.l.l.l.l.l.l.l.l.l.l.l.l.l.l.j.i.l.l.l.l.l.l.l.l.l.l.l.l.l.l.l.l.l.l.l.l.l.n.l.l.l.l.k.O + r.l.l.l.l.l.l.l.l.l.l.l.l.l.l.l.l.",
"l.l.n.l.l.l.l.l.l.l.l.l.l.l.l.l.i.j.l.l.i.j.l.l.l.l.l.l.l.l.l.l.l.l.l.l.l.l.l.n.l.l.l.l.k.9 8 u.l.r.y r.i.j.l.l.l.l.l.n.l.n.l.l.",
"l.l.l.l.l.l.l.l.l.l.l.l.l.l.l.k.l.l.k.l.l.l.l.l.l.l.l.l.l.l.l.l.l.l.l.l.l.l.l.l.l.l.l.l.i.3 b a l.& . u l.l.l.l.l.l.l.l.l.l.l.l.",
"l.l.l.l.l.l.l.l.l.l.l.l.l.l.l.l.l.l.l.l.l.l.l.l.l.l.l.l.l.l.l.l.l.l.l.l.z.l.l.l.l.l.l.l.k.3 1 a l.r 8 u l.l.l.l.l.l.l.l.l.l.l.l.",
"l.l.l.l.l.l.l.l.l.l.l.l.l.l.l.l.l.j.l.l.k.l.l.l.l.l.l.l.l.l.l.l.l.n.l.l.l.l.l.l.l.l.l.l.i.3 , p j.5 > i j.l.l.l.l.z.l.l.l.l.l.l.",
"l.l.i.l.l.l.i.l.l.l.l.l.l.l.l.l.j.j.t.l.r.l.l.l.l.l.l.l.l.l.l.l.l.l.l.l.l.l.l.l.l.l.l.l.i.5 4 u.l.s 3 i n.l.l.l.l.l.l.l.l.l.l.l.",
"l.l.l.j.l.l.l.j.l.l.k.l.l.l.l.j.*.*.*.x.l.l.l.i.l.l.l.l.l.l.l.l.l.l.l.l.l.l.l.l.l.l.l.l.k.k.h.l.l.k.k.l.k.l.l.l.l.l.l.l.l.n.l.l.",
"l.l.l.l.j.i.k.l.l.l.l.l.l.l.l.j.*.*.*.x.l.j.l.l.l.l.l.l.l.l.l.l.l.l.l.l.l.l.l.l.l.l.l.l.l.l.l.l.l.l.l.l.l.l.l.l.l.l.l.l.l.l.l.l.",
"l.l.l.l.l.a u.i.l.l.l.l.k.l.l.j.l.j.j.j.l.l.l.l.l.l.l.l.k.z.k.k.k.l.k.k.k.l.l.l.l.l.l.l.l.l.l.l.l.l.l.l.l.l.l.l.l.l.l.l.l.n.l.l.",
"l.l.k.j.h.u.a l.l.l.l.h.j.l.l.l.l.l.j.i.l.l.l.l.l.k.b.a.S S S a.v.v.v.c.c.b.r.l.l.l.l.l.l.j.l.l.j.l.j.i.k.l.l.l.l.z.l.l.l.l.l.l.",
"l.l.i.a a i.k.u.a a u.i.l.l.l.l.l.l.l.l.l.l.l.k.l.E ^ Y / ^ Y Y U 8.[.oX[.[./.l.l.l.l.l.l.l.l.l.l.l.l.l.l.n.l.l.l.l.l.l.l.l.l.l.",
"l.k.i.a a j.i.u.a u.a i.l.l.l.k.l.l.l.l.l.l.l.A ~ 7.U.E. XXXXX XP.Y o.#X%X$X%X}.n.l.l.l.l.l.l.l.l.l.l.l.l.l.l.l.l.l.l.l.l.z.l.l.",
"l.l.j.i.i.i.j.r.i.i.i.i.j.l.l.l.l.l.l.j.l.l.l...Y.W.E.#X#X#X#X#X%X XU %.OXoXoXOX~.i.l.l.l.l.l.l.l.l.l.l.l.l.l.l.l.l.l.l.l.l.l.l.",
"l.j.l.l.l.l.l.j.l.l.l.l.l.l.l.l.l.l.l.l.l.k.H Y.U.J.|.{.{.{.{.{.{.$X].L e.W.W.T.R.v.l.l.l.l.l.l.l.l.l.l.l.l.l.l.l.n.l.l.l.l.l.l.",
"l.l.l.l.i.l.l.k.l.l.l.l.l.l.l.l.l.l.l.l.l.k.S.U.J.'.|.{.{.|.{.{.'.{. X` 3.W.R.R.W.C.l.l.l.l.l.l.l.l.l.l.l.l.l.l.l.l.l.l.l.l.l.l.",
"l.l.l.l.l.l.l.l.l.l.l.l.l.l.l.l.l.l.l.l.l.k.G.L.'.{.{.|.{.{.{.{..X).K.+.+.W.T.W.W.C.k.l.l.l.l.l.l.l.l.l.l.l.z.l.l.l.l.l.n.l.l.l.",
"l.l.l.l.l.l.l.l.l.l.l.l.l.l.l.l.l.l.n.l.l.h.H. X{.|..XXXXXXXXXXX_.4.w.+.+.W.W.R.W.C.k.l.l.l.l.l.l.l.l.l.l.l.l.l.l.l.l.z.l.l.l.l.",
"l.l.l.l.l.l.l.l.l.l.l.l.l.l.l.l.l.l.l.l.l.h.^..X|.#X%X#X$X$X$XOXY.4.w.+.+.W.W.T.R.Z.r.l.l.l.h.l.l.l.l.l.l.l.l.l.n.l.l.l.l.l.l.l.",
"l.l.l.l.l.l.l.l.l.l.l.l.l.l.l.l.l.l.l.l.l.h.!..X@X@Xg.{ ) X.X.6.W.e.w.+.+.Q.W.W.W.Z.i.l.l.l.l.l.l.l.l.l.l.l.l.l.k.l.l.l.l.l.l.l.",
"l.l.l.l.l.l.l.l.l.l.l.l.l.l.l.l.l.l.l.l.l.r.!..X#X$.  P Q W W W 9.U.w.+.( e.w.w.w.V.k.l.i.l.l.l.l.l.l.l.n.l.l.l.l.l.l.l.l.l.z.l.",
"l.l.l.l.l.l.l.l.l.l.l.l.l.l.l.l.l.l.l.l.l.h.!.XX`.J L W W Q Q Q ' e.w.+./ 5.4.5.5.:.k.j.j.j.l.l.l.l.l.n.l.l.l.l.l.l.l.l.l.l.l.l.",
"l.l.l.l.l.l.l.l.l.l.l.l.l.l.l.l.l.l.l.l.n.r.!.+X(.  / [ @.) K I U w.e.+./ 7.5.7.5.V.h.=.*.j.l.l.l.l.l.l.l.l.l.l.l.l.z.l.l.l.l.l.",
"n.l.l.l.l.l.l.l.l.l.l.l.l.l.l.l.l.l.l.l.l.r.!.XX(.Y 7.9.U.U.` K U w.e.@./ 5.4.5.5.:.h.*.x.j.l.l.l.l.l.l.l.l.l.l.k.n.l.l.l.l.l.l.",
"l.l.l.l.l.l.l.l.l.l.l.l.l.j.l.l.l.l.l.l.l.r.!.XX(.` 7.4.9.U.6.  P w.e.+.X.I.I.I.I.N.h.l.l.i.j.l.l.l.l.l.l.l.l.l.l.l.l.l.l.l.l.l.",
"l.l.l.n.l.l.l.l.l.l.l.l.l.i.r.r.l.l.l.l.t.r.!.+X(.` 7.5.5.e.6.  U w.e.] $.+X.X|.+XA.h.l.l.l.l.l.l.l.l.l.l.l.l.l.l.l.l.l.l.l.n.l.",
"l.l.l.l.l.k.l.l.l.l.l.l.l.t X t l.l.l.l.l.r.^.].6.` 7.5.5.w.6.  U w.e.] o.].).)._.A.h.l.j.l.l.l.l.l.j.l.l.l.l.l.l.l.l.l.l.l.l.l.",
"l.l.l.l.l.l.l.l.l.l.l.l.l.* + * l.l.l.l.l.u.H.w.6.` 7.7.4.9.6.J U w.e.+./ 7.5.5.5.m.k.j.l.k.l.l.l.l.l.j.j.j.l.h.l.l.l.l.l.l.l.l.",
"l.l.l.j.l.l.j.l.l.l.l.j.i.-.<.-.l.l.l.l.l.u.G.0.6.` 9.5.5.9.#.  U w.e.@./ 7.5.5.7.:.k.l.l.l.l.l.l.l.i.>.1.;.l.l.l.l.k.l.l.l.l.l.",
"l.l.k.l.j.k.i.l.l.l.l.l.l.-.&.-.k.l.i.j.l.r.G.9.6.` 7.5.5.7.@.  U w.e.@./ 7.5.5.5.:.k.l.l.l.l.j.l.l.i.,.2.;.i.l.k.k.l.l.l.l.l.l.",
"l.l.r.u.u.k.l.l.t.l.l.l.l.- @ % + * l.i.s.g D.0.6._ 5.5.5.7.+.  U q.w.+./ 9.5.5.7.m.k.l.l.l.l.l.l.l.i.,.2.;.i.y + * t.l.l.l.l.l.",
"l.l.i.u.a l.l.l.j.l.l.l.l.= % O o * l.y.s.g D.9.6./ 7.5.5.q.+.J U w.e.+.` U.K.e.e.V.k.l.l.l.l.l.l.l.l.,.2.;.i.y o & l.l.l.l.l.l.",
"l.l.k.i.i.j.l.l.l.j.l.l.j.= % r 1 q d.s.k j G.9.6.Y 5.5.6.7.+.  U w.e.+._ K.K.K.K.V.j.l.l.l.l.l.l.l.l.j.*.e 3 d r.r.l.l.l.t.l.l.",
"l.l.l.l.l.i.l.l.l.t.l.l.l.= % 9 v 4 s.s.s.j G.0.8.Y 3.5.5.9.+.  U q.e.+.` U.K.K.K.M.k.l.l.l.l.l.i.r.j.j.l.s v d j.l.l.l.l.l.l.l.",
"l.l.l.l.l.l.l.l.l.l.h.l.l.h.; u i p i.y.i.a F.9.6.Y @.5.4.7.+.J U w.e.+.( e.9.q.w.V.k.l.l.l.l.l.j.z B y.z.r 8 r l.u & t l.l.l.l.",
"l.l.l.l.l.l.l.l.l.l.i.l.l.l.l.l.l.j.l.l.l.k.F.9.6.Y [ 3.7.7.+.  U w.e.+./ 7.5.5.5.:.k.l.l.l.l.l.l.B M d.z.t + t l.y . & i.j.l.l.",
"l.l.l.l.l.l.l.l.l.l.l.l.l.l.l.l.l.l.l.l.l.k.G.9.6.U ] ] 4.7./ J U w.e.+./ 7.5.6.7.m.k.l.l.l.l.l.j.d.c z z s < w b.u + & l.l.l.l.",
"l.l.l.l.l.l.l.l.l.l.l.j.k.j.l.k.l.l.l.l.l.u G.9.q.J / _ ( / K L U w.e.+./ 9.5.5.5.m.k.l.l.l.l.l.l.l.j.h M n v s l.u . O l.l.l.h.",
"l.l.l.l.l.l.l.l.l.l.l.l.l.l.l.n.l.l.l.l.j.u.G.9.q.  I Q ! U Q U ! e.w.@./ 7.5.5.7.m.V l.l.l.l.l.l.l.l.d.z j s i l.r.* y t.l.l.l.",
"l.l.l.l.l.l.l.l.l.l.l.l.l.l.l.l.l.l.l.l.n.k.G.7.Y.T J U W ! ! W 5.U.q.@.Q 3.@.@.@.:.k.l.i.l.l.l.l.l.i.k.l.j.l.l.j.l.l.l.l.l.l.t.",
"l.l.l.l.l.l.l.l.l.l.l.l.l.l.l.l.l.l.l.l.l.k.G.7.Y.Y.^ I U U U @.R.K.0.+.^ [ [ [ +.H k.z.l.l.l.l.l.l.l.l.l.l.l.l.i.l.l.l.l.l.l.l.",
"l.l.l.l.l.l.l.l.l.l.l.l.l.n.l.l.l.l.l.l.l.r.G.7.7.R.W.T.Y.T.R.Q.Y.7.e.@.U @.[ @.[ m.k.l.l.l.l.l.l.l.l.l.l.l.l.l.l.l.l.l.l.l.l.l.",
"l.l.k.j.i.i.i.k.l.l.l.l.l.l.l.l.l.l.l.l.l.h.G.9.5.7.U.T.T.T.T.K.7.4.e.@.Y +.[ [ [ H u.l.l.l.l.l.l.l.l.l.l.l.l.l.i.l.j.l.l.l.l.k.",
"l.l.l.l.j.a y.h.l.l.l.l.l.l.l.l.l.l.l.l.l.k.G.e.4.5.5.5.5.6.7.6.6.4.K.@.Q @.[ @.[ f.j l.l.l.l.l.l.l.l.l.l.l.l.l.l.l.l.l.l.l.l.l.",
"l.l.l.l.i.u.a l.l.l.l.l.l.l.l.l.l.l.l.l.l.k.B.T.q.4.5.5.5.5.5.5.4.w.T./ ( [ [ @.[ f.c l.k.l.l.l.l.l.l.l.l.l.l.l.l.l.l.l.l.l.l.l.",
"l.l.l.i.j.a a l.l.l.l.l.l.l.l.l.l.l.l.l.l.l.S q.Q.e.7.7.9.w.7.9.e.W.4.L _ ] _ ' O.l.k.j.l.l.l.l.l.l.l.l.l.l.l.l.l.l.l.l.l.l.l.l.",
"l.l.l.l.l.a y.h.l.l.l.l.l.l.l.l.l.l.l.l.l.l.k.D 7.W.Q.Q.W.Q.W.W.W.4.I / _ ( ] ( G k.l.l.l.l.l.l.l.l.l.l.l.l.l.l.l.l.l.l.l.l.l.l.",
"l.l.l.l.l.l.l.l.l.l.l.l.l.l.l.l.l.l.l.l.l.l.l.l.| +.3.6.7.7.7.4.( L Q ' ' ( _ F k l.l.l.l.l.l.l.l.l.l.l.l.l.l.l.l.l.l.l.l.l.l.l.",
"l.l.l.l.l.l.l.l.l.l.l.l.l.l.l.l.l.l.l.z.l.l.l.l.V H } E R C Z Z } ..| F D  .p.k d.l.l.l.l.l.k.l.l.l.l.l.l.l.l.l.l.l.j.l.j.l.l.l.",
"l.l.l.l.l.l.l.l.l.l.l.l.l.l.l.l.l.l.l.l.l.l.l.l.n.k.k.k.0 o < : x l.s : 5 z c i.i.l.l.l.l.l.l.l.l.l.l.l.l.l.l.l.l.j.*.x.i.k.l.j.",
"l.l.l.l.l.l.l.l.l.l.l.l.l.l.l.l.l.l.l.l.l.l.l.l.k.l.l.l.r + 2 b d x.d b 6 s.y.j.l.l.l.l.l.l.l.n.l.l.l.l.l.l.k.l.l.j.*.x.l.l.l.l.",
"l.l.l.l.l.l.l.l.l.l.l.l.l.l.l.l.l.l.l.l.l.l.l.l.l.l.l.l.l f n 1 4 4 f g k i.t.i.l.l.j.l.l.l.l.l.l.l.l.l.l.l.l.l.l.j.j.j.j.k.l.l.",
"l.l.l.l.l.l.l.l.l.l.l.l.l.l.n.l.l.n.l.l.l.l.l.l.k.l.l.k.B N n 1 1 > 6 s.y.l.l.l.l.l.k.l.l.l.l.l.l.l.l.n.l.l.l.l.t.l.l.l.l.i.l.l.",
"l.l.l.l.l.l.l.l.l.l.z.l.l.l.l.l.l.l.l.l.l.l.l.n.l.l.l.l.d.d.i i i c a y.u.l.l.l.i.l.l.l.l.l.l.l.l.l.l.l.l.l.l.l.l.k.l.l.l.l.j.l.",
"l.l.l.l.l.l.l.l.l.l.l.l.l.l.z.l.l.l.l.l.l.l.l.l.l.l.l.l.l.l.z.l.l.l.j.l.l.l.l.k.l.l.j.l.l.l.l.l.l.i.l.l.l.l.l.l.l.l.l.l.j.l.l.l.",
"n.l.l.l.l.l.l.l.l.l.l.l.l.l.l.l.l.l.l.l.l.z.l.l.l.l.l.l.l.l.l.l.l.l.l.l.l.l.l.j.n.l.l.l.l.l.l.l.l.l.l.l.j.u.a r.a u.i.j.l.l.l.l.",
"l.l.l.l.l.l.l.l.l.l.l.l.l.l.l.l.l.l.l.l.l.l.l.l.l.l.l.j.l.k.l.l.l.l.l.l.l.l.l.l.l.l.l.l.l.l.l.z.l.l.l.l.i.a i i i u l.l.j.i.l.l.",
"l.l.l.l.l.l.l.l.l.n.l.l.l.l.l.l.l.z.l.l.l.l.l.l.l.l.l.l.l.l.l.l.l.l.l.l.l.l.l.l.l.l.l.l.l.l.l.l.l.l.l.l.l.r.a u r.a h d.k.l.l.l.",
"l.l.z.l.l.l.l.l.l.l.l.l.l.l.l.l.l.l.l.l.l.l.l.l.l.l.l.l.l.l.n.l.l.l.l.l.l.l.l.l.l.l.l.l.l.l.l.l.l.l.l.l.l.u.a u.l.d.m 7 l.l.l.l.",
"l.l.l.l.l.l.l.l.l.l.l.l.l.l.l.l.l.l.l.l.n.l.l.l.l.l.l.l.l.l.l.l.l.l.l.l.l.l.l.l.n.l.l.l.l.l.l.l.l.l.l.l.j.i.u.u.j.u.h k j.i.l.l.",
"l.l.l.l.l.l.l.l.l.l.l.l.k.l.l.l.l.l.l.l.l.l.l.l.l.l.l.l.l.l.l.l.l.l.l.l.l.l.l.l.l.l.l.l.l.l.l.l.l.k.l.l.k.l.j.l.i.j.j.l.j.i.l.l.",
"l.l.l.l.l.l.l.u y k.l.l.l.l.n.l.l.n.l.l.l.l.l.l.l.l.l.l.l.l.l.n.l.l.l.l.l.l.l.l.l.l.l.l.l.l.l.l.l.l.l.l.l.l.i.l.l.l.l.l.k.l.l.l."
};
