/* XPM */
static char *_227d0df9ded409089b7c4feb63ee0e8sNURXI3cuEZJThKK[] = {
/* columns rows colors chars-per-pixel */
"64 64 153 2 ",
"   c #4DAF39",
".  c #4DB235",
"X  c #47B23A",
"o  c #4DB13A",
"O  c #53B337",
"+  c #5FB736",
"@  c #54B33B",
"#  c #5CB53C",
"$  c #79A33B",
"%  c #61B535",
"&  c #67BB33",
"*  c #6ABD32",
"=  c #63B63E",
"-  c #6AB63D",
";  c #64B838",
":  c #6DBA3F",
">  c #75BD3B",
",  c #79BF3D",
"<  c #6EC02E",
"1  c #79C03A",
"2  c #5F9E4C",
"3  c #458E5F",
"4  c #498E5E",
"5  c #4B9C52",
"6  c #4A925C",
"7  c #53965C",
"8  c #55985B",
"9  c #5B9C5A",
"0  c #649E5A",
"q  c #719C5D",
"w  c #4DA744",
"e  c #50A646",
"r  c #57AA46",
"t  c #5DAA45",
"y  c #5FB942",
"u  c #5FA155",
"i  c #69AE4D",
"p  c #72A44F",
"a  c #7BAC4C",
"s  c #61B045",
"d  c #6BB445",
"f  c #6BB841",
"g  c #74BB43",
"h  c #7BBC45",
"j  c #76B44D",
"k  c #7DB64E",
"l  c #73B94D",
"z  c #7EBA4B",
"x  c #64A555",
"c  c #68A655",
"v  c #66A855",
"b  c #6BAC52",
"n  c #67A158",
"m  c #6CA05F",
"M  c #75A657",
"N  c #78A657",
"B  c #71AC54",
"V  c #7DAC55",
"C  c #72A959",
"Z  c #7DAE5A",
"A  c #7DB052",
"S  c #448B61",
"D  c #4A8F60",
"F  c #599563",
"G  c #668B67",
"H  c #6D966E",
"J  c #719A6B",
"K  c #76A561",
"L  c #7FC040",
"P  c #71C048",
"I  c #B7A21D",
"U  c #86AC37",
"Y  c #8DB135",
"T  c #9BB339",
"R  c #9CB539",
"E  c #A7B536",
"W  c #A2B73A",
"Q  c #A2B83B",
"!  c #BFBB39",
"~  c #D3981F",
"^  c #F79C0C",
"/  c #FB9D10",
"(  c #CDA41D",
")  c #FFA20D",
"_  c #F0A613",
"`  c #FCA412",
"'  c #FDAC15",
"]  c #FDA61F",
"[  c #F5AE1A",
"{  c #FEA919",
"}  c #F3B019",
"|  c #FDB31B",
" . c #FCB91E",
".. c #C5A620",
"X. c #CDA721",
"o. c #CDA823",
"O. c #FEAA23",
"+. c #FFB425",
"@. c #FBBB21",
"#. c #B0E71F",
"$. c #96CE3E",
"%. c #9CD334",
"&. c #9BD23A",
"*. c #A9DE30",
"=. c #AAE320",
"-. c #B7EC24",
";. c #BCF021",
":. c #FDC52B",
">. c #FCC92E",
",. c #FFC734",
"<. c #FCCC31",
"1. c #FCCD3F",
"2. c #FCD439",
"3. c #FCD93E",
"4. c #8BA642",
"5. c #80BF46",
"6. c #83B74E",
"7. c #84BC4B",
"8. c #88BF4A",
"9. c #81AD56",
"0. c #81B352",
"q. c #FFBD48",
"w. c #84C046",
"e. c #8CC346",
"r. c #85C44C",
"t. c #8BC34A",
"y. c #9CC642",
"u. c #92CA41",
"i. c #84C650",
"p. c #D9CA45",
"a. c #FCCE41",
"s. c #FAD347",
"d. c #FDDD41",
"f. c #FFCA54",
"g. c #FCE346",
"h. c #FDE448",
"j. c #FDED4F",
"k. c #E1E25E",
"l. c #FFEE51",
"z. c #FFEF5D",
"x. c #FEF153",
"c. c #FEF35B",
"v. c #FCF85A",
"b. c #FDDD7F",
"n. c #DEE461",
"m. c #DEE865",
"M. c #FDF765",
"N. c #FDDE81",
"B. c #FBE48C",
"V. c #FDF394",
"C. c #FFF799",
"Z. c #FFF89B",
"A. c #FDFDA3",
/* pixels */
"t.t.t.t.t.t.t.t.t.t.i.y.t.t.t.t.t.7.V V b b 6.6.f g 6.0.t.t.t.t.t.t.t.t.t.t.t.t.t.t.t.t.8., > w.t.t.t.t.t.t.t.t.t.t.t.t.t.t.t.t.",
"t.t.t.t.t.t.t.t.t.t.t.t.t.i.t.t.t.e.t.e.t.e.e.t.t.e.e.t.t.t.t.t.t.t.t.t.t.t.t.t.t.t.t.t.w.* & w.t.t.t.t.t.t.t.t.t.t.t.t.t.t.t.t.",
"t.t.t.t.t.t.t.t.t.t.t.t.t.t.t.t.t.t.8.t.t.t.t.t.t.t.t.t.t.t.t.t.t.t.t.t.t.t.t.t.t.t.t.t.t.; % w.t.t.t.t.t.t.t.t.t.t.t.t.t.t.t.t.",
"t.t.t.t.t.t.t.t.t.t.t.t.t.t.t.t.t.t.t.t.t.t.t.e.t.t.t.t.t.t.t.t.t.t.t.t.t.t.t.t.t.8.t.t.w.# O L t.t.t.t.t.t.t.t.t.t.t.t.t.t.t.t.",
"t.t.t.t.t.t.t.t.t.t.t.t.t.t.t.t.t.t.w.t.t.t.t.w.t.t.t.t.t.t.t.t.t.t.t.t.t.t.t.t.t.t.t.t.w.r e z e.h g 5.t.t.t.t.t.t.t.t.t.t.t.t.",
"t.t.t.t.t.t.t.t.t.t.t.t.t.t.t.t.t.t.t.t.t.t.t.t.t.t.t.t.t.t.t.t.i.t.t.t.t.t.t.t.t.t.t.t.t.7 6 z e.= . h t.t.t.t.t.t.t.t.t.t.t.t.",
"t.t.t.t.t.t.t.t.t.t.t.t.t.t.t.t.t.t.t.t.t.t.t.t.t.t.t.t.t.t.t.t.t.t.t.t.t.t.t.t.t.t.t.t.r.7 6 6.t.s w h t.t.t.t.t.t.t.t.t.t.t.t.",
"t.t.t.t.t.t.t.t.t.t.t.t.t.t.t.t.t.t.t.t.8.t.t.t.t.t.t.t.t.t.t.t.t.t.t.t.t.t.t.t.t.t.t.t.8.7 3 z e.0 S j e.t.t.t.t.t.t.t.t.t.t.t.",
"t.t.t.t.t.t.t.t.t.t.t.t.t.t.t.t.t.e.e.e.t.t.t.t.t.t.t.t.t.t.t.t.t.t.y.i.t.t.t.t.t.t.t.t.r.9 8 6.t.n F 0.t.t.t.t.y.i.t.t.t.t.t.t.",
"t.t.t.t.t.t.t.t.t.t.t.t.t.t.i.u.$.$.$.u.t.t.t.t.t.t.t.t.t.t.t.t.t.t.t.t.t.t.t.t.t.t.t.t.t.t.w.t.t.8.r.8.t.t.t.t.t.i.t.t.t.t.t.t.",
"t.t.t.t.t.8.t.w.t.t.t.t.t.t.t.u.$.$.$.u.t.t.t.t.t.t.t.t.t.t.t.t.t.t.t.t.t.t.t.t.t.t.t.t.t.t.t.t.t.t.t.t.t.t.i.t.t.t.t.t.t.t.t.t.",
"t.w.t.t.8.7.z t.t.t.t.t.t.t.t.t.e.e.e.t.8.t.t.t.t.t.t.t.t.t.t.t.t.t.t.t.t.t.t.t.t.t.t.t.t.t.t.t.t.t.t.t.t.t.y.t.t.t.t.t.t.i.i.y.",
"t.t.t.t.w.6.z t.t.w.t.w.t.t.t.t.t.t.t.t.t.t.t.t.t.t.t.t.r.t.e.w.t.t.t.r.e.t.t.t.t.t.t.t.t.t.t.t.t.t.t.t.t.t.t.t.t.t.t.t.t.t.t.t.",
"t.t.8.7.7.8.w.7.6.7.7.8.t.t.t.t.t.t.t.t.t.t.t.t.t.t.r.R p.m.k.n.m.m.k.! t.e.e.t.t.t.t.t.t.t.t.t.t.t.t.t.t.t.t.t.t.t.i.t.t.t.i.y.",
"t.t.8.z 7.t.t.6.z z z 8.t.t.t.r.t.t.t.t.t.t.e.t.t.e.i.( f.A.Z.Z.Z.Z.Z.O.R r.t.t.t.t.t.t.t.t.t.t.t.t.t.t.t.t.t.t.t.t.y.i.t.t.i.t.",
"t.t.w.8.w.t.w.w.8.8.8.8.t.t.8.t.t.t.t.t.t.t.t.t.t.t.r.( f.Z.V.V.C.V.V.O.E r.t.t.t.t.t.t.t.t.t.t.t.t.t.t.i.t.t.t.i.y.t.t.t.t.t.t.",
"t.t.t.t.t.t.t.t.t.t.t.t.t.t.t.t.t.t.t.t.i.t.t.t.8.e.t.( ,.M.c.z.c.c.z.{ Q t.t.t.t.t.t.t.t.t.t.t.t.t.t.t.t.t.t.t.t.t.t.t.t.i.i.t.",
"t.t.t.t.w.t.t.t.t.t.t.t.t.t.t.t.t.t.t.t.t.t.t.t.t.t.r.X.:.v.j.l.l.l.j.{ Q t.t.t.t.t.t.t.t.t.t.t.t.t.t.t.t.t.t.t.t.t.t.t.t.y.t.t.",
"t.t.t.t.t.t.t.t.t.t.t.t.t.t.t.t.t.t.t.t.t.t.t.t.t.t.r.( :.v.j.x.l.x.l.{ W t.t.t.t.t.t.t.t.t.t.t.t.t.t.t.t.t.t.t.y.t.t.t.y.t.t.t.",
"t.t.t.t.t.t.t.t.t.t.t.t.t.t.t.t.t.t.t.t.t.t.t.t.t.8.i.X.,.c.j.x.l.l.l.{ Q i.t.t.t.t.t.t.t.t.t.t.t.t.t.t.i.t.t.t.i.i.t.t.i.t.t.t.",
"t.t.t.t.t.t.t.t.t.t.t.t.t.t.t.t.t.t.t.t.t.t.t.t.t.t.r.( >.c.l.l.l.x.l.{ W r.t.t.t.t.t.t.w.t.t.t.t.t.t.t.t.t.t.t.t.t.t.t.t.y.i.t.",
"t.t.t.t.t.t.t.t.t.t.t.t.t.t.t.t.t.t.t.t.t.t.t.t.t.t.r.X.:.v.x.x.x.x.l.{ W r.t.t.t.t.t.t.e.t.t.t.t.t.t.t.t.t.t.t.t.t.t.t.t.i.t.t.",
"t.t.t.t.t.t.t.t.t.t.t.t.t.t.t.t.y.i.t.t.t.t.t.t.t.t.r.X.:.j.g.g.h.h.g.' Q r.t.t.t.t.t.t.t.t.t.t.t.t.t.t.t.t.t.t.t.t.t.t.t.t.t.t.",
"t.t.t.t.t.t.t.t.t.t.t.t.t.t.t.t.t.i.t.t.t.t.t.t.t.t.r.( | >.>.>.:.:.:.` Q r.t.t.t.t.t.u.e.t.t.t.t.t.t.t.t.t.t.t.t.t.t.t.t.t.t.t.",
"t.t.t.t.t.t.t.t.t.t.t.t.t.t.t.t.t.t.t.t.t.t.t.t.t.t.i.o.| <.<.>.<.<.>.` Q r.t.t.t.t.t.$.$.t.t.t.t.t.t.t.t.t.t.t.t.t.t.t.t.t.t.t.",
"t.t.t.t.t.t.t.t.t.t.t.t.t.t.t.t.t.t.t.t.t.t.t.t.t.t.i.o.| >.>.>.>.>.>.) R r.8.t.t.t.t.$.$.t.t.t.t.t.t.t.t.t.t.t.t.t.t.t.t.t.t.t.",
"t.t.t.t.t.t.t.t.t.t.t.t.t.t.t.t.t.t.t.t.t.t.t.t.t.t.t.o.| s.1.1.1.1.1.` T l z t.t.t.8.t.8.8.t.t.t.t.t.t.t.t.t.t.t.t.t.t.t.t.t.i.",
"t.t.t.t.t.t.t.t.t.t.t.t.t.w.5.w.t.t.t.t.t.t.t.t.t.t.r.( q.B.b.b.N.B.b.] T l z t.w.t.t.t.8.t.e.t.t.t.t.t.t.t.t.t.t.t.t.t.t.t.i.y.",
"t.t.t.t.t.t.t.t.t.t.t.t.t.f O f t.t.t.t.t.t.t.t.t.t.i.( q.B.b.B.N.N.N.] T h 6.z 5.t.t.t.e.t.t.t.t.t.t.t.t.t.t.t.t.t.t.t.t.t.t.t.",
"t.t.t.t.t.t.t.t.t.t.t.t.t.f O f t.t.t.t.t.t.t.t.t.t.r.X.+.s.a.a.a.a.a.' T j 7.7.6.t.t.t.t.t.t.t.t.t.t.t.t.t.t.t.t.t.t.t.t.t.t.t.",
"t.t.t.t.t.t.t.t.t.t.t.t.t.%.=.%.t.t.t.t.t.t.t.t.t.t.t.X.| <.>.>.:.:.>.) R r.8.8.t.t.t.t.t.t.t.t.t.t.t.*.-.&.t.t.t.t.t.t.t.t.t.t.",
"t.t.t.t.t.t.t.t.t.t.t.t.t.%.#.%.t.t.t.t.8.8.t.8.t.t.r.o.| <.>.<.<.<.>.` Q w.t.t.t.t.t.t.t.t.t.t.t.t.r.*.;.y.t.t.t.t.t.t.t.t.t.t.",
"t.w.8.7.7.8.t.t.t.t.t.t.r.1 < & @ f t.8.V V V V t.t.r.X.| <.:.:.<.:.:.` Q r.t.t.t.t.t.t.t.t.t.t.t.t.t.*.;.&.t.g @ - t.t.t.t.t.t.",
"t.t.8.z z t.t.t.t.w.t.t.t.1 & +   - e.7.V V V V 8.t.i.X. .3.2.2.2.2.3.` Q r.t.t.t.t.t.t.t.t.t.t.t.t.8.*.;.&.8.g   f t.t.t.t.t.t.",
"e.t.t.8.8.w.t.t.t.t.t.t.t.> & t 6 u 0.V V 6.8.8.t.t.r.X.@.h.d.d.d.d.d.` Q r.t.t.t.t.t.t.t.t.t.t.t.t.w.e.$.b 8 b h 8.t.t.t.t.t.w.",
"t.t.t.t.t.t.t.t.t.t.t.t.t.> < t S 9 9.V V 9.t.t.t.8.i.X.@.g.d.d.d.d.d.` W t.t.t.t.t.t.t.t.t.t.t.t.t.t.t.t.x S v e.t.t.t.8.t.t.t.",
"t.t.t.t.t.t.t.t.t.w.t.t.t.t.w.L B 6.8.6.6.8.t.t.t.t.t.X.@.d.d.3.3.3.3.` Q r.t.t.t.t.t.t.t.w.t.t.t.V K 6.t.d w d t.h = : e.t.t.t.",
"t.t.t.t.t.t.t.t.t.t.t.t.t.t.t.t.e.e.t.t.t.t.t.t.t.t.r.X.| <.<.<.>.<.>.` Q r.t.t.t.t.t.t.e.t.t.t.t.C H 6.e.: O f t.g   = t.t.w.e.",
"t.t.t.t.t.t.t.t.t.t.t.t.t.t.t.t.t.t.t.t.t.t.t.t.t.t.r.o.| <.>.>.>.<.<.` Q t.t.t.t.t.t.t.t.t.t.t.t.0.0.Z Z x 5 i e.h   = t.t.t.t.",
"t.t.t.t.e.t.t.t.t.t.t.t.t.t.t.t.t.t.t.t.t.t.t.t.t.t.r.o.| <.<.>.>.<.>.` Q t.t.t.t.t.t.t.t.t.t.t.t.t.e.K H F S x e.h . # 8.t.t.t.",
"t.t.t.t.t.t.t.t.t.t.i.t.t.t.t.t.t.t.t.t.t.t.t.t.t.t.r.X.| <.>.>.<.>.>.` Q r.t.t.t.t.t.t.t.t.t.t.t.t.t.0.Z B x j t.8.- g t.t.t.t.",
"t.t.t.t.t.t.t.t.t.t.t.t.t.t.t.t.t.t.t.t.t.t.t.t.t.t.r.o.' >.:.:.:.:.:.` Q r.t.t.t.t.t.t.t.t.t.t.t.t.t.t.t.e.e.t.t.t.t.t.t.t.t.8.",
"t.t.t.t.t.t.t.t.t.t.t.t.t.t.t.t.t.t.t.t.t.t.t.t.t.t.P ..'  . . . . .| ) R g h t.t.t.t.t.t.8.t.t.t.t.t.8.t.t.t.t.t.t.t.t.t.t.t.e.",
"t.t.t.t.t.t.t.t.t.t.t.t.t.t.t.t.t.t.t.t.t.t.t.t.t.w.o I '  . .@. .@. .) Y X - t.w.t.t.t.t.t.t.t.t.t.t.t.t.t.t.t.t.t.t.t.t.t.t.t.",
"t.t.t.t.t.8.8.w.t.t.t.t.t.t.t.t.t.t.t.t.t.t.t.t.t.w.y I ' @. . . .@. ./ U o f t.t.7.8.8.t.t.t.t.t.t.w.t.t.t.t.t.t.t.t.t.t.t.t.t.",
"t.t.t.t.w.7.6.w.t.t.t.t.t.t.t.t.t.t.t.t.t.t.t.t.t.t.r.o.' @. . . .@. ./ $ X - t.7.V 9.t.t.t.t.t.t.t.t.t.t.t.t.t.t.t.t.t.t.t.t.t.",
"t.t.t.t.t.6.z t.t.t.t.t.t.t.t.t.t.t.t.t.t.t.t.t.e.e.r.o.'  . . . .@. .^ $ @ f 8.6.9.6.8.t.t.t.t.t.t.t.t.t.t.t.t.t.t.t.t.t.t.t.t.",
"t.t.t.t.w.z z t.t.t.t.t.t.t.t.t.t.t.t.t.t.t.t.t.r.e.r.( ' } | | }  .| ^ Y r.6.V 0.t.8.8.t.t.t.t.t.t.t.t.t.t.t.t.t.t.t.w.t.t.t.t.",
"t.t.t.t.t.z 6.w.t.t.t.t.t.t.t.t.t.t.t.t.t.i.i.t.t.t.i.o.) } ' ' [ ' ' ^ Y t.6.V 0.t.t.t.t.i.t.i.t.t.t.t.t.t.t.t.t.t.t.t.t.t.t.t.",
"t.t.t.t.t.t.t.t.t.t.t.t.t.t.t.t.i.y.t.t.t.t.t.t.8.t.i.o.) ' ' | ' | ' ^ 4.r.8.V 0.t.t.t.t.y.t.t.t.t.t.t.t.t.t.t.t.t.t.t.t.t.t.t.",
"t.t.t.t.t.t.t.t.t.t.t.t.t.t.t.t.t.t.t.t.t.t.t.t.t.t.t.! _ [ [ [ } } ' ~ p t.6.9.0.t.t.t.t.t.t.t.t.t.t.t.t.t.t.t.t.t.t.u.t.t.t.t.",
"t.t.t.t.t.t.t.t.t.t.t.t.t.t.t.t.t.t.t.t.t.t.t.y.t.t.t.6.- % 2 7 k y.a 4 9 9.0.8.t.t.t.t.t.t.t.t.t.t.t.t.t.t.t.t.t.t.u.u.t.t.t.t.",
"t.t.t.t.t.t.t.t.t.t.t.t.t.t.t.t.t.t.y.i.t.t.i.i.t.t.t.t.s o 5 S b e.c D 0 9.0.t.t.t.t.t.t.t.t.t.t.t.t.t.t.t.t.t.t.e.$.u.t.t.t.t.",
"t.t.t.t.t.t.t.t.t.t.t.t.t.t.t.t.t.t.i.t.t.t.t.y.t.t.t.8.C m F 6 8 9 n M V 8.8.t.t.t.t.t.t.t.t.t.t.t.t.t.t.t.t.t.t.e.e.t.t.t.t.t.",
"t.t.t.t.t.t.t.t.t.t.t.t.t.t.t.t.t.t.i.i.t.t.t.t.t.t.t.t.K J F 6 6 3 0 9.0.t.t.t.t.t.r.t.t.t.t.t.t.t.t.t.t.t.t.t.t.t.t.w.t.t.t.t.",
"t.t.t.t.t.t.t.t.t.t.t.t.t.t.t.t.t.t.t.y.t.t.t.t.t.t.t.8.6.6.A j j j 6.6.8.t.t.t.t.8.t.t.t.t.t.t.t.t.t.t.t.t.t.t.t.t.t.t.t.t.t.t.",
"t.t.t.t.t.t.t.t.t.t.t.i.t.y.i.t.t.t.t.t.t.t.t.t.t.t.t.t.t.t.u.t.t.t.t.e.t.t.t.t.t.t.t.t.t.t.t.t.t.8.t.t.t.t.t.e.t.t.t.t.t.t.t.t.",
"t.t.t.t.t.t.t.t.t.t.t.t.t.t.t.t.t.t.t.t.i.y.t.t.t.t.t.t.t.t.i.t.t.t.t.t.t.t.t.t.t.t.t.t.t.t.t.t.t.t.t.t.t.5.7.h 7.5.8.t.t.t.t.t.",
"t.t.t.t.t.t.t.t.t.t.t.t.t.t.t.t.t.t.t.t.i.t.t.t.t.t.t.t.t.t.t.t.t.t.t.t.t.t.t.t.t.t.t.t.t.t.t.t.t.t.t.t.8.z j j j z e.e.8.t.t.t.",
"t.t.t.t.t.t.t.t.t.t.t.t.t.t.t.t.t.t.t.t.t.t.t.t.t.t.t.t.t.t.t.t.t.t.t.t.t.t.t.t.t.t.t.t.t.t.t.t.t.t.t.t.t.5.z z 5.k N k t.t.t.t.",
"t.t.t.t.t.t.t.t.t.t.t.t.t.t.t.t.t.t.t.t.t.t.t.t.t.t.t.t.t.t.t.t.t.t.t.t.t.t.t.t.t.t.t.t.t.t.t.t.t.t.t.t.t.5.z 7.e.0.G q t.t.t.w.",
"t.t.t.t.t.t.t.t.t.t.t.t.t.t.t.t.i.i.t.t.t.t.t.t.t.t.t.t.t.t.t.t.t.t.t.t.t.t.t.t.t.t.t.t.t.t.t.t.t.t.t.t.w.8.7.8.e.7.N a t.t.t.t.",
"t.t.t.t.t.t.t.t.t.t.y.i.t.t.t.t.t.y.t.t.t.t.t.t.t.t.t.t.t.t.t.t.t.t.t.t.t.t.t.t.t.t.t.t.t.t.t.t.t.t.t.t.t.t.t.t.t.t.t.t.8.t.t.t.",
"t.t.t.t.t.t.t.5.P t.t.t.t.t.t.i.t.t.t.t.t.t.t.t.t.t.t.t.t.t.t.t.t.t.t.t.t.t.t.t.t.t.t.t.t.t.t.t.t.t.t.t.8.t.t.t.t.t.t.t.t.t.t.t."
};
