/* XPM */
static char *_55a79ddc18c4c54c46e7f70c723b7e5674shdmlxLXEautJ[] = {
/* columns rows colors chars-per-pixel */
"64 64 170 2 ",
"   c #FF7F00",
".  c #4DAF39",
"X  c #4DB235",
"o  c #4EB038",
"O  c #53B337",
"+  c #5DB536",
"@  c #52B23A",
"#  c #5CB53C",
"$  c #67BB33",
"%  c #6ABD32",
"&  c #64B738",
"*  c #62B63E",
"=  c #6DBA3F",
"-  c #75BD3B",
";  c #79BF3D",
":  c #6EC02E",
">  c #79C03A",
",  c #589E4E",
"<  c #458E5F",
"1  c #4B8F5E",
"2  c #4C9C52",
"3  c #4A925C",
"4  c #53965C",
"5  c #55985B",
"6  c #5A9C5A",
"7  c #689E56",
"8  c #639F5B",
"9  c #719C5D",
"0  c #4DA744",
"q  c #54A846",
"w  c #5DAA45",
"e  c #5FA155",
"r  c #69AE4D",
"t  c #71AF4F",
"y  c #7BAF4F",
"u  c #61B045",
"i  c #6AB347",
"p  c #6BB841",
"a  c #74BB43",
"s  c #7ABC45",
"d  c #76B44D",
"f  c #7DB64E",
"g  c #7FBA4B",
"h  c #64A555",
"j  c #6AAB53",
"k  c #71AB53",
"l  c #7DAC55",
"z  c #75A758",
"x  c #7DAD59",
"c  c #7DB054",
"v  c #448B61",
"b  c #4A8F60",
"n  c #599563",
"m  c #668B67",
"M  c #6D966E",
"N  c #719A6B",
"B  c #76A561",
"V  c #7FC040",
"C  c #B8B733",
"Z  c #FD8503",
"A  c #FD8B04",
"S  c #FC8D09",
"D  c #FD9503",
"F  c #FD9A05",
"G  c #F99709",
"H  c #F69D0E",
"J  c #FD9D0C",
"K  c #F29B11",
"L  c #FE9D12",
"P  c #FD9F18",
"I  c #FEA503",
"U  c #FDA70D",
"Y  c #FEAD09",
"T  c #FEA513",
"R  c #FCAE16",
"E  c #FEA41C",
"W  c #F1AE19",
"Q  c #F8AE1A",
"!  c #EFB01B",
"~  c #FFB117",
"^  c #FBB31B",
"/  c #FCB91E",
"(  c #C1AE2A",
")  c #DAAD22",
"_  c #DAB226",
"`  c #DBB52A",
"'  c #DBBB2F",
"]  c #DBB73B",
"[  c #FAAC24",
"{  c #FBBA20",
"}  c #F9B128",
"|  c #FEBD2F",
" . c #FEBE31",
".. c #FFB83C",
"X. c #B0E71F",
"o. c #96CE3E",
"O. c #9CD334",
"+. c #9BD23A",
"@. c #A9DE30",
"#. c #AAE320",
"$. c #BCF021",
"%. c #FCC126",
"&. c #FFC927",
"*. c #FCC62B",
"=. c #FCC92E",
"-. c #FEC331",
";. c #FCCB32",
":. c #FDD336",
">. c #FCD63B",
",. c #FDDA3E",
"<. c #83B647",
"1. c #83BE46",
"2. c #88BF47",
"3. c #83B74E",
"4. c #84BC4B",
"5. c #88BF4A",
"6. c #81AD56",
"7. c #81B352",
"8. c #88B264",
"9. c #D8BE43",
"0. c #FAAC64",
"q. c #85C046",
"w. c #8CC346",
"e. c #87C14A",
"r. c #8BC34A",
"t. c #91C445",
"y. c #98C744",
"u. c #92CA41",
"i. c #94C74B",
"p. c #97CA4C",
"a. c #94C45D",
"s. c #96C95C",
"d. c #B8C646",
"f. c #BBD45D",
"g. c #96CD64",
"h. c #B6C777",
"j. c #FCCF49",
"k. c #FCDC41",
"l. c #FCD14B",
"z. c #FFD550",
"x. c #F8E146",
"c. c #FBE549",
"v. c #FEEC4E",
"b. c #F5E755",
"n. c #FEEF53",
"m. c #FEF153",
"M. c #FFF758",
"N. c #FDF95B",
"B. c #F8DE6F",
"V. c #F9C772",
"C. c #FDDD7B",
"Z. c #F3EE6A",
"A. c #F8EE6A",
"S. c #F8F06D",
"D. c #FABF85",
"F. c #FDCE8D",
"G. c #FDDE85",
"H. c #FFD897",
"J. c #FDE089",
"K. c #FEF493",
"L. c #FFF69B",
"P. c #FFF89F",
"I. c #FFD5AF",
"U. c #FEDCAD",
"Y. c #FEDDB4",
"T. c #FFE4B3",
"R. c #FFE6C1",
"E. c #F0F5E9",
"W. c #FAFBF5",
"Q. c #FEFEFD",
/* pixels */
"r.r.r.r.r.r.r.r.r.r.r.r.r.r.r.r.r.4.x l j j 3.3.p a 3.3.r.r.r.r.r.r.r.r.r.i.r.r.r.r.r.r.2.; - e.e.r.e.r.r.r.r.r.r.r.i.r.r.r.r.r.",
"r.r.r.r.r.r.r.r.r.r.r.r.r.r.r.r.r.2.w.r.i.r.w.r.r.r.e.r.r.r.r.r.r.r.r.r.r.r.r.r.r.r.r.r.r.% $ q.w.r.r.w.r.r.r.r.r.r.r.r.r.r.r.r.",
"r.r.r.r.r.r.r.r.r.r.r.r.r.r.r.r.r.r.r.r.r.r.r.r.r.r.r.r.r.r.r.r.r.r.r.r.r.r.r.r.r.r.r.r.e.& + e.r.r.r.r.r.r.r.r.r.r.r.r.r.r.r.r.",
"r.r.r.r.r.r.r.i.r.r.i.r.r.r.r.r.r.r.r.w.w.r.r.r.r.r.r.w.r.r.r.r.r.r.r.r.r.r.r.r.r.r.r.r.e.+ O V r.r.r.r.r.r.r.r.r.r.r.r.r.r.r.r.",
"r.r.r.r.r.r.r.r.r.r.r.r.r.r.r.r.r.r.r.e.r.2.r.r.r.r.r.r.r.r.r.r.r.r.r.r.r.r.r.r.r.r.r.r.e.q q g w.s a 1.r.r.r.r.r.r.r.r.r.i.r.r.",
"r.r.r.r.r.r.r.r.r.r.r.r.r.r.r.r.r.r.r.e.r.r.r.r.r.r.r.r.r.r.r.r.r.r.r.r.r.r.r.r.r.r.r.r.e.4 b g t.* . s r.r.r.r.r.r.r.r.r.r.r.r.",
"r.r.r.r.r.r.r.r.r.r.r.r.e.r.r.r.r.r.r.r.r.r.r.r.r.r.r.r.r.r.r.r.r.i.r.r.r.r.r.r.r.r.r.r.e.4 3 3.r.u 0 s r.r.r.r.r.i.r.r.r.r.r.r.",
"r.r.i.r.r.r.r.r.r.r.r.r.r.r.r.r.2.r.r.r.r.r.r.r.r.r.r.r.r.r.r.r.r.r.r.e.i.i.r.r.r.r.r.r.e.4 < g i.6 < d w.r.r.r.r.r.r.r.r.r.r.r.",
"r.r.r.r.r.r.r.r.r.r.r.r.r.r.r.r.w.r.w.w.r.r.r.r.r.r.r.r.r.r.r.r.r.r.r.r.r.r.r.r.r.r.r.r.e.e 4 g r.h 4 V r.r.r.r.r.r.r.r.r.r.s.r.",
"r.r.r.r.r.r.w.e.r.r.r.r.r.r.r.r.o.o.o.u.r.r.r.r.r.r.r.r.r.r.r.r.r.r.r.r.r.r.r.r.r.r.r.r.r.e.e.e.r.e.e.e.r.r.r.r.r.i.r.r.r.r.r.r.",
"r.r.r.r.r.2.5.e.r.r.r.r.r.r.r.u.o.o.o.u.r.e.r.r.i.e.r.r.r.r.r.r.r.r.r.r.r.w.r.r.r.r.r.r.r.r.r.r.r.r.e.r.e.i.r.r.r.r.r.r.r.r.r.r.",
"r.r.r.r.5.4.4.r.r.r.r.r.r.r.e.r.w.r.w.w.2.r.r.w.r.r.r.r.r.r.r.r.r.e.e.a.r.r.r.r.r.r.r.r.r.e.r.r.r.r.r.r.e.e.r.e.r.r.r.r.r.r.r.r.",
"r.r.5.r.e.g g e.r.r.r.r.r.r.r.e.r.r.r.r.e.r.r.r.r.r.e.w.t.t.t.t.w.i.i.5.t.r.r.r.r.r.r.r.r.r.r.r.r.r.r.e.r.r.r.i.r.r.e.s.r.r.r.r.",
"r.r.2.g 4.5.5.4.g g 4.e.r.e.r.r.r.r.r.r.r.r.r.r.r.e.f.Z.A.A.A.A.S.b.Q H L ( e.r.r.r.r.r.r.r.e.i.r.r.r.r.r.r.r.r.r.r.e.r.r.r.r.r.",
"r.w.e.g g r.r.g g g g e.r.r.r.r.r.w.e.r.r.e.r.r.e.d.K.P.L.L.L.L.P...F ;.k.>.d.e.r.r.r.r.r.r.r.r.r.r.r.r.r.r.r.r.r.r.r.r.r.r.r.r.",
"r.e.e.5.5.2.r.e.5.5.e.e.e.r.r.r.r.r.r.r.r.r.r.r.2.9.K.K.K.K.K.K.K.E =.N.m.M.b.t.r.r.r.r.r.r.r.w.r.r.r.r.r.r.r.i.r.r.r.r.r.r.r.r.",
"r.r.r.r.r.r.r.2.r.r.r.r.r.r.r.r.r.r.r.r.r.r.r.r.2.' m.m.n.n.m.m.n.T >.c.;.>.n.p.r.r.r.r.r.r.r.r.r.r.i.r.r.r.r.r.i.e.e.r.r.r.r.r.",
"r.r.r.r.r.r.r.r.r.r.r.r.r.r.r.r.r.r.r.r.r.r.r.r.q.' n.n.n.m.v.n.v.E :.:.*.*.k.i.r.r.r.r.r.r.r.r.r.r.r.r.r.r.r.r.r.r.i.r.r.r.r.r.",
"r.r.r.r.r.r.r.r.r.r.e.r.r.r.r.r.r.r.r.r.r.r.r.r.w.' m.n.m.m.n.n.n.T :.;.*.*.>.i.e.r.r.r.r.r.r.r.e.s.r.r.i.r.r.r.r.r.r.r.r.r.r.r.",
"r.r.r.r.r.r.r.r.r.r.r.r.r.r.r.r.r.r.r.r.r.r.r.r.q.' n.n.n.n.n.m.v.T ;.>.>.>.k.p.r.r.r.r.i.r.r.r.e.r.r.r.r.r.r.r.r.r.r.r.r.r.e.s.",
"r.r.r.r.r.r.r.r.r.r.r.i.r.r.r.r.r.r.r.r.i.r.r.r.e.' n.n.n.n.n.m.v.T ;.n.M.M.n.i.e.r.r.r.r.r.r.r.e.r.r.r.r.r.r.r.r.r.r.r.r.r.r.r.",
"r.i.r.r.r.r.r.r.r.r.r.r.r.r.r.r.r.i.r.r.r.r.r.r.e.' m.n.n.m.n.m.n.T >.v.{ E k.p.r.r.r.r.r.r.r.w.r.r.r.r.i.r.r.r.r.r.r.r.r.r.r.r.",
"r.r.r.r.r.r.r.r.r.r.r.r.r.r.r.r.i.r.r.r.r.r.r.r.e.` k.k.,.k.k.x.k.J >.>.I Z } p.2.r.r.e.e.w.r.r.r.r.r.r.r.r.r.r.r.r.r.r.r.r.r.r.",
"r.r.r.r.r.r.r.r.r.i.r.r.r.r.r.r.r.r.r.r.r.r.r.r.e._ &.=.*.=.=.*.*.J ,.:.Y A [ p.r.r.r.w.w.e.e.r.r.r.r.r.r.r.r.r.r.r.r.e.p.r.r.r.",
"r.r.r.r.r.r.r.r.r.r.r.r.r.r.e.w.e.r.r.r.r.r.r.r.r._ ;.;.;.;.;.;.;.J ,.:.I G } p.e.r.w.o.o.w.r.r.r.r.r.r.r.r.r.r.r.r.r.r.r.r.r.r.",
"r.r.r.r.r.r.r.r.r.r.r.r.r.r.e.r.r.r.r.r.r.r.r.r.r._ &.*.*.*.*.*.&.J ,.-.S :.k.p.e.r.w.u.u.w.r.r.r.r.r.r.r.r.r.r.r.r.r.r.r.r.r.r.",
"r.r.r.r.r.r.r.r.r.r.r.r.r.r.r.r.r.r.r.r.r.r.r.r.5.` l.l.z.l.l.l.j.L ,. .S >.c.p.e.r.e.r.r.r.r.r.r.r.r.r.r.r.r.r.r.r.r.e.r.r.p.e.",
"r.r.r.r.r.r.r.r.r.r.r.r.e.2.1.e.r.e.r.r.r.r.r.r.2.9.J.G.J.J.G.J.G.P ,. .S >.k.i.e.r.r.r.r.r.r.r.r.r.r.r.r.r.r.r.r.r.r.p.r.r.r.r.",
"r.r.r.r.r.r.r.r.r.r.r.r.r.p o p r.r.r.r.r.r.r.r.2.] C.C.C.C.C.C.C.P ,. .S ;.k.r.g r.r.r.r.r.r.r.r.e.r.e.r.r.r.r.r.r.r.r.r.r.r.r.",
"r.r.r.r.r.r.r.r.r.r.r.r.r.p O = r.r.r.r.r.r.r.r.r.) ;.;.;.;.;.;.-.J k. .S ;.k.5.V r.r.r.r.e.r.r.r.r.r.r.u.r.r.r.r.e.r.r.r.r.p.r.",
"r.r.r.r.r.r.r.r.r.r.r.r.r.O.#.O.r.r.r.r.r.r.r.r.2._ =.=.;.=.=.=.=.J k. .S ;.k.i.e.e.r.r.u.r.r.r.r.r.e.@.$.u.e.r.r.r.r.r.r.r.V s.",
"r.r.r.r.r.r.r.r.r.r.r.r.r.O.X.O.e.e.r.e.5.e.2.r.5._ =.=.;.;.;.;.*.J k. .S :.k.i.e.e.r.r.r.r.r.r.r.r.r.@.$.+.e.r.e.e.r.r.r.e.r.V ",
"r.e.5.4.4.r.r.r.e.r.r.r.e.> : $ @ p r.4.l 6.l 6.e._ &.=.=.=.=.=.=.J k.| S =.,.p.r.r.r.r.r.r.w.r.r.r.2.@.$.+.r.a @ = r.r.r.r.r.r.",
"r.r.e.3.g r.r.r.r.r.r.e.r.- : + . i t.4.l l l 6.e.` ,.,.,.>.>.,.>.J k. .A =.>.p.e.r.r.r.r.r.r.e.r.r.5.@.$.+.r.a o * w.e.r.r.r.r.",
"r.r.r.2.5.e.r.r.r.r.r.r.r.> $ w 3 e 6.6.l 6.5.5.e._ ,.,.k.x.k.k.k.J k. .Z =.>.i.r.r.r.r.r.r.r.r.r.r.r.w.u.k 5 j s 2.e.r.2.r.r.e.",
"r.e.r.w.e.e.r.r.e.r.r.r.e.- : q v 6 6.l l 7.r.r.e.` ,.x.,.,.k.k.,.J k. .A *.k.p.r.r.r.r.r.r.r.e.e.r.r.r.r.h v j i.e.w.r.r.r.r.w.",
"w.r.r.r.r.r.r.r.r.r.r.r.r.e.V g d f 5.4.4.5.2.r.e._ ,.:.>.>.>.>.>.J k. .Z *.>.i.5.r.r.r.r.r.r.r.e.l B 4.r.i 0 i t.s * p r.r.r.r.",
"r.r.r.r.r.r.r.r.e.w.r.r.e.r.r.r.r.r.r.r.r.r.r.r.w._ =.=.=.=.=.;.*.J k. .Z %.k.i.r.r.r.r.r.r.r.r.w.B M 7.t.p X p i.a . * r.2.r.r.",
"r.r.r.r.r.r.r.r.r.r.r.r.r.r.r.r.r.r.r.r.r.r.r.r.r._ =.=.;.;.=.;.=.J ,. .Z / B.g.e.w.r.r.r.r.r.r.r.4.7.x x h 2 r r.s o * e.r.r.r.",
"r.r.r.r.r.r.r.r.r.r.r.r.r.r.r.r.r.r.r.r.r.w.e.r.r._ =.;.=.=.;.=.*.J k.;.G U V.g.e.r.r.r.r.r.r.r.r.e.w.B M n v h i.a . & e.r.r.r.",
"r.r.r.r.r.r.r.r.r.r.r.r.r.r.r.r.r.r.r.r.r.r.r.r.e._ =.=.=.=.;.;.;.J ,.:.Y A 0.g.w.r.e.r.r.r.r.r.r.r.r.c x k h c r.s p a r.r.r.r.",
"r.r.r.r.r.r.r.r.r.r.r.r.r.r.r.r.r.r.r.r.r.r.r.r.e.) %.%.%.%.%.%.%.J k.l.Y A 0.g.1.w.r.w.2.r.r.r.r.w.r.r.r.r.w.r.r.r.w.e.2.r.r.w.",
"r.r.r.r.r.r.r.r.r.r.r.r.r.r.r.r.r.r.r.r.r.i.r.r.e.) / / / / / / / D H.T.I   D.g.w.r.r.r.r.r.r.r.r.r.r.r.r.r.r.2.r.r.r.r.r.r.r.2.",
"r.r.r.r.r.r.r.r.r.r.r.r.i.r.r.r.r.r.r.r.r.r.r.r.e.) / / { { { { { J Y.Q.Y.I.W.s.1.r.r.r.r.r.r.r.r.r.r.r.r.r.r.r.r.r.r.r.r.r.r.r.",
"r.r.r.r.r.5.5.5.r.r.r.r.r.r.r.r.r.r.i.r.r.r.r.r.e._ / / { / / { { F U.Q.Q.Q.Q.s.2.5.5.5.r.r.r.r.r.r.r.r.r.r.r.r.r.r.r.r.r.r.r.r.",
"r.r.r.e.r.4.g e.r.r.r.r.i.r.r.r.r.r.r.r.r.r.r.r.e.) / / / { / / { F Y.Q.Q.Q.W.s.<.l 6.2.r.r.r.r.r.r.r.r.r.r.r.r.r.r.r.r.r.r.r.r.",
"r.r.r.r.5.4.g r.r.r.r.r.r.r.r.r.r.r.r.r.r.r.r.r.r.) / { { / / / { F U.Q.Q.Q.W.a.<.7.7.2.r.r.r.r.r.r.r.r.r.r.r.r.r.r.r.r.r.r.r.r.",
"r.r.r.r.r.g g 5.r.r.r.r.r.r.r.r.r.r.r.r.r.r.r.r.e.) ~ Q ^ Q ^ ^ ^ F Y.Q.W.Q.Q.8.c r.2.r.r.r.r.r.r.r.r.r.r.r.r.r.r.r.r.r.r.r.r.r.",
"r.e.r.e.r.g 3.e.r.r.w.r.r.r.r.r.s.e.r.r.r.r.r.r.e.) R R R R R Q Q D F.Q.Q.Q.E.8.c r.r.r.r.r.r.r.r.r.r.r.r.r.r.r.r.r.r.r.r.r.r.r.",
"r.r.r.w.r.r.r.r.r.r.r.r.r.r.r.r.r.r.r.r.r.r.r.r.r.+.R ~ R R ^ R R J L F.R.Y.h.l 7.r.r.r.r.r.r.r.r.r.r.r.r.r.r.r.r.r.r.r.r.r.r.r.",
"r.r.r.r.r.r.r.r.r.e.r.r.r.r.r.r.r.r.r.r.r.r.r.r.r.r.C W W W ! W ! W G G K C 3.l 7.r.r.r.r.r.r.r.r.r.r.i.r.r.r.r.r.r.r.r.e.w.r.r.",
"r.r.r.r.r.r.r.r.r.r.e.r.i.r.r.r.r.r.r.r.r.r.r.r.r.r.r.w.& # , b y y.k 1 7 l 7.5.e.r.r.r.r.r.r.r.r.r.r.r.r.r.r.r.r.r.o.u.r.r.r.r.",
"r.r.r.r.r.r.r.r.r.r.r.r.r.r.r.r.r.r.i.r.r.r.r.r.r.r.r.5.# @ 2 < t w.j v e 6.7.r.r.r.r.r.r.r.r.r.r.r.r.r.r.r.r.r.r.w.o.u.r.r.r.r.",
"r.r.r.r.r.r.r.r.r.r.r.r.r.r.r.r.r.r.e.r.r.r.r.e.r.r.r.r.z 9 n 3 5 5 h z l r.5.r.r.r.r.r.r.r.r.r.r.r.r.r.r.r.r.r.r.w.w.w.w.e.r.r.",
"r.r.r.r.r.r.r.r.r.r.r.r.r.i.r.r.r.r.r.e.r.r.r.i.r.r.r.r.B N n 3 1 v 8 6.7.r.r.r.r.r.r.r.e.r.r.r.r.r.r.r.r.r.r.r.e.r.r.r.r.w.r.r.",
"r.r.r.r.r.r.i.r.r.r.r.r.r.r.r.r.r.r.r.i.r.r.r.r.r.2.r.2.f f c d d d 3.5.4.r.r.r.e.r.r.r.r.r.i.r.r.r.r.r.r.r.r.r.r.r.r.r.r.r.r.r.",
"r.r.r.r.r.r.r.r.r.r.r.r.r.r.r.r.r.r.r.r.r.r.r.r.r.r.r.r.r.r.r.i.r.r.r.w.r.r.r.r.r.r.r.r.r.r.i.r.r.r.r.r.r.r.2.r.r.r.r.r.r.r.r.r.",
"r.r.r.r.r.r.r.r.r.r.i.r.r.r.r.r.r.r.r.r.r.r.r.r.r.e.r.r.r.r.e.r.r.r.r.r.r.r.r.r.r.r.r.r.r.r.r.r.r.r.r.r.e.4.4.4.g 4.r.r.r.r.r.r.",
"r.r.i.r.r.r.r.r.r.r.r.r.r.r.r.s.r.r.r.r.r.r.r.r.r.r.r.r.r.r.r.r.r.r.r.r.r.r.r.r.r.r.r.r.r.r.r.r.r.r.w.r.r.g d a a s r.w.w.e.r.e.",
"r.r.r.r.r.r.r.r.r.r.r.r.r.r.r.r.i.r.r.r.r.r.i.r.r.r.r.r.r.r.r.r.r.r.r.r.r.r.r.r.r.r.r.r.r.r.r.r.r.r.e.r.e.4.f s 4.f l l r.r.r.e.",
"r.e.e.r.r.r.r.r.r.r.r.r.r.r.r.r.e.e.r.r.i.r.r.r.r.r.r.r.r.r.r.i.r.r.i.r.r.r.r.r.r.r.r.i.r.r.r.r.r.r.r.r.r.4.g 4.w.7.m 9 r.r.r.r.",
"r.s.r.r.r.r.r.r.r.r.r.r.r.r.r.r.s.r.r.r.r.r.r.r.r.r.e.i.r.r.r.r.r.r.r.r.r.r.r.r.r.r.r.r.r.r.r.r.r.r.r.r.r.5.4.5.r.<.z l e.w.r.r.",
"r.r.r.r.r.e.e.e.r.r.r.r.r.r.r.r.r.r.r.r.r.r.r.r.r.r.r.r.r.r.r.r.r.r.r.r.r.r.r.r.r.r.r.r.r.r.r.r.r.r.r.r.r.w.e.r.r.r.r.r.2.r.r.r.",
"r.r.r.r.r.e.e.V V e.r.r.r.r.r.r.r.r.r.r.r.r.r.r.r.r.r.r.r.r.r.r.r.r.r.r.r.r.r.r.r.r.r.r.r.r.r.r.r.r.r.r.r.r.r.r.r.r.r.r.r.r.r.r."
};
