/* XPM */
static char *_91639d821094ef5ac72bd1696a18803SyvtvmhxiSrvRdgu[] = {
/* columns rows colors chars-per-pixel */
"64 64 209 2 ",
"   c #FE7F00",
".  c #4DAF39",
"X  c #4DB235",
"o  c #4EB139",
"O  c #53B23A",
"+  c #59B439",
"@  c #68BD2E",
"#  c #60B435",
"$  c #69BA35",
"%  c #62B63E",
"&  c #6DBA3F",
"*  c #75BD3B",
"=  c #79BF3D",
"-  c #6EC02E",
";  c #79C03A",
":  c #5F9B49",
">  c #478F5F",
",  c #568B56",
"<  c #4B9C52",
"1  c #4A925C",
"2  c #53965C",
"3  c #55985B",
"4  c #5B9C5A",
"5  c #6A9D56",
"6  c #719C5D",
"7  c #4DA744",
"8  c #58A945",
"9  c #5FA155",
"0  c #77AA4B",
"q  c #67B246",
"w  c #6BB841",
"e  c #74BB43",
"r  c #7ABC45",
"t  c #76B44D",
"y  c #7DB64E",
"u  c #7EBA4B",
"i  c #64A555",
"p  c #6BAC52",
"a  c #68A459",
"s  c #74A956",
"d  c #7BAC56",
"f  c #7DAE5A",
"g  c #7DB052",
"h  c #438B62",
"j  c #4A8F60",
"k  c #599563",
"l  c #6C9369",
"z  c #6D966E",
"x  c #76A561",
"c  c #7FC040",
"v  c #95BB3A",
"b  c #AEB12C",
"n  c #AFA033",
"m  c #A5B838",
"M  c #FE8000",
"N  c #FE8C02",
"B  c #FF860C",
"V  c #FD8E0A",
"C  c #E09E0B",
"Z  c #FE9504",
"A  c #FF9A02",
"S  c #FE940B",
"D  c #F69A0A",
"F  c #FD9B0A",
"G  c #FE8E1F",
"H  c #E09E15",
"J  c #FE9411",
"K  c #FE9C12",
"L  c #DAA10E",
"P  c #C2A91C",
"I  c #FFA603",
"U  c #FDA30C",
"Y  c #FEAC0E",
"T  c #E0A219",
"R  c #E0A81E",
"E  c #F6A215",
"W  c #FBA513",
"Q  c #F6AB17",
"!  c #FDAC14",
"~  c #FDAC19",
"^  c #ECB11D",
"/  c #F8B319",
"(  c #FCB41C",
")  c #FCB91E",
"_  c #CDA325",
"`  c #C9B62C",
"'  c #FEAA21",
"]  c #FAAD2D",
"[  c #FDB522",
"{  c #F6BA21",
"}  c #FBBB22",
"|  c #FFBE29",
" . c #FEB033",
".. c #B0E71F",
"X. c #8AC33F",
"o. c #96CE3E",
"O. c #98CA3C",
"+. c #9CD334",
"@. c #9BD23A",
"#. c #A6DC32",
"$. c #A9DE30",
"%. c #AAE320",
"&. c #B7EC24",
"*. c #BCF021",
"=. c #FCC526",
"-. c #FCC52C",
";. c #FCCA2E",
":. c #FFD62F",
">. c #E0C336",
",. c #FDC533",
"<. c #FCCC31",
"1. c #FDC73A",
"2. c #FCCC3B",
"3. c #FCD135",
"4. c #FCD439",
"5. c #FDD93C",
"6. c #89AA4E",
"7. c #81BF45",
"8. c #89BE47",
"9. c #83B74E",
"0. c #83BC4B",
"q. c #88BE4B",
"w. c #96BF45",
"e. c #85AD55",
"r. c #81B452",
"t. c #8DB152",
"y. c #85C045",
"u. c #8CC446",
"i. c #8EC842",
"p. c #87C149",
"a. c #8BC34A",
"s. c #94C145",
"d. c #98C346",
"f. c #92CA41",
"g. c #96C74A",
"h. c #98C548",
"j. c #98C84A",
"k. c #84C650",
"l. c #98C650",
"z. c #BCD54F",
"x. c #BDC258",
"c. c #ADD15C",
"v. c #C3C041",
"b. c #D7DF4F",
"n. c #D1DA58",
"m. c #FDCD44",
"M. c #FDC64D",
"N. c #FFCE49",
"B. c #FCD145",
"V. c #FDDD41",
"C. c #FED74C",
"Z. c #FFCA5D",
"A. c #FFDB51",
"S. c #D8E043",
"D. c #D8E251",
"F. c #D8E356",
"G. c #FDE245",
"H. c #FFE847",
"J. c #FCE549",
"K. c #FEEB4D",
"L. c #FCF34F",
"P. c #E5E550",
"I. c #F9E951",
"U. c #FEED53",
"Y. c #FEEF5A",
"T. c #FDF254",
"R. c #FEF35A",
"E. c #FCF859",
"W. c #FAC675",
"Q. c #FEC379",
"!. c #F9DE7E",
"~. c #D8E762",
"^. c #DAE864",
"/. c #D7E47B",
"(. c #E0E562",
"). c #FEED62",
"_. c #FEF465",
"`. c #FFF967",
"'. c #FFFB6B",
"]. c #FDE77F",
"[. c #FEFE72",
"{. c #FEC083",
"}. c #FECA84",
"|. c #FECB8A",
" X c #FCDE81",
".X c #FECE95",
"XX c #FFD396",
"oX c #FFD499",
"OX c #FFEB84",
"+X c #FCE288",
"@X c #FEF798",
"#X c #FFFA9C",
"$X c #D2DDA0",
"%X c #FECFAB",
"&X c #FED4AC",
"*X c #D8E9BE",
"=X c #FDECAF",
"-X c #FDE8B4",
";X c #D8EAC3",
":X c #FDEEC2",
">X c #FDF9C6",
",X c #FDF1CE",
"<X c #FEE9D5",
"1X c #FEF4DB",
"2X c #FFF4E5",
"3X c #FDFFE2",
"4X c #FEF6EA",
"5X c #FFF9F1",
"6X c #FEFEFE",
/* pixels */
"a.a.a.a.a.a.a.g.a.a.a.a.a.a.a.a.p.0.e.d p p 9.9.e e y 9.p.p.a.a.a.a.a.l.a.a.a.a.a.a.a.a.p.= * y.u.a.a.a.a.a.a.a.a.a.a.a.a.a.a.a.",
"a.a.a.a.a.a.a.a.a.a.a.a.a.a.a.a.a.a.a.a.u.a.u.a.a.a.u.p.a.a.a.p.a.a.a.a.a.a.a.a.a.8.a.a.a.$ @ y.a.a.p.a.a.a.a.a.a.a.a.a.a.a.a.a.",
"a.a.a.a.a.a.a.k.a.a.a.a.a.a.a.a.a.a.8.a.a.a.a.a.a.a.a.a.a.a.a.a.a.a.a.a.a.p.a.a.a.a.a.a.p.$ + y.a.a.p.u.a.a.a.a.a.a.a.a.a.a.a.a.",
"a.a.a.a.a.a.a.a.a.a.a.a.a.a.a.a.a.a.a.a.a.a.a.a.a.a.a.a.a.a.a.a.a.a.a.a.a.g.a.a.a.a.a.a.p.+ O 7.a.a.a.a.a.a.a.a.a.a.a.a.a.a.a.g.",
"a.a.g.a.a.a.a.a.a.a.a.a.a.a.a.a.a.p.a.a.a.a.a.8.a.p.a.a.a.a.a.a.a.a.a.k.a.a.a.a.a.a.a.a.p.8 7 u a.7.e p.p.p.a.a.a.g.a.a.a.a.a.a.",
"a.a.a.a.a.a.a.a.a.a.a.a.a.a.k.a.a.a.p.u.a.a.a.a.a.a.a.a.a.a.a.s.a.a.a.a.a.k.a.a.a.a.a.a.p.3 j u u.% X e a.u.a.a.a.a.a.a.a.a.l.a.",
"a.a.a.a.a.a.a.a.a.a.a.a.a.a.a.a.a.a.a.a.a.a.a.a.a.a.a.a.a.a.a.a.a.a.a.a.g.a.a.a.a.a.a.a.p.2 1 9.u.q 7 t f.a.a.a.a.a.a.a.k.a.a.a.",
"a.a.a.a.a.a.a.a.a.a.a.a.a.a.a.a.a.8.a.a.a.a.a.a.a.a.a.a.a.a.a.a.a.a.a.a.a.a.a.a.a.a.a.a.p.2 > u s.4 h t a.a.q.a.a.a.a.a.a.a.a.a.",
"a.a.a.a.a.a.a.a.a.a.a.a.a.a.a.a.u.u.u.p.p.u.a.a.a.a.a.a.a.a.a.a.a.g.a.a.a.a.a.a.a.a.a.a.p.4 3 u a.i 2 y a.p.a.k.a.k.g.a.a.a.a.a.",
"a.a.a.u.a.p.a.a.a.a.a.a.a.a.a.f.o.o.O.f.a.u.a.a.a.a.a.a.a.a.a.a.a.a.a.a.a.a.a.a.a.a.a.a.a.p.q.p.a.p.p.a.a.a.a.a.a.a.a.a.a.a.a.a.",
"a.a.a.a.p.p.8.a.a.a.a.a.a.a.a.u.o.o.o.f.a.a.a.a.s.a.a.a.a.a.p.u.a.a.a.a.a.a.a.a.a.a.a.a.a.a.a.a.a.a.a.a.a.a.p.a.a.a.a.a.a.a.a.a.",
"a.a.a.p.8.0.0.p.a.a.a.a.a.a.a.a.u.p.p.a.p.u.a.a.a.a.a.a.a.a.a.u.a.a.a.a.a.a.a.p.a.a.a.a.a.a.a.a.a.a.a.a.a.a.g.a.a.a.a.a.a.a.a.a.",
"a.8.a.a.p.0.u p.p.p.p.p.p.a.p.u.a.a.a.a.a.a.a.a.p.8.p.y.k.g.k.a.a.a.a.a.a.k.k.p.a.a.a.a.a.a.a.a.a.a.p.p.a.a.a.a.a.a.k.a.a.a.a.a.",
"a.a.q.0.0.p.q.0.0.0.0.q.p.a.a.a.a.a.a.a.a.a.a.8.c.~.(.F.>.R T T T T H C C L P v p.a.a.a.a.a.a.a.a.a.a.a.a.a.a.a.a.a.a.a.a.a.a.a.",
"a.u.q.u 0.8.p.u u 0.u q.a.a.a.a.a.8.a.a.a.a.a./.#X#XOX .F ( ,.3.2.;.B.oXoXoXW.] b a.a.a.a.a.a.a.s.a.a.a.a.a.a.a.a.a.a.a.p.g.a.l.",
"a.p.p.q.8.p.p.q.8.q.q.8.a.a.a.a.a.a.a.a.a.a./.@X#XOXK ! J.E.T.T.L._.3X6X6X6X6X4XQ.b p.a.a.a.a.a.a.a.a.a.a.a.a.a.g.a.a.a.a.a.a.k.",
"a.a.a.a.p.p.u.a.a.a.a.a.a.a.a.a.a.a.a.a.p.z._.Y._.~ W U.U.5.4.;.B.1X6X5X6X6X6X6X6XW.v p.a.a.a.a.a.a.a.a.a.a.a.a.a.a.a.a.k.a.a.a.",
"a.a.a.a.a.a.a.a.a.a.a.a.a.p.a.a.a.a.a.a.a.P.L.T.V.F J.U.<.-.=.2.,X6X6X6X6X6X6X6X6X5Xx.y.a.s.a.a.a.a.a.a.a.a.a.a.a.a.a.a.a.a.a.a.",
"a.a.a.a.a.a.a.a.a.a.a.a.a.a.a.a.a.a.a.a.g.I.U.T.| ( T.4.-.;.2.,X6X6X6X6X6X6X6X6X6X6X$XX.a.a.a.a.a.a.a.a.a.a.a.a.a.a.g.a.a.a.a.g.",
"a.a.a.a.a.a.a.a.a.a.a.l.a.a.a.a.a.a.a.a.j.U.T.T.( -.K.;.-.2.,X6X5X6X6X6X5X6X6X6X6X6X*Xa.a.a.a.a.g.a.a.a.a.a.a.a.l.k.p.a.a.a.a.a.",
"a.a.a.a.a.a.a.a.a.a.a.a.a.a.a.a.a.a.a.a.g.U.T.T.~ ,.K.=.<.:X6X6X6X6X6X6X6X6X6X6X6X6X;Xc a.a.a.a.p.a.a.a.a.a.a.a.a.a.a.a.a.a.a.g.",
"a.a.a.a.a.a.a.a.a.a.a.a.a.a.a.a.a.a.a.p.j.T.T.E.~ ,.G.,.:X6X4XXXQ.Q.Q.Q.{.<X6X6X6X6X;Xy.a.a.a.a.a.a.k.a.a.a.a.a.a.a.g.a.a.a.a.p.",
"a.a.a.a.a.a.a.a.a.a.a.a.a.a.a.a.a.a.a.a.h.J.G.J.W -.J.-X6X1X .A A A A Z N B &X6X6X6X;Xy.a.p.a.a.a.a.a.a.a.a.a.a.k.a.a.a.a.a.a.k.",
"a.a.a.a.a.a.a.a.a.a.a.a.a.a.a.a.a.a.a.p.s.;.-.<.W 1.>X6X6XZ.I ! Y Y Y Y U N G 2X6X6X;XX.u.p.a.a.a.a.a.a.a.a.g.a.a.a.a.a.a.a.a.a.",
"a.a.l.a.a.a.a.a.a.a.a.a.a.a.a.u.a.a.a.p.s.<.<.<.U }.6X6X4X~ F Z Z F F U Y F   &X6X6X/.o.o.u.a.a.a.a.a.a.a.a.a.a.a.a.a.a.a.a.a.k.",
"a.a.a.a.a.a.a.a.a.a.a.a.a.a.p.a.a.a.a.a.s.-.;.;.U |.6X6X2XW Z V [ -.4.5.5.}   &X6X].S.i.f.u.a.a.a.a.a.a.a.a.a.a.a.a.a.a.a.g.a.a.",
"a.a.a.a.a.a.a.a.a.a.a.a.u.a.a.a.a.a.a.p.h.B.B.N.W |.6X6X2XK   ~ 4.;.4.V.G.G.V %X+X:.D.p.a.a.p.a.a.a.a.u.a.a.a.p.a.a.a.a.a.a.a.a.",
"g.a.a.a.a.a.a.a.a.a.a.a.p.p.r q.a.a.a.a.l. X X+X' }.6X6X4XK M [ ;.-.-.4.V.G.J M.;.4.D.p.u.a.a.a.a.a.a.a.a.a.a.a.a.a.a.a.a.a.a.a.",
"a.p.a.a.a.a.a.a.a.a.a.a.a.w . w a.p.a.p.j.!.]. X' }.6X6X2XK M [ 3.<.;.;.5.G.S ,.3.4.D.p.a.a.a.u.a.a.a.a.a.u.a.a.a.a.a.a.a.a.a.a.",
"a.a.a.a.a.a.a.a.a.a.a.u.a.& O * u.p.a.p.h.m.m.B.W |.6X6X2XK M [ 3.-.<.;.<.G.J ,.3.5.D.p.a.a.a.a.a.a.a.u.u.p.a.a.a.a.a.a.a.a.a.a.",
"a.a.a.a.a.a.a.a.a.a.a.p.a.+.%.+.a.p.u.a.s.;.-.;.F |.6X6X2XK M [ ;.;.<.;.;.5.J ,.<.5.D.p.a.a.a.a.a.a.8.#.&.@.q.a.a.a.a.a.a.a.a.a.",
"a.a.p.p.a.p.a.a.a.a.a.p.8.+...+.q.p.a.p.s.<.;.3.U |.6X6X2XK M [ 3.;.<.;.;.4.J ,.3.5.D.a.a.a.a.a.a.a.q.$.*.@.p.a.a.a.a.a.a.a.a.a.",
"a.p.p.0.0.a.a.a.u.p.a.a.a.; - $ + w u.9.e.;.;.<.U |.6X6X2XK M ' ;.;.<.;.-.3.S ,.<.V.~.p.a.a.a.a.p.a.a.$.*.@.q.e + & a.a.a.a.a.a.",
"a.a.q.9.y a.a.a.a.p.a.a.a.* @ # . % a.9.t.4.3.5.U |.6X6X2XK M ~ ;.;.<.-.<.<.V ,.5.U.~.p.a.a.a.a.a.u.q.$.*.@.q.e . % u.a.a.a.8.a.",
"a.a.a.8.q.p.a.a.a.a.a.a.a.* @ 8 1 9 r.d t.V.V.G.! }.6X6X2XK   W -.;.;.;.,.<.V 1.K.R.~.p.a.a.a.a.u.a.a.u.o.p 2 p 7.8.p.a.a.a.a.a.",
"a.p.u.p.u.p.a.a.u.p.a.a.a.* @ 8 h 4 e.s e.V.V.G.W |.6X6X2XK N E =.;.;.;.;.<.V m.T.R.~.p.a.a.a.a.p.p.p.a.a.i h p a.a.p.u.8.a.a.a.",
"u.a.a.a.a.a.a.a.a.a.a.8.a.y.c r t y q.9.w.V.5.V.U |.6X6X2XK M W ) =.<.<.;.;.S m.U.R.F.p.a.a.a.a.u.f x 9.u.q 7 q s.r % & a.p.a.u.",
"a.a.a.a.a.a.a.a.a.a.a.a.a.a.a.a.a.a.a.a.s.<.,.<.U |.6X6X4XF M W / ) -.-.;.3.V m.T.Y.^.p.a.a.a.a.p.x z r.f.& X w a.e . % a.p.a.a.",
"a.a.a.a.a.a.a.a.a.a.a.a.a.a.a.a.a.a.a.a.d.<.-.<.U |.6X6X=XU   F ) / } <.<.-.B m.T.R.~.p.a.a.a.a.u.r.r.f f i < p s.r o % p.a.a.a.",
"a.a.a.a.a.a.a.a.a.a.a.a.a.a.a.a.a.a.a.p.d.<.<.<.U |.6X=X5.U V V W / ! } -.( M N.T.R.~.a.a.a.a.a.a.u.u.x z k h i a.r . % p.a.a.a.",
"a.a.a.a.a.a.a.a.a.a.a.a.a.a.a.a.a.a.a.p.h.<.;.<.U .X>X;.5.! U F F F F U U F M C.U.R.~.8.a.a.a.a.a.a.p.r.f s a t a.c w e a.p.a.p.",
"a.a.a.a.a.a.a.a.a.a.a.a.a.a.a.a.a.a.a.a.h.-.-.;.W Z.K.} K.=.I Y Y Y Y Y U N J ).K.R.~.p.a.a.a.a.a.a.u.p.p.a.u.a.a.a.a.a.a.a.a.u.",
"a.a.a.a.a.a.a.a.a.a.a.a.a.a.g.a.a.a.a.p.s.) ) ) F -.G.-.V.K.( A A A A Z N B A.`.J.R.~.p.a.a.a.a.a.a.a.a.a.a.a.a.a.a.a.a.a.a.a.a.",
"a.a.a.a.a.a.a.a.a.a.a.a.a.a.a.a.a.a.a.a.s.{ ) { U <.J.;.<.K.U.C.m.m.m.2.m.).[.U.K.R.F.p.a.a.a.a.a.a.a.a.a.a.a.a.a.a.p.a.a.a.a.a.",
"a.p.a.a.a.q.q.p.a.a.a.a.k.a.a.a.a.a.a.p.d.) ) { F ,.K.-.,.3.Y.[.[.[.[.[.[.'.U.K.K.J.b.0.a.a.a.a.a.a.a.8.a.a.a.a.p.a.p.a.a.a.a.a.",
"a.a.a.a.a.u u p.a.a.a.a.a.a.a.a.a.a.a.p.d.) ) { U [ R.;.<.V.U.U.U.U.U.U.U.U.K.U.4.H.n.0.a.a.a.a.a.a.a.a.a.a.a.a.a.a.a.a.a.a.a.a.",
"a.a.a.a.p.0.0.8.a.a.a.a.a.a.g.p.a.a.a.a.p.=.) } ! W K.G.G.K.K.K.K.J.K.K.K.K.K.3.5.T.v.c a.a.a.a.a.a.a.a.a.a.a.a.a.a.a.a.a.a.a.a.",
"a.p.a.a.8.u y a.a.a.a.a.a.a.a.a.a.a.a.p.p.` ( / / F -.`._.U.K.U.K.U.K.K.K.K.V.5.T.4.m p.a.a.a.a.a.a.a.a.a.a.a.a.u.a.a.a.a.a.a.a.",
"a.u.a.a.a.9.0.a.p.a.a.a.a.a.a.a.a.a.a.a.p.h.Q ! / ! Z 1.'.[.`.`._._.`._.`.R.U.E.3.` p.a.a.a.a.a.a.a.a.a.a.a.a.a.a.a.a.a.a.a.a.a.",
"a.a.a.a.a.a.a.a.a.a.a.a.a.a.a.a.a.a.a.a.a.p.d.^ ! ! W Z [ A.)._._._._._.Y.J.V.| _ a.a.a.a.a.a.a.a.a.a.a.a.a.a.a.a.a.p.a.a.a.a.a.",
"a.a.a.a.a.a.a.a.a.u.a.a.a.a.a.a.a.a.a.a.a.a.p.d.` ^ / Q D D E E E E W K E E T n g p.a.a.a.a.a.k.a.a.a.a.a.a.a.a.a.a.u.u.p.a.a.a.",
"a.a.a.a.a.a.a.a.p.a.a.a.a.a.a.a.a.l.a.a.a.a.a.p.p.u.s.s.& # : 2 6.O.0 , 5 6.r.p.8.a.a.a.a.a.l.a.a.a.a.a.a.a.a.a.a.a.o.f.p.a.a.a.",
"a.a.a.a.a.a.a.a.a.a.a.a.a.a.a.a.a.a.a.a.a.a.a.a.a.a.p.p.+ O < > p i.a > 5 f g a.p.a.a.a.a.a.a.a.a.a.a.a.a.a.a.a.a.u.o.o.p.u.a.a.",
"a.a.a.a.a.a.a.a.a.a.a.a.a.a.a.a.a.a.a.a.s.a.a.a.a.a.a.a.s 6 k j 2 3 a s d 8.p.a.a.a.a.a.a.a.a.a.a.a.a.a.a.a.a.a.a.8.u.u.u.a.a.a.",
"a.a.a.a.a.a.a.a.a.a.a.a.a.a.a.a.a.a.a.a.a.a.a.a.a.8.a.q.x z k j 1 h 5 f r.a.a.a.a.a.a.a.a.a.a.a.l.a.a.a.a.a.a.a.a.a.a.p.a.a.a.a.",
"a.a.a.a.a.a.a.a.a.a.k.a.a.g.a.a.a.a.a.a.a.a.a.a.a.a.a.a.r.y y t t t u 9.q.a.a.a.a.p.a.a.a.a.a.a.a.a.a.a.a.a.a.a.a.8.a.a.a.a.a.a.",
"a.a.a.a.a.a.a.a.a.a.a.a.a.a.a.a.a.a.a.a.a.a.a.a.a.a.a.a.u.a.k.s.a.a.a.a.a.a.a.a.a.a.a.a.a.a.a.a.a.a.a.a.a.a.a.a.a.a.a.a.u.a.a.a.",
"a.a.a.g.a.a.a.a.a.a.a.a.a.a.a.a.a.a.a.a.a.a.a.a.a.a.a.a.a.a.a.a.a.a.a.a.a.a.a.a.a.a.a.a.a.a.a.a.a.a.a.a.p.0.u 7.u 0.a.a.a.a.a.a.",
"a.a.a.a.a.a.a.a.a.a.g.a.a.k.a.a.p.k.a.a.a.g.a.a.a.a.a.a.a.a.a.a.a.a.a.a.a.a.p.a.a.a.a.a.g.a.a.a.a.a.a.a.p.7.t t t r u.u.q.a.a.a.",
"k.a.a.a.a.a.a.a.a.a.a.a.a.l.a.a.g.a.a.a.a.a.a.k.a.a.a.a.a.a.a.a.a.a.a.a.a.a.a.a.a.a.a.a.a.a.a.a.a.a.a.8.a.0.r u 7.y d d p.a.a.a.",
"a.a.a.a.a.a.a.p.a.a.a.a.a.a.a.a.a.a.a.a.a.a.a.a.a.a.a.a.a.a.a.a.k.a.a.a.a.a.a.a.a.a.a.a.a.a.a.a.a.a.a.a.a.0.u 0.u.e.l 6 p.a.a.a.",
"a.a.a.a.a.a.a.a.a.a.a.a.a.a.a.a.g.a.a.a.a.a.a.a.a.a.a.a.a.a.a.k.a.a.a.a.a.a.a.a.a.k.a.a.a.a.a.a.a.a.a.a.a.q.0.q.p.9.s g u.p.a.a.",
"a.a.a.a.a.a.p.a.a.a.a.a.a.a.a.g.a.a.a.a.a.a.a.g.a.a.a.a.a.a.a.a.a.a.p.a.a.a.a.a.g.a.a.a.a.a.p.a.a.8.a.a.a.a.u.p.p.u.a.a.a.a.a.a.",
"a.a.a.a.a.a.p.r r p.a.p.a.a.a.a.a.a.a.a.k.a.a.a.a.a.a.a.a.a.g.a.a.a.g.a.a.a.a.s.a.a.a.a.a.a.a.a.a.a.a.a.8.a.a.a.a.a.8.a.a.8.u.a."
};
