/* XPM */
static char *_053ed6829614a3499960bd98991e543vesA95Hcpv3KLNpS[] = {
/* columns rows colors chars-per-pixel */
"64 64 200 2 ",
"   c #FE7F00",
".  c #4CAF38",
"X  c #4DB235",
"o  c #4DB139",
"O  c #57B437",
"+  c #53B23A",
"@  c #68BD2E",
"#  c #66BA34",
"$  c #62B63E",
"%  c #6DBA3F",
"&  c #75BD3B",
"*  c #79BF3D",
"=  c #3E8D65",
"-  c #458E5F",
";  c #488F5E",
":  c #499D53",
">  c #4A925C",
",  c #53965C",
"<  c #559A58",
"1  c #55995A",
"2  c #5B9E5A",
"3  c #649E5A",
"4  c #719C5D",
"5  c #4DA744",
"6  c #58A945",
"7  c #5AB740",
"8  c #5CA055",
"9  c #71AF4F",
"0  c #67B445",
"q  c #6CB841",
"w  c #74BB43",
"e  c #7ABC45",
"r  c #77B44D",
"t  c #7CB64E",
"y  c #7EBA4B",
"u  c #64A555",
"i  c #6AAA52",
"p  c #6AAF51",
"a  c #67A559",
"s  c #71AC53",
"d  c #7AAD55",
"f  c #75A758",
"g  c #7DAE5A",
"h  c #7CB253",
"j  c #7CB158",
"k  c #448B62",
"l  c #4A8E60",
"z  c #599563",
"x  c #6C9369",
"c  c #6D966E",
"v  c #76A561",
"b  c #BF9E17",
"n  c #BD9324",
"m  c #9AAA3C",
"M  c #9BBC3F",
"N  c #A4B939",
"B  c #B4BB37",
"V  c #FD8605",
"C  c #FE8A05",
"Z  c #FE9204",
"A  c #FD9D05",
"S  c #FE960B",
"D  c #FE9D0C",
"F  c #EC9F12",
"G  c #FB9C11",
"H  c #FF9A16",
"J  c #C7A41A",
"K  c #D4A41D",
"L  c #D3A81F",
"P  c #FEA404",
"I  c #FEA806",
"U  c #FDA20B",
"Y  c #FFAA0C",
"T  c #FCA413",
"R  c #FDAC15",
"E  c #FEA219",
"W  c #FDAD1A",
"Q  c #E6B21F",
"!  c #FEB116",
"~  c #F1B31D",
"^  c #FCB31B",
"/  c #FCB91D",
"(  c #C79C22",
")  c #CDA820",
"_  c #CEBB2E",
"`  c #D4B22C",
"'  c #FFA728",
"]  c #ECBA24",
"[  c #F6BC23",
"{  c #FBBC22",
"}  c #FDB229",
"|  c #EEAF39",
" . c #FFA936",
".. c #FEAA3A",
"X. c #FFB431",
"o. c #FCB935",
"O. c #B0E71F",
"+. c #96CE3E",
"@. c #9CD334",
"#. c #9BD23A",
"$. c #A6DC32",
"%. c #A9DE30",
"&. c #AAE320",
"*. c #BCF021",
"=. c #FBC21C",
"-. c #FCC423",
";. c #FCC825",
":. c #FBC42B",
">. c #FCCA2E",
",. c #E4C031",
"<. c #FBC733",
"1. c #FCCC31",
"2. c #FECB3B",
"3. c #FCD135",
"4. c #FCD43A",
"5. c #FEDA3D",
"6. c #81BF45",
"7. c #8DBE43",
"8. c #83B74E",
"9. c #83BC4B",
"0. c #88BF4A",
"q. c #99BE43",
"w. c #82AD56",
"e. c #82B552",
"r. c #91B552",
"t. c #FEAF46",
"y. c #85C046",
"u. c #8CC446",
"i. c #86C24A",
"p. c #8BC34A",
"a. c #8FCB49",
"s. c #92C346",
"d. c #99C345",
"f. c #92CA41",
"g. c #94C64A",
"h. c #99C54B",
"j. c #9AC84B",
"k. c #81C250",
"l. c #9ACB51",
"z. c #ACD04B",
"x. c #ACD05E",
"c. c #CFD144",
"v. c #C8C953",
"b. c #FFC74D",
"n. c #FED247",
"m. c #FDDD43",
"M. c #FBD256",
"N. c #FDDD57",
"B. c #FED45D",
"V. c #D7E04F",
"C. c #D7E150",
"Z. c #D9E65B",
"A. c #FDE244",
"S. c #FDEA44",
"D. c #FEE54A",
"F. c #FEEA4D",
"G. c #FFF04E",
"H. c #F9E754",
"J. c #FDED53",
"K. c #FFEE5B",
"L. c #FDF255",
"P. c #FFF35A",
"I. c #CADD6D",
"U. c #FDCE6F",
"Y. c #FDD663",
"T. c #FBD86A",
"R. c #FEC575",
"E. c #FCDD73",
"W. c #D7E661",
"Q. c #D8E761",
"!. c #D5E076",
"~. c #FEED62",
"^. c #FFE368",
"/. c #FEF365",
"(. c #FFF964",
"). c #FEF76B",
"_. c #FEFA6C",
"`. c #FDE77A",
"'. c #FEFE73",
"]. c #FCF77D",
"[. c #FFC981",
"{. c #FFCD8A",
"}. c #FED49C",
"|. c #D8E581",
" X c #E2EA80",
".X c #FEEA84",
"XX c #FBE48A",
"oX c #FCF585",
"OX c #FEE993",
"+X c #FFF699",
"@X c #FEFA9D",
"#X c #FBFCA2",
"$X c #FFE5C3",
"%X c #FFE9CA",
"&X c #FFF1DF",
"*X c #FFF1E0",
"=X c #FFF6E5",
"-X c #FEF9EE",
";X c #FDFAF3",
":X c #FEFEFE",
/* pixels */
"p.p.p.p.p.p.p.p.p.p.p.p.p.p.p.p.p.9.g d i i 8.8.q w t e.p.p.p.p.p.p.p.p.p.p.p.p.p.p.p.p.0.* * y.p.p.p.p.p.p.p.p.p.p.p.p.p.p.p.p.",
"p.p.p.p.g.p.p.p.p.p.p.p.p.p.p.p.p.p.u.u.g.p.u.p.p.s.p.u.p.p.p.p.p.p.p.p.p.p.p.p.p.p.p.p.p.@ @ y.p.u.p.p.p.p.p.p.p.p.a.p.p.p.p.p.",
"p.p.p.p.p.p.p.p.p.p.a.p.p.p.p.p.p.y.p.p.p.p.p.p.p.p.p.p.p.p.p.p.p.p.p.p.p.p.p.a.p.p.p.p.0.# $ y.p.p.p.p.p.p.p.p.p.p.p.p.p.p.p.p.",
"p.p.p.p.p.p.p.p.p.p.p.p.p.p.p.p.p.p.p.p.i.u.p.p.p.p.p.p.p.p.p.p.p.p.p.p.p.p.p.p.p.p.p.p.y.O + e u.p.p.p.p.p.p.p.p.p.p.p.p.p.i.g.",
"p.p.p.p.p.p.p.p.p.p.p.p.p.p.p.p.p.p.p.0.i.7.p.p.p.p.p.p.p.p.p.p.p.p.p.p.p.p.p.p.p.p.p.p.i.6 5 y p.e w 0.p.p.p.p.p.p.p.p.p.p.p.p.",
"p.p.a.p.p.p.p.p.p.p.p.p.p.p.p.p.p.p.p.p.p.p.p.p.p.p.p.p.p.p.p.p.p.p.p.p.p.p.p.g.p.p.0.p.i., l t u.$ . e u.p.p.p.p.p.p.p.p.p.p.p.",
"p.p.p.p.p.p.p.p.p.p.p.p.p.p.p.p.p.p.p.p.p.p.p.p.p.p.p.p.p.p.p.p.p.p.p.p.p.p.p.p.p.p.p.p.i., > y u.0 5 e u.p.p.p.p.p.p.p.p.p.p.g.",
"p.p.p.p.p.p.p.p.p.p.p.p.p.p.p.p.p.p.p.y.p.p.p.p.p.p.i.p.p.p.p.p.p.p.p.p.p.p.p.p.p.p.p.p.p., l y u.2 k 9 u.p.0.p.p.p.p.p.p.p.p.p.",
"p.p.p.p.p.p.p.p.p.p.p.k.p.p.p.p.u.u.7.y.i.p.p.p.p.p.p.p.p.p.p.i.p.p.p.p.p.p.p.p.p.p.p.p.i.2 < y p.8 z j p.p.p.p.p.p.p.p.p.p.p.p.",
"p.p.p.p.p.p.p.i.p.p.p.p.p.p.i.g.+.+.+.+.p.p.p.p.a.p.p.p.p.p.p.p.a.p.p.p.p.p.p.p.p.p.p.p.y.0.0.7.i.i.i.p.p.p.p.p.p.a.p.p.p.l.p.p.",
"p.p.p.p.i.p.i.7.p.p.p.p.p.p.p.u.+.+.+.+.p.p.p.p.i.p.p.p.p.p.p.p.p.p.p.p.p.p.p.p.p.i.p.p.p.p.p.p.p.u.p.p.p.p.p.p.p.p.p.p.k.p.p.p.",
"p.p.p.p.0.y 9.0.p.p.p.p.p.p.p.p.u.p.p.p.0.p.p.p.i.i.i.i.p.p.i.p.k.p.p.k.i.i.i.p.p.p.p.p.p.p.p.p.p.p.p.p.p.p.p.p.p.p.p.p.p.p.p.p.",
"p.p.7.i.0.y 9.i.p.p.0.p.p.p.y.p.p.p.p.p.p.i.i.y.j.l.j.d.q.M M M h.M q.M M M q.u.p.p.u.i.p.p.p.p.p.p.p.p.p.p.p.p.p.p.l.p.p.g.p.p.",
"p.p.p.y 9.i.0.9.y 9.y 0.p.p.p.p.p.p.p.p.u.y.x. XoX<.U D G G G G H H G G G D G F J s.i.u.i.p.p.g.p.p.p.p.a.p.p.p.p.p.k.p.p.p.p.p.",
"p.p.0.y e 7.p.y y y y 0.p.p.p.p.p.p.u.u.p.I.@X.X' H [.$X&X*X*X*X*X*X*X*X*X*X*X%X{.| N y.p.p.p.p.p.p.p.p.p.p.p.p.p.p.p.p.p.p.p.p.",
"p.p.y.0.0.0.p.0.0.0.0.y.p.p.p.p.u.p.i.y.I.+X.XU  .=X:X:X:X:X:X:X:X:X:X:X:X:X:X:X:X=Xo.M i.p.p.p.p.p.p.p.p.p.p.p.p.p.p.p.p.p.p.p.",
"p.p.p.p.p.p.0.p.p.p.p.p.p.p.p.p.p.g.i.z.L.L.!  .-X:X:X:X:X:X:X:X:X:X:X:X:X:X:X:X-X].G.,.7.p.p.p.p.p.p.p.p.p.p.p.p.p.p.p.p.p.p.p.",
"p.p.p.p.p.p.p.p.i.p.p.p.p.p.p.p.p.p.i.C.L.5.S %X:X:X:X:X:X:X:X:X:X:X:X:X:X:X:X;XY.;.F.D.B i.s.p.p.p.p.p.p.p.p.p.p.p.p.p.p.p.p.p.",
"p.p.p.p.y.p.p.p.p.p.p.p.7.p.p.p.p.i.h.H.P.{ t.:X:X:X:X:X:X:X:X:X:X:X:X:X:X:X;XY.-.>.3.J.c.i.p.p.p.p.p.p.p.p.a.p.p.p.p.p.p.l.p.p.",
"p.p.p.p.p.p.p.p.p.p.p.a.i.p.p.p.p.i.j.J.P.R {.:X:X:X:X:X:X:X:X:X:X:X:X:X:X:XY.-.<.>.>.A.C.9.p.p.p.p.p.a.p.p.p.p.p.p.l.k.p.p.p.p.",
"p.p.p.p.p.p.p.p.p.p.p.p.p.p.p.p.i.i.g.H.L.Y }.:X:X:X:X:X:X:X:X:X:X:X;X:X;XoXS.4.>.1.>.5.C.p.p.i.p.p.p.p.p.p.p.p.p.p.p.p.p.p.p.p.",
"p.a.p.p.p.p.p.p.p.p.p.p.p.p.p.p.p.i.j.L.P.Y }.:X:X:X:X:X=XR. ...........' W m.L.1.>.:.m.Q.y.p.p.p.p.p.p.g.p.p.p.p.p.p.p.p.p.p.p.",
"p.p.p.p.p.p.p.p.p.p.p.p.p.p.p.p.p.i.d.4.5.U }.:X;X:X:X-X..P P P P P P A A C C A.F.:.3.P.Q.i.p.p.p.p.p.p.p.p.p.p.p.p.p.a.p.p.p.p.",
"p.p.p.p.p.p.p.p.p.p.p.p.p.p.p.p.p.p.d.>.1.A }.:X:X:X:XU.P R Y Y U U A U U A V E H.5.D.P.Z.p.p.p.p.p.p.p.p.p.p.p.p.p.p.p.p.p.p.p.",
"p.p.p.g.p.p.p.p.p.p.p.p.p.p.p.p.u.i.d.1.1.U }.:X:X:X-Xo.P S C S R ^ ^ } ^ R Z V J.J.D.P.Z.i.p.p.p.p.p.p.p.p.p.p.p.p.p.p.p.p.p.p.",
"p.p.p.p.p.p.p.p.p.p.p.p.p.p.p.p.p.i.d.;.>.A }.:X:X:X-XX.A C S >.1.3.m.A.A.A.W V ~.P.F.P.Z.p.p.p.p.a.p.p.p.p.p.p.p.p.p.p.p.p.p.a.",
"p.p.p.p.p.p.p.p.p.p.p.p.p.p.p.7.p.i.h.M.B.U }.:X:X:X-XX.Z V { 3.>.:.1.5.m.A.3.V ~.P.F.P.Q.y.i.p.p.p.p.p.p.p.p.p.k.p.p.p.p.p.p.p.",
"p.p.p.p.p.p.p.p.p.p.p.p.p.y.e 0.p.i.l.XXOXE }.:X:X:X-XX.C C :.>.>.1.>.1.5.m.5.V ~.L.D.P.Q.p.p.p.p.p.p.p.p.p.p.p.g.p.p.p.p.p.p.p.",
"p.p.p.i.i.p.p.p.p.p.p.p.p.q . % 7.i.h.T.E.T }.:X;X:X-X} Z C :.>.>.1.1.:.3.A.3.V ~.P.D.P.Z.i.p.p.p.u.p.p.i.p.p.p.p.p.p.p.p.p.p.p.",
"p.p.p.p.p.p.p.p.p.p.p.p.7.% O % p.i.s.>.1.A }.:X:X:X-XX.Z V :.1.>.>.>.1.>.5.5.V ~.L.F.P.Q.i.p.p.p.p.p.p.s.a.p.i.k.p.p.p.p.p.p.p.",
"p.p.p.p.p.p.p.p.p.p.p.p.i.#.&.#.p.i.d.<.<.U }.:X:X:X-X} Z V :.>.1.>.>.1.>.1.2.C ~.P.F.P.Q.i.p.p.p.p.7.$.*.f.0.p.g.p.p.p.p.p.p.p.",
"p.p.p.p.i.p.p.p.p.i.p.p.p.$.&.@.0.i.d.>.1.A }.:X:X:X.X! Z V :.>.1.>.>.1.1.>.1.V ~.L.F.P.Q.i.p.p.p.i.9.%.*.f.0.p.0.p.p.p.p.p.p.p.",
"p.p.0.9.9.p.p.p.p.p.p.p.u.* @ # + q g.<.1.A }.:X;X`.S.! Z V -.1.>.1.>.>.>.1.{ C ~.P.D.P.Z.y.p.p.p.p.0.%.*.#.p.w + q 7.p.p.p.p.p.",
"p.p.0.y y p.p.p.p.p.p.p.p.& # # o O d.4.A.U }.:XT.;.L.^ Z V ~ 1.>.>.1.>.1.1.o.V ~.P.D.A.V.y.p.p.p.u.0.%.O.#.p.w + $ p.p.p.p.p.p.",
"p.p.i.0.0.p.p.p.y.p.p.p.p.& @ 6 > 8 r.m.m.U }..X=.3.F.! Z V R :.1.>.1.>.>.1.:.V ~.L.1.5.C.i.p.p.p.p.p.u.+.9 < p y.6.p.p.p.p.p.p.",
"p.p.7.p.i.p.p.p.p.p.p.7.p.& @ 6 l < r.m.A.T n.A.>.3.F.! C V R / :.1.>.1.>.>.:.V ~.m.;.5.C.i.p.p.p.p.p.i.p.3 k a u.p.p.p.0.p.p.i.",
"i.p.p.p.p.p.p.p.p.7.p.i.i.y.+.e h t g.4.5.U 1.m.:.3.F.^ Z V W ^ { 1.>.>.>.1.:.V H.4.:.5.V.p.p.p.p.d v 8.g.0 5 0 s.e $ % p.p.p.p.",
"p.p.p.p.p.p.p.p.p.p.p.p.p.p.9.i.p.i.d.1.1.U 4.D.:.1.F.! Z V ^ ^ ^ { >.>.>.1.:.V D.5.:.5.V.i.p.p.p.f c e.p.q X % p.w . $ p.p.p.y.",
"p.p.p.p.p.p.p.p.p.p.p.p.p.p.p.p.p.p.d.<.1.D 4.A.:.1.J.^ Z C G / ^ ^ -.>.1.1.W V D.4.:.5.C.i.p.p.p.e.e.g g u : p g.e . $ y.p.p.p.",
"p.p.p.p.i.p.p.p.p.p.p.p.p.p.p.p.p.6.g.1.1.S 4.A.:.5.(./ I S C D T T T W ^ W Z V D.5.:.5.V.0.p.p.0.p.u.f c z l u p.w . $ p.p.p.p.",
"i.p.p.p.p.p.p.p.p.p.p.p.p.p.p.p.p.i.d.<.1.D 1.A.1.J._.:.I Y U D U U A D U U C S L.3.:.5.C.i.p.p.p.p.p.h g s u r u.6.% w 7.p.p.p.",
"p.p.p.p.p.p.p.p.p.p.p.p.p.p.p.p.p.i.s.[ -.D 2.F.A.F./.K.Y I Y Y Y Y Y I D Z   2.F.>.>.5.V.0.p.p.p.p.p.p.p.u.p.p.p.p.p.p.i.p.p.p.",
"p.p.p.p.p.p.p.p.p.i.p.p.p.p.p.p.p.i.d./ { A n.P.F.F.J.'.H.' U D D G D D S G 2.L.4.>.>.5.W.i.p.p.p.0.p.p.p.p.p.p.p.p.p.p.p.p.p.p.",
"p.p.p.p.p.p.p.p.p.p.p.p.g.i.p.p.p.p.d./ { U n._.F.F.F.J._.'./././.J.D.F.F.L.L.4.>.>.:.^.|.y.p.p.p.u.p.p.p.0.p.p.p.p.p.p.p.p.i.p.",
"p.p.p.y.p.0.0.i.p.p.p.p.p.p.p.p.i.p.d./ { D <.'.J.F.F.F.J.P._._.P.F.F.J.F.m.<.>.>.;.M.@X!.0.p.p.p.p.p.p.p.p.p.p.p.p.p.p.0.p.p.p.",
"p.p.p.p.7.y y i.p.p.p.p.p.p.p.p.p.i.u.] / R T ).P.D.J.F.F.F.F.4.>.1.1.1.1.>.>.1.>.M.XX+Xv.6.p.p.p.p.p.p.p.p.p.p.p.p.p.p.p.p.p.p.",
"p.p.p.p.0.9.9.0.p.p.p.p.g.i.p.p.p.p.i._ / ~ S n.'.K.F.F.F.F.4.;.>.1.>.1.>.1.>.>.M.XX@XE.N i.p.p.p.p.p.p.p.p.p.p.p.p.p.p.p.p.p.p.",
"p.p.p.p.p.t 9.i.p.p.p.p.p.p.p.p.p.p.i.d.~ ^ Y S D.'./.K.J.5.>.3.1.1.1.1.1.1.1.N.OX#X`._ i.p.p.p.p.p.p.p.p.p.p.p.p.p.p.p.p.p.p.p.",
"p.p.p.p.p.9.y 0.p.p.p.p.p.p.p.p.p.p.p.k.B W R U G n._.'.(.L.L.L.L.L.L.P.P.L.oX#X@XT.` 7.p.p.p.p.p.p.p.p.p.p.p.p.p.p.p.p.p.p.p.p.",
"p.p.p.p.p.p.p.p.p.p.p.p.p.p.p.p.p.p.p.p.p.M Q ! U Z W :.1.3.1.3.1.1.1.3.>.2.B.b. .) q.k.p.p.p.p.p.p.p.p.p.p.p.p.p.p.p.i.p.p.p.p.",
"p.p.p.p.p.p.p.p.p.p.p.p.p.i.p.p.p.p.p.p.p.p.p.B _ ` L K J b n n ( L ( n ( L ) ( m i.p.p.p.p.p.p.p.p.p.p.p.p.p.p.p.p.p.u.u.p.p.p.",
"p.p.p.p.p.p.p.p.p.p.p.p.p.p.p.p.p.p.p.p.i.p.p.k.i.i.i.i.7 o : k p f.a = 8 j h y i.p.p.p.p.p.p.a.p.p.p.p.p.p.p.p.p.p.#.s.p.i.p.p.",
"p.p.p.p.p.p.p.p.p.p.p.p.p.p.p.p.p.a.p.p.p.p.p.p.i.i.u.7.$ + : l s a.a ; 3 w.8.p.p.p.p.p.p.p.p.p.p.p.p.p.p.p.p.p.p.u.+.+.p.p.p.p.",
"p.p.p.p.p.p.p.p.p.p.p.p.p.p.p.p.p.p.p.p.p.p.p.p.p.p.p.p.f 4 z > , 2 a f d 0.0.7.p.p.i.p.p.p.p.p.p.p.p.p.p.p.p.p.p.0.u.u.p.p.p.p.",
"p.p.p.p.p.p.p.p.p.p.p.p.p.p.p.p.p.p.p.p.p.p.p.p.p.p.p.p.v c z > ; - 3 w.8.p.p.p.p.p.p.p.p.p.p.p.p.p.p.p.p.p.p.p.p.7.p.p.p.p.p.p.",
"p.p.p.p.p.p.p.p.p.g.p.p.p.a.p.p.p.p.p.p.p.p.p.p.p.p.p.p.t h y r r r 8.0.9.p.p.p.p.p.p.p.p.p.p.p.p.p.p.p.p.p.p.p.p.i.p.p.p.p.p.p.",
"p.g.p.p.p.p.p.p.p.p.p.p.p.p.p.p.p.p.p.p.p.p.p.p.p.p.p.p.p.p.p.p.p.u.p.u.p.p.p.p.p.p.p.p.p.p.p.p.p.p.p.p.p.p.p.p.p.p.p.p.p.p.p.p.",
"p.p.p.p.p.p.p.p.p.p.p.p.p.p.p.a.p.p.p.p.p.p.p.p.p.p.p.p.p.p.p.p.p.p.p.p.p.p.p.p.p.p.p.p.p.p.p.p.p.p.p.p.0.0.e 6.y 6.p.p.p.p.p.p.",
"p.p.p.p.a.p.p.p.p.p.p.p.p.p.p.p.p.p.p.p.p.p.p.p.p.p.p.p.p.i.p.p.p.p.0.p.p.p.p.p.p.p.a.p.p.p.p.p.p.p.p.y.p.y r r r e u.u.i.p.p.p.",
"p.p.p.p.p.p.p.p.p.p.p.p.p.p.p.p.p.l.p.p.p.p.k.l.p.p.p.p.p.p.p.p.p.p.p.p.p.p.p.p.p.p.p.p.p.p.p.g.p.p.p.p.p.9.t e 6.t d d p.p.p.7.",
"p.p.p.p.p.i.p.p.p.p.p.p.p.p.p.p.p.p.p.p.p.p.p.p.p.p.p.p.p.p.p.p.p.p.p.p.p.p.p.p.p.p.p.p.p.p.p.p.p.p.p.p.p.9.y 9.7.e.x 4 p.0.p.p.",
"p.p.p.p.p.p.p.p.p.p.p.p.p.p.p.p.p.p.p.p.p.p.p.p.p.p.p.p.p.g.p.p.a.p.p.p.p.p.p.p.p.p.p.p.p.p.p.p.p.p.p.p.p.0.9.0.u.8.f h p.p.p.p.",
"p.p.p.p.p.p.i.p.p.p.p.p.p.g.p.p.p.p.p.p.p.p.p.p.p.p.p.p.p.p.p.p.p.p.p.p.p.p.p.p.p.p.p.p.p.p.p.p.p.p.p.p.p.0.p.p.7.y.p.p.0.p.p.p.",
"p.p.p.p.p.p.i.e e 9.p.p.p.k.p.g.p.p.p.p.p.a.p.p.p.p.g.p.p.p.p.p.p.p.p.p.p.p.p.p.p.p.p.p.p.p.p.p.p.p.p.p.p.i.p.p.p.p.i.p.p.p.p.p."
};
