/* XPM */
static char *_b9b0f76075d4914de048b7f328ef787J8oVQIJJuaskjVAo[] = {
/* columns rows colors chars-per-pixel */
"64 64 190 2 ",
"   c #4DAF39",
".  c #4DB235",
"X  c #4EB039",
"o  c #57B437",
"O  c #53B23A",
"+  c #68BD2E",
"@  c #67B834",
"#  c #62B63E",
"$  c #6DBA3F",
"%  c #79B436",
"&  c #75BD3B",
"*  c #7CBD3C",
"=  c #6EC02E",
"-  c #478F5F",
";  c #4B9C52",
":  c #4A925C",
">  c #52965C",
",  c #58975D",
"<  c #55985A",
"1  c #5B9C5A",
"2  c #6A9F48",
"3  c #729B4F",
"4  c #618C50",
"5  c #649858",
"6  c #719C5D",
"7  c #4DA744",
"8  c #58A945",
"9  c #5DB540",
"0  c #69AE4D",
"q  c #71AF4F",
"w  c #67B246",
"e  c #6BB841",
"r  c #74BB43",
"t  c #7ABC45",
"y  c #76B44D",
"u  c #7DB64E",
"i  c #7EBA4B",
"p  c #65A456",
"a  c #6AAC52",
"s  c #68A559",
"d  c #75A657",
"f  c #78A657",
"g  c #73AC53",
"h  c #7CAC55",
"j  c #73AC5A",
"k  c #7DAE5A",
"l  c #7EB153",
"z  c #438B62",
"x  c #4A8F60",
"c  c #599563",
"v  c #6C9369",
"b  c #6D966E",
"n  c #76A561",
"m  c #7FC247",
"M  c #7DC051",
"N  c #81BD3A",
"B  c #BEA32F",
"V  c #A5B638",
"C  c #BAB431",
"Z  c #FD8501",
"A  c #FD8C01",
"S  c #FE8708",
"D  c #FD9402",
"F  c #FD9A05",
"G  c #FC950C",
"H  c #FE9C0C",
"J  c #FE9E11",
"K  c #FC9D1D",
"L  c #D2A41E",
"P  c #FEA503",
"I  c #FDA30E",
"U  c #FEAE0D",
"Y  c #FBA211",
"T  c #FCAE16",
"R  c #F1A418",
"E  c #F6AE18",
"W  c #FBAD18",
"Q  c #FEB116",
"!  c #F0B01B",
"~  c #FBB51C",
"^  c #FBB91F",
"/  c #FB9F22",
"(  c #FB9C3D",
")  c #C8A722",
"_  c #C4AE29",
"`  c #D1B328",
"'  c #FFAF26",
"]  c #E2B221",
"[  c #FCBC22",
"{  c #FEB529",
"}  c #FEBA2A",
"|  c #FBA93F",
" . c #B0E71F",
".. c #96CE3E",
"X. c #9CD334",
"o. c #9BD23A",
"O. c #A3C43E",
"+. c #A6DC32",
"@. c #A9DE30",
"#. c #AAE320",
"$. c #B7EC24",
"%. c #BCF021",
"&. c #FDC425",
"*. c #FCC927",
"=. c #FCC42B",
"-. c #FCC92D",
";. c #FDD12F",
":. c #E3C034",
">. c #FEC537",
",. c #FCCC32",
"<. c #FCCC3C",
"1. c #FDD235",
"2. c #FFD836",
"3. c #FCD43A",
"4. c #FDDA3D",
"5. c #84AB48",
"6. c #8EB044",
"7. c #81BF45",
"8. c #83B74E",
"9. c #83BC4B",
"0. c #88BE4A",
"q. c #81AD54",
"w. c #82B452",
"e. c #96BC52",
"r. c #FB9D41",
"t. c #FBAB42",
"y. c #FEBA41",
"u. c #FEBA5D",
"i. c #FEBC7F",
"p. c #85C046",
"a. c #8CC446",
"s. c #83C44C",
"d. c #8BC34A",
"f. c #94C145",
"g. c #92CA41",
"h. c #B0C74B",
"j. c #B0D34D",
"k. c #A1CC56",
"l. c #BAD251",
"z. c #B9D668",
"x. c #C3D54A",
"c. c #C3D84E",
"v. c #D2D048",
"b. c #C0CA51",
"n. c #C4D757",
"m. c #D2DF5D",
"M. c #FCCF46",
"N. c #FAD447",
"B. c #FDDD41",
"V. c #FCDF57",
"C. c #D2E05D",
"Z. c #FEE244",
"A. c #FEE549",
"S. c #FEEB4D",
"D. c #E5E751",
"F. c #FFEF52",
"G. c #FDF254",
"H. c #FCF558",
"J. c #FFCF66",
"K. c #FFD663",
"L. c #FED36D",
"P. c #FEC97F",
"I. c #FCDB7A",
"U. c #D2E363",
"Y. c #FEED62",
"T. c #FFF263",
"R. c #FDE076",
"E. c #FEBD80",
"W. c #C3DC88",
"Q. c #FEC986",
"!. c #FDDF83",
"~. c #FED78F",
"^. c #FCE184",
"/. c #FAE289",
"(. c #FEE89D",
"). c #FEF595",
"_. c #FFF798",
"`. c #FEFA9E",
"'. c #C2DEA3",
"]. c #C4E1A3",
"[. c #C3E0AA",
"{. c #FEE6B0",
"}. c #FEFBB9",
"|. c #FEE6C5",
" X c #FEE7C9",
".X c #FEE9CD",
"XX c #FEEDD8",
"oX c #FEF9DE",
"OX c #FFFFE8",
"+X c #FFFFFF",
/* pixels */
"d.d.d.d.d.d.d.d.d.d.d.d.d.d.d.d.d.9.h h a a 8.8.r r 8.8.0.d.d.d.d.d.d.d.d.d.d.d.d.d.d.d.0.* * p.d.d.d.d.d.d.d.d.d.d.d.d.d.d.d.d.",
"d.d.d.d.d.d.d.d.d.d.d.d.d.d.d.d.d.d.d.a.a.d.d.d.a.d.d.d.d.d.d.d.d.d.d.d.d.d.d.d.d.d.p.d.d.+ + 7.d.d.d.d.d.d.d.d.d.d.d.d.d.d.d.d.",
"d.d.d.d.d.d.d.d.d.d.d.d.d.d.d.d.d.d.0.d.d.d.d.d.p.d.d.d.d.d.d.d.d.d.d.d.d.d.d.d.d.d.d.d.d.@ # 7.0.d.d.d.d.d.d.d.d.d.d.d.d.d.d.d.",
"d.d.d.d.d.d.d.d.k.s.d.d.d.d.d.d.d.d.d.d.d.d.d.d.d.d.d.d.d.d.d.d.d.d.d.d.d.d.d.d.d.d.d.d.s.o o t a.d.a.d.d.d.d.d.d.d.d.d.d.d.d.d.",
"d.d.d.d.d.d.d.d.d.d.d.d.d.d.d.d.d.a.7.d.d.p.d.d.d.d.d.d.d.d.d.d.d.d.k.d.d.d.d.d.d.d.d.d.0.8 7 9.d.t r 7.d.0.d.d.d.d.d.d.d.d.d.d.",
"d.d.d.d.d.d.d.d.d.d.d.d.d.d.d.d.d.d.a.d.d.d.d.d.d.d.d.d.d.d.d.d.d.d.s.d.d.d.d.d.d.d.d.d.0.> - i a.#   t d.d.d.d.d.d.d.d.d.d.d.d.",
"d.d.d.d.d.d.d.d.d.d.d.d.d.d.d.d.d.d.d.d.d.d.a.d.d.d.d.d.d.d.d.d.d.d.d.d.d.d.d.d.d.d.0.d.0.< : i a.w 7 t d.d.d.d.d.d.d.d.k.d.d.d.",
"d.d.d.d.d.d.d.d.d.d.s.d.d.d.d.d.d.0.d.d.d.d.d.0.d.d.d.d.d.d.d.d.d.d.d.d.d.d.d.d.d.d.d.a.s.> - i d.1 - y a.d.d.d.d.d.d.d.d.d.d.d.",
"d.d.d.d.a.0.s.d.d.d.d.d.d.d.d.d.a.d.a.0.d.d.d.d.d.d.d.d.d.d.d.d.d.d.d.d.d.d.d.d.d.d.d.d.s.1 < 9.d.p > i k.d.d.d.d.d.d.d.d.d.d.d.",
"d.d.d.d.d.d.a.d.d.d.d.d.d.d.s.g.......g.0.a.d.d.d.d.f.d.d.d.d.d.d.d.d.d.d.d.d.d.d.d.d.d.0.d.0.d.d.s.s.d.s.d.d.d.d.d.d.d.d.d.d.d.",
"d.d.d.d.d.0.0.d.d.d.d.d.d.d.d.a.........d.d.d.d.d.d.d.d.d.d.d.d.d.d.d.d.0.d.d.d.d.d.d.d.d.d.d.d.d.a.d.d.s.a.d.d.d.d.d.d.d.d.d.d.",
"d.d.d.d.7.9.9.d.d.d.d.d.d.d.d.d.a.d.7.d.d.d.d.d.d.d.d.d.d.d.d.d.d.d.d.d.a.d.d.d.d.d.d.d.d.d.d.d.d.d.d.s.a.d.d.d.d.d.d.d.d.d.d.d.",
"d.d.0.d.0.9.9.0.d.0.d.p.p.d.d.d.d.d.d.d.d.d.d.d.d.d.d.s.p.p.p.7.d.s.s.d.s.s.d.d.d.d.d.d.d.d.d.d.d.d.d.d.d.d.d.d.d.d.d.d.d.d.d.d.",
"d.d.7.9.9.s.7.9.i 9.9.0.d.d.d.d.d.d.d.d.d.d.d.d.d.d.k.n.C.m.m.U.v.` L L ) V s.d.a.d.d.d.d.d.d.d.d.d.d.d.d.d.d.d.d.d.d.d.d.d.d.d.",
"d.d.0.9.8.d.p.8.i 9.9.0.d.d.d.d.d.d.d.d.d.d.d.d.p.z._._._._.`.K.I Y =.,.,.} C p.d.0.a.d.d.d.d.d.d.d.d.d.d.d.d.d.d.d.s.d.d.d.d.d.",
"d.d.d.0.7.d.d.7.0.0.7.p.d.d.d.d.d.d.d.d.d.d.d.d.h.)._._.).`.R.D [ G.H.H.H.H.Z.h.s.d.d.d.d.d.d.d.d.d.d.d.d.d.d.d.d.d.k.d.d.d.d.d.",
"d.d.d.d.d.d.d.d.d.d.d.d.d.d.d.d.d.d.d.d.d.d.d.f.N.T.H.Y.Y.T.' T G.B.3.1.1.3.S.D.f.a.d.d.d.d.d.d.d.d.d.d.d.d.d.d.d.d.d.d.d.d.d.d.",
"d.d.d.0.p.d.d.d.d.d.d.d.d.d.d.d.d.d.d.d.d.d.s.C B.G.F.F.F.S.H 3.B.=.-.-.-.-.-.A.j.s.d.d.d.d.d.d.d.d.d.d.s.k.d.d.d.d.d.d.d.d.d.d.",
"d.d.d.d.d.d.d.d.d.d.d.d.d.d.d.d.d.d.d.d.d.d.s._ B.G.F.F.G.A.H 4.,.-.-.-.-.-.-.4.n.s.d.d.d.d.d.d.d.d.d.d.d.d.d.d.d.d.d.d.d.d.d.d.",
"d.d.d.d.d.d.d.d.d.d.d.d.d.d.d.d.d.d.d.d.d.d.s._ B.G.F.F.G.A.I 1.,.-.,.1.3.,.=.1.c.7.d.d.d.d.d.d.d.d.d.d.d.d.d.d.d.d.d.d.d.d.d.d.",
"d.d.d.d.d.d.d.d.d.d.d.d.d.d.d.d.d.d.d.d.d.d.s.` 4.H.F.F.F.A.H 3.,.,.F.H.H.H.3.1.c.7.d.d.d.d.d.d.d.d.d.d.d.d.d.d.d.d.d.d.d.k.s.d.",
"d.d.d.d.d.d.d.d.d.d.d.d.d.d.d.d.d.d.d.d.d.d.s._ Z.H.G.G.G.A.Y 3.,.S.S.,.} B.G.3.x.s.d.d.d.d.d.d.d.d.d.d.d.d.d.d.d.d.d.d.d.d.d.d.",
"d.d.d.d.d.d.d.d.d.d.d.d.d.d.d.d.d.d.d.d.d.d.s._ 3.S.A.A.S.B.I 3.3.S.W D A S 3.Y.W.7.d.d.0.a.d.d.d.d.d.d.d.d.d.d.d.d.d.d.d.d.d.d.",
"d.d.d.d.d.d.d.d.d.d.d.d.d.d.d.d.d.d.d.d.d.d.M _ [ -.-.-.-.} H 3.3.3.P U H Z / OX'.N d.a.a.d.d.d.d.d.d.d.d.d.d.d.d.d.d.d.d.d.d.d.",
"d.d.d.d.d.d.d.d.d.d.d.d.d.d.p.d.d.d.d.d.d.d.s._ -.1.-.,.,.=.H 1.4.=.D I I Z ( +X'.N d.g.o.d.d.d.d.d.d.d.d.d.d.d.d.d.d.d.d.d.d.d.",
"d.d.d.d.d.d.d.d.d.d.d.d.d.d.d.d.d.d.d.d.d.d.s._ &.-.-.-.-.=.H 1.B.} A } 4.[ ( +X].N d.g.g.d.d.d.d.d.d.d.d.d.d.d.d.d.d.d.d.d.d.d.",
"d.d.d.d.d.d.d.d.d.d.d.d.d.d.d.d.d.d.d.d.d.a.s._ >.3.<.<.<.>.H 3.B.{ G ,.3.4.t.+X].N d.d.d.d.d.d.d.d.d.d.d.d.d.d.d.d.d.d.d.d.d.d.",
"d.d.d.d.d.d.d.d.d.d.d.d.d.0.7.7.d.d.d.d.d.a.M _ J.^.I.I.!.L.J 1.B.{ G ,.,.2.t.+X].N d.d.d.d.a.d.d.d.a.d.d.d.d.d.d.d.d.d.d.d.d.d.",
"d.d.d.d.d.d.d.d.d.d.d.d.d.$   $ d.d.d.d.d.d.m _ L./.!.!.^.L.J 3.4.{ G ,.-.1.t.+X'.* d.d.d.d.d.d.d.d.d.d.d.d.d.d.d.d.d.a.d.d.d.d.",
"d.d.d.d.d.d.d.d.d.s.d.d.d.$ o $ d.d.d.d.d.d.s._ >.N.M.M.M.M.H ;.V.u.G 1.,.*.t.+X'.* d.d.d.d.d.d.d.d.p.a.a.a.d.d.d.d.d.d.d.d.s.k.",
"d.d.d.d.d.d.d.d.d.d.d.d.d.X.#.X.d.d.d.d.d.a.s._ [ -.-.-.-.&.H N.oXQ.D ,.-.*.t.+X'.% d.d.d.d.d.d.d.d.0.+.$.o.d.a.d.d.d.s.d.d.d.d.",
"d.d.d.d.d.d.d.d.d.d.d.d.0.X. .X.s.d.d.d.d.0.M _ [ ,.,.,.,.=.F {.+Xi.D ,.,.*.t.+X'...d.d.d.d.d.d.d.d.0.@.%.o.s.d.s.s.d.d.d.d.d.d.",
"d.d.7.9.9.0.d.d.d.d.d.d.d.* + @ O e d.8.k w.j B [ -.-.-.-.=.H  X+Xi.D ,.,.&.| +X].* d.d.d.d.d.d.d.d.0.@.%.o.d.r O e 0.d.d.d.d.d.",
"d.d.0.i i d.d.d.d.p.a.d.d.& + # X e d.8.h k j B -.3.3.3.3.,.H  X+Xi.A <.,.&.t.+X'.% d.d.d.d.d.d.d.d.s.@.%.o.0.r X # d.d.a.d.d.d.",
"d.d.0.d.7.d.d.d.0.d.d.d.d.& + 9 : p w.q.h q.M _ ,.Z.B.B.B.3.H  X+Xi.A -.,.&.| +X]...d.d.d.s.d.d.d.d.0.g.g.q < a p.7.d.d.d.0.d.d.",
"d.d.d.d.d.d.d.d.d.d.d.d.d.& = 8 z 1 q.h q.q.M _ ,.Z.B.B.B.3.H |.+Xi.A -.,.&.| +X].d.d.d.d.d.d.d.d.d.d.0.d.p z a a.d.d.d.d.d.d.d.",
"d.d.d.d.d.d.d.d.d.7.d.d.d.s.m t y u 0.9.0.0.s._ ,.B.B.4.4.3.H  X+XE.A -.,.&.| +X].N d.d.d.d.d.d.d.h n 8.d.w 7 w a.t # $ d.d.d.d.",
"d.d.d.d.d.d.d.d.d.a.d.d.d.d.a.d.d.d.d.d.a.d.s._ &.,.,.,.,.=.H  X+Xi.A } ,.&.t.+X].N d.d.d.d.d.d.d.n b w.a.e . $ a.r   # d.p.d.d.",
"d.d.d.d.d.d.d.d.d.d.d.d.d.d.d.d.0.d.d.d.d.d.s._ [ -.-.-.-.=.H  X+XE.A [ -.*.| +X[.N d.d.d.d.d.d.d.8.w.k k p ; 0 a.t O # d.d.d.d.",
"d.d.d.d.d.d.d.d.d.d.d.d.d.d.d.d.d.d.d.d.d.d.M _ [ ,.-.,.-.=.H  X+XQ.Z E &.E ( +XW.N d.d.d.d.d.d.d.d.a.f b c z s a.t   o d.p.d.d.",
"d.d.d.d.d.d.d.d.d.d.d.d.d.d.d.d.d.d.d.d.d.d.s._ &.,.-.-.,.=.H  X+XQ.A I I A r.(.x.7.d.d.d.d.d.d.d.d.d.l k g p y a.9.$ r 0.d.d.d.",
"d.d.d.d.d.d.d.d.d.d.d.d.d.d.d.d.d.d.d.d.d.d.s._ [ =.=.=.=.&.H |.+X~.P Q I Z K Z.x.s.d.d.d.d.d.d.d.d.d.d.d.a.d.d.0.d.d.d.d.d.d.0.",
"d.d.d.d.d.d.d.d.d.d.d.d.d.d.d.d.d.d.d.d.d.d.s._ T [ ~ ^ ^ ~ H .X+XoX' D A S <.Z.x.0.a.d.d.d.d.d.d.s.d.d.d.d.d.d.d.d.d.d.d.d.a.d.",
"d.d.d.d.d.d.d.d.d.d.d.d.d.d.d.d.d.d.d.d.d.d.s._ Q [ ^ [ [ ! H .X+X+XXXQ.y.3.G.4.x.s.d.d.d.d.d.d.0.a.d.d.0.d.d.d.d.d.d.d.d.d.d.d.",
"d.d.d.0.0.7.0.d.d.d.d.d.d.d.d.d.d.d.d.d.d.a.s._ Q [ ^ ^ ^ ~ H .X+X+X+X}.H.H.4.1.x.u 0.d.d.d.d.0.a.d.d.d.d.d.d.d.d.d.p.d.d.d.d.d.",
"d.d.d.d.d.i i d.d.d.d.d.d.d.d.d.d.d.d.d.d.d.s._ Q [ ^ ^ ^ ~ H .X+X+X(.;.1.<.*.2.l.d q.0.d.d.d.d.d.d.d.d.d.d.d.d.d.d.d.d.d.d.d.d.",
"d.d.d.d.0.i i 0.d.d.d.d.d.d.d.d.d.d.d.d.d.d.s._ Q [ ^ [ ^ ~ F |.+X(.*.-.-.-.=.B.l.h w.7.d.d.d.d.d.d.d.d.d.d.d.d.d.d.d.d.d.d.d.d.",
"d.d.d.d.d.9.i d.d.d.d.d.d.d.d.d.d.d.d.d.d.d.s.h.E ~ ~ ~ ~ ~ D P.}.&.=.-.-.-.4.D.e.p.d.d.d.d.d.d.d.d.d.d.d.d.d.d.d.d.d.d.d.d.d.d.",
"d.d.d.d.d.7.8.s.d.d.d.d.d.d.d.d.d.d.d.d.d.d.d.d.` Q ~ T W T I J B.H.A.A.A.S.G.b.l d.s.d.d.d.d.d.d.d.d.d.d.d.d.d.d.d.d.d.d.d.d.d.",
"d.d.d.d.d.d.d.d.d.d.d.d.d.d.d.d.d.d.d.d.d.d.d.d.g.] T T W W T H H ,.S.G.F.B.:.q.l d.d.d.d.d.d.d.d.d.d.d.d.d.d.d.d.d.d.d.d.d.d.d.",
"d.d.d.d.d.d.d.d.d.d.d.d.d.d.d.d.d.d.d.d.d.d.d.d.d.f.` ! E E E E Y G Y Y R L 6.h w.d.d.d.d.d.d.d.d.d.d.d.d.d.d.d.d.d.d.d.0.s.d.d.",
"d.d.p.d.d.d.d.d.d.d.d.d.d.d.d.d.d.d.d.d.d.d.d.d.d.s.d.f.% @ 2 5 5.O.5.4 3 l l 0.0.d.d.d.d.d.d.d.d.d.d.d.d.d.d.d.d.d.o.g.d.d.d.d.",
"d.d.d.d.d.d.d.d.d.d.d.d.d.d.d.d.d.d.d.d.d.d.d.d.d.d.d.p.o O ; z a a.a z 1 q.8.d.d.d.d.d.d.d.d.d.d.d.d.d.d.d.d.d.a.a.....d.d.d.d.",
"d.d.d.d.d.d.d.d.d.d.d.d.d.d.d.d.d.d.k.s.d.d.d.d.d.d.d.0.j 6 , x < 1 p j l 0.0.0.d.d.d.d.d.d.d.d.d.d.d.d.d.d.d.d.d.7.a.a.d.d.d.d.",
"d.d.d.d.d.d.d.d.d.d.d.d.d.d.d.d.d.d.d.d.d.d.d.d.d.d.d.d.n b c : : z 5 k 8.d.d.d.s.d.d.d.d.d.d.d.d.d.d.d.d.d.d.d.0.d.d.d.0.a.d.d.",
"d.d.d.d.d.d.d.d.d.d.d.d.d.d.d.d.d.d.d.d.d.d.d.d.d.d.d.p.8.w.u y u y 8.9.0.0.d.a.0.d.d.d.d.d.d.d.d.d.d.d.d.d.d.d.d.d.d.d.d.d.d.d.",
"d.d.d.d.d.d.d.d.d.d.d.d.d.d.d.d.d.d.d.d.d.d.d.d.d.d.d.d.d.a.d.d.d.d.d.d.d.d.d.d.d.d.d.d.d.d.d.d.d.d.d.d.d.d.d.d.d.d.d.d.d.d.d.d.",
"d.d.d.d.d.d.d.d.d.d.d.d.d.d.d.k.d.d.d.d.d.d.d.d.d.d.d.d.d.d.d.d.d.d.d.d.d.d.d.p.d.d.d.d.d.d.d.d.d.d.d.d.d.7.i 8.t 9.0.d.d.d.d.d.",
"d.d.d.d.d.d.d.d.d.d.d.d.d.d.d.d.d.d.d.d.d.d.k.d.d.d.d.d.d.d.d.d.d.d.d.d.d.d.d.d.d.d.d.d.d.d.d.d.d.d.d.d.0.i y r y t d.a.7.d.d.d.",
"d.d.d.d.d.d.d.d.d.d.d.d.d.d.d.d.d.d.d.d.d.d.s.d.d.d.d.d.d.d.d.d.d.d.d.d.d.d.d.d.d.d.d.d.d.d.k.d.d.0.d.d.d.7.i 9.7.8.f w.d.d.d.d.",
"d.d.d.d.d.d.d.d.d.d.d.d.d.d.d.d.d.d.d.d.d.d.d.d.d.d.d.d.d.d.d.d.d.d.d.d.d.d.d.d.d.d.d.d.d.d.d.d.d.d.d.d.0.0.i 9.a.l v 6 d.d.0.a.",
"d.d.d.d.d.d.d.d.d.d.d.d.d.d.d.s.d.d.d.d.d.d.d.d.d.d.d.d.d.d.d.d.d.d.d.d.d.d.d.d.d.d.d.d.d.d.s.d.d.d.d.d.d.7.9.7.a.8.d l d.d.d.d.",
"d.d.d.d.d.d.d.d.d.d.d.d.d.d.d.d.d.d.d.d.d.d.d.d.d.d.d.d.d.d.d.d.d.d.d.d.d.d.d.d.d.d.d.d.d.d.d.d.d.d.d.d.d.d.d.d.0.a.d.d.0.d.d.d.",
"d.d.d.d.d.d.p.t m s.d.d.d.d.d.d.d.d.d.d.d.d.s.k.d.d.d.d.d.d.d.d.d.d.a.d.d.d.d.d.d.d.d.d.d.d.d.d.d.d.d.d.d.p.d.d.d.0.d.d.d.d.d.d."
};
