/* XPM */
static char *_445f42767fc4249a596ee18e2e46cacZjUMlsw7WYbhdP08[] = {
/* columns rows colors chars-per-pixel */
"64 64 202 2 ",
"   c #363636",
".  c #3C3C3D",
"X  c #4B7D0F",
"o  c #517F17",
"O  c #7C7F36",
"+  c #444444",
"@  c #4D4D4D",
"#  c #545454",
"$  c #5C5C5C",
"%  c #626261",
"&  c #6D6D6C",
"*  c #737372",
"=  c #787877",
"-  c #7C7C7C",
";  c #944C45",
":  c #8F5944",
">  c #955446",
",  c #925946",
"<  c #955648",
"1  c #965B48",
"2  c #9A5E4A",
"3  c #936447",
"4  c #966649",
"5  c #936D48",
"6  c #917B47",
"7  c #927448",
"8  c #927449",
"9  c #A4654E",
"0  c #A46F4D",
"q  c #A66750",
"w  c #AA6952",
"e  c #BD6F5C",
"r  c #AC7B54",
"t  c #B67757",
"y  c #BE7156",
"u  c #BD755C",
"i  c #BA7B62",
"p  c #C0775E",
"a  c #C1785E",
"s  c #4E8214",
"d  c #548419",
"f  c #55831C",
"g  c #568A1B",
"h  c #578925",
"j  c #5B8B22",
"k  c #6A812A",
"l  c #618B2E",
"z  c #609324",
"x  c #649628",
"c  c #659A29",
"v  c #6B9835",
"b  c #7B9432",
"n  c #4DB136",
"m  c #4DB038",
"M  c #54B337",
"N  c #69A526",
"B  c #72AC2C",
"V  c #6EB626",
"C  c #6EBD2F",
"Z  c #75B42A",
"A  c #79B62D",
"S  c #75BB2B",
"D  c #6EA235",
"F  c #74A538",
"G  c #76AB3A",
"H  c #6ABC31",
"J  c #62B63D",
"K  c #67B93B",
"L  c #7CB934",
"P  c #7DB33F",
"I  c #79BF3D",
"U  c #7EC03A",
"Y  c #488F5E",
"T  c #4B9757",
"R  c #52965C",
"E  c #589B5A",
"W  c #76974B",
"Q  c #769B58",
"!  c #4DA744",
"~  c #54A846",
"^  c #73AF4F",
"/  c #67B246",
"(  c #6CB940",
")  c #7FB541",
"_  c #74BB43",
"`  c #7ABD45",
"'  c #77B44B",
"]  c #7EB64C",
"[  c #7EB94B",
"{  c #64A555",
"}  c #69A953",
"|  c #73AA55",
" . c #7BAD55",
".. c #7DAD5A",
"X. c #458B61",
"o. c #599464",
"O. c #668B67",
"+. c #6D966E",
"@. c #76A561",
"#. c #7FC149",
"$. c #82BC3E",
"%. c #9BD728",
"&. c #86C23F",
"*. c #8FC93A",
"=. c #95CE3A",
"-. c #97CE3E",
";. c #9BD23A",
":. c #A6DC32",
">. c #A9DE30",
",. c #B7EC24",
"<. c #BCF021",
"1. c #8F8848",
"2. c #918149",
"3. c #938548",
"4. c #908B49",
"5. c #8F9348",
"6. c #8E9D49",
"7. c #959544",
"8. c #A7894D",
"9. c #8EA149",
"0. c #8DAC49",
"q. c #90A24B",
"w. c #84B944",
"e. c #83BD44",
"r. c #83B74E",
"t. c #8CB64A",
"y. c #83BC4B",
"u. c #8ABD4A",
"i. c #81B453",
"p. c #B38C7D",
"a. c #8FB06E",
"s. c #86C241",
"d. c #8AC346",
"f. c #86C149",
"g. c #8BC34A",
"h. c #8AC94A",
"j. c #92CA46",
"k. c #8FC353",
"l. c #91C356",
"z. c #93C45A",
"x. c #AFDB4B",
"c. c #97C463",
"v. c #9CC56D",
"b. c #97C375",
"n. c #A3C774",
"m. c #A3C67B",
"M. c #BED875",
"N. c #858584",
"B. c #888887",
"V. c #8C8C8B",
"C. c #90908F",
"Z. c #949493",
"A. c #989A99",
"S. c #9C9C9B",
"D. c #B28E80",
"F. c #AE9186",
"G. c #B39184",
"H. c #B09388",
"J. c #AA9B94",
"K. c #9DB088",
"L. c #AFAC90",
"P. c #A6A09D",
"I. c #A6B596",
"U. c #A5A5A3",
"Y. c #A7A8A5",
"T. c #A9A9A7",
"R. c #A7ADAD",
"E. c #ABABA9",
"W. c #AEB2AC",
"Q. c #B1B1AE",
"!. c #B4B4B2",
"~. c #B8B8B7",
"^. c #B4B0B8",
"/. c #BABABA",
"(. c #A6C583",
"). c #A8C685",
"_. c #ABC68C",
"`. c #AAC888",
"'. c #AFC892",
"]. c #B3C79C",
"[. c #B6CA9D",
"{. c #B8C8A5",
"}. c #BDC6B2",
"|. c #C0C9B6",
" X c #C3C9BC",
".X c #C5C6C5",
"XX c #C6C6C6",
"oX c #C6C9C3",
"OX c #C7C9C4",
"+X c #C8C9C7",
"@X c #C7C8C9",
"#X c #C9C9C8",
"$X c #CAC9CA",
"%X c #CACACA",
"&X c #CBCBCB",
"*X c #CBC9CC",
"=X c #CCC9CE",
"-X c #CDCAD1",
";X c #CECAD2",
":X c #CEC6DE",
">X c #D1CCD4",
",X c #D2CAD9",
/* pixels */
"g.g.g.g.g.g.g.g.g.g.g.g.g.g.g.g.f.y... .} ^ r.r._ _ r.r.u.g.g.g.g.g.g.g.g.g.g.g.g.g.g.g.d.I I s.f.g.g.g.g.g.g.g.g.g.g.g.g.g.g.g.",
"g.g.g.g.g.h.g.g.g.g.g.g.g.g.g.g.g.g.d.d.g.g.d.g.g.g.g.d.g.g.g.g.g.g.g.g.g.g.g.g.g.f.g.g.g.H H s.g.g.g.g.g.g.g.g.g.g.g.g.g.g.g.g.",
"g.g.g.g.g.h.g.g.g.g.k.g.g.g.g.g.g.g.g.g.g.g.g.g.g.g.g.g.g.g.g.g.g.g.g.g.g.g.g.g.g.g.g.g.u.K M s.g.g.g.f.g.g.g.g.g.h.g.g.g.g.k.h.",
"g.g.g.g.g.g.g.g.g.g.h.g.g.g.g.g.g.g.g.d.g.g.g.g.g.g.g.g.g.g.g.g.g.g.g.h.g.g.g.g.g.g.g.g.f.M M f.g.g.g.g.g.g.g.g.g.g.g.g.g.g.g.g.",
"g.g.g.k.g.g.g.g.g.g.g.g.g.g.g.g.g.g.g.f.g.g.g.g.g.g.g.g.g.g.d.d.d.d.g.g.l.g.g.g.g.g.g.g.g.~ ~ y.g.` I e.g.f.g.g.d.k.g.g.g.g.g.g.",
"g.g.g.h.g.g.g.g.g.g.g.g.g.g.u.g.g.g.u.g.g.u.g.g.g.f.&.s.g.l.l.l.z.l.g.s.s.d.g.g.g.g.g.g.f.R Y [ d.J n ` g.g.g.g.g.g.g.g.g.g.g.g.",
"g.g.g.g.g.g.g.g.g.g.g.g.g.g.g.g.g.g.g.g.g.g.g.d.s.z.(.].|.oXOX.XoXoX|.].(.l.d.s.g.g.g.g.f.R Y [ j./ ! ] g.g.g.g.g.g.g.g.g.g.k.d.",
"g.g.g.g.g.g.g.g.g.g.g.g.g.d.g.g.g.f.g.g.g.g.d.c.{.+X=X-X=X&X&X&X&X&X&X-X=XoX{.v.d.g.g.g.f.R Y [ g.E X.' h.u.d.g.j.g.g.g.g.h.g.g.",
"g.g.g.g.g.g.g.g.g.g.g.g.g.g.d.g.d.g.d.g.u.k.s.).>X.X#X+X&X+X*X+X&X&X&X.X+X&X*X#X[.z.s.g.u.E E [ g.{ R ] j.u.g.g.g.g.g.g.g.h.g.g.",
"g.g.g.f.g.g.g.g.g.g.g.g.g.g.u.j.;.=.;.*.v..X].v.OX*X&X*X&X&X+X*X&X.X&X&X&X#X+X#X-X Xv.d.g.g.u.f.f.u.u.d.u.g.g.g.g.g.g.g.g.k.g.g.",
"g.g.g.g.d.f.u.f.g.g.g.g.g.d.d.d.-.j.=.n.&X&X*X X+X*X+X+X#X*X=X=X&X+X+X&X+X&X&X&X.X=X&Xn.s.g.g.g.g.g.g.g.g.g.g.g.g.g.g.g.g.g.g.g.",
"g.g.g.g.u.y.y.g.g.g.g.g.g.g.g.d.d.=.v.*X&X.X+X=X&X+X*X+X.X/.~.~.~./..X&X&X&X+X&X&X#X@X*Xv.f.g.g.g.g.g.g.g.g.g.h.g.g.g.g.g.g.g.g.",
"g.g.f.g.d.[ [ f.f.u.f.d.g.g.g.g.e.c.&X*X@X&X&X#X&X#X~.E.T.Y.U.Y.Y.Y.T.E./.#X*X*X&X&X&X&X.Xc.d.g.g.g.d.g.d.g.g.g.g.g.j.g.g.g.h.g.",
"g.g.u.y.y.f.f.y.y.y.y.f.g.g.g.g.g.|.=X+X#X#X#X*X/.Q.T.T.T.E.E.T.T.T.T.T.Y.E./.&X@X#X&X.X=X}.g.g.g.g.g.g.k.g.g.g.g.g.g.g.k.g.g.g.",
"g.g.f.[ [ f.g.[ [ [ [ y.g.g.g.s.).=X#X#X&X#X#X~.U.T.E.T.E.T.T.E.T.E.E.T.E.T.U.!.&X#X&X*XoX-Xm.&.g.g.g.g.g.g.g.g.g.g.g.g.g.g.g.g.",
"g.d.f.u.u.u.d.f.f.u.u.u.g.g.g.k. X&X#X&X#X#X!.U.T.E.E.T.T.T.T.T.T.T.T.E.E.T.T.U.!.#X#X#X&X+X|.l.g.g.g.g.g.g.k.g.g.g.g.g.g.g.g.g.",
"g.g.d.f.g.g.g.g.g.g.g.g.g.g.s.m.*X+X#X#X*X/.U.T.T.E.T.T.T.T.T.T.T.E.T.T.T.T.E.T.U./.#X@X&X.X-Xn.s.g.g.g.g.h.g.g.g.g.g.g.g.g.g.g.",
"g.g.g.g.g.g.g.g.g.g.g.g.g.g.g.{.=X&X#X#X.XU.T.E.T.T.E.T.E.E.E.E.E.E.T.T.T.T.T.E.T.U..X&X&X#X-X{.f.g.g.g.g.g.k.g.g.g.g.g.g.g.g.g.",
"g.g.g.g.g.g.g.f.g.g.g.g.g.g.l. X&X#X+X#X!.Y.T.T.T.E.T.E.T.E.E.T.T.E.E.E.T.E.T.E.E.U.!.#X&X#X#X.Xk.d.g.g.g.g.g.g.g.g.g.h.g.h.g.g.",
"g.g.g.g.g.g.g.g.g.g.g.g.g.s.v.&X&X#X&X.XT.T.E.T.T.T.T.T.T.T.T.T.T.T.T.T.T.T.T.T.E.T.Y..X#X&X#X#Xc.u.h.g.g.g.g.g.g.g.g.h.g.k.g.g.",
"g.g.g.g.g.g.g.g.g.k.h.g.g.s.(.-X#X#X-X/.U.E.T.T.T.T.E.T.E.T.T.T.T.T.T.T.T.T.T.T.E.T.U./.-X#X#X=Xm.s.g.g.g.g.g.g.g.g.g.g.g.g.g.g.",
"g.g.g.g.g.g.g.g.g.g.g.g.g.s.).-X#X#X#XQ.Y.T.E.E.E.T.T.E.T.E.E.E.E.T.E.E.E.E.T.E.T.E.U.!.#X#X#X-X).&.g.g.g.g.l.g.l.g.g.g.g.g.g.g.",
"h.k.g.g.g.g.g.g.g.g.g.g.g.s.).-X#X&X#XE.Y.Y.U.U.U.E.E.T.T.T.U.U.T.T.T.U.U.U.E.T.T.T.T.E.#X#X#X-X_.s.g.g.g.g.g.g.g.g.g.g.j.g.g.g.",
"g.g.g.g.g.g.g.g.g.g.g.g.g.s.).-X#X+X#XE.E.V.@ @ @ $ S.T.E.N.+ @ C.!.N.+ @ @ % U.E.T.T.E..X#X#X-X_.s.g.g.g.g.g.g.g.g.g.g.g.g.g.g.",
"g.g.g.g.g.g.g.g.g.g.g.g.g.f.).-X#X&X#XT.E.U.@ $ C.  = Q.T.U.+ $ T.T.J.+ & B.  B.Q.Y.Y.T.+X&X+X-X_.s.g.g.g.g.g.g.g.g.g.g.g.k.d.g.",
"g.g.g.g.g.g.g.g.g.g.g.g.g.s.).-X#X#X#XE.T.T.# @ % # S.E.E.R.@ % E.E.T.@ # % @ S.Q.T.T.T..X&X&X-X_.&.l.g.g.g.g.g.g.h.g.g.g.g.g.g.",
"g.g.g.h.g.g.g.g.g.g.g.g.g.s.`.&X#X*X#XE.E.E.# # % + Z.Y.J.R.@ % E.S.E.@ $ V.U.R.S.E.T.E.+X+X&X-X_.s.g.g.g.g.g.d.u.g.g.h.g.g.g.g.",
"g.g.h.g.g.g.g.g.g.g.g.g.h.U b.&X&X#X.XE.E.A.. # =   # % + - . # & + - . # T.R.N.  B.Q.T..X+X+X-X_.&.g.g.g.g.g.g.g.g.g.g.j.g.g.g.",
"g.g.g.g.d.u.g.g.g.g.g.d.g.( n a. X*X.XE.E.Z.* * C.= * C.= B.& = B.- B.* * S.E.A.* A.E.T..X&X&X-X_.s.g.g.g.g.g.g.d.g.g.g.g.g.g.g.",
"g.g.g.g.g.g.g.g.g.g.g.g.g.( M H z.}.&XE.E.E.Q.Q.E.Q.Q.Q.Q.Q.Q.Q.E.Q.E.Q.Q.E.T.E.Q.E.E.E..X&X+X-X_.s.g.d.d.d.g.g.g.g.g.g.u.g.g.g.",
"g.g.g.g.g.g.u.g.g.g.d.g.g.%.x.[.}.OX&XT.T.T.Y.Y.T.T.Y.T.U.T.U.T.T.Y.T.T.T.T.T.T.U.E.E.E..X&X+X-X_.&.g.:.,.;.u.g.g.g.g.g.g.g.g.k.",
"g.g.u.g.g.d.g.g.g.g.g.g.u.%.M.:X-X*X#XE.T.E.E.T.T.T.T.T.T.T.T.T.T.E.T.T.T.T.T.T.E.T.T.T..X#X&X=X_.f.g.>.<.;.f.d.f.u.d.g.g.g.g.g.",
"g.g.g.[ [ g.g.g.g.g.g.g.l.H b.-X&X*X=XE.T.E.T.T.T.T.T.T.T.T.T.T.T.E.T.T.T.E.E.T.T.T.T.T.@X@X+X-X_.s.g.>.<.;.g._ M ( g.d.g.g.g.g.",
"g.f.u.[ u.f.g.g.g.g.g.g.g.H b.-X+X*X@XE.T.E.T.T.E.E.T.T.E.T.E.E.T.E.E.T.E.T.E.T.T.R.T.E..X*X&X-X_.s.u.>.,.;.u._ m J g.g.g.g.g.g.",
"g.g.g.u.u.f.d.g.g.g.g.g.g.C b.,X+X+X@XT.T.T.T.T.T.T.T.T.T.T.T.T.T.E.T.E.T.E.T.T.T.T.T.E..X&X+X=X_.s.k.s.j.' E } ` u.d.u.g.d.g.g.",
"g.d.f.g.d.g.g.g.g.g.g.g.g.C b.-X+X&X@XE.T.T.T.T.E.E.T.T.T.E.T.T.E.T.U.U.T.E.E.U.J.T.T.T..X-X@X,X`.s.g.g.g.{ X.{ h.g.g.d.g.g.g.u.",
"g.g.g.g.g.g.g.g.g.f.g.d.g.&.(.-X+X=X+XE.T.T.S.T.E.V.A.E.T.T.T.T.Y.E.U.Z.Q.U.E.A.A.E.T.E..X&X.X].k...@.r.g./ ! ( g.` J _ g.g.g.g.",
"g.g.g.g.g.g.g.g.g.u.g.g.g.s.(.-X+X#X+XE.T.T.S.Z.B.V.T.T.T.T.T.R.T.Y.U.- Z.T.T.B.T.T.T.E..X=X].u.d.@.+.r.j.K M K h.` m M f.d.g.u.",
"g.g.g.g.g.g.g.g.g.g.g.g.g.e.).-X+X=X#XE.T.T.^.N.Z.Q.T.T.T.P.T.E.T.T.E.U.B.V.N.Z.E.T.T.E..X#X#X=X(.] ] ....{ T } g.) M / d.g.g.g.",
"g.g.g.g.g.g.g.g.g.g.g.g.g.=.K.-X+X+X#XE.T.T.U.U.N.T.T.T.T.S.U.E.Y.E.T.E.!.B.B.E.T.E.T.E..X&X#X;X_.&.g.@.+.o.X.} h.` m M g.g.f.g.",
"g.g.g.g.g.g.g.g.g.g.g.g.g.s.).-X+X#X+XE.T.T.U.Q.C.C.E.T.E.Z.P.E.T.T.E.Q.V.N.E.T.T.R.T.T..X#X#X;X_.s.g.i...| } ' g.u.K _ u.g.g.g.",
"g.g.g.g.g.g.g.g.g.g.g.d.g.B n.>X.X=X&XE.T.E.T.E.Z.C.^.P.E.Z.T.E.T.E.U.B.N.E.T.T.T.T.T.T.#X#X#X-X_.e.g.g.d.g.g.g.g.d.g.g.g.g.g.g.",
"g.g.g.g.d.g.g.g.$.$.g.g.g.w.h W.-X+X+XE.T.T.Y.Q.N.P.E.T.^.V.V.E.R.Z.N.A.E.T.T.E.T.T.T.E..X#X&X-X_.s.g.g.g.g.g.g.d.g.g.g.u.d.g.g.",
"g.g.g.g.g.g.g.g.e.A L s.l.g.z h }.=X+XT.T.T.E.P.+.E.T.T.U.U.V.- C.J.E.T.T.T.E.T.E.E.T.T..X#X#X-X'.s.g.g.g.g.g.g.g.g.g.g.g.g.g.g.",
"g.g.g.w.e.u.f.g.g.e.Z Z $.k.G X W =X.XE.T.T.E.S.B.Q.T.T.T.T.Q.S.- B.T.E.T.E.T.T.T.E.T.E.#X=X#X=Xa.&.g.g.d.g.g.u.g.g.d.g.g.g.g.g.",
"g.g.g.G j h v G d.l.$.Z Z w.t.j s K.=XE.T.T.Q.B.S.E.T.T.E.E.T.E.Q.Z.- S.E.T.E.T.T.T.T.T..X#X,Xa.c j.g.$.e.g.g.h.g.f.g.g.g.g.g.g.",
"g.g.g.g.y.x s d j G d.L Z Z w.z s v =XE.T.T.E.N.S.E.T.T.T.T.E.Y.T.Q.S.N.E.T.T.T.E.T.T.E..X>XK.s w.d.A L g.h.g.e.g.g.g.g.g.g.g.g.",
"g.f.g.f.g.[ F g d d c P Z Z L c f f I.!.T.E.U.Z.T.T.E.E.T.T.E.T.T.T.R.V.U.T.T.E.T.E.T.E..X.Xl j u.Z L g.w.v z D u.g.g.g.g.g.g.g.",
"g.g.g.g.g.[ u.) h f f j B Z Z N h X a.^.U.E.S.V.R.E.R.T.T.T.T.T.E.T.E.A.Z.E.E.E.T.T.T.T.>XK.X F L Z $.c d f G g.g.g.g.g.g.g.g.g.",
"g.g.g.g.f.d.f.g.w.g f f z Z Z A j o W E.T.E.U.U.R.R.R.T.T.E.E.R.R.E.R.R.A.R.E.E.R.T.T.T.&XQ X N A B j o z u.h.g.g.g.d.g.g.g.u.g.",
"g.f.g.g.g.g.g.g.g.P f f g V A Z N d h Y.R.R.J.J.J.F.H.G.p.p.p.p.p.p.p.F.D.F.J.J.U.T.Q.!..Xl g Z A z f z u.g.g.g.g.d.d.d.f.g.g.g.",
"g.g.g.g.g.g.g.g.g.g.F f f N S Z Z k k p.i i i i p y y e y y p u y y y y y u u u i i i G.L.k c Z V d h w.g.g.g.g.g.d.-.j.d.g.g.g.",
"g.g.g.g.g.g.g.g.d.d.h.z s b 7.8.t u a y y u u u u u u u u u u u u u i u u u u u p e e y y u r 8.7.O G j.h.g.g.g.g.d.=.j.g.u.g.g.",
"g.g.g.g.g.g.g.h.g.u.q.3.0 u a u u u u u u a a a p p p p a p a a p p p p p a p p p p p u u u u e y 0 r 3.q.u.g.h.g.d.d.d.d.g.g.g.",
"g.g.g.g.g.g.g.6.2.3 , > 1 , > > < 2 9 2 9 q 9 q 9 9 q w w w w w w w q w 9 9 9 9 9 9 9 9 9 2 1 , , , , < < 3 6 6.u.h.g.g.d.g.g.g.",
"g.g.g.g.t.1.3 < ; > > > > > , > , , , , , : , , , , > , , , , , , , , , : , , , : : , , , , , , , , < < < > ; > 3 4.t.g.g.g.g.g.",
"g.g.g.g.u.0.0.6.5.1.6 8 5 3 1 , > > > > > > > > < < < < < < > > < < , < > < < < > > > < < , < , , 3 5 8 2.1.5.9.0.0.u.g.g.g.g.g.",
"g.g.g.g.d.h.g.h.h.g.g.g.g.t.t.t.0.q.6.5.5.1.3.2.7 7 8 7 8 5 5 4 5 5 5 5 8 8 6 6 3.4.4.5.6.9.0.t.t.u.u.g.g.#.#.#.#.f.g.g.g.g.g.g.",
"g.g.g.g.g.g.g.u.g.g.g.g.g.g.d.g.g.h.h.j.h.h.d.g.d.g.g.g.d.g.g.g.g.g.g.g.g.g.g.h.g.h.h.h.d.h.g.g.h.g.g.g.g.[ ' ' ' [ g.d.g.g.g.g.",
"g.g.g.g.g.g.g.g.d.g.g.g.g.g.g.g.g.g.g.u.d.u.d.g.g.g.g.g.g.g.g.g.g.g.g.g.g.g.g.g.g.g.g.g.g.g.d.g.g.g.g.g.f.e.[ ) s.] |  .g.g.g.g.",
"g.g.g.g.g.g.g.g.g.g.g.g.d.g.g.g.g.g.g.g.g.g.g.g.g.g.g.g.g.g.g.g.d.g.g.l.g.g.g.g.g.g.g.g.g.g.g.g.g.g.g.g.g.y.[ y.d.i.O.Q d.g.g.g.",
"g.g.g.g.d.g.g.g.d.g.g.g.g.g.g.g.g.g.g.g.g.g.g.g.g.g.g.g.g.g.g.g.g.g.g.g.g.g.g.g.g.g.g.g.g.g.g.g.g.g.g.g.f.u.y.u.g.r.|  .f.g.g.g.",
"g.g.g.g.g.g.g.g.g.g.g.g.g.g.g.g.g.g.h.l.g.g.g.g.h.g.g.g.g.g.h.g.g.g.g.g.g.g.g.g.g.g.g.g.g.g.g.g.g.g.g.g.g.g.g.g.g.d.d.g.u.g.g.g.",
"g.g.g.g.g.g.g._ _ u.g.g.g.g.g.g.g.g.g.g.g.g.g.g.g.g.g.g.g.g.g.g.g.g.g.g.g.g.g.g.g.g.g.g.g.g.g.g.g.f.g.g.g.g.g.g.g.g.g.g.f.g.g.g."
};
