/* XPM */
static char *c68eb056040b47e3bbd9c2e188feb4957cODHThklEwFQoM7[] = {
/* columns rows colors chars-per-pixel */
"64 64 224 2 ",
"   c #030201",
".  c #0C0401",
"X  c #050B03",
"o  c #0D0A05",
"O  c #0B0B0A",
"+  c #140A05",
"@  c #170C07",
"#  c #0B1607",
"$  c #1A130A",
"%  c #121A0A",
"&  c #1A1817",
"*  c #24150D",
"=  c #281508",
"-  c #2B190D",
";  c #341D0A",
":  c #261913",
">  c #341E13",
",  c #17260C",
"<  c #1A2C11",
"1  c #3C220C",
"2  c #2A211B",
"3  c #3C2213",
"4  c #372419",
"5  c #3B2B1D",
"6  c #223413",
"7  c #273B15",
"8  c #252626",
"9  c #372B23",
"0  c #2F3724",
"q  c #35322C",
"w  c #383938",
"e  c #46290D",
"r  c #56320D",
"t  c #482917",
"y  c #522E16",
"u  c #4C331F",
"i  c #573319",
"p  c #633A0F",
"a  c #693E11",
"s  c #473223",
"d  c #44362E",
"f  c #583C2A",
"g  c #633B22",
"h  c #2C4518",
"j  c #34471D",
"k  c #334B1C",
"l  c #25571A",
"z  c #39541E",
"x  c #3E601F",
"c  c #3C5A23",
"v  c #314334",
"b  c #415F1D",
"n  c #6D4012",
"m  c #7B4915",
"M  c #43631F",
"N  c #5F4126",
"B  c #415E22",
"V  c #684428",
"C  c #754826",
"Z  c #7D4B2B",
"A  c #78532F",
"S  c #694934",
"D  c #7E5533",
"F  c #486825",
"G  c #496B25",
"H  c #4D7429",
"J  c #54782B",
"K  c #527137",
"L  c #413F42",
"P  c #3E4143",
"I  c #464749",
"U  c #504D52",
"Y  c #4F5253",
"T  c #57565A",
"R  c #5B5C5D",
"E  c #7B5841",
"W  c #5F6263",
"Q  c #636565",
"!  c #666569",
"~  c #6A6C6D",
"^  c #6E6F70",
"/  c #6F7171",
"(  c #787879",
")  c #82511E",
"_  c #844E2B",
"`  c #885326",
"'  c #8C552B",
"]  c #8E5C2C",
"[  c #92562A",
"{  c #925B2E",
"}  c #895A37",
"|  c #945C32",
" . c #995E34",
".. c #95622F",
"X. c #8C6136",
"o. c #9C6336",
"O. c #986939",
"+. c #A46336",
"@. c #A4653A",
"#. c #A4693C",
"$. c #AA6B3E",
"%. c #A3713F",
"&. c #805D44",
"*. c #8B6248",
"=. c #956846",
"-. c #A36B42",
";. c #AA6D43",
":. c #A57342",
">. c #AB7345",
",. c #A6724A",
"<. c #AD744A",
"1. c #AC7B4B",
"2. c #B3754A",
"3. c #B57448",
"4. c #B37C4D",
"5. c #AB7854",
"6. c #B77B54",
"7. c #BE7E54",
"8. c #C17F54",
"9. c #37862B",
"0. c #59812A",
"q. c #5D8631",
"w. c #608A2E",
"e. c #648D35",
"r. c #699738",
"t. c #709D3B",
"y. c #50AC38",
"u. c #53B238",
"i. c #75A53E",
"p. c #79AC3D",
"a. c #66BA34",
"s. c #61B53D",
"d. c #71B338",
"f. c #70C238",
"g. c #418444",
"h. c #458D5F",
"j. c #488F5E",
"k. c #559C56",
"l. c #53965C",
"z. c #6B9A54",
"x. c #639E59",
"c. c #51AA44",
"v. c #67AF41",
"b. c #7CAD41",
"n. c #6CBB40",
"m. c #66B14A",
"M. c #7EB142",
"N. c #75BC44",
"B. c #7ABD45",
"V. c #77B44C",
"C. c #7DB64E",
"Z. c #7EBA4B",
"A. c #65A356",
"S. c #6AA953",
"D. c #76AC55",
"F. c #7DB052",
"G. c #468B60",
"H. c #4A8F60",
"J. c #6C9369",
"K. c #71A261",
"L. c #7CC448",
"P. c #9CD72E",
"I. c #96CE3E",
"U. c #A8DE25",
"Y. c #AF8056",
"T. c #B58353",
"R. c #BD8256",
"E. c #B88656",
"W. c #BF8458",
"Q. c #BD8D5D",
"!. c #82B445",
"~. c #84BB46",
"^. c #83B74E",
"/. c #83BC4B",
"(. c #88BF49",
"). c #81AD56",
"_. c #81B351",
"`. c #85B559",
"'. c #B98760",
"]. c #C18157",
"[. c #C3855A",
"{. c #C8865A",
"}. c #C38B5E",
"|. c #C8885E",
" X c #C1905F",
".X c #C78C61",
"XX c #C98D62",
"oX c #C59463",
"OX c #C99565",
"+X c #C99866",
"@X c #CE9469",
"#X c #CC9B6A",
"$X c #D49266",
"%X c #D1966A",
"&X c #D99B6E",
"*X c #D59C71",
"=X c #D99E72",
"-X c #D1A06E",
";X c #D4A372",
":X c #DCA373",
">X c #DAAA78",
",X c #E4A878",
"<X c #84C046",
"1X c #8CC446",
"2X c #87C14A",
"3X c #8BC34A",
"4X c #8FC84C",
"5X c #92C943",
"6X c #95CB4A",
"7X c #92CC4D",
"8X c #8AC050",
"9X c #96D250",
"0X c #827F84",
"qX c #868788",
"wX c #8E8D91",
"eX c #918E93",
"rX c #8E9092",
"tX c #949495",
"yX c #99969A",
"uX c #9B9A9B",
"iX c #A8A8A8",
"pX c #B5B6B6",
"aX c #C0C0BF",
"sX c #C2C1C0",
/* pixels */
"3X3X3X3X3X3X3X3X3X3X3X3X3X3X3X3X1X/.F.D.S.D.^.^.n.N.^._.2X3X3X3X3X3X3X3X3X3X3X3X3X3X3X3X3Xd.f.<X1X3X3X3X3X3X3X3X3X3X3X3X3X3X3X4X",
"3X3X3X3X3X3X8X3X3X3X3X3X3X3X3X3X2X3X3X1X3X1X3X1X1X1X3X3X3X3X3X3X3X3X3X3X3X3X4X3X3X3X2X3X3Xf.a.<X1X3X3X3X3X3X3X3X3X3X3X3X3X3X3X3X",
"3X3X3X3X3X4X4X3X3X3X3X3X3X3X3X3X3X3X3X(.3X3X3X3X3X3X3X3X3X3X3X3X3X3X3X3X3X4X3X3X3X3X3X3X3Xa.s.<X(.1X3X3X3X3X3X3X3X3X3X3X4X3X3X3X",
"3X3X3X3X3X3X3X3X3X3X3X4X3X3X3X3X3X3X3X1X3X3X3X3X3X3X3X3X3X3X3X3X3X3X3X3X3X3X3X3X3X3X3X3X2Xu.u.<X3X1X1X(.3X3X3X3X3X3X3X3X3X3X3X3X",
"3X3X3X3X3X3X3X3X3X3X3X3X3X3X3X3X3X3X2X3X3X3X3X(.3X3X3X3X3X3X3X3X3X4X3X3X3X3X3X3X3X3X3X3X3Xc.c.Z.3XZ.N.<X3X3X3X3X3X3X3X3X3X4X3X3X",
"3X3X3X4X3X3X3X3X3X3X3X3X3X3X3X3X3X3X3X3X2X3X3X3X3X3X3X3X3X3X3X3X3X3X3X3X3X8X3X3X3X3X3X3X(.l.H.Z.1Xs.y.N.3X3X3X3X3X4X3X3X3X3X3X3X",
"3X3X3X3X3X3X3X3X3X3X3X3X3X3X3X3X3X3X3X3X3X3X3X3X3X3X3X3X3X3X3X3X3X3X3X3X3X3X3X3X3X3X3X3X3Xl.H.Z.1Xv.c.Z.3X1X3X3X3X3X3X3X3X3X3X8X",
"3X3X3X3X3X3X3X3X3X3X3X3X3X3X3X3X(.1X3X3X3X3X3X3X3X3X3X3X3X3X3X3X4X3X4X3X3X3X3X3X3X2X3X3X(.l.j.Z.4Xk.G.V.1X3X3X3X3X3X3X3X3X3X3X3X",
"3X3X3X3X3X3X3X3X3X3X3X3X3X3X3X3X1X1X1X2X(.3X3X3X3X3X4X3X3X3X3X3X3X3X8X3X3X3X3X3X3X3X3X3X(.k.l.^.1XA.l.V.3X3X3X3X4X3X3X3X3X3X3X3X",
"3X3X3X3X3X3X3X3X3X3X3X3X3X3X3X1XI.I.I.I.(.3X3X1X3X3X3X3X3X3X3X3X3X3X3X3X3X3X3X4X3X3X3X2X3X(.3X3X3X2X(.(.3X3X3X3X3X3X4X3X3X3X3X3X",
"3X3X3X3X(.2X2X3X3X3X3X3X3X3X3X1XI.I.I.I.3X3X3X3X3X3X3X3X3X3X3X3X3X3X3X3X3X3X3X3X3X3X3X3X3X3X3X3X3X3X3X3X3X3X3X3X3X3X3X3X3X3X3X4X",
"3X3X1X3X/.~./.3X3X3X3X3X3X3X3X1X3X1X2X3X2X3X3X3X3X3X3X3X3X3X3X3X3X3X3X3X3X3X3X3X3X3X3X3X3X(.3X3X3X3X3X3X3X3X3X3X8X3X3X3X3X3X3X3X",
"3X3X3X3X2XZ.Z.2X3X3X3X3X3X3X3X3X3X3X3X3X3X1X3X3X3X3X/.3X3X(.(.3X3X3X3X3X3X1X3X3X3X3X3X3X3X3X1X3X3X3X3X3X3X(.3X3X3X3X3X3X3X3X3X3X",
"3X3X/.Z./.(.(./.Z.~.Z.2X2X3X3X3X3X3X3X3X3X3X2X3X7X9X9X9X9X9X9X7X7X9X7X7X4X4X4X3X3X3X3X3X3X(.1X1X2X3X2X(.3X3X3X3X3X3X3X3X4X3X8X3X",
"3X3X3XZ.Z.3X(./.Z.Z.Z./.3X3X3X3X3X3X3X7X~.3X7X7Xe.F M b F F H J J w.e.t.i.b.M.M.2X(.2X3X3X7X7X7X6X9X6X7X7X7X4X3X3X3X3X3X3X3X1X3X",
"3X3X3X(.(.(.3X3X(./.(.2X3X3X3X3X3X3X3Xc % 7 B z 2 ! T T Y I I d I w q q 0 0 0 0 0 j j j z z z B F M H J 0.e.b.~.3X(.3X(.(.3X3X3X",
"3X3X3X3X3X3X3X3X3X(.3X3X3X3X3X3X3X9XF . *.*.S 4 & R R ! ~ / qXqXwXeXyXuXuXuXyXyXuXtXwXwXqX0X( ( / ~ Q R Q v % 7 b.9X7X7X7X7X4X3X",
"3X3X3X(.3X3X3X3X3X3X3X3X3X3X3X3X7Xt.  &.,X%XXX].D y > - - $   . O $ & : 8 8 w L I Y T Q ~ ( qXqXrXtXuXiXiXI &   h q.H G z k q.4X",
"3X3X3X3X3X3X3X(.3X2X3X3X3X3X(.3X!.# f *XOX[.R.W.R.R.2.2.4.} - Z  .} _ g g g y t t > - - : o X $ $ % & & &   $ u s 5 9 s f @ z 9X",
"3X3X3X3X3X3X3X3X3X3X3X3X3X3X3X3X7 : OX@X.XW.[.XX|.R..X.X{._ | OX{.{.8.8.{.8.3.3.8.3.$.3.;.3 C O.X.} } A V V =.+XoXQ.OX#X+X1 h 7X",
"3X3X3X3X3X3X3X3X3X3X3X3X3X(.7XF O 5.%X.X[.R..X.XR.|..X.X$.[ ].$X.X8.8..X.X8.7..X[.7.8.XX-.C +XoXQ.Q.Q.Q.T.T. X+XQ.Q.+X#X... h 3X",
"4X3X3X3X3X3X3X3X3X3X3X3X(.7Xe.  *.=X.X.XR..XXXQ.]..X.X6.[ 6.OX].[.7.8..X.X7.8.XX8.8.{.|.{ 1.;XoXoXQ.+XQ.Q.OX+XoXQ.oX+XE.e   J 4X",
"3X3X3X3X3X3X3X3X2X3X3X3X4Xb.# f =XXX|.[.Q.XX.XW.|..X].$.o.8.].OX8.8..X8.8.8.[..X7.].XX3.] +X+X+XQ.OXoXQ.oX+XoXQ.Q.+X+X... 6 !.4X",
"3X3X3X3X3X3X3X3X3X3X3X3X3X6 4 %X@X.X[.R..X.XW.W.XX|.6.} 8.8.].|.8.8.XX.X7.8.XX].8.|.[.| ,.;X+XQ.Q.+XQ.Q.oX+XoXQ. X#XW.e   J 3X3X",
"3X3X3X3X3X3X1X3X3X3X(.7Xc O '.%X}.}.R.[..X[.W..X.XR.{ @.|.].|.].8..XXX8.8.8.8.8.[.XX2.] +X#X}.Q.oX+XQ.Q.+XoXQ.Q.+X+X] + , M.3X3X",
"3X3X3X3X3X3X3X3X3X(.7XJ O =.&X.X}.].[.XX}.R.}..X}.;.{ [.|.].].].8..X8.7.8.@X8.8.|.[.| <.;XoXQ. X+X+XQ. X+XoXQ.oX+XT.r   J 3X3X3X",
"3X3X3X3X3X3X3X3X(.6Xb.X S :X.X.X[.W..X.XR.[.oX{.7.' 2.|.8.$X].].XXXX8.7.@X8.8.XXXX<.] +X-XQ.Q.oXoXOXQ. X+XQ. X+X X] @ , !.3X3X3X",
"3X3X3X4X3X3X3X3X3X~., 9 %X.X.XQ.W..X.XW.W.XXXX[.o. .|.].].}.].].8.XX8.8.8.7.7.XX[.] 1.>XoXQ.oXQ.Q.OXQ. X XQ.oX#X1.r   G 3X3X3X3X",
"3X3X3X3X3X3X3X3X7Xj @ '.%X.X.X7..X.X[.W.}..X[.>.` 7.[.[.|.].].|.@X8.8.8.XX7.8.@X>.] +X#XQ.Q.Q.Q.+XoXQ.oX}. X+XoX` @ % b.3X1X3X3X",
"3X3X3X3X3X3X3X7XH . 5.=XQ..X7..XXX}.W.}.XX}.].{ @.{.8.XX8.].|.].8.8.8.@X8.7.@X8.] ,.;XOXQ.OXQ.oX+XQ.Q.oXQ. X#X:.r   F 7X3X3X3X3X",
"3X3X3X3X3X3X4Xr.  E :XQ..XW.W.XX.XW..XOX.X[.@.[ |.[.XXXX7.].|.XX8.8.8.8.8.8.8.5...+X#XoXQ.+X+X+XoXQ.oXoXQ.+XoX) = # b.3X3X3X3X3X",
"3X3X3X3X2X3X!.# s :X.X[.[.W..XXX[.W..X.X.X7.[ =.<.<.6.].8.|.|.R.8.8.$X8.8.8.8.*.1.#X+XoXQ.+X+XoXQ.Q.+XQ. X#X%.r   F 1X2X3X3X3X3X",
"3X3X2XZ._.(.k : #X%XR..XQ.[.XX.X7..X.XoX,.g u > 9 8 2 2 } |.|.[.7.@X@X7.8.@X5.} +XoXoXQ.Q.+X+XQ.Q.+XQ.Q.+XQ.) = # r.1X3X3X3X3X3X",
"3X3X2XF.8XF   5.:XR..X.X7.[.OX[.[..XoXE & 8 . ^ tXqX( P O g [.].8.8.8.8.@X7._ 5.;XQ.+XQ.+X+XoXQ.+X+XQ.Q.+XO.r   l s.3X3X3X3X3X3X",
"3X3X(.4Xr.  E ,X.XW..X[.W.XX.XW.E.%XE 8 qXU O tXyXtXuX( 8 & 9 5.@X8.7.8..X;.| &XoX XoXQ.+X+XQ.Q.+X+XQ.oXQ.m - # d.3X2X2X2X3X3X3X",
"3X3X4X/.# f ,X@X7..X.XW..XXX}.W.XXXX8 rX5.$ * 8 P U R w w uXT S @X7.8.8.[.' 6.*XQ.+XQ.oX+XQ.Q.+X+XQ.Q.+Xo.p   c 4X2X3X3X3X3X3X3X",
"3X3X3Xh : *X=XW.W..X.XR.XXXXW..XXX5.q pXY u ;.g 1 * : * & eXiXd 6.].]..X-.{ -XoXQ.+XQ.+X+XQ. X+XQ.Q.oXT.m ; # y.4XN.v.d.3X2X3X3X",
"2X7XH . 5.,X.XW..X.X7..XXX}.[..XXX-.9 pX( : =.8.2.;.;.2.3 ~ aXw } |.|.R.[ 1.-XQ.+XQ.Q.#X XQ.+X+XQ.Q.oX..n   l n.3XN.u.s.3X3X3X3X",
"3Xb.# E ,X*XW..XXXW.R..XXXW.}..X8.[ = eXaX^ : 5 s f f s d iXiX8 Z |..X;.] #XoXQ.+XQ.oX+XQ. X+XQ.Q.#XY.m ; X g.m.3XB.u.s.3X3X3X3X",
"3X7 s :X*X*X%X=X*X@X@X@XoX[..X|._ r C q qXpXuXR U I I Q iXiX! : ;.XXR.' E.-XQ.oXQ.Q.+X+XQ.oX+XQ.Q.#X] n X v j.A.3XB.u.u.3X3X3X<X",
"4Xk : -.2.2.7.}.}.XX=X=X%X=X=X=.: -.3._ t w ! W R / / / R w : Z 8.XX#...;XoXQ.+XQ.oX+XQ. X#X XQ.+X1.m 1 X z.S.V.1X<Xn.N.3X3X3X3X",
"3XM.% 3 o.o.@.#.$.;.;.>.2.7.,.+ S $X.X8.3.Z t > > 9 > > t s [ 3.|.7.Z |.-XQ.oXQ.Q.+XoXQ. X+XQ.+X+X] n . z 4X3X3X3X3X1X3X2X3X3X3X",
"3Xb.B   $ - 3 i g ' } o.o.#.|   g ;.$.;.;.3.+.@.@.@.@.#.6.].$X&X&XV X.>XQ.Q.oXQ.Q.oXQ.Q.+XQ.Q.+X:.m e X p.4X2X3X3X3X3X2X3X3X3X3X",
"3XM.b.e.F k 7 < % # @ * > t f * @ ' |  .+.+.+.+.+.+.;.3.6.6.[.$XD 5 -X>X-X>X;X#X;X+XoX-XQ.Q.+XQ.) n . k 4X3X3X3X3X3X3X3X3X3X3X3X",
"3X3X3X4X4X3X3X~.p.t.q.F c 7 , %   + @ * 3 y g g _ | +.+.+.+.+.$.t s T.Y.T.Q.Q.-X-X-X>X>X-X-X>XE.m e X i.3X3X3X3X3X3X3X3X3X3X3X3X",
"3X3X3X2X2XZ.Z.3X3X4X4X7X4X4X(.M.t.q.F z 6 , $ @ o @ * > y g C ' a & O.%.%.%.%.:.:.1.T.Y.E.oXoXm n + k 4X(.1X3X3X3X3X3X3X3X3X3X3X",
"3X3X3X3X3XZ.Z.(.3X(.(.3X(.3X3X3X7X7X7X7X3X(.!.t.e.J z h < , X o O   : 5 u N A D X.O.O.%.:.>.%.] e X t.4X3X3X3X3X3X3X3X3X3X3X3X3X",
"3X3X3X3X3X^.C.3X3X3X3X(.3X3X3X3X3X3X(.3X1X3X4X4X7X7X7X3XU.U.a.9.H G h < % #     X + : 4 5 u V i   k 1X3X(.3X3X3X3X3X3X3X3X3X3X3X",
"3X3X3X3X3XZ.^.2X1X3X3X3X3X3X3X3X4X3X(.3X3X3X3X3X(.3X(.3XP.U.f.u.L.9XN.y.i.!.z.K F F k 6 , # X   % i.3X3X3X3X3X3X3X3X3X3X3X3X3X3X",
"3X3X3X3X3X3X3X3X3X3X3X3X3X3X3X3X3X3X3X3X3X3X3X3X3X3X3X(.s.u.k.j.S.4XA.G.A.5X(.`.`.4X4X3X!.b.b.e.t.3X3X3X3X3X3X3X2X3X2X3X3X3X3X3X",
"3X3X3X3X3X3X3X3X3X3X2X3X3X3X3X3X3X3X3X3X3X3X3X3X3X3X3X3Xs.u.k.G.V.1XS.G.A.1X^.F.F.3X2X3X3X3X4X7X4X3X3X3X3X3X3X3X3X3X1X2X~.3X3X3X",
"3X3X3X3X3X3X3X3X3X3X3X3X3X3X3X3X3X3X3X3X3X3X3X3X3X1X3X(.u.u.k.G.D.5XS.G.A.F._./.3X2X3X3X3X3X3X3X2X3X3X3X3X3X3X3X3X1XI.I.3X3X3X3X",
"3X3X3X3X3X3X3X3X3X3X3X3X3X3X4X3X3X3X4X3X3X3X4X3X(.3X3X(.s.u.k.j.S.4XS.j.x.)._.3X3X3X3X3X3X3X3X4X3X3X3X3X3X3X3X3X3X1XI.I.3X3X3X3X",
"3X3X3X3X3X3X3X3X3X3X3X3X3X3X3X3X8X3X3X3X3X3X3X3X3X3X3X3XS.K.l.h.k.k.x.D.F.3X(.3X3X3X2X3X3X3X3X3X3X3X3X3X3X3X3X3X3X(.(.1X1X3X3X3X",
"3X3X3X3X3X3X3X3X3X3X3X4X3X3X3X3X3X3X4X3X3X3X3X3X3X3X3X(.K.J.x.H.j.h.x.)._.3X(.3X3X3X3X3X3X3X3X3X3X3X3X3X3X3X3X3X3X1X3X1X3X3X3X3X",
"3X3X3X3X3X3X3X4X3X3X3X3X3X3X3X3X3X3X3X3X3X3X3X3X3X(.3X3X^.`.F.V.V.C.^.^.^.3X3X3X3X3X3X3X3X3X3X3X3X3X3X3X3X3X3X3X3X2X3X3X3X3X3X3X",
"3X3X3X3X3X3X3X3X3X3X3X3X3X3X3X3X3X3X3X3X3X4X3X3X3X3X3X3X1X1X4X3X3X4X1X3X3X3X3X3X3X3X3X3X3X3X3X3X3X3X3X3X3X3X3X3X3X3X3X1X3X1X3X3X",
"3X3X3X3X3X3X3X3X3X3X3X3X8X3X3X3X3X3X3X3X3X3X3X3X3X3X3X3X3X3X3X3X3X1X(.3X3X3X3X3X3X3X3X3X3X3X3X3X3X3X3X3X3X/./.Z.Z.~.3X(.(.3X3X3X",
"3X4X3X3X3X3X3X3X3X3X3X4X3X3X3X3X3X3X3X3X3X3X8X3X3X3X3X3X3X3X3X3X1X3X3X3X3X3X3X3X3X3X3X3X4X3X3X3X3X3X1X2X3XZ.V.N.N.Z.3X1X3X(.3X3X",
"3X3X3X3X3X3X3X3X4X3X3X3X4X3X3X3X4X3X3X3X3X3X3X4X3X3X3X3X3X3X3X3X3X3X3X3X3X3X3X3X3X4X3X3X3X3X3X8X3X3X3X3X3XZ.Z././.Z.D.F.3X3X3X3X",
"3X3X3X3X3X3X3X3X3X3X3X3X3X3X3X3X3X8X3X3X3X3X3X3X3X3X3X3X3X3X3X3X3X3X3X3X3X3X3X3X3X4X3X3X3X3X3X3X3X3X3X3X3X^.Z./.1X_.J.K.3X3X3X3X",
"3X3X3X3X3X3X3X3X3X3X3X3X3X3X3X3X3X3X3X3X3X3X3X4X3X3X3X3X3X3X4X3X3X8X3X3X3X3X3X3X3X3X3X3X3X3X3X3X3X3X3X3X3X(././.1X^.z.F.3X(.3X3X",
"3X3X3X3X3X3X3X3X3X3X3X3X3X3X3X3X4X3X3X3X3X3X3X3X3X3X3X8X3X3X3X4X3X3X1X3X3X3X3X3X3X3X3X3X3X3X3X3X3X3X3X3X3X3X3X3X1X1X1X3X3X(.3X3X",
"3X3X3X3X3X3X3XB.B./.3X3X3X3X3X4X3X3X3X3X4X3X3X3X3X3X3X3X3X3X3X3X3X3X3X3X3X3X3X3X3X3X3X3X3X3X3X3X3X3X3X3X(.3X3X(.1X3X(.3X3X3X3X3X"
};
