/* XPM */
static char *_19b645c7cf240e59387c99fd7feb58eaSx7LMSGjGmKUikC[] = {
/* columns rows colors chars-per-pixel */
"64 64 224 2 ",
"   c #030302",
".  c #090705",
"X  c #050904",
"o  c #0B0A06",
"O  c #0E0D0A",
"+  c #160C07",
"@  c #100E0B",
"#  c #0D1206",
"$  c #13120C",
"%  c #1A130C",
"&  c #141D0A",
"*  c #1B1A0D",
"=  c #151412",
"-  c #1A1611",
";  c #1C1A13",
":  c #1E1D1A",
">  c #28160B",
",  c #301704",
"<  c #341A05",
"1  c #3B1D06",
"2  c #211D13",
"3  c #2C1E13",
"4  c #211E1C",
"5  c #1B260E",
"6  c #1B290B",
"7  c #1F300D",
"8  c #32250A",
"9  c #252216",
"0  c #2B2414",
"q  c #25231A",
"w  c #282719",
"e  c #2D2A1C",
"r  c #312116",
"t  c #392617",
"y  c #322D1D",
"u  c #3E2C1D",
"i  c #243413",
"p  c #293817",
"a  c #39381D",
"s  c #282522",
"d  c #2E2B22",
"f  c #322E21",
"g  c #322E2B",
"h  c #363224",
"j  c #3A3525",
"k  c #3C3827",
"l  c #37322D",
"z  c #3E3A29",
"x  c #3C3732",
"c  c #452409",
"v  c #452C1A",
"b  c #49311D",
"n  c #472F21",
"m  c #473924",
"M  c #423D2A",
"N  c #543A23",
"B  c #5A372A",
"V  c #413B37",
"C  c #653C28",
"Z  c #2E4218",
"A  c #324918",
"S  c #344C1A",
"D  c #2F521C",
"F  c #3A581D",
"G  c #3D5225",
"H  c #3E6321",
"J  c #41601F",
"K  c #46412D",
"L  c #4A442E",
"P  c #4E492D",
"I  c #514B2F",
"U  c #445C23",
"Y  c #4C4633",
"T  c #4A4537",
"R  c #4A433B",
"E  c #534D32",
"W  c #5A5337",
"Q  c #74472A",
"!  c #764C31",
"~  c #645C3B",
"^  c #466424",
"/  c #4A6B26",
"(  c #4E7428",
")  c #54772B",
"_  c #557C2E",
"`  c #4B6A30",
"'  c #567E30",
"]  c #5B7D3E",
"[  c #6A613F",
"{  c #4C4641",
"}  c #534C45",
"|  c #595249",
" . c #5E5851",
".. c #645E41",
"X. c #665D56",
"o. c #756C4A",
"O. c #7D734D",
"+. c #6B6255",
"@. c #6D645B",
"#. c #746A50",
"$. c #786E64",
"%. c #7D7368",
"&. c #95592D",
"*. c #995C2F",
"=. c #8B5737",
"-. c #955E31",
";. c #995E32",
":. c #9B6434",
">. c #9E6936",
",. c #9B6238",
"<. c #9D6B3B",
"1. c #A3673C",
"2. c #895C42",
"3. c #916B4B",
"4. c #817751",
"5. c #857B53",
"6. c #A66C41",
"7. c #AC6C43",
"8. c #A46C4B",
"9. c #B06F46",
"0. c #A57444",
"q. c #AC7346",
"w. c #AD7449",
"e. c #AC7B4B",
"r. c #B27147",
"t. c #B27349",
"y. c #BA774B",
"u. c #B37C4D",
"i. c #A97954",
"p. c #B77C53",
"a. c #887B68",
"s. c #867C71",
"d. c #C47F52",
"f. c #58822E",
"g. c #53982F",
"h. c #5A8331",
"j. c #5B8633",
"k. c #638E34",
"l. c #659336",
"z. c #699839",
"x. c #6B9B39",
"c. c #719D3B",
"v. c #4DAF38",
"b. c #58B439",
"n. c #72A33C",
"m. c #76AA3E",
"M. c #6AB332",
"N. c #67B83B",
"B. c #76BB3C",
"V. c #76C137",
"C. c #52965A",
"Z. c #6E9B50",
"A. c #5DA74A",
"S. c #77AB42",
"D. c #6BB840",
"F. c #7EB243",
"G. c #79B948",
"H. c #7EBA4B",
"J. c #74AF53",
"K. c #7AAC56",
"L. c #568B65",
"P. c #7EC342",
"I. c #96CD3E",
"U. c #9CD334",
"Y. c #ADE520",
"T. c #898057",
"R. c #B7814D",
"E. c #B58353",
"W. c #B98554",
"Q. c #B9835A",
"!. c #81B744",
"~. c #85BD47",
"^. c #83BC4A",
"/. c #88BF48",
"(. c #84B455",
"). c #8E816E",
"_. c #8C8378",
"`. c #978A77",
"'. c #958979",
"]. c #9A8D79",
"[. c #C7885B",
"{. c #CB8E5E",
"}. c #C69360",
"|. c #84C046",
" X c #8CC446",
".X c #85C249",
"XX c #8AC24A",
"oX c #8FC94C",
"OX c #92CD4E",
"+X c #98D144",
"@X c #95D04F",
"#X c #90C851",
"$X c #96D150",
"%X c #98D351",
"&X c #9B8E81",
"*X c #9E9182",
"=X c #A29584",
"-X c #A99B86",
";X c #A59989",
":X c #AB9E8B",
">X c #AEA18E",
",X c #AEA393",
"<X c #B3A592",
"1X c #B6A996",
"2X c #B9AB97",
"3X c #B5AB9C",
"4X c #BAAD9A",
"5X c #BDB19C",
"6X c #BDB2A1",
"7X c #C1B49F",
"8X c #C2B5A2",
"9X c #C6B9A6",
"0X c #C8BCA8",
"qX c #CABDAA",
"wX c #CEC1AE",
"eX c #D0C3B0",
"rX c #D2C5B1",
"tX c #D7C9B5",
"yX c #D9CBB7",
"uX c #D9CCBA",
"iX c #DFD3C0",
"pX c #E7DAC6",
"aX c #EEE1CC",
"sX c #F3E5D0",
/* pixels */
"XXXXXXXXXXXXXXXXXXXXXXXXXXXXXXXXXX^.(.K.J.J.S.j.g.g.Z.z.n.m.m.m.!.~./.XXOX@X%X%X$X$XOXOXoX~.V.XXXXXXXXXX.X.XXXXXXX/./.XXXXXXXXXX",
"XXXXXXoX#XXXXXXXXXXX#XXXXXXXXXXXXXXX/.XXOXl.b m M h t r 0 2 2 % * X * i p S F J ^ ( f.k.l.g.M.m.~.~. XoX@X@XOXOX$XOXoXXXXXXXXXXX",
"XXXXXXXXXXXXXXXXXXXXXXXXXXXXXXXXXXXXXXXXF.9 8.{.[.[.Q.[.Q.Q.p.p.t 3 2.2.=.! Q B B B n n u 0 X 5 j Z G U ^ ` ) ) ( ^ S.oXXXXXXXoX",
"XXoXXXXXXXXXoXXXXXoXXXXXXXXXXXXXXXXXXXoXm.0 0.u.u.u.p.u.p.p.Q.u.r ,.[.d.d.{.{.[.{.[.[.[.u.u m i.Q.p.i.i.i.8.3.3.2.> ' $X/.XXXXXX",
"XXXXXXXXXXXXXXXXXXXXXXXXXXXXXXXXXXXX/.OXm.0 q.9.q.q.q.q.t.q.r.t.C 7.9.9.8.9.9.9.t.t.r.p.=.Q }.E.W.W.W.}.E.}.W.}.R.c h.$X/.XXXXXX",
"XXXXXXXXoXXXXXXXXXXXoXXXXXXXXXXXXXXXXXXXm.0 8.q.w.7.q.q.q.q.q.q.*.9.9.7.7.7.7.7.r.7.7.r.<.<.E.0.e.e.0.E.0.E.e.e.1.1 h.#XXXXXXXXX",
"XXoXXXXXXXXXXXXXXXXXXXXXXXXXXXXXXXXX.XoXn.0 q.w.w.7.w.7.r.q.q.q.*.9.9.7.7.9.9.7.7.7.7.t.,.<.W.e.e.e.e.u.0.e.0.e.:.c h.$X/.XXoXXX",
"XXXXXXXXXXXXXXXXXXXXXXXXXXXXXXXXXXXX.XoXn.0 w.q.w.7.q.q.w.q.q.7.&.r.9.7.1.9.7.7.9.7.7.r.,.<.W.e.e.e.0.e.0.E.e.e.:.1 ' $XXXXXXXXX",
"XXXXXXXXXXXXXXXXXXXXXXXXXXXXXXXX X X XoXc.0 w.7.q.7.q.q.q.7.q.q.&.r.9.9.7.7.7.7.7.7.7.9.,.1.W.0.e.e.e.e.e.e.e.e.>.c f.OXXXXXXXXX",
"XXXXXXXXXXXXXXXXXXXXXXXXXXXX XoXI.I.I.+Xx.0 w.q.q.q.q.7.q.q.q.q.&.t.7.7.7.7.9.7.9.7.7.9.,.<.W.e.e.e.e.e.0.e.e.e.:.1 f.OX/.XXXXXX",
"XXXXXXXXXX/./.XXXXXXXXXXXXXXXX XI.I.I.+Xx.0 q.q.r.q.q.q.r.q.r.q.&.t.7.9.7.7.9.1.9.7.7.9.,.<.W.0.e.e.e.e.e.e.e.e.>.1 _ OXXXXXXXXX",
"XXXXXXXX/.^.^.XXXXXXXXXXXXXXXX X X X/.oXx.0 w.q.q.7.q.7.q.q.q.1.&.t.7.7.7.9.7.7.9.9.7.9.,.0.W.0.e.e.e.e.e.e.e.e.>.1 _ @X/.oXXXXX",
"XXXXXXXX.X^.H.XXXX/./.XXXXXXXXXXXXXXXXoXx.0 w.q.q.7.q.q.q.q.q.q.&.9.7.7.7.9.7.7.9.7.7.9.;.7.W.e.e.0.e.e.0.e.e.e.1.1 ' $X/.XXXXoX",
"XXXX/.H.^./.^.^.H.^.^./.XXXXXXXXXXXXXXOXx.0 w.q.q.7.q.6.r.q.r.7.&.y.7.7.7.7.7.7.9.9.7.9.;.7.Q.0.e.e.e.e.e.e.e.e.:.1 ' OX/.XXXXXX",
"XXXX.X^.H./.XXH.H.^.H./.XXXXXXXXXXXX/.OXz.0 t.q.q.7.q.7.e.q.t.1.&.y.7.7.7.7.7.7.9.9.7.9.;.7.Q.0.e.e.e.e.0.R.e.e.>.1 ' OX/.oXXXXX",
"XXXXXX^./.XXXX/./.^./..XXXXXXXXXXXXX/.OXl.0 w.q.q.q.q.q.r.q.q.q.&.9.7.7.7.7.7.7.9.7.7.9.;.8.E.q.u.e.e.e.0.e.e.e.:.1 ' $X/.XXXXXX",
"XXXXXXXXXXXXXXXXXXXXXXXXXXXXXXXXXXoXXXOXl.0 t.q.q.7.q.7.q.q.q.1.&.r.7.7.7.9.7.1.r.7.7.r.:.0.E.e.e.e.e.e.0.e.e.e.>.< _ OX.XXXXXXX",
"XXXXXXXXXXXXXXXXXXXXXXXXXXXXXXXXXXXX/.OXk.0 w.7.q.7.q.q.r.q.q.7.&.9.7.7.7.7.9.7.r.7.7.r.;.0.E.0.e.e.e.e.e.e.e.e.<.1 _ @XXXXXXXoX",
"XXXXXXXXXXXXXXXXXXXXXXXXXXXXXXXXXXXXXXOXk.0 u.q.q.q.q.7.r.q.q.7.&.r.7.7.7.7.9.7.9.7.7.t.;.0.E.0.e.e.e.e.0.e.e.e.>.1 _ OXXXXXXXXX",
"XXXXXXXXXXXXXXXXXXXXXXXXXXXXXXXXXXXX/.OXk.0 w.7.q.q.r.q.e.q.7.1.&.y.7.7.7.7.7.1.9.7.7.7.:.0.E.e.e.e.e.R.0.e.e.e.>.< _ @X/.XXXXXX",
"XXXXXX#XXXXXXXXXoXXXXXoXXXXXXXXXXXXX/.OXk.3 u.9.q.q.q.q.t.q.t.1.&.y.7.7.7.7.7.7.9.7.7.r.-.0.E.0.e.e.e.e.e.e.e.e.,.< ' $X/.XXXXXX",
"XXXXXXXXXXoXXXXXXXXXXXXXXXXXXXXXXXXX/.$Xj.0 u.q.7.q.r.1.t.q.q.7.&.r.7.7.7.7.9.7.7.7.7.r.-.e.E.e.e.e.e.R.e.e.e.e.1.< ' OXXXXXXXXX",
"XXXXXXXXXXXXXXXXXXXXXXXXXXoXXXXXXXXX/.#Xj.3 w.9.q.q.q.q.t.q.q.1.*.9.7.7.7.7.7.7.9.7.7.r.-.0.E.e.e.0.e.e.0.e.e.e.>.1 ' $X/.XXoXXX",
"XXoXXXXXXXXXoXXXoXXXXXXXXXXXXXXXXXXX/.OXj.3 u.q.q.q.q.q.t.q.e.1.*.9.7.9.7.7.7.7.9.7.9.9.:.0.E.0.e.e.e.e.e.e.e.e.>., ' $XXXXXXXXX",
"XXXXXXXXXXXXXXXXoXXXXXXXXXXXXXXXXXXXXX$Xh.0 t.q.q.7.w.q.e.q.q.7.&.9.7.7.7.7.9.7.9.1.9.9.;.0.E.e.e.e.e.e.0.e.0.e.>., ' OXXXXXXXXX",
"XXXXXXXXXXXXXXXXXXXXXXXXXXXXXXXXXXXX/.#Xh.3 u.q.r.q.q.7.t.q.r.1.&.y.7.9.7.7.7.7.7.7.9.9.;.w.E.0.e.0.e.R.e.e.e.e.>.1 h.OX.XXXoXXX",
"#XXXoXXXoXXXXXXXXXXXXXXXXXXXXXXXXXXXXXOXf.3 t.q.q.q.w.q.t.q.q.7.&.9.7.7.7.7.7.7.9.7.7.9.;.e.E.0.E.0.e.e.0.e.e.e.>., h.OXXXXXXXXX",
"XXXXXXXXXXXXXXXXXXXXXXXXXX~.~.XXXXXX/.OX_ 0 t.q.q.q.q.7.t.q.q.1.;.y.7.7.7.7.7.7.7.7.9.9.-.e.E.0.e.e.0.E.0.R.e.e.>., h.OX/.XXXXXX",
"XX/.XXXXXXXXXXXXXXXXXXXXXXD.v.D.XXXX/.OX_ r t.q.r.7.q.q.t.q.q.q.*.9.7.7.7.7.7.7.9.7.7.9.:.e.E.0.e.0.e.E.0.e.e.e.1., h.OX/.XXXXXX",
"XXXXXXXXXXXXXXXXXXXXXXXXXXN.b.D.XXXX/.OX_ r r.q.q.q.q.7.r.q.t.1.*.9.1.7.7.7.7.7.7.7.7.9.-.e.R.e.e.e.e.e.e.e.e.e.>., h.OXXXXXXXXX",
"XXXXXXXXXXXXXXXXXXXXXXXXXXU.Y.U./.XX/.OX) 0 t.q.q.7.w.q.w.q.q.q.;.9.7.7.7.9.7.7.7.7.7.7.-.e.e.0.e.e.e.e.e.e.e.e.>., j.#X/.XXXXXX",
"XXXXXXXX/.XXXXXXXXXXXXXXXXU.Y.U./.XX/.OX) r w.q.q.q.q.7.t.q.q.7.;.9.7.7.7.9.7.7.7.7.7.6.-.E.E.0.E.0.e.e.0.e.e.e.:., ' $X/.XXXXoX",
"XXXX/.^.^..XXXoXXX.X XXX|.V.V.M.A.D./.#X` r w.q.q.7.q.q.q.q.q.7.1.9.7.7.7.7.7.7.7.7.7.9.-.e.E.0.e.e.e.e.0.E.e.e.>., k.oX/.XXXXXX",
"XXXX/.H.H.XXXXXXXXXXXXXX XV.M.b.v.D.XX#X` r t.w.r.q.q.q.q.7.q.0.*.9.7.7.7.7.7.7.7.7.7.7.-.u.e.e.u.e.e.e.0.E.0.e.:.8 z.OX/.XXXXXX",
"XXXXXX/.XX/.XXXXXXXXXXXX.XV.V.b.C.A.(.(.G 3 6.6.q.q.r.q.y.y.y.y.7.y.9.y.9.9.9.7.r.7.9.7.-.E.e.0.e.e.0.e.0.e.e.e.:.8 B.oX/.XXXXXX",
"XXXXXXXXXXXXXXXXXXXXXX.XXXV.M.A.L.C.(.]       . + + > r t t b b v C C Q Q =.&.&.1.1.7.7.-.Q.W.R.R.R.E.E.R.W.R.W.! 6 /.XXXXXXXXXX",
"XXXXXXXXXXXXXXXXXXXXXXXXXX~.V.^.A.H.^.5 o E E K z j h y w w 9 : : - $ @ > + . . O + % 2 > t u v b N N P N b v v $ D D.D.XX XXX/.",
"XXXXXXXXXXXXXXXXXXXXXXXXXXXXXXXX.X%XH = w W O.O.5.5.5.5.5.5.5.O.O.4.O.O.2.$.#.#...[ W E T G k h h h f e y u h o X x.v.b.XXXXXXXX",
"XXXXXXXXXXXXXXXX XXXXXXXXXXXXXXXoXn.O L w X * 9 w e y a k m L L E E W ~ ~ ..o.o.o.O.4.5.4.5.5.5.5.5.5.5.5.5.T.- Z .Xv.N.XXXXXXXX",
"oXXXXXXXXXXXXXXXXXXXXXXXXXXXXXXXXXi q E @ - 9 - * $ @ @ @ o o o o o o o o O + + ; 0 w e u k m L P I E W W [ E X n.P.v.N.XXXXXXXX",
"XXXXXXXXoXXXXXXXXXXXXXXXXXXX/.OX) @ E 9 @ k z K z M k k j j h h h h f y d e e 9 4 - $ $ $ @ @ @ o o o O o O   Z oXH.N.G. XXXXXXX",
"XXXXXXXXXXXXXXXXXXXXXXXXXXXXOXS.& M m o e z K z M M M k k k k j j j j j j j j j k z z z k k h h h h h f h 2   x.oX.XXXXXXXXXXXXX",
"XXXXXXXXXXXXXXXXXXXXXXXXXXXXOXA 2 E + ; j M K z M k M z z z k k k j j h j h h h h h h h h h h h h j j h k O p OX XXXXXXXXXXXXXXX",
"XXXXXXXXXXXXXXXXXXXXXXXXXXOXk.o Y 0 @ h K K M K M M M z z z k k k j j j h j h h h j j j h j h j j e h j e   l.oX.XXXXXXXXXXXXXXX",
"XXXXXXXX/.^./.XXXXXXXXXXXX~.6 u K X w z K K z K M M M M z z j z k j j j h h h j k e f j k j j w O O . e + p oXXXXXXXXXXXXXXXXXXX",
"XXXXXXXXXXH.H.XXXXXXXX.XOX^ - I % - k K K K K M M M M k z z M z k j j j j j z 9 o d = X $ d ; : @.*X} o   k.OXXXXXXXXXXXXXXXXXXX",
"XXXXXXXX/.H.H.XXXXXXXXoXn.@ L e o h z L K M K M M M M M M M w h M M z j j j $ $ $.4X=X@.l     x a.a.-Xl 7 oXXXXXXXXXXXXXXXXXXXXX",
"XXXXXXXXXX^.H./.XXXXXXoXi e P X w z K K K K K K M M M M M ;       @ 9 j j = s '.4X;X:X4X4X].X.s . q T $ j.OX.XXX XXXXXXXXXXXXXXX",
"XXXXXXXXXX^.H./.XX/.OX) @ E * % j K K L K K K M K K z L ; g 1X_. .g .     . +.).).].].].].<X5X4Xs.R . i XXXXXXXXXXXXXXXXXXXXXXXX",
"XXXXXXXXXXXXXXXXXXoXF.& M h . f M L K K K K K K M z L 9 s 8XtXrXtXtX6Xs.| g .   f R +.a.`.`.].*X2X<X- _ OXXXXXXXXXXXXXXXXXXXXXXX",
"XXXXXXXXXXXXXXXX/.OXS 2 P o 2 z K L T T T Y K K G L e : 3XtX1X1X3X4X9XyXtXrX4X%.V q . @ k | $.a.].R 6 XXXXXXXXXXXXXX XXXXXXXXXXX",
"XXXXXXXXXXXXXX/.OXk.O E 2 @ j K z X . : e z L Y T j = '.rX<X3X5X4X4X4X<X3X4X9XyXyXtX3X@.x : . - R @ _ OX/.XXXXXXXX XI.I.XXXXXXXX",
"oXXXXXXXXXXX/.XX~.5 k j   e M M   { X.g =     $ 4 o X.<X:X-X-X:X<X<X4X4X4X4X2X1X4X4XqXyXtXqX:X@.@ 5 XXXXXXXXXXXXXX XI.I.XXXXXXXX",
"XXXXXXXXXXXX/.OX^ * P O ; k K . l pXsXpXuX3Xs.{ 4 @ @ ; V @.s.].-X-X-X:X<X<X2X4X4X4X4X<X4X4XqXtXs ) OX/.XXXXXX XXXXX X X/.XXXX X",
"XXXXXXXXXXXXOXS.@ P 9 o h K @ = rXiXqXrXtXpXaXpXpXqX;X@.g = @ = d | %.).].>X:X:X:X<X1X4X4X4X8XX.& ~.XXXXXXXXXXXXXX.XXXXXXXXXXXXX",
"XXXXXXXXXXXXXXp y m   e M 2   3XaXqXqXqXqX9XqXqXqXuXpXsXpXuX6X_.| 4 @ $ ; V +.a.].-X:X:X:X<X<X: / @XXXXXXXXXXXXX/.XXXXXXXXXXXXXX",
"XXXXXXXXXX@X_ $ I # - M f   s.sXwXwXrXwXwXrXrXrXqXqXqXqXeXtXpXpXaXpXqX;X%.x = = : s } a.'.=XX.& ^.XXXXXXXXXXXX/. XXXXXXXXXXXXXXX",
"XXXXXX/.XXm.@ k 0 . j M   } wX8X4X5X8X9XqXqXqXrXrXrXwXwXqXqX9X9XqXeXuXpXaXaXpX3X'.X.s O = f O ( OX/.XXXX/.^.^.H.H.^.XXXXXXXXXXXX",
"XXXXXXXXOXl.p 6 X o $ o   @.&X-X>X<X2X7X5X4X7X4X8X8XqXqXqXrXwXrXeXqXqXqXqXqXwXuXpXaXpXqX,XV # !.XXXXXXXXXXH.G.G.G.G. X XXXXXXXXX",
"oXXXXXXX XoXoX~.F.x.j.( ^ A p 9 d x V | @.s.*X:X<X4X4X8X8X8X8X8X9XqXqXrXrXrXqXqXqXqXwXyXpXV ^ $XXXXXXXXXXX^.G.^.~.H.K.K.XXXXXXXX",
"XXXXXXXXXXXXXXXXoXoX@X@XOXOX/.!.c.f./ F F p p f x R } X.a.`.;X>X2X7X8X9XqXqXqXqXqXqXqXyX_.# F.XX/.XXXXXXXX^.H.^. X(.L.Z.XXXXXXXX",
"XXXXXXXXXXXXXX X/./././.^.XXXXoXoX$X@X@XOXXX~.S.l.( ^ S Z p e x V { | X.$.s.&X:X1X8XqXwXd ^ $X/.XXXXXXXXXX/.^./. X(.(.K.XXXXXX/.",
"XXXXXXXXXXXX XXXXXXXXXXXXXXXXXXXXX/./././.XXXXoXOX%X@XOXoXXX!.n.h./ F Z p 5 = - s l { x & !.XXXXXXXXXXXXXXXXXXXX/. XXXXXXXXXXXXX",
"oXXXXXXXXXXX.XG.G./.XXXXXXXXXX/.XXXXXXXXXXXXXXXX/./.~.XXXXXX XOXOX$X@XOXXX.XF.x.( F A p z.oXXXXXXXXXXXXXXX/.XXXXXXXXXXXXXXXXXXXX"
};
